%FSLAX45Y45*%
G04 Gerber Fmt 4.5, Leading zero omitted, Abs format (unit mm)*
G04 Created by KiCad (PCBNEW (6.0.1)) date 2023-03-06 20:27:35*
%MOMM*%
%LPD*%
G01*
G04 APERTURE LIST*
%TA.AperFunction,Profile*%
%ADD10C,0.100000*%
%TD*%
%ADD11C,0.200000*%
G04 APERTURE END LIST*
D10*
X4520000Y-8390000D02*
X10540332Y-8389668D01*
X4520000Y-8390000D02*
G75*
G03*
X4380000Y-8530000I332J-140332D01*
G01*
X10680332Y-8529668D02*
X10680000Y-9462218D01*
X10680000Y-9462218D02*
G75*
G03*
X10770000Y-9560000I98118J0D01*
G01*
X10680332Y-8529668D02*
G75*
G03*
X10540332Y-8389668I-140332J-332D01*
G01*
X10777782Y-10100000D02*
G75*
G03*
X10680000Y-10190000I0J-98118D01*
G01*
X4379668Y-11240332D02*
G75*
G03*
X4519668Y-11380332I140798J798D01*
G01*
X4380000Y-8530000D02*
X4379668Y-11240332D01*
X4519668Y-11380332D02*
X10680000Y-11380000D01*
X10770000Y-9560000D02*
X10970000Y-9560000D01*
X10680000Y-10190000D02*
X10680000Y-11380000D01*
X10960000Y-10100740D02*
G75*
G03*
X10970000Y-9560000I0J270462D01*
G01*
X10777782Y-10100000D02*
X10960000Y-10100740D01*
D11*
X4632287Y-11695808D02*
X4632287Y-11495808D01*
X4679906Y-11495808D01*
X4708478Y-11505332D01*
X4727525Y-11524380D01*
X4737049Y-11543427D01*
X4746573Y-11581522D01*
X4746573Y-11610094D01*
X4737049Y-11648189D01*
X4727525Y-11667237D01*
X4708478Y-11686284D01*
X4679906Y-11695808D01*
X4632287Y-11695808D01*
X4832287Y-11695808D02*
X4832287Y-11562475D01*
X4832287Y-11600570D02*
X4841811Y-11581522D01*
X4851335Y-11571999D01*
X4870382Y-11562475D01*
X4889430Y-11562475D01*
X4956097Y-11695808D02*
X4956097Y-11562475D01*
X4956097Y-11495808D02*
X4946573Y-11505332D01*
X4956097Y-11514856D01*
X4965620Y-11505332D01*
X4956097Y-11495808D01*
X4956097Y-11514856D01*
X5079906Y-11695808D02*
X5060858Y-11686284D01*
X5051335Y-11667237D01*
X5051335Y-11495808D01*
X5184668Y-11695808D02*
X5165620Y-11686284D01*
X5156097Y-11667237D01*
X5156097Y-11495808D01*
X5413239Y-11695808D02*
X5413239Y-11495808D01*
X5479906Y-11638665D01*
X5546573Y-11495808D01*
X5546573Y-11695808D01*
X5727525Y-11695808D02*
X5727525Y-11591046D01*
X5718001Y-11571999D01*
X5698954Y-11562475D01*
X5660858Y-11562475D01*
X5641811Y-11571999D01*
X5727525Y-11686284D02*
X5708477Y-11695808D01*
X5660858Y-11695808D01*
X5641811Y-11686284D01*
X5632287Y-11667237D01*
X5632287Y-11648189D01*
X5641811Y-11629141D01*
X5660858Y-11619618D01*
X5708477Y-11619618D01*
X5727525Y-11610094D01*
X5822763Y-11562475D02*
X5822763Y-11762475D01*
X5822763Y-11571999D02*
X5841811Y-11562475D01*
X5879906Y-11562475D01*
X5898954Y-11571999D01*
X5908477Y-11581522D01*
X5918001Y-11600570D01*
X5918001Y-11657713D01*
X5908477Y-11676760D01*
X5898954Y-11686284D01*
X5879906Y-11695808D01*
X5841811Y-11695808D01*
X5822763Y-11686284D01*
X6003716Y-11676760D02*
X6013239Y-11686284D01*
X6003716Y-11695808D01*
X5994192Y-11686284D01*
X6003716Y-11676760D01*
X6003716Y-11695808D01*
X6003716Y-11571999D02*
X6013239Y-11581522D01*
X6003716Y-11591046D01*
X5994192Y-11581522D01*
X6003716Y-11571999D01*
X6003716Y-11591046D01*
M02*
