%TF.GenerationSoftware,KiCad,Pcbnew,(6.0.1)*%
%TF.CreationDate,2023-03-06T20:27:36-05:00*%
%TF.ProjectId,PCBFiles_Node,50434246-696c-4657-935f-4e6f64652e6b,rev?*%
%TF.SameCoordinates,Original*%
%TF.FileFunction,Copper,L2,Bot*%
%TF.FilePolarity,Positive*%
%FSLAX46Y46*%
G04 Gerber Fmt 4.6, Leading zero omitted, Abs format (unit mm)*
G04 Created by KiCad (PCBNEW (6.0.1)) date 2023-03-06 20:27:36*
%MOMM*%
%LPD*%
G01*
G04 APERTURE LIST*
%TA.AperFunction,ComponentPad*%
%ADD10R,3.000000X3.000000*%
%TD*%
%TA.AperFunction,ComponentPad*%
%ADD11C,3.000000*%
%TD*%
%TA.AperFunction,ComponentPad*%
%ADD12C,4.400000*%
%TD*%
%TA.AperFunction,ComponentPad*%
%ADD13R,1.700000X1.700000*%
%TD*%
%TA.AperFunction,ComponentPad*%
%ADD14O,1.700000X1.700000*%
%TD*%
%TA.AperFunction,SMDPad,CuDef*%
%ADD15R,4.200000X1.350000*%
%TD*%
%TA.AperFunction,ViaPad*%
%ADD16C,0.700000*%
%TD*%
%TA.AperFunction,ViaPad*%
%ADD17C,0.800000*%
%TD*%
%TA.AperFunction,ViaPad*%
%ADD18C,0.900000*%
%TD*%
%TA.AperFunction,Conductor*%
%ADD19C,0.250000*%
%TD*%
G04 APERTURE END LIST*
D10*
%TO.P,J1,1,Pin_1*%
%TO.N,+5V*%
X48200000Y-92140000D03*
D11*
%TO.P,J1,2,Pin_2*%
%TO.N,GND*%
X48200000Y-87060000D03*
%TD*%
D12*
%TO.P,H1,1*%
%TO.N,N/C*%
X109600000Y-98300000D03*
%TD*%
D13*
%TO.P,J4,1,Pin_1*%
%TO.N,GND*%
X94240000Y-111960000D03*
D14*
%TO.P,J4,2,Pin_2*%
%TO.N,I2C1_SDA*%
X91700000Y-111960000D03*
%TO.P,J4,3,Pin_3*%
%TO.N,I2C1_SCL*%
X89160000Y-111960000D03*
%TO.P,J4,4,Pin_4*%
%TO.N,RESET_SHT31*%
X86620000Y-111960000D03*
%TO.P,J4,5,Pin_5*%
%TO.N,+3V3*%
X84080000Y-111960000D03*
%TD*%
D12*
%TO.P,H2,1*%
%TO.N,N/C*%
X47500000Y-98300000D03*
%TD*%
D13*
%TO.P,J2,1,Pin_1*%
%TO.N,SWDIO*%
X69600000Y-111575000D03*
D14*
%TO.P,J2,2,Pin_2*%
%TO.N,GND*%
X72140000Y-111575000D03*
%TO.P,J2,3,Pin_3*%
%TO.N,SWCLK*%
X74680000Y-111575000D03*
%TD*%
D15*
%TO.P,J7,2,Ext*%
%TO.N,GND*%
X104700000Y-106145000D03*
X104700000Y-111795000D03*
%TD*%
D13*
%TO.P,J5,1,Pin_1*%
%TO.N,GND*%
X54900000Y-111180000D03*
D14*
%TO.P,J5,2,Pin_2*%
%TO.N,LPUART1_TX*%
X54900000Y-108640000D03*
%TO.P,J5,3,Pin_3*%
%TO.N,LPUART1_RX*%
X54900000Y-106100000D03*
%TD*%
D13*
%TO.P,J3,1,Pin_1*%
%TO.N,V_GAS*%
X104100000Y-85600000D03*
D14*
%TO.P,J3,2,Pin_2*%
%TO.N,V_REF_IN*%
X104100000Y-88140000D03*
%TO.P,J3,3,Pin_3*%
%TO.N,unconnected-(J3-Pad3)*%
X104100000Y-90680000D03*
%TO.P,J3,4,Pin_4*%
%TO.N,unconnected-(J3-Pad4)*%
X104100000Y-93220000D03*
%TO.P,J3,5,Pin_5*%
%TO.N,unconnected-(J3-Pad5)*%
X104100000Y-95760000D03*
%TO.P,J3,6,Pin_6*%
%TO.N,GND*%
X104100000Y-98300000D03*
%TO.P,J3,7,Pin_7*%
%TO.N,unconnected-(J3-Pad7)*%
X104100000Y-100840000D03*
%TO.P,J3,8,Pin_8*%
%TO.N,Net-(D1-Pad1)*%
X104100000Y-103380000D03*
%TD*%
D16*
%TO.N,I2C1_SCL*%
X89180000Y-108510000D03*
D17*
X90660000Y-94840000D03*
X95410000Y-93800000D03*
D18*
%TO.N,GND*%
X89610000Y-89650000D03*
D16*
X61510000Y-98510000D03*
X66920000Y-85810000D03*
X73300000Y-85910000D03*
D18*
X82440000Y-95980000D03*
D16*
X80100000Y-92540000D03*
X53400000Y-90950000D03*
X57880000Y-111270000D03*
X67600000Y-87900000D03*
X56460000Y-94960000D03*
D18*
X82410000Y-108960000D03*
D16*
X65660000Y-86570000D03*
X77590000Y-93030000D03*
X75600000Y-86800000D03*
X72700000Y-105200000D03*
X52030000Y-90080000D03*
X51360000Y-100780000D03*
X72800000Y-87790000D03*
D18*
X102240000Y-99220000D03*
D16*
X65130000Y-93580000D03*
X50630000Y-87120000D03*
X61510000Y-91990000D03*
X65390000Y-111250000D03*
X97830000Y-106960000D03*
X51900000Y-88420000D03*
%TO.N,I2C1_SDA*%
X91730000Y-105880000D03*
%TO.N,NRST*%
X70600000Y-93400000D03*
D17*
X80160000Y-89740000D03*
%TO.N,Net-(D1-Pad1)*%
X81830000Y-107100000D03*
%TO.N,BATT_IND*%
X96110000Y-96880000D03*
X73000000Y-95620000D03*
%TO.N,DIO0_RFM9X*%
X77920000Y-96770000D03*
X93480000Y-98130000D03*
D16*
%TO.N,V_REF_IN*%
X66450000Y-92150000D03*
%TO.N,V_GAS*%
X60450000Y-94700000D03*
%TO.N,SWCLK*%
X76370000Y-100590000D03*
%TO.N,LPUART1_TX*%
X68550000Y-96900000D03*
%TO.N,LPUART1_RX*%
X69450000Y-94450000D03*
D17*
%TO.N,RESET_SHT31*%
X69460000Y-100320000D03*
%TD*%
D19*
%TO.N,I2C1_SCL*%
X94370000Y-94840000D02*
X95410000Y-93800000D01*
X89160000Y-108530000D02*
X89180000Y-108510000D01*
X90660000Y-94840000D02*
X94370000Y-94840000D01*
X89160000Y-111960000D02*
X89160000Y-108530000D01*
%TO.N,I2C1_SDA*%
X91700000Y-105910000D02*
X91730000Y-105880000D01*
X91700000Y-111960000D02*
X91700000Y-105910000D01*
%TO.N,NRST*%
X78900000Y-91000000D02*
X80160000Y-89740000D01*
X70600000Y-93400000D02*
X70600000Y-92200000D01*
X71650000Y-91150000D02*
X71800000Y-91000000D01*
X71800000Y-91000000D02*
X76600000Y-91000000D01*
X76600000Y-91000000D02*
X78900000Y-91000000D01*
X70600000Y-92200000D02*
X71650000Y-91150000D01*
%TO.N,Net-(D1-Pad1)*%
X90700000Y-103380000D02*
X104100000Y-103380000D01*
X81830000Y-107100000D02*
X86980000Y-107100000D01*
X86980000Y-107100000D02*
X90700000Y-103380000D01*
%TO.N,BATT_IND*%
X87660000Y-96580000D02*
X94940000Y-96580000D01*
X85570000Y-94490000D02*
X87250000Y-96170000D01*
X95810000Y-96580000D02*
X96110000Y-96880000D01*
X83840000Y-94490000D02*
X85570000Y-94490000D01*
X87250000Y-96170000D02*
X87660000Y-96580000D01*
X73000000Y-95620000D02*
X74130000Y-94490000D01*
X94940000Y-96580000D02*
X95810000Y-96580000D01*
X74130000Y-94490000D02*
X83840000Y-94490000D01*
%TO.N,DIO0_RFM9X*%
X79280000Y-98130000D02*
X77920000Y-96770000D01*
X93480000Y-98130000D02*
X79280000Y-98130000D01*
%TO.N,V_REF_IN*%
X68500000Y-90100000D02*
X66450000Y-92150000D01*
X104100000Y-88140000D02*
X103250000Y-87290000D01*
X79360000Y-87290000D02*
X76550000Y-90100000D01*
X103250000Y-87290000D02*
X79360000Y-87290000D01*
X76550000Y-90100000D02*
X68500000Y-90100000D01*
%TO.N,V_GAS*%
X60450000Y-94700000D02*
X60450000Y-88750000D01*
X64400000Y-84800000D02*
X60450000Y-88750000D01*
X80600000Y-85600000D02*
X79800000Y-84800000D01*
X79800000Y-84800000D02*
X64400000Y-84800000D01*
X104100000Y-85600000D02*
X80600000Y-85600000D01*
%TO.N,SWCLK*%
X74680000Y-111575000D02*
X74680000Y-102280000D01*
X74680000Y-102280000D02*
X76370000Y-100590000D01*
%TO.N,LPUART1_TX*%
X54900000Y-108640000D02*
X56810000Y-108640000D01*
X56810000Y-108640000D02*
X68550000Y-96900000D01*
%TO.N,LPUART1_RX*%
X57300000Y-106100000D02*
X68950000Y-94450000D01*
X54900000Y-106100000D02*
X57300000Y-106100000D01*
X68950000Y-94450000D02*
X69450000Y-94450000D01*
%TO.N,RESET_SHT31*%
X84210000Y-110050000D02*
X80440000Y-110050000D01*
X69460000Y-99560000D02*
X69460000Y-100320000D01*
X84710000Y-110050000D02*
X84210000Y-110050000D01*
X76780000Y-98290000D02*
X70730000Y-98290000D01*
X78360000Y-100100000D02*
X78360000Y-99870000D01*
X69750000Y-99270000D02*
X69460000Y-99560000D01*
X86620000Y-111960000D02*
X84710000Y-110050000D01*
X80440000Y-110050000D02*
X78360000Y-107970000D01*
X78360000Y-107970000D02*
X78360000Y-100100000D01*
X78360000Y-99870000D02*
X76780000Y-98290000D01*
X70730000Y-98290000D02*
X69750000Y-99270000D01*
%TD*%
%TA.AperFunction,Conductor*%
%TO.N,GND*%
G36*
X73642121Y-85453502D02*
G01*
X73688614Y-85507158D01*
X73700000Y-85559500D01*
X73700000Y-86274000D01*
X73679998Y-86342121D01*
X73626342Y-86388614D01*
X73574000Y-86400000D01*
X72100000Y-86400000D01*
X72100000Y-88574000D01*
X72079998Y-88642121D01*
X72026342Y-88688614D01*
X71974000Y-88700000D01*
X68226000Y-88700000D01*
X68157879Y-88679998D01*
X68111386Y-88626342D01*
X68100000Y-88574000D01*
X68100000Y-86500000D01*
X67426000Y-86500000D01*
X67357879Y-86479998D01*
X67311386Y-86426342D01*
X67300000Y-86374000D01*
X67300000Y-86100000D01*
X66726000Y-86100000D01*
X66657879Y-86079998D01*
X66611386Y-86026342D01*
X66600000Y-85974000D01*
X66600000Y-85559500D01*
X66620002Y-85491379D01*
X66673658Y-85444886D01*
X66726000Y-85433500D01*
X73574000Y-85433500D01*
X73642121Y-85453502D01*
G37*
%TD.AperFunction*%
%TD*%
%TA.AperFunction,Conductor*%
%TO.N,GND*%
G36*
X74200000Y-86300000D02*
G01*
X73400000Y-86300000D01*
X73400000Y-85600000D01*
X74200000Y-85600000D01*
X74200000Y-86300000D01*
G37*
%TD.AperFunction*%
%TD*%
%TA.AperFunction,Conductor*%
%TO.N,GND*%
G36*
X63661035Y-84426984D02*
G01*
X63707531Y-84480637D01*
X63717638Y-84550911D01*
X63688149Y-84615493D01*
X63682016Y-84622080D01*
X61809649Y-86494446D01*
X60057747Y-88246348D01*
X60049461Y-88253888D01*
X60042982Y-88258000D01*
X60037557Y-88263777D01*
X59996357Y-88307651D01*
X59993602Y-88310493D01*
X59973865Y-88330230D01*
X59971385Y-88333427D01*
X59963682Y-88342447D01*
X59933414Y-88374679D01*
X59929595Y-88381625D01*
X59929593Y-88381628D01*
X59923652Y-88392434D01*
X59912801Y-88408953D01*
X59900386Y-88424959D01*
X59897241Y-88432228D01*
X59897238Y-88432232D01*
X59882826Y-88465537D01*
X59877609Y-88476187D01*
X59856305Y-88514940D01*
X59854334Y-88522615D01*
X59854334Y-88522616D01*
X59851267Y-88534562D01*
X59844863Y-88553266D01*
X59836819Y-88571855D01*
X59835580Y-88579678D01*
X59835577Y-88579688D01*
X59829901Y-88615524D01*
X59827495Y-88627144D01*
X59818472Y-88662289D01*
X59816500Y-88669970D01*
X59816500Y-88690224D01*
X59814949Y-88709934D01*
X59811780Y-88729943D01*
X59812526Y-88737835D01*
X59815941Y-88773961D01*
X59816500Y-88785819D01*
X59816500Y-94072198D01*
X59796498Y-94140319D01*
X59784137Y-94156508D01*
X59775550Y-94166045D01*
X59757134Y-94186498D01*
X59751633Y-94192607D01*
X59748330Y-94198328D01*
X59681529Y-94314031D01*
X59661401Y-94348893D01*
X59605635Y-94520525D01*
X59586771Y-94700000D01*
X59587461Y-94706565D01*
X59602261Y-94847370D01*
X59605635Y-94879475D01*
X59607675Y-94885753D01*
X59607675Y-94885754D01*
X59638825Y-94981625D01*
X59661401Y-95051107D01*
X59664704Y-95056829D01*
X59664705Y-95056830D01*
X59677013Y-95078148D01*
X59751633Y-95207393D01*
X59756051Y-95212300D01*
X59756052Y-95212301D01*
X59805197Y-95266882D01*
X59872387Y-95341504D01*
X59877729Y-95345385D01*
X59877731Y-95345387D01*
X60010977Y-95442196D01*
X60018385Y-95447578D01*
X60024413Y-95450262D01*
X60024415Y-95450263D01*
X60177217Y-95518295D01*
X60183248Y-95520980D01*
X60260316Y-95537361D01*
X60353311Y-95557128D01*
X60353315Y-95557128D01*
X60359768Y-95558500D01*
X60540232Y-95558500D01*
X60546685Y-95557128D01*
X60546689Y-95557128D01*
X60639684Y-95537361D01*
X60716752Y-95520980D01*
X60722783Y-95518295D01*
X60875585Y-95450263D01*
X60875587Y-95450262D01*
X60881615Y-95447578D01*
X60889023Y-95442196D01*
X61022269Y-95345387D01*
X61022271Y-95345385D01*
X61027613Y-95341504D01*
X61094803Y-95266882D01*
X61143948Y-95212301D01*
X61143949Y-95212300D01*
X61148367Y-95207393D01*
X61222987Y-95078148D01*
X61235295Y-95056830D01*
X61235296Y-95056829D01*
X61238599Y-95051107D01*
X61261175Y-94981625D01*
X61292325Y-94885754D01*
X61292325Y-94885753D01*
X61294365Y-94879475D01*
X61297740Y-94847370D01*
X61312539Y-94706565D01*
X61313229Y-94700000D01*
X61294365Y-94520525D01*
X61238599Y-94348893D01*
X61218472Y-94314031D01*
X61151670Y-94198328D01*
X61148367Y-94192607D01*
X61142867Y-94186498D01*
X61124450Y-94166045D01*
X61115864Y-94156509D01*
X61085147Y-94092501D01*
X61083500Y-94072198D01*
X61083500Y-89064594D01*
X61103502Y-88996473D01*
X61120405Y-88975499D01*
X64625499Y-85470405D01*
X64687811Y-85436379D01*
X64714594Y-85433500D01*
X65974000Y-85433500D01*
X66042121Y-85453502D01*
X66088614Y-85507158D01*
X66100000Y-85559500D01*
X66100000Y-86200000D01*
X66874000Y-86200000D01*
X66942121Y-86220002D01*
X66988614Y-86273658D01*
X67000000Y-86326000D01*
X67000000Y-87600000D01*
X67874000Y-87600000D01*
X67942121Y-87620002D01*
X67988614Y-87673658D01*
X68000000Y-87726000D01*
X68000000Y-89100000D01*
X72300000Y-89100000D01*
X72300000Y-87626000D01*
X72320002Y-87557879D01*
X72373658Y-87511386D01*
X72426000Y-87500000D01*
X73800000Y-87500000D01*
X73800000Y-85559500D01*
X73820002Y-85491379D01*
X73873658Y-85444886D01*
X73926000Y-85433500D01*
X79485405Y-85433500D01*
X79553526Y-85453502D01*
X79574501Y-85470405D01*
X80096353Y-85992258D01*
X80103887Y-86000537D01*
X80108000Y-86007018D01*
X80157651Y-86053643D01*
X80160493Y-86056398D01*
X80180230Y-86076135D01*
X80183427Y-86078615D01*
X80192447Y-86086318D01*
X80224679Y-86116586D01*
X80231625Y-86120405D01*
X80231628Y-86120407D01*
X80242434Y-86126348D01*
X80258953Y-86137199D01*
X80274959Y-86149614D01*
X80282228Y-86152759D01*
X80282232Y-86152762D01*
X80315537Y-86167174D01*
X80326187Y-86172391D01*
X80364940Y-86193695D01*
X80372615Y-86195666D01*
X80372616Y-86195666D01*
X80384562Y-86198733D01*
X80403267Y-86205137D01*
X80421855Y-86213181D01*
X80429678Y-86214420D01*
X80429688Y-86214423D01*
X80465524Y-86220099D01*
X80477144Y-86222505D01*
X80512289Y-86231528D01*
X80519970Y-86233500D01*
X80540224Y-86233500D01*
X80559934Y-86235051D01*
X80579943Y-86238220D01*
X80587835Y-86237474D01*
X80623961Y-86234059D01*
X80635819Y-86233500D01*
X102615500Y-86233500D01*
X102683621Y-86253502D01*
X102730114Y-86307158D01*
X102741500Y-86359500D01*
X102741500Y-86498134D01*
X102741869Y-86501528D01*
X102743538Y-86516891D01*
X102731011Y-86586773D01*
X102682691Y-86638790D01*
X102618275Y-86656500D01*
X79438767Y-86656500D01*
X79427584Y-86655973D01*
X79420091Y-86654298D01*
X79412165Y-86654547D01*
X79412164Y-86654547D01*
X79352014Y-86656438D01*
X79348055Y-86656500D01*
X79320144Y-86656500D01*
X79316210Y-86656997D01*
X79316209Y-86656997D01*
X79316144Y-86657005D01*
X79304307Y-86657938D01*
X79272490Y-86658938D01*
X79268029Y-86659078D01*
X79260110Y-86659327D01*
X79242454Y-86664456D01*
X79240658Y-86664978D01*
X79221306Y-86668986D01*
X79214235Y-86669880D01*
X79201203Y-86671526D01*
X79193834Y-86674443D01*
X79193832Y-86674444D01*
X79160097Y-86687800D01*
X79148869Y-86691645D01*
X79106407Y-86703982D01*
X79099584Y-86708017D01*
X79099582Y-86708018D01*
X79088972Y-86714293D01*
X79071224Y-86722988D01*
X79052383Y-86730448D01*
X79045967Y-86735110D01*
X79045966Y-86735110D01*
X79016613Y-86756436D01*
X79006693Y-86762952D01*
X78975465Y-86781420D01*
X78975462Y-86781422D01*
X78968638Y-86785458D01*
X78954317Y-86799779D01*
X78939284Y-86812619D01*
X78922893Y-86824528D01*
X78917842Y-86830634D01*
X78894702Y-86858605D01*
X78886712Y-86867384D01*
X76324500Y-89429595D01*
X76262188Y-89463621D01*
X76235405Y-89466500D01*
X68578767Y-89466500D01*
X68567584Y-89465973D01*
X68560091Y-89464298D01*
X68552165Y-89464547D01*
X68552164Y-89464547D01*
X68492001Y-89466438D01*
X68488043Y-89466500D01*
X68460144Y-89466500D01*
X68456154Y-89467004D01*
X68444320Y-89467936D01*
X68400111Y-89469326D01*
X68392497Y-89471538D01*
X68392492Y-89471539D01*
X68380659Y-89474977D01*
X68361296Y-89478988D01*
X68341203Y-89481526D01*
X68333836Y-89484443D01*
X68333831Y-89484444D01*
X68300092Y-89497802D01*
X68288865Y-89501646D01*
X68246407Y-89513982D01*
X68239581Y-89518019D01*
X68228972Y-89524293D01*
X68211224Y-89532988D01*
X68192383Y-89540448D01*
X68185967Y-89545110D01*
X68185966Y-89545110D01*
X68156613Y-89566436D01*
X68146693Y-89572952D01*
X68115465Y-89591420D01*
X68115462Y-89591422D01*
X68108638Y-89595458D01*
X68094317Y-89609779D01*
X68079284Y-89622619D01*
X68062893Y-89634528D01*
X68057842Y-89640634D01*
X68034702Y-89668605D01*
X68026712Y-89677384D01*
X66449500Y-91254595D01*
X66387188Y-91288621D01*
X66372869Y-91290160D01*
X66372937Y-91290810D01*
X66366370Y-91291500D01*
X66359768Y-91291500D01*
X66353315Y-91292872D01*
X66353311Y-91292872D01*
X66271508Y-91310260D01*
X66183248Y-91329020D01*
X66177219Y-91331704D01*
X66177217Y-91331705D01*
X66024416Y-91399737D01*
X66024414Y-91399738D01*
X66018386Y-91402422D01*
X66013045Y-91406302D01*
X66013044Y-91406303D01*
X65877731Y-91504613D01*
X65877729Y-91504615D01*
X65872387Y-91508496D01*
X65867966Y-91513406D01*
X65867965Y-91513407D01*
X65759330Y-91634059D01*
X65751633Y-91642607D01*
X65661401Y-91798893D01*
X65659359Y-91805178D01*
X65620038Y-91926198D01*
X65605635Y-91970525D01*
X65604945Y-91977088D01*
X65604945Y-91977089D01*
X65587461Y-92143435D01*
X65586771Y-92150000D01*
X65587461Y-92156565D01*
X65594851Y-92226870D01*
X65605635Y-92329475D01*
X65607675Y-92335753D01*
X65607675Y-92335754D01*
X65624741Y-92388277D01*
X65661401Y-92501107D01*
X65751633Y-92657393D01*
X65872387Y-92791504D01*
X65877729Y-92795385D01*
X65877731Y-92795387D01*
X66013043Y-92893697D01*
X66018385Y-92897578D01*
X66024413Y-92900262D01*
X66024415Y-92900263D01*
X66093914Y-92931206D01*
X66183248Y-92970980D01*
X66271508Y-92989740D01*
X66353311Y-93007128D01*
X66353315Y-93007128D01*
X66359768Y-93008500D01*
X66540232Y-93008500D01*
X66546685Y-93007128D01*
X66546689Y-93007128D01*
X66628492Y-92989740D01*
X66716752Y-92970980D01*
X66806086Y-92931206D01*
X66875585Y-92900263D01*
X66875587Y-92900262D01*
X66881615Y-92897578D01*
X66886957Y-92893697D01*
X67022269Y-92795387D01*
X67022271Y-92795385D01*
X67027613Y-92791504D01*
X67148367Y-92657393D01*
X67238599Y-92501107D01*
X67275259Y-92388277D01*
X67292325Y-92335754D01*
X67292325Y-92335753D01*
X67294365Y-92329475D01*
X67304727Y-92230887D01*
X67331740Y-92165230D01*
X67340942Y-92154962D01*
X68725500Y-90770405D01*
X68787812Y-90736379D01*
X68814595Y-90733500D01*
X70866405Y-90733500D01*
X70934526Y-90753502D01*
X70981019Y-90807158D01*
X70991123Y-90877432D01*
X70961629Y-90942012D01*
X70955500Y-90948595D01*
X70207747Y-91696348D01*
X70199461Y-91703888D01*
X70192982Y-91708000D01*
X70187557Y-91713777D01*
X70146357Y-91757651D01*
X70143602Y-91760493D01*
X70123865Y-91780230D01*
X70121385Y-91783427D01*
X70113682Y-91792447D01*
X70083414Y-91824679D01*
X70079595Y-91831625D01*
X70079593Y-91831628D01*
X70073652Y-91842434D01*
X70062801Y-91858953D01*
X70050386Y-91874959D01*
X70047241Y-91882228D01*
X70047238Y-91882232D01*
X70032826Y-91915537D01*
X70027609Y-91926187D01*
X70006305Y-91964940D01*
X70004334Y-91972615D01*
X70004334Y-91972616D01*
X70001267Y-91984562D01*
X69994863Y-92003266D01*
X69986819Y-92021855D01*
X69985580Y-92029678D01*
X69985577Y-92029688D01*
X69979901Y-92065524D01*
X69977495Y-92077144D01*
X69968472Y-92112289D01*
X69966500Y-92119970D01*
X69966500Y-92140224D01*
X69964949Y-92159934D01*
X69961780Y-92179943D01*
X69962526Y-92187835D01*
X69965941Y-92223961D01*
X69966500Y-92235819D01*
X69966500Y-92772198D01*
X69946498Y-92840319D01*
X69934137Y-92856508D01*
X69901633Y-92892607D01*
X69898330Y-92898328D01*
X69836052Y-93006197D01*
X69811401Y-93048893D01*
X69755635Y-93220525D01*
X69736771Y-93400000D01*
X69737461Y-93406565D01*
X69743722Y-93466131D01*
X69730950Y-93535969D01*
X69682449Y-93587816D01*
X69613616Y-93605211D01*
X69592216Y-93602549D01*
X69556895Y-93595042D01*
X69540232Y-93591500D01*
X69359768Y-93591500D01*
X69353315Y-93592872D01*
X69353311Y-93592872D01*
X69272392Y-93610072D01*
X69183248Y-93629020D01*
X69177219Y-93631704D01*
X69177217Y-93631705D01*
X69024416Y-93699737D01*
X69024414Y-93699738D01*
X69018386Y-93702422D01*
X69013045Y-93706302D01*
X69013044Y-93706303D01*
X68880180Y-93802834D01*
X68841274Y-93821894D01*
X68830663Y-93824977D01*
X68811300Y-93828987D01*
X68799070Y-93830532D01*
X68799069Y-93830532D01*
X68791203Y-93831526D01*
X68783832Y-93834445D01*
X68783830Y-93834445D01*
X68750088Y-93847804D01*
X68738858Y-93851649D01*
X68704017Y-93861771D01*
X68704016Y-93861771D01*
X68696407Y-93863982D01*
X68689588Y-93868015D01*
X68689583Y-93868017D01*
X68678972Y-93874293D01*
X68661224Y-93882988D01*
X68642383Y-93890448D01*
X68635967Y-93895110D01*
X68635966Y-93895110D01*
X68606613Y-93916436D01*
X68596693Y-93922952D01*
X68565465Y-93941420D01*
X68565462Y-93941422D01*
X68558638Y-93945458D01*
X68544317Y-93959779D01*
X68529284Y-93972619D01*
X68512893Y-93984528D01*
X68507842Y-93990634D01*
X68484702Y-94018605D01*
X68476712Y-94027384D01*
X57074500Y-105429595D01*
X57012188Y-105463621D01*
X56985405Y-105466500D01*
X56176805Y-105466500D01*
X56108684Y-105446498D01*
X56071013Y-105408940D01*
X55982822Y-105272617D01*
X55982820Y-105272614D01*
X55980014Y-105268277D01*
X55829670Y-105103051D01*
X55825619Y-105099852D01*
X55825615Y-105099848D01*
X55658414Y-104967800D01*
X55658410Y-104967798D01*
X55654359Y-104964598D01*
X55458789Y-104856638D01*
X55453920Y-104854914D01*
X55453916Y-104854912D01*
X55253087Y-104783795D01*
X55253083Y-104783794D01*
X55248212Y-104782069D01*
X55243119Y-104781162D01*
X55243116Y-104781161D01*
X55033373Y-104743800D01*
X55033367Y-104743799D01*
X55028284Y-104742894D01*
X54954452Y-104741992D01*
X54810081Y-104740228D01*
X54810079Y-104740228D01*
X54804911Y-104740165D01*
X54584091Y-104773955D01*
X54371756Y-104843357D01*
X54173607Y-104946507D01*
X54169474Y-104949610D01*
X54169471Y-104949612D01*
X54020177Y-105061705D01*
X53994965Y-105080635D01*
X53840629Y-105242138D01*
X53714743Y-105426680D01*
X53620688Y-105629305D01*
X53560989Y-105844570D01*
X53537251Y-106066695D01*
X53550110Y-106289715D01*
X53551247Y-106294761D01*
X53551248Y-106294767D01*
X53555304Y-106312763D01*
X53599222Y-106507639D01*
X53683266Y-106714616D01*
X53702816Y-106746518D01*
X53777144Y-106867811D01*
X53799987Y-106905088D01*
X53946250Y-107073938D01*
X54118126Y-107216632D01*
X54188595Y-107257811D01*
X54191445Y-107259476D01*
X54240169Y-107311114D01*
X54253240Y-107380897D01*
X54226509Y-107446669D01*
X54186055Y-107480027D01*
X54173607Y-107486507D01*
X54169474Y-107489610D01*
X54169471Y-107489612D01*
X53999100Y-107617530D01*
X53994965Y-107620635D01*
X53950652Y-107667006D01*
X53887584Y-107733003D01*
X53840629Y-107782138D01*
X53837715Y-107786410D01*
X53837714Y-107786411D01*
X53768935Y-107887237D01*
X53714743Y-107966680D01*
X53670511Y-108061970D01*
X53628178Y-108153170D01*
X53620688Y-108169305D01*
X53560989Y-108384570D01*
X53537251Y-108606695D01*
X53537548Y-108611848D01*
X53537548Y-108611851D01*
X53542024Y-108689475D01*
X53550110Y-108829715D01*
X53551247Y-108834761D01*
X53551248Y-108834767D01*
X53558474Y-108866830D01*
X53599222Y-109047639D01*
X53659014Y-109194890D01*
X53676662Y-109238351D01*
X53683266Y-109254616D01*
X53702816Y-109286518D01*
X53794920Y-109436819D01*
X53799987Y-109445088D01*
X53803367Y-109448990D01*
X53813009Y-109460121D01*
X53946250Y-109613938D01*
X53950225Y-109617238D01*
X53950231Y-109617244D01*
X53955425Y-109621556D01*
X53995059Y-109680460D01*
X53996555Y-109751441D01*
X53959439Y-109811962D01*
X53919168Y-109836480D01*
X53811946Y-109876676D01*
X53796351Y-109885214D01*
X53694276Y-109961715D01*
X53681715Y-109974276D01*
X53605214Y-110076351D01*
X53596676Y-110091946D01*
X53551522Y-110212394D01*
X53547895Y-110227649D01*
X53542369Y-110278514D01*
X53542000Y-110285328D01*
X53542000Y-110907885D01*
X53546475Y-110923124D01*
X53547865Y-110924329D01*
X53555548Y-110926000D01*
X56239884Y-110926000D01*
X56255123Y-110921525D01*
X56256328Y-110920135D01*
X56257999Y-110912452D01*
X56257999Y-110285331D01*
X56257629Y-110278510D01*
X56252105Y-110227648D01*
X56248479Y-110212396D01*
X56203324Y-110091946D01*
X56194786Y-110076351D01*
X56118285Y-109974276D01*
X56105724Y-109961715D01*
X56003649Y-109885214D01*
X55988054Y-109876676D01*
X55877813Y-109835348D01*
X55821049Y-109792706D01*
X55796349Y-109726145D01*
X55811557Y-109656796D01*
X55833104Y-109628115D01*
X55934430Y-109527144D01*
X55934440Y-109527132D01*
X55938096Y-109523489D01*
X55989993Y-109451267D01*
X56065435Y-109346277D01*
X56068453Y-109342077D01*
X56070746Y-109337437D01*
X56072446Y-109334608D01*
X56124674Y-109286518D01*
X56180451Y-109273500D01*
X56731233Y-109273500D01*
X56742416Y-109274027D01*
X56749909Y-109275702D01*
X56757835Y-109275453D01*
X56757836Y-109275453D01*
X56817986Y-109273562D01*
X56821945Y-109273500D01*
X56849856Y-109273500D01*
X56853791Y-109273003D01*
X56853856Y-109272995D01*
X56865693Y-109272062D01*
X56897951Y-109271048D01*
X56901970Y-109270922D01*
X56909889Y-109270673D01*
X56929343Y-109265021D01*
X56948700Y-109261013D01*
X56960930Y-109259468D01*
X56960931Y-109259468D01*
X56968797Y-109258474D01*
X56976168Y-109255555D01*
X56976170Y-109255555D01*
X57009912Y-109242196D01*
X57021142Y-109238351D01*
X57055983Y-109228229D01*
X57055984Y-109228229D01*
X57063593Y-109226018D01*
X57070412Y-109221985D01*
X57070417Y-109221983D01*
X57081028Y-109215707D01*
X57098776Y-109207012D01*
X57117617Y-109199552D01*
X57153387Y-109173564D01*
X57163307Y-109167048D01*
X57194535Y-109148580D01*
X57194538Y-109148578D01*
X57201362Y-109144542D01*
X57215683Y-109130221D01*
X57230717Y-109117380D01*
X57233182Y-109115589D01*
X57247107Y-109105472D01*
X57275298Y-109071395D01*
X57283288Y-109062616D01*
X68550499Y-97795405D01*
X68612811Y-97761379D01*
X68627131Y-97759840D01*
X68627063Y-97759190D01*
X68633630Y-97758500D01*
X68640232Y-97758500D01*
X68646685Y-97757128D01*
X68646689Y-97757128D01*
X68750279Y-97735109D01*
X68816752Y-97720980D01*
X68863602Y-97700121D01*
X68975585Y-97650263D01*
X68975587Y-97650262D01*
X68981615Y-97647578D01*
X69003575Y-97631623D01*
X69122269Y-97545387D01*
X69122271Y-97545385D01*
X69127613Y-97541504D01*
X69207528Y-97452749D01*
X69243948Y-97412301D01*
X69243949Y-97412300D01*
X69248367Y-97407393D01*
X69338599Y-97251107D01*
X69384082Y-97111122D01*
X69392325Y-97085754D01*
X69392325Y-97085753D01*
X69394365Y-97079475D01*
X69395369Y-97069928D01*
X69412539Y-96906565D01*
X69413229Y-96900000D01*
X69410437Y-96873435D01*
X69395055Y-96727089D01*
X69395055Y-96727088D01*
X69394365Y-96720525D01*
X69370196Y-96646138D01*
X69350862Y-96586635D01*
X69338599Y-96548893D01*
X69248367Y-96392607D01*
X69159541Y-96293955D01*
X69132035Y-96263407D01*
X69132034Y-96263406D01*
X69127613Y-96258496D01*
X69119942Y-96252922D01*
X68986957Y-96156303D01*
X68986956Y-96156302D01*
X68981615Y-96152422D01*
X68975587Y-96149738D01*
X68975585Y-96149737D01*
X68822783Y-96081705D01*
X68822781Y-96081705D01*
X68816752Y-96079020D01*
X68728492Y-96060260D01*
X68646689Y-96042872D01*
X68646685Y-96042872D01*
X68640232Y-96041500D01*
X68558595Y-96041500D01*
X68490474Y-96021498D01*
X68443981Y-95967842D01*
X68433877Y-95897568D01*
X68463371Y-95832988D01*
X68469500Y-95826405D01*
X68675905Y-95620000D01*
X72086496Y-95620000D01*
X72087186Y-95626565D01*
X72102088Y-95768345D01*
X72106458Y-95809928D01*
X72165473Y-95991556D01*
X72260960Y-96156944D01*
X72265378Y-96161851D01*
X72265379Y-96161852D01*
X72366388Y-96274034D01*
X72388747Y-96298866D01*
X72442814Y-96338148D01*
X72493008Y-96374616D01*
X72543248Y-96411118D01*
X72549276Y-96413802D01*
X72549278Y-96413803D01*
X72711681Y-96486109D01*
X72717712Y-96488794D01*
X72783925Y-96502868D01*
X72898056Y-96527128D01*
X72898061Y-96527128D01*
X72904513Y-96528500D01*
X73095487Y-96528500D01*
X73101939Y-96527128D01*
X73101944Y-96527128D01*
X73216075Y-96502868D01*
X73282288Y-96488794D01*
X73288319Y-96486109D01*
X73450722Y-96413803D01*
X73450724Y-96413802D01*
X73456752Y-96411118D01*
X73506993Y-96374616D01*
X73557186Y-96338148D01*
X73611253Y-96298866D01*
X73633612Y-96274034D01*
X73734621Y-96161852D01*
X73734622Y-96161851D01*
X73739040Y-96156944D01*
X73834527Y-95991556D01*
X73893542Y-95809928D01*
X73897913Y-95768345D01*
X73905140Y-95699583D01*
X73910907Y-95644706D01*
X73937920Y-95579050D01*
X73947122Y-95568782D01*
X74355499Y-95160405D01*
X74417811Y-95126379D01*
X74444594Y-95123500D01*
X85255406Y-95123500D01*
X85323527Y-95143502D01*
X85344501Y-95160405D01*
X86830230Y-96646135D01*
X86830233Y-96646137D01*
X87156343Y-96972247D01*
X87163887Y-96980537D01*
X87168000Y-96987018D01*
X87173777Y-96992443D01*
X87217667Y-97033658D01*
X87220509Y-97036413D01*
X87240231Y-97056135D01*
X87243355Y-97058558D01*
X87243359Y-97058562D01*
X87243424Y-97058612D01*
X87252445Y-97066317D01*
X87284679Y-97096586D01*
X87291627Y-97100405D01*
X87291629Y-97100407D01*
X87302432Y-97106346D01*
X87318959Y-97117202D01*
X87328698Y-97124757D01*
X87328700Y-97124758D01*
X87334960Y-97129614D01*
X87375540Y-97147174D01*
X87386188Y-97152391D01*
X87414985Y-97168222D01*
X87424940Y-97173695D01*
X87432616Y-97175666D01*
X87432619Y-97175667D01*
X87444562Y-97178733D01*
X87463267Y-97185137D01*
X87481855Y-97193181D01*
X87489678Y-97194420D01*
X87489688Y-97194423D01*
X87525524Y-97200099D01*
X87537144Y-97202505D01*
X87572289Y-97211528D01*
X87579970Y-97213500D01*
X87600224Y-97213500D01*
X87619934Y-97215051D01*
X87639943Y-97218220D01*
X87647835Y-97217474D01*
X87683961Y-97214059D01*
X87695819Y-97213500D01*
X92808034Y-97213500D01*
X92876155Y-97233502D01*
X92922648Y-97287158D01*
X92932752Y-97357432D01*
X92903258Y-97422012D01*
X92882095Y-97441436D01*
X92868747Y-97451134D01*
X92864332Y-97456037D01*
X92859420Y-97460460D01*
X92858295Y-97459211D01*
X92804986Y-97492051D01*
X92771800Y-97496500D01*
X79594595Y-97496500D01*
X79526474Y-97476498D01*
X79505500Y-97459595D01*
X78867122Y-96821217D01*
X78833096Y-96758905D01*
X78830907Y-96745292D01*
X78814232Y-96586635D01*
X78814232Y-96586633D01*
X78813542Y-96580072D01*
X78754527Y-96398444D01*
X78748324Y-96387699D01*
X78673390Y-96257911D01*
X78659040Y-96233056D01*
X78630298Y-96201134D01*
X78535675Y-96096045D01*
X78535674Y-96096044D01*
X78531253Y-96091134D01*
X78376752Y-95978882D01*
X78370724Y-95976198D01*
X78370722Y-95976197D01*
X78208319Y-95903891D01*
X78208318Y-95903891D01*
X78202288Y-95901206D01*
X78108888Y-95881353D01*
X78021944Y-95862872D01*
X78021939Y-95862872D01*
X78015487Y-95861500D01*
X77824513Y-95861500D01*
X77818061Y-95862872D01*
X77818056Y-95862872D01*
X77731112Y-95881353D01*
X77637712Y-95901206D01*
X77631682Y-95903891D01*
X77631681Y-95903891D01*
X77469278Y-95976197D01*
X77469276Y-95976198D01*
X77463248Y-95978882D01*
X77308747Y-96091134D01*
X77304326Y-96096044D01*
X77304325Y-96096045D01*
X77209703Y-96201134D01*
X77180960Y-96233056D01*
X77166610Y-96257911D01*
X77091677Y-96387699D01*
X77085473Y-96398444D01*
X77026458Y-96580072D01*
X77025768Y-96586633D01*
X77025768Y-96586635D01*
X77014897Y-96690072D01*
X77006496Y-96770000D01*
X77007186Y-96776565D01*
X77023407Y-96930896D01*
X77026458Y-96959928D01*
X77085473Y-97141556D01*
X77088776Y-97147278D01*
X77088777Y-97147279D01*
X77113461Y-97190033D01*
X77180960Y-97306944D01*
X77185378Y-97311851D01*
X77185379Y-97311852D01*
X77299609Y-97438717D01*
X77308747Y-97448866D01*
X77463248Y-97561118D01*
X77469276Y-97563802D01*
X77469278Y-97563803D01*
X77631681Y-97636109D01*
X77637712Y-97638794D01*
X77711824Y-97654547D01*
X77818056Y-97677128D01*
X77818061Y-97677128D01*
X77824513Y-97678500D01*
X77880406Y-97678500D01*
X77948527Y-97698502D01*
X77969501Y-97715405D01*
X78776343Y-98522247D01*
X78783887Y-98530537D01*
X78788000Y-98537018D01*
X78793777Y-98542443D01*
X78837667Y-98583658D01*
X78840509Y-98586413D01*
X78860230Y-98606134D01*
X78863425Y-98608612D01*
X78872447Y-98616318D01*
X78904679Y-98646586D01*
X78911628Y-98650406D01*
X78922432Y-98656346D01*
X78938956Y-98667199D01*
X78954959Y-98679613D01*
X78995543Y-98697176D01*
X79006173Y-98702383D01*
X79044940Y-98723695D01*
X79052617Y-98725666D01*
X79052622Y-98725668D01*
X79064558Y-98728732D01*
X79083266Y-98735137D01*
X79101855Y-98743181D01*
X79109680Y-98744420D01*
X79109682Y-98744421D01*
X79145519Y-98750097D01*
X79157140Y-98752504D01*
X79192289Y-98761528D01*
X79199970Y-98763500D01*
X79220231Y-98763500D01*
X79239940Y-98765051D01*
X79259943Y-98768219D01*
X79267835Y-98767473D01*
X79273062Y-98766979D01*
X79303954Y-98764059D01*
X79315811Y-98763500D01*
X92771800Y-98763500D01*
X92839921Y-98783502D01*
X92859147Y-98799843D01*
X92859420Y-98799540D01*
X92864332Y-98803963D01*
X92868747Y-98808866D01*
X93023248Y-98921118D01*
X93029276Y-98923802D01*
X93029278Y-98923803D01*
X93111488Y-98960405D01*
X93197712Y-98998794D01*
X93291112Y-99018647D01*
X93378056Y-99037128D01*
X93378061Y-99037128D01*
X93384513Y-99038500D01*
X93575487Y-99038500D01*
X93581939Y-99037128D01*
X93581944Y-99037128D01*
X93668888Y-99018647D01*
X93762288Y-98998794D01*
X93848512Y-98960405D01*
X93930722Y-98923803D01*
X93930724Y-98923802D01*
X93936752Y-98921118D01*
X94091253Y-98808866D01*
X94127852Y-98768219D01*
X94214621Y-98671852D01*
X94214622Y-98671851D01*
X94219040Y-98666944D01*
X94294053Y-98537018D01*
X94311223Y-98507279D01*
X94311224Y-98507278D01*
X94314527Y-98501556D01*
X94373542Y-98319928D01*
X94375637Y-98300000D01*
X94392814Y-98136565D01*
X94393504Y-98130000D01*
X94383433Y-98034183D01*
X94374232Y-97946635D01*
X94374232Y-97946633D01*
X94373542Y-97940072D01*
X94314527Y-97758444D01*
X94307406Y-97746109D01*
X94277314Y-97693990D01*
X94219040Y-97593056D01*
X94191752Y-97562749D01*
X94095675Y-97456045D01*
X94095674Y-97456044D01*
X94091253Y-97451134D01*
X94077905Y-97441436D01*
X94034551Y-97385213D01*
X94028476Y-97314477D01*
X94061608Y-97251685D01*
X94123428Y-97216774D01*
X94151966Y-97213500D01*
X95180755Y-97213500D01*
X95248876Y-97233502D01*
X95289874Y-97276500D01*
X95367658Y-97411226D01*
X95367661Y-97411231D01*
X95370960Y-97416944D01*
X95375378Y-97421851D01*
X95375379Y-97421852D01*
X95442592Y-97496500D01*
X95498747Y-97558866D01*
X95585084Y-97621594D01*
X95626632Y-97651780D01*
X95653248Y-97671118D01*
X95659276Y-97673802D01*
X95659278Y-97673803D01*
X95808827Y-97740386D01*
X95827712Y-97748794D01*
X95902680Y-97764729D01*
X96008056Y-97787128D01*
X96008061Y-97787128D01*
X96014513Y-97788500D01*
X96205487Y-97788500D01*
X96211939Y-97787128D01*
X96211944Y-97787128D01*
X96317320Y-97764729D01*
X96392288Y-97748794D01*
X96411173Y-97740386D01*
X96560722Y-97673803D01*
X96560724Y-97673802D01*
X96566752Y-97671118D01*
X96593369Y-97651780D01*
X96634916Y-97621594D01*
X96721253Y-97558866D01*
X96777408Y-97496500D01*
X96844621Y-97421852D01*
X96844622Y-97421851D01*
X96849040Y-97416944D01*
X96944527Y-97251556D01*
X97003542Y-97069928D01*
X97004732Y-97058612D01*
X97022814Y-96886565D01*
X97023504Y-96880000D01*
X97014836Y-96797529D01*
X97004232Y-96696635D01*
X97004232Y-96696633D01*
X97003542Y-96690072D01*
X96944527Y-96508444D01*
X96849040Y-96343056D01*
X96812748Y-96302749D01*
X96725675Y-96206045D01*
X96725674Y-96206044D01*
X96721253Y-96201134D01*
X96597833Y-96111464D01*
X96572094Y-96092763D01*
X96572093Y-96092762D01*
X96566752Y-96088882D01*
X96560724Y-96086198D01*
X96560722Y-96086197D01*
X96398319Y-96013891D01*
X96398318Y-96013891D01*
X96392288Y-96011206D01*
X96298887Y-95991353D01*
X96211944Y-95972872D01*
X96211939Y-95972872D01*
X96205487Y-95971500D01*
X96018630Y-95971500D01*
X95989324Y-95967329D01*
X95988145Y-95966819D01*
X95980317Y-95965579D01*
X95980310Y-95965577D01*
X95944476Y-95959901D01*
X95932856Y-95957495D01*
X95897711Y-95948472D01*
X95897710Y-95948472D01*
X95890030Y-95946500D01*
X95869776Y-95946500D01*
X95850065Y-95944949D01*
X95837886Y-95943020D01*
X95830057Y-95941780D01*
X95800786Y-95944547D01*
X95786039Y-95945941D01*
X95774181Y-95946500D01*
X91001176Y-95946500D01*
X90933055Y-95926498D01*
X90886562Y-95872842D01*
X90876458Y-95802568D01*
X90905952Y-95737988D01*
X90949927Y-95705393D01*
X91110722Y-95633803D01*
X91110724Y-95633802D01*
X91116752Y-95631118D01*
X91141091Y-95613435D01*
X91252705Y-95532342D01*
X91271253Y-95518866D01*
X91275668Y-95513963D01*
X91280580Y-95509540D01*
X91281705Y-95510789D01*
X91335014Y-95477949D01*
X91368200Y-95473500D01*
X94291233Y-95473500D01*
X94302416Y-95474027D01*
X94309909Y-95475702D01*
X94317835Y-95475453D01*
X94317836Y-95475453D01*
X94377986Y-95473562D01*
X94381945Y-95473500D01*
X94409856Y-95473500D01*
X94413791Y-95473003D01*
X94413856Y-95472995D01*
X94425693Y-95472062D01*
X94457951Y-95471048D01*
X94461970Y-95470922D01*
X94469889Y-95470673D01*
X94489343Y-95465021D01*
X94508700Y-95461013D01*
X94520930Y-95459468D01*
X94520931Y-95459468D01*
X94528797Y-95458474D01*
X94536168Y-95455555D01*
X94536170Y-95455555D01*
X94569912Y-95442196D01*
X94581142Y-95438351D01*
X94615983Y-95428229D01*
X94615984Y-95428229D01*
X94623593Y-95426018D01*
X94630412Y-95421985D01*
X94630417Y-95421983D01*
X94641028Y-95415707D01*
X94658776Y-95407012D01*
X94677617Y-95399552D01*
X94713387Y-95373564D01*
X94723307Y-95367048D01*
X94754535Y-95348580D01*
X94754538Y-95348578D01*
X94761362Y-95344542D01*
X94775683Y-95330221D01*
X94790717Y-95317380D01*
X94800694Y-95310131D01*
X94807107Y-95305472D01*
X94812157Y-95299368D01*
X94812162Y-95299363D01*
X94835293Y-95271402D01*
X94843283Y-95262621D01*
X95360501Y-94745404D01*
X95422813Y-94711379D01*
X95449596Y-94708500D01*
X95505487Y-94708500D01*
X95511939Y-94707128D01*
X95511944Y-94707128D01*
X95598888Y-94688647D01*
X95692288Y-94668794D01*
X95734339Y-94650072D01*
X95860722Y-94593803D01*
X95860724Y-94593802D01*
X95866752Y-94591118D01*
X95882863Y-94579413D01*
X95954880Y-94527089D01*
X96021253Y-94478866D01*
X96078294Y-94415516D01*
X96144621Y-94341852D01*
X96144622Y-94341851D01*
X96149040Y-94336944D01*
X96232515Y-94192361D01*
X96241223Y-94177279D01*
X96241224Y-94177278D01*
X96244527Y-94171556D01*
X96303542Y-93989928D01*
X96306696Y-93959925D01*
X96322814Y-93806565D01*
X96323504Y-93800000D01*
X96315286Y-93721811D01*
X96304232Y-93616635D01*
X96304232Y-93616633D01*
X96303542Y-93610072D01*
X96244527Y-93428444D01*
X96149040Y-93263056D01*
X96021253Y-93121134D01*
X95866752Y-93008882D01*
X95860724Y-93006198D01*
X95860722Y-93006197D01*
X95698319Y-92933891D01*
X95698318Y-92933891D01*
X95692288Y-92931206D01*
X95598888Y-92911353D01*
X95511944Y-92892872D01*
X95511939Y-92892872D01*
X95505487Y-92891500D01*
X95314513Y-92891500D01*
X95308061Y-92892872D01*
X95308056Y-92892872D01*
X95221112Y-92911353D01*
X95127712Y-92931206D01*
X95121682Y-92933891D01*
X95121681Y-92933891D01*
X94959278Y-93006197D01*
X94959276Y-93006198D01*
X94953248Y-93008882D01*
X94798747Y-93121134D01*
X94670960Y-93263056D01*
X94575473Y-93428444D01*
X94516458Y-93610072D01*
X94515768Y-93616633D01*
X94515768Y-93616635D01*
X94499093Y-93775292D01*
X94472080Y-93840949D01*
X94462878Y-93851218D01*
X94144499Y-94169596D01*
X94082187Y-94203621D01*
X94055404Y-94206500D01*
X91368200Y-94206500D01*
X91300079Y-94186498D01*
X91280853Y-94170157D01*
X91280580Y-94170460D01*
X91275668Y-94166037D01*
X91271253Y-94161134D01*
X91174192Y-94090615D01*
X91122094Y-94052763D01*
X91122093Y-94052762D01*
X91116752Y-94048882D01*
X91110724Y-94046198D01*
X91110722Y-94046197D01*
X90948319Y-93973891D01*
X90948318Y-93973891D01*
X90942288Y-93971206D01*
X90847551Y-93951069D01*
X90761944Y-93932872D01*
X90761939Y-93932872D01*
X90755487Y-93931500D01*
X90564513Y-93931500D01*
X90558061Y-93932872D01*
X90558056Y-93932872D01*
X90472449Y-93951069D01*
X90377712Y-93971206D01*
X90371682Y-93973891D01*
X90371681Y-93973891D01*
X90209278Y-94046197D01*
X90209276Y-94046198D01*
X90203248Y-94048882D01*
X90048747Y-94161134D01*
X90044326Y-94166044D01*
X90044325Y-94166045D01*
X89958672Y-94261173D01*
X89920960Y-94303056D01*
X89871393Y-94388909D01*
X89847026Y-94431114D01*
X89825473Y-94468444D01*
X89766458Y-94650072D01*
X89765768Y-94656633D01*
X89765768Y-94656635D01*
X89754182Y-94766870D01*
X89746496Y-94840000D01*
X89766458Y-95029928D01*
X89825473Y-95211556D01*
X89828776Y-95217278D01*
X89828777Y-95217279D01*
X89854955Y-95262621D01*
X89920960Y-95376944D01*
X89925378Y-95381851D01*
X89925379Y-95381852D01*
X90007452Y-95473003D01*
X90048747Y-95518866D01*
X90142297Y-95586834D01*
X90178910Y-95613435D01*
X90203248Y-95631118D01*
X90209276Y-95633802D01*
X90209278Y-95633803D01*
X90370073Y-95705393D01*
X90424169Y-95751373D01*
X90444818Y-95819300D01*
X90425466Y-95887608D01*
X90372255Y-95934610D01*
X90318824Y-95946500D01*
X87974595Y-95946500D01*
X87906474Y-95926498D01*
X87885499Y-95909595D01*
X87795205Y-95819300D01*
X87669770Y-95693865D01*
X87669756Y-95693852D01*
X86073652Y-94097747D01*
X86066112Y-94089461D01*
X86062000Y-94082982D01*
X86012348Y-94036356D01*
X86009507Y-94033602D01*
X85989770Y-94013865D01*
X85986573Y-94011385D01*
X85977551Y-94003680D01*
X85964116Y-93991064D01*
X85945321Y-93973414D01*
X85938375Y-93969595D01*
X85938372Y-93969593D01*
X85927566Y-93963652D01*
X85911047Y-93952801D01*
X85908814Y-93951069D01*
X85895041Y-93940386D01*
X85887772Y-93937241D01*
X85887768Y-93937238D01*
X85854463Y-93922826D01*
X85843813Y-93917609D01*
X85805060Y-93896305D01*
X85795659Y-93893891D01*
X85790654Y-93892606D01*
X85785437Y-93891267D01*
X85766734Y-93884863D01*
X85755420Y-93879967D01*
X85755419Y-93879967D01*
X85748145Y-93876819D01*
X85740322Y-93875580D01*
X85740312Y-93875577D01*
X85704476Y-93869901D01*
X85692856Y-93867495D01*
X85657711Y-93858472D01*
X85657710Y-93858472D01*
X85650030Y-93856500D01*
X85629776Y-93856500D01*
X85610065Y-93854949D01*
X85607534Y-93854548D01*
X85590057Y-93851780D01*
X85582165Y-93852526D01*
X85546039Y-93855941D01*
X85534181Y-93856500D01*
X74208763Y-93856500D01*
X74197579Y-93855973D01*
X74190091Y-93854299D01*
X74182168Y-93854548D01*
X74122033Y-93856438D01*
X74118075Y-93856500D01*
X74090144Y-93856500D01*
X74086229Y-93856995D01*
X74086225Y-93856995D01*
X74086167Y-93857003D01*
X74086138Y-93857006D01*
X74074296Y-93857939D01*
X74030110Y-93859327D01*
X74014087Y-93863982D01*
X74010658Y-93864978D01*
X73991306Y-93868986D01*
X73984235Y-93869880D01*
X73971203Y-93871526D01*
X73963834Y-93874443D01*
X73963832Y-93874444D01*
X73930097Y-93887800D01*
X73918869Y-93891645D01*
X73876407Y-93903982D01*
X73869585Y-93908016D01*
X73869579Y-93908019D01*
X73858968Y-93914294D01*
X73841218Y-93922990D01*
X73829756Y-93927528D01*
X73829751Y-93927531D01*
X73822383Y-93930448D01*
X73807281Y-93941420D01*
X73786625Y-93956427D01*
X73776707Y-93962943D01*
X73762736Y-93971206D01*
X73738637Y-93985458D01*
X73724313Y-93999782D01*
X73709281Y-94012621D01*
X73692893Y-94024528D01*
X73675637Y-94045387D01*
X73664712Y-94058593D01*
X73656722Y-94067373D01*
X73049500Y-94674595D01*
X72987188Y-94708621D01*
X72960405Y-94711500D01*
X72904513Y-94711500D01*
X72898061Y-94712872D01*
X72898056Y-94712872D01*
X72811113Y-94731353D01*
X72717712Y-94751206D01*
X72711682Y-94753891D01*
X72711681Y-94753891D01*
X72549278Y-94826197D01*
X72549276Y-94826198D01*
X72543248Y-94828882D01*
X72537907Y-94832762D01*
X72537906Y-94832763D01*
X72516733Y-94848146D01*
X72388747Y-94941134D01*
X72384326Y-94946044D01*
X72384325Y-94946045D01*
X72308797Y-95029928D01*
X72260960Y-95083056D01*
X72202686Y-95183990D01*
X72180622Y-95222206D01*
X72165473Y-95248444D01*
X72106458Y-95430072D01*
X72105768Y-95436633D01*
X72105768Y-95436635D01*
X72101887Y-95473562D01*
X72086496Y-95620000D01*
X68675905Y-95620000D01*
X69012465Y-95283440D01*
X69074777Y-95249414D01*
X69145592Y-95254479D01*
X69152808Y-95257428D01*
X69177213Y-95268294D01*
X69177221Y-95268297D01*
X69183248Y-95270980D01*
X69271508Y-95289740D01*
X69353311Y-95307128D01*
X69353315Y-95307128D01*
X69359768Y-95308500D01*
X69540232Y-95308500D01*
X69546685Y-95307128D01*
X69546689Y-95307128D01*
X69628492Y-95289740D01*
X69716752Y-95270980D01*
X69722785Y-95268294D01*
X69875585Y-95200263D01*
X69875587Y-95200262D01*
X69881615Y-95197578D01*
X69979612Y-95126379D01*
X70022269Y-95095387D01*
X70022271Y-95095385D01*
X70027613Y-95091504D01*
X70148367Y-94957393D01*
X70238599Y-94801107D01*
X70294365Y-94629475D01*
X70298805Y-94587237D01*
X70312539Y-94456565D01*
X70313229Y-94450000D01*
X70306278Y-94383868D01*
X70319050Y-94314031D01*
X70367551Y-94262184D01*
X70436384Y-94244789D01*
X70457784Y-94247451D01*
X70493105Y-94254958D01*
X70509768Y-94258500D01*
X70690232Y-94258500D01*
X70696685Y-94257128D01*
X70696689Y-94257128D01*
X70778492Y-94239740D01*
X70866752Y-94220980D01*
X70872783Y-94218295D01*
X71025585Y-94150263D01*
X71025587Y-94150262D01*
X71031615Y-94147578D01*
X71036957Y-94143697D01*
X71172269Y-94045387D01*
X71172271Y-94045385D01*
X71177613Y-94041504D01*
X71215180Y-93999782D01*
X71293948Y-93912301D01*
X71293949Y-93912300D01*
X71298367Y-93907393D01*
X71388599Y-93751107D01*
X71444365Y-93579475D01*
X71463229Y-93400000D01*
X71444365Y-93220525D01*
X71388599Y-93048893D01*
X71363949Y-93006197D01*
X71301670Y-92898328D01*
X71298367Y-92892607D01*
X71265864Y-92856509D01*
X71235147Y-92792501D01*
X71233500Y-92772198D01*
X71233500Y-92514594D01*
X71253502Y-92446473D01*
X71270405Y-92425499D01*
X72025499Y-91670405D01*
X72087811Y-91636379D01*
X72114594Y-91633500D01*
X78821233Y-91633500D01*
X78832416Y-91634027D01*
X78839909Y-91635702D01*
X78847835Y-91635453D01*
X78847836Y-91635453D01*
X78907986Y-91633562D01*
X78911945Y-91633500D01*
X78939856Y-91633500D01*
X78943791Y-91633003D01*
X78943856Y-91632995D01*
X78955693Y-91632062D01*
X78987951Y-91631048D01*
X78991970Y-91630922D01*
X78999889Y-91630673D01*
X79019343Y-91625021D01*
X79038700Y-91621013D01*
X79050930Y-91619468D01*
X79050931Y-91619468D01*
X79058797Y-91618474D01*
X79066168Y-91615555D01*
X79066170Y-91615555D01*
X79099912Y-91602196D01*
X79111142Y-91598351D01*
X79145983Y-91588229D01*
X79145984Y-91588229D01*
X79153593Y-91586018D01*
X79160412Y-91581985D01*
X79160417Y-91581983D01*
X79171028Y-91575707D01*
X79188776Y-91567012D01*
X79207617Y-91559552D01*
X79243387Y-91533564D01*
X79253307Y-91527048D01*
X79284535Y-91508580D01*
X79284538Y-91508578D01*
X79291362Y-91504542D01*
X79305683Y-91490221D01*
X79320717Y-91477380D01*
X79330694Y-91470131D01*
X79337107Y-91465472D01*
X79342157Y-91459368D01*
X79342162Y-91459363D01*
X79365293Y-91431402D01*
X79373283Y-91422621D01*
X80110501Y-90685404D01*
X80172813Y-90651379D01*
X80199596Y-90648500D01*
X80255487Y-90648500D01*
X80261939Y-90647128D01*
X80261944Y-90647128D01*
X80348888Y-90628647D01*
X80442288Y-90608794D01*
X80448319Y-90606109D01*
X80610722Y-90533803D01*
X80610724Y-90533802D01*
X80616752Y-90531118D01*
X80771253Y-90418866D01*
X80820996Y-90363621D01*
X80894621Y-90281852D01*
X80894622Y-90281851D01*
X80899040Y-90276944D01*
X80994527Y-90111556D01*
X81053542Y-89929928D01*
X81073504Y-89740000D01*
X81067920Y-89686870D01*
X81054232Y-89556635D01*
X81054232Y-89556633D01*
X81053542Y-89550072D01*
X80994527Y-89368444D01*
X80984522Y-89351114D01*
X80902341Y-89208774D01*
X80899040Y-89203056D01*
X80879337Y-89181173D01*
X80775675Y-89066045D01*
X80775674Y-89066044D01*
X80771253Y-89061134D01*
X80616752Y-88948882D01*
X80610724Y-88946198D01*
X80610722Y-88946197D01*
X80448319Y-88873891D01*
X80448318Y-88873891D01*
X80442288Y-88871206D01*
X80348888Y-88851353D01*
X80261944Y-88832872D01*
X80261939Y-88832872D01*
X80255487Y-88831500D01*
X80064513Y-88831500D01*
X80058061Y-88832872D01*
X80058056Y-88832872D01*
X79971112Y-88851353D01*
X79877712Y-88871206D01*
X79871682Y-88873891D01*
X79871681Y-88873891D01*
X79709278Y-88946197D01*
X79709276Y-88946198D01*
X79703248Y-88948882D01*
X79548747Y-89061134D01*
X79544326Y-89066044D01*
X79544325Y-89066045D01*
X79440664Y-89181173D01*
X79420960Y-89203056D01*
X79417659Y-89208774D01*
X79335479Y-89351114D01*
X79325473Y-89368444D01*
X79266458Y-89550072D01*
X79254838Y-89660635D01*
X79249093Y-89715292D01*
X79222080Y-89780949D01*
X79212878Y-89791218D01*
X78674499Y-90329596D01*
X78612187Y-90363621D01*
X78585404Y-90366500D01*
X77483594Y-90366500D01*
X77415473Y-90346498D01*
X77368980Y-90292842D01*
X77358876Y-90222568D01*
X77388370Y-90157988D01*
X77394499Y-90151405D01*
X78428665Y-89117240D01*
X79585500Y-87960405D01*
X79647812Y-87926379D01*
X79674595Y-87923500D01*
X102616646Y-87923500D01*
X102684767Y-87943502D01*
X102731260Y-87997158D01*
X102741932Y-88062891D01*
X102740028Y-88080713D01*
X102737251Y-88106695D01*
X102737548Y-88111848D01*
X102737548Y-88111851D01*
X102743011Y-88206590D01*
X102750110Y-88329715D01*
X102751247Y-88334761D01*
X102751248Y-88334767D01*
X102773392Y-88433023D01*
X102799222Y-88547639D01*
X102883266Y-88754616D01*
X102885965Y-88759020D01*
X102956358Y-88873891D01*
X102999987Y-88945088D01*
X103146250Y-89113938D01*
X103318126Y-89256632D01*
X103388595Y-89297811D01*
X103391445Y-89299476D01*
X103440169Y-89351114D01*
X103453240Y-89420897D01*
X103426509Y-89486669D01*
X103386055Y-89520027D01*
X103373607Y-89526507D01*
X103369474Y-89529610D01*
X103369471Y-89529612D01*
X103199100Y-89657530D01*
X103194965Y-89660635D01*
X103040629Y-89822138D01*
X102914743Y-90006680D01*
X102899003Y-90040590D01*
X102829935Y-90189385D01*
X102820688Y-90209305D01*
X102760989Y-90424570D01*
X102737251Y-90646695D01*
X102737548Y-90651848D01*
X102737548Y-90651851D01*
X102743011Y-90746590D01*
X102750110Y-90869715D01*
X102751247Y-90874761D01*
X102751248Y-90874767D01*
X102771119Y-90962939D01*
X102799222Y-91087639D01*
X102837461Y-91181811D01*
X102880832Y-91288621D01*
X102883266Y-91294616D01*
X102885965Y-91299020D01*
X102995264Y-91477380D01*
X102999987Y-91485088D01*
X103146250Y-91653938D01*
X103206956Y-91704337D01*
X103313088Y-91792449D01*
X103318126Y-91796632D01*
X103366123Y-91824679D01*
X103391445Y-91839476D01*
X103440169Y-91891114D01*
X103453240Y-91960897D01*
X103426509Y-92026669D01*
X103386055Y-92060027D01*
X103373607Y-92066507D01*
X103369474Y-92069610D01*
X103369471Y-92069612D01*
X103212013Y-92187835D01*
X103194965Y-92200635D01*
X103161342Y-92235819D01*
X103071843Y-92329475D01*
X103040629Y-92362138D01*
X102914743Y-92546680D01*
X102820688Y-92749305D01*
X102760989Y-92964570D01*
X102737251Y-93186695D01*
X102737548Y-93191848D01*
X102737548Y-93191851D01*
X102743011Y-93286590D01*
X102750110Y-93409715D01*
X102751247Y-93414761D01*
X102751248Y-93414767D01*
X102755747Y-93434729D01*
X102799222Y-93627639D01*
X102837461Y-93721811D01*
X102880476Y-93827744D01*
X102883266Y-93834616D01*
X102917199Y-93889989D01*
X102993110Y-94013865D01*
X102999987Y-94025088D01*
X103146250Y-94193938D01*
X103318126Y-94336632D01*
X103349864Y-94355178D01*
X103391445Y-94379476D01*
X103440169Y-94431114D01*
X103453240Y-94500897D01*
X103426509Y-94566669D01*
X103386055Y-94600027D01*
X103373607Y-94606507D01*
X103369474Y-94609610D01*
X103369471Y-94609612D01*
X103199100Y-94737530D01*
X103194965Y-94740635D01*
X103191393Y-94744373D01*
X103092967Y-94847370D01*
X103040629Y-94902138D01*
X103037715Y-94906410D01*
X103037714Y-94906411D01*
X103014028Y-94941134D01*
X102914743Y-95086680D01*
X102888367Y-95143502D01*
X102836738Y-95254729D01*
X102820688Y-95289305D01*
X102760989Y-95504570D01*
X102737251Y-95726695D01*
X102737548Y-95731848D01*
X102737548Y-95731851D01*
X102747103Y-95897568D01*
X102750110Y-95949715D01*
X102751247Y-95954761D01*
X102751248Y-95954767D01*
X102763968Y-96011206D01*
X102799222Y-96167639D01*
X102883266Y-96374616D01*
X102907280Y-96413803D01*
X102990063Y-96548893D01*
X102999987Y-96565088D01*
X103146250Y-96733938D01*
X103318126Y-96876632D01*
X103391955Y-96919774D01*
X103440679Y-96971412D01*
X103453750Y-97041195D01*
X103427019Y-97106967D01*
X103386562Y-97140327D01*
X103378457Y-97144546D01*
X103369738Y-97150036D01*
X103199433Y-97277905D01*
X103191726Y-97284748D01*
X103044590Y-97438717D01*
X103038104Y-97446727D01*
X102918098Y-97622649D01*
X102913000Y-97631623D01*
X102823338Y-97824783D01*
X102819775Y-97834470D01*
X102764389Y-98034183D01*
X102765912Y-98042607D01*
X102778292Y-98046000D01*
X105418344Y-98046000D01*
X105431875Y-98042027D01*
X105433180Y-98032947D01*
X105391214Y-97865875D01*
X105387894Y-97856124D01*
X105302972Y-97660814D01*
X105298105Y-97651739D01*
X105182426Y-97472926D01*
X105176136Y-97464757D01*
X105032806Y-97307240D01*
X105025273Y-97300215D01*
X104858139Y-97168222D01*
X104849556Y-97162520D01*
X104812602Y-97142120D01*
X104762631Y-97091687D01*
X104747859Y-97022245D01*
X104772975Y-96955839D01*
X104800327Y-96929232D01*
X104869348Y-96880000D01*
X104979860Y-96801173D01*
X104995162Y-96785925D01*
X105134435Y-96647137D01*
X105138096Y-96643489D01*
X105183666Y-96580072D01*
X105265435Y-96466277D01*
X105268453Y-96462077D01*
X105292312Y-96413803D01*
X105365136Y-96266453D01*
X105365137Y-96266451D01*
X105367430Y-96261811D01*
X105432370Y-96048069D01*
X105461529Y-95826590D01*
X105461936Y-95809928D01*
X105463074Y-95763365D01*
X105463074Y-95763361D01*
X105463156Y-95760000D01*
X105444852Y-95537361D01*
X105390431Y-95320702D01*
X105301354Y-95115840D01*
X105180014Y-94928277D01*
X105029670Y-94763051D01*
X105025619Y-94759852D01*
X105025615Y-94759848D01*
X104858414Y-94627800D01*
X104858410Y-94627798D01*
X104854359Y-94624598D01*
X104813053Y-94601796D01*
X104763084Y-94551364D01*
X104748312Y-94481921D01*
X104773428Y-94415516D01*
X104800780Y-94388909D01*
X104864904Y-94343170D01*
X104979860Y-94261173D01*
X104996302Y-94244789D01*
X105134435Y-94107137D01*
X105138096Y-94103489D01*
X105146710Y-94091502D01*
X105265435Y-93926277D01*
X105268453Y-93922077D01*
X105275711Y-93907393D01*
X105365136Y-93726453D01*
X105365137Y-93726451D01*
X105367430Y-93721811D01*
X105403665Y-93602549D01*
X105430865Y-93513023D01*
X105430865Y-93513021D01*
X105432370Y-93508069D01*
X105461529Y-93286590D01*
X105463156Y-93220000D01*
X105444852Y-92997361D01*
X105390431Y-92780702D01*
X105301354Y-92575840D01*
X105180014Y-92388277D01*
X105029670Y-92223051D01*
X105025619Y-92219852D01*
X105025615Y-92219848D01*
X104858414Y-92087800D01*
X104858410Y-92087798D01*
X104854359Y-92084598D01*
X104813053Y-92061796D01*
X104763084Y-92011364D01*
X104748312Y-91941921D01*
X104773428Y-91875516D01*
X104800780Y-91848909D01*
X104862089Y-91805178D01*
X104979860Y-91721173D01*
X105138096Y-91563489D01*
X105180403Y-91504613D01*
X105265435Y-91386277D01*
X105268453Y-91382077D01*
X105295354Y-91327648D01*
X105365136Y-91186453D01*
X105365137Y-91186451D01*
X105367430Y-91181811D01*
X105432370Y-90968069D01*
X105461529Y-90746590D01*
X105461611Y-90743240D01*
X105463074Y-90683365D01*
X105463074Y-90683361D01*
X105463156Y-90680000D01*
X105444852Y-90457361D01*
X105390431Y-90240702D01*
X105301354Y-90035840D01*
X105236898Y-89936206D01*
X105182822Y-89852617D01*
X105182820Y-89852614D01*
X105180014Y-89848277D01*
X105029670Y-89683051D01*
X105025619Y-89679852D01*
X105025615Y-89679848D01*
X104858414Y-89547800D01*
X104858410Y-89547798D01*
X104854359Y-89544598D01*
X104813053Y-89521796D01*
X104763084Y-89471364D01*
X104748312Y-89401921D01*
X104773428Y-89335516D01*
X104800780Y-89308909D01*
X104844603Y-89277650D01*
X104979860Y-89181173D01*
X105138096Y-89023489D01*
X105177500Y-88968653D01*
X105265435Y-88846277D01*
X105268453Y-88842077D01*
X105273003Y-88832872D01*
X105365136Y-88646453D01*
X105365137Y-88646451D01*
X105367430Y-88641811D01*
X105403644Y-88522616D01*
X105430865Y-88433023D01*
X105430865Y-88433021D01*
X105432370Y-88428069D01*
X105461529Y-88206590D01*
X105463156Y-88140000D01*
X105444852Y-87917361D01*
X105390431Y-87700702D01*
X105301354Y-87495840D01*
X105255143Y-87424408D01*
X105182822Y-87312617D01*
X105182820Y-87312614D01*
X105180014Y-87308277D01*
X105176532Y-87304450D01*
X105032798Y-87146488D01*
X105001746Y-87082642D01*
X105010141Y-87012143D01*
X105055317Y-86957375D01*
X105081761Y-86943706D01*
X105188297Y-86903767D01*
X105196705Y-86900615D01*
X105313261Y-86813261D01*
X105400615Y-86696705D01*
X105451745Y-86560316D01*
X105458500Y-86498134D01*
X105458500Y-84701866D01*
X105451745Y-84639684D01*
X105448973Y-84632288D01*
X105448971Y-84632282D01*
X105433326Y-84590550D01*
X105428143Y-84519743D01*
X105462064Y-84457374D01*
X105524320Y-84423245D01*
X105588061Y-84425801D01*
X105605697Y-84431179D01*
X105731769Y-84469626D01*
X105754507Y-84479075D01*
X105886953Y-84550020D01*
X105907413Y-84563709D01*
X106023527Y-84659059D01*
X106040941Y-84676473D01*
X106136291Y-84792587D01*
X106149980Y-84813047D01*
X106212409Y-84929595D01*
X106220924Y-84945491D01*
X106230374Y-84968231D01*
X106274199Y-85111939D01*
X106279046Y-85136084D01*
X106291280Y-85257719D01*
X106290865Y-85273766D01*
X106291569Y-85273773D01*
X106291481Y-85282753D01*
X106290121Y-85291624D01*
X106291306Y-85300522D01*
X106291306Y-85300523D01*
X106294202Y-85322267D01*
X106295305Y-85338946D01*
X106292038Y-94516638D01*
X106292019Y-94568910D01*
X106290273Y-94589765D01*
X106286929Y-94609645D01*
X106286776Y-94622184D01*
X106287466Y-94627000D01*
X106287466Y-94627007D01*
X106288356Y-94633222D01*
X106289279Y-94641713D01*
X106291298Y-94668794D01*
X106304325Y-94843570D01*
X106353465Y-95060065D01*
X106434156Y-95266882D01*
X106436487Y-95270945D01*
X106436488Y-95270948D01*
X106478702Y-95344542D01*
X106544615Y-95459452D01*
X106672794Y-95621380D01*
X106699391Y-95687206D01*
X106700000Y-95699583D01*
X106700000Y-100903648D01*
X106679998Y-100971769D01*
X106665986Y-100989756D01*
X106614765Y-101044472D01*
X106612101Y-101048336D01*
X106493090Y-101220949D01*
X106488751Y-101227242D01*
X106436693Y-101333697D01*
X106398229Y-101412352D01*
X106391225Y-101426674D01*
X106389815Y-101431138D01*
X106389813Y-101431142D01*
X106381005Y-101459020D01*
X106324342Y-101638361D01*
X106322657Y-101648990D01*
X106295524Y-101820131D01*
X106293176Y-101831514D01*
X106289726Y-101845053D01*
X106288536Y-101857536D01*
X106288825Y-101862394D01*
X106291778Y-101912042D01*
X106292000Y-101919523D01*
X106292000Y-104836000D01*
X106271998Y-104904121D01*
X106218342Y-104950614D01*
X106166000Y-104962000D01*
X104972115Y-104962000D01*
X104956876Y-104966475D01*
X104955671Y-104967865D01*
X104954000Y-104975548D01*
X104954000Y-107309884D01*
X104958475Y-107325123D01*
X104959865Y-107326328D01*
X104967548Y-107327999D01*
X106166000Y-107327999D01*
X106234121Y-107348001D01*
X106280614Y-107401657D01*
X106292000Y-107453999D01*
X106292000Y-110486000D01*
X106271998Y-110554121D01*
X106218342Y-110600614D01*
X106166000Y-110612000D01*
X104972115Y-110612000D01*
X104956876Y-110616475D01*
X104955671Y-110617865D01*
X104954000Y-110625548D01*
X104954000Y-112959884D01*
X104958475Y-112975123D01*
X104959865Y-112976328D01*
X104967548Y-112977999D01*
X106166000Y-112977999D01*
X106234121Y-112998001D01*
X106280614Y-113051657D01*
X106292000Y-113103999D01*
X106292000Y-113166035D01*
X106271998Y-113234156D01*
X106218342Y-113280649D01*
X106166008Y-113292035D01*
X102459670Y-113292235D01*
X95615092Y-113292603D01*
X95546970Y-113272605D01*
X95500474Y-113218951D01*
X95490367Y-113148678D01*
X95514258Y-113091038D01*
X95534789Y-113063644D01*
X95543324Y-113048054D01*
X95588478Y-112927606D01*
X95592105Y-112912351D01*
X95597631Y-112861486D01*
X95598000Y-112854672D01*
X95598000Y-112514669D01*
X102092001Y-112514669D01*
X102092371Y-112521490D01*
X102097895Y-112572352D01*
X102101521Y-112587604D01*
X102146676Y-112708054D01*
X102155214Y-112723649D01*
X102231715Y-112825724D01*
X102244276Y-112838285D01*
X102346351Y-112914786D01*
X102361946Y-112923324D01*
X102482394Y-112968478D01*
X102497649Y-112972105D01*
X102548514Y-112977631D01*
X102555328Y-112978000D01*
X104427885Y-112978000D01*
X104443124Y-112973525D01*
X104444329Y-112972135D01*
X104446000Y-112964452D01*
X104446000Y-112067115D01*
X104441525Y-112051876D01*
X104440135Y-112050671D01*
X104432452Y-112049000D01*
X102110116Y-112049000D01*
X102094877Y-112053475D01*
X102093672Y-112054865D01*
X102092001Y-112062548D01*
X102092001Y-112514669D01*
X95598000Y-112514669D01*
X95598000Y-112232115D01*
X95593525Y-112216876D01*
X95592135Y-112215671D01*
X95584452Y-112214000D01*
X94112000Y-112214000D01*
X94043879Y-112193998D01*
X93997386Y-112140342D01*
X93986000Y-112088000D01*
X93986000Y-111687885D01*
X94494000Y-111687885D01*
X94498475Y-111703124D01*
X94499865Y-111704329D01*
X94507548Y-111706000D01*
X95579884Y-111706000D01*
X95595123Y-111701525D01*
X95596328Y-111700135D01*
X95597999Y-111692452D01*
X95597999Y-111522885D01*
X102092000Y-111522885D01*
X102096475Y-111538124D01*
X102097865Y-111539329D01*
X102105548Y-111541000D01*
X104427885Y-111541000D01*
X104443124Y-111536525D01*
X104444329Y-111535135D01*
X104446000Y-111527452D01*
X104446000Y-110630116D01*
X104441525Y-110614877D01*
X104440135Y-110613672D01*
X104432452Y-110612001D01*
X102555331Y-110612001D01*
X102548510Y-110612371D01*
X102497648Y-110617895D01*
X102482396Y-110621521D01*
X102361946Y-110666676D01*
X102346351Y-110675214D01*
X102244276Y-110751715D01*
X102231715Y-110764276D01*
X102155214Y-110866351D01*
X102146676Y-110881946D01*
X102101522Y-111002394D01*
X102097895Y-111017649D01*
X102092369Y-111068514D01*
X102092000Y-111075328D01*
X102092000Y-111522885D01*
X95597999Y-111522885D01*
X95597999Y-111065331D01*
X95597629Y-111058510D01*
X95592105Y-111007648D01*
X95588479Y-110992396D01*
X95543324Y-110871946D01*
X95534786Y-110856351D01*
X95458285Y-110754276D01*
X95445724Y-110741715D01*
X95343649Y-110665214D01*
X95328054Y-110656676D01*
X95207606Y-110611522D01*
X95192351Y-110607895D01*
X95141486Y-110602369D01*
X95134672Y-110602000D01*
X94512115Y-110602000D01*
X94496876Y-110606475D01*
X94495671Y-110607865D01*
X94494000Y-110615548D01*
X94494000Y-111687885D01*
X93986000Y-111687885D01*
X93986000Y-110620116D01*
X93981525Y-110604877D01*
X93980135Y-110603672D01*
X93972452Y-110602001D01*
X93345331Y-110602001D01*
X93338510Y-110602371D01*
X93287648Y-110607895D01*
X93272396Y-110611521D01*
X93151946Y-110656676D01*
X93136351Y-110665214D01*
X93034276Y-110741715D01*
X93021715Y-110754276D01*
X92945214Y-110856351D01*
X92936676Y-110871946D01*
X92895297Y-110982322D01*
X92852655Y-111039087D01*
X92786093Y-111063786D01*
X92716744Y-111048578D01*
X92684121Y-111022891D01*
X92633151Y-110966876D01*
X92633145Y-110966870D01*
X92629670Y-110963051D01*
X92625619Y-110959852D01*
X92625615Y-110959848D01*
X92458414Y-110827800D01*
X92458410Y-110827798D01*
X92454359Y-110824598D01*
X92449835Y-110822101D01*
X92449831Y-110822098D01*
X92398608Y-110793822D01*
X92348636Y-110743390D01*
X92333500Y-110683513D01*
X92333500Y-106864669D01*
X102092001Y-106864669D01*
X102092371Y-106871490D01*
X102097895Y-106922352D01*
X102101521Y-106937604D01*
X102146676Y-107058054D01*
X102155214Y-107073649D01*
X102231715Y-107175724D01*
X102244276Y-107188285D01*
X102346351Y-107264786D01*
X102361946Y-107273324D01*
X102482394Y-107318478D01*
X102497649Y-107322105D01*
X102548514Y-107327631D01*
X102555328Y-107328000D01*
X104427885Y-107328000D01*
X104443124Y-107323525D01*
X104444329Y-107322135D01*
X104446000Y-107314452D01*
X104446000Y-106417115D01*
X104441525Y-106401876D01*
X104440135Y-106400671D01*
X104432452Y-106399000D01*
X102110116Y-106399000D01*
X102094877Y-106403475D01*
X102093672Y-106404865D01*
X102092001Y-106412548D01*
X102092001Y-106864669D01*
X92333500Y-106864669D01*
X92333500Y-106541120D01*
X92353502Y-106472999D01*
X92365864Y-106456810D01*
X92423948Y-106392301D01*
X92423949Y-106392300D01*
X92428367Y-106387393D01*
X92518599Y-106231107D01*
X92574365Y-106059475D01*
X92593229Y-105880000D01*
X92574365Y-105700525D01*
X92552847Y-105634297D01*
X92520641Y-105535178D01*
X92518599Y-105528893D01*
X92428367Y-105372607D01*
X92330989Y-105264457D01*
X92312035Y-105243407D01*
X92312034Y-105243406D01*
X92307613Y-105238496D01*
X92277134Y-105216351D01*
X92166957Y-105136303D01*
X92166956Y-105136302D01*
X92161615Y-105132422D01*
X92155587Y-105129738D01*
X92155585Y-105129737D01*
X92002783Y-105061705D01*
X92002781Y-105061705D01*
X91996752Y-105059020D01*
X91908492Y-105040260D01*
X91826689Y-105022872D01*
X91826685Y-105022872D01*
X91820232Y-105021500D01*
X91639768Y-105021500D01*
X91633315Y-105022872D01*
X91633311Y-105022872D01*
X91551508Y-105040260D01*
X91463248Y-105059020D01*
X91457219Y-105061704D01*
X91457217Y-105061705D01*
X91304416Y-105129737D01*
X91304414Y-105129738D01*
X91298386Y-105132422D01*
X91293045Y-105136302D01*
X91293044Y-105136303D01*
X91157731Y-105234613D01*
X91157729Y-105234615D01*
X91152387Y-105238496D01*
X91147966Y-105243406D01*
X91147965Y-105243407D01*
X91129012Y-105264457D01*
X91031633Y-105372607D01*
X90941401Y-105528893D01*
X90939359Y-105535178D01*
X90907154Y-105634297D01*
X90885635Y-105700525D01*
X90866771Y-105880000D01*
X90885635Y-106059475D01*
X90941401Y-106231107D01*
X90944704Y-106236829D01*
X90944705Y-106236830D01*
X90986305Y-106308882D01*
X91031633Y-106387393D01*
X91036052Y-106392301D01*
X91039934Y-106397644D01*
X91038294Y-106398836D01*
X91064854Y-106454182D01*
X91066500Y-106474484D01*
X91066500Y-110681692D01*
X91046498Y-110749813D01*
X90998683Y-110793453D01*
X90973607Y-110806507D01*
X90969474Y-110809610D01*
X90969471Y-110809612D01*
X90801684Y-110935590D01*
X90794965Y-110940635D01*
X90640629Y-111102138D01*
X90533201Y-111259621D01*
X90478293Y-111304621D01*
X90407768Y-111312792D01*
X90344021Y-111281538D01*
X90323324Y-111257054D01*
X90242822Y-111132617D01*
X90242820Y-111132614D01*
X90240014Y-111128277D01*
X90089670Y-110963051D01*
X90085619Y-110959852D01*
X90085615Y-110959848D01*
X89918414Y-110827800D01*
X89918410Y-110827798D01*
X89914359Y-110824598D01*
X89909835Y-110822101D01*
X89909831Y-110822098D01*
X89858608Y-110793822D01*
X89808636Y-110743390D01*
X89793500Y-110683513D01*
X89793500Y-109160014D01*
X89813502Y-109091893D01*
X89825864Y-109075703D01*
X89873948Y-109022301D01*
X89873949Y-109022300D01*
X89878367Y-109017393D01*
X89968599Y-108861107D01*
X90024365Y-108689475D01*
X90043229Y-108510000D01*
X90030585Y-108389707D01*
X90025055Y-108337089D01*
X90025055Y-108337088D01*
X90024365Y-108330525D01*
X89968599Y-108158893D01*
X89878367Y-108002607D01*
X89863863Y-107986498D01*
X89762035Y-107873407D01*
X89762034Y-107873406D01*
X89757613Y-107868496D01*
X89680703Y-107812617D01*
X89616957Y-107766303D01*
X89616956Y-107766302D01*
X89611615Y-107762422D01*
X89605587Y-107759738D01*
X89605585Y-107759737D01*
X89452783Y-107691705D01*
X89452781Y-107691705D01*
X89446752Y-107689020D01*
X89343183Y-107667006D01*
X89276689Y-107652872D01*
X89276685Y-107652872D01*
X89270232Y-107651500D01*
X89089768Y-107651500D01*
X89083315Y-107652872D01*
X89083311Y-107652872D01*
X89016817Y-107667006D01*
X88913248Y-107689020D01*
X88907219Y-107691704D01*
X88907217Y-107691705D01*
X88754416Y-107759737D01*
X88754414Y-107759738D01*
X88748386Y-107762422D01*
X88743045Y-107766302D01*
X88743044Y-107766303D01*
X88607731Y-107864613D01*
X88607729Y-107864615D01*
X88602387Y-107868496D01*
X88597966Y-107873406D01*
X88597965Y-107873407D01*
X88496138Y-107986498D01*
X88481633Y-108002607D01*
X88391401Y-108158893D01*
X88335635Y-108330525D01*
X88334945Y-108337088D01*
X88334945Y-108337089D01*
X88329415Y-108389707D01*
X88316771Y-108510000D01*
X88335635Y-108689475D01*
X88391401Y-108861107D01*
X88481633Y-109017393D01*
X88486051Y-109022300D01*
X88486052Y-109022301D01*
X88494136Y-109031279D01*
X88524854Y-109095286D01*
X88526500Y-109115589D01*
X88526500Y-110681692D01*
X88506498Y-110749813D01*
X88458683Y-110793453D01*
X88433607Y-110806507D01*
X88429474Y-110809610D01*
X88429471Y-110809612D01*
X88261684Y-110935590D01*
X88254965Y-110940635D01*
X88100629Y-111102138D01*
X87993201Y-111259621D01*
X87938293Y-111304621D01*
X87867768Y-111312792D01*
X87804021Y-111281538D01*
X87783324Y-111257054D01*
X87702822Y-111132617D01*
X87702820Y-111132614D01*
X87700014Y-111128277D01*
X87549670Y-110963051D01*
X87545619Y-110959852D01*
X87545615Y-110959848D01*
X87378414Y-110827800D01*
X87378410Y-110827798D01*
X87374359Y-110824598D01*
X87369831Y-110822098D01*
X87253988Y-110758150D01*
X87178789Y-110716638D01*
X87173920Y-110714914D01*
X87173916Y-110714912D01*
X86973087Y-110643795D01*
X86973083Y-110643794D01*
X86968212Y-110642069D01*
X86963119Y-110641162D01*
X86963116Y-110641161D01*
X86753373Y-110603800D01*
X86753367Y-110603799D01*
X86748284Y-110602894D01*
X86674452Y-110601992D01*
X86530081Y-110600228D01*
X86530079Y-110600228D01*
X86524911Y-110600165D01*
X86304091Y-110633955D01*
X86291532Y-110638060D01*
X86220568Y-110640210D01*
X86163294Y-110607389D01*
X85213652Y-109657747D01*
X85206112Y-109649461D01*
X85202000Y-109642982D01*
X85152348Y-109596356D01*
X85149507Y-109593602D01*
X85129770Y-109573865D01*
X85126573Y-109571385D01*
X85117551Y-109563680D01*
X85091100Y-109538841D01*
X85085321Y-109533414D01*
X85078375Y-109529595D01*
X85078372Y-109529593D01*
X85067566Y-109523652D01*
X85051047Y-109512801D01*
X85050583Y-109512441D01*
X85035041Y-109500386D01*
X85027772Y-109497241D01*
X85027768Y-109497238D01*
X84994463Y-109482826D01*
X84983813Y-109477609D01*
X84945060Y-109456305D01*
X84925437Y-109451267D01*
X84906734Y-109444863D01*
X84895420Y-109439967D01*
X84895419Y-109439967D01*
X84888145Y-109436819D01*
X84880322Y-109435580D01*
X84880312Y-109435577D01*
X84844476Y-109429901D01*
X84832856Y-109427495D01*
X84797711Y-109418472D01*
X84797710Y-109418472D01*
X84790030Y-109416500D01*
X84769776Y-109416500D01*
X84750065Y-109414949D01*
X84737886Y-109413020D01*
X84730057Y-109411780D01*
X84722165Y-109412526D01*
X84686039Y-109415941D01*
X84674181Y-109416500D01*
X80754595Y-109416500D01*
X80686474Y-109396498D01*
X80665500Y-109379595D01*
X79030405Y-107744500D01*
X78996379Y-107682188D01*
X78993500Y-107655405D01*
X78993500Y-107100000D01*
X80916496Y-107100000D01*
X80917186Y-107106565D01*
X80934458Y-107270896D01*
X80936458Y-107289928D01*
X80995473Y-107471556D01*
X80998776Y-107477278D01*
X80998777Y-107477279D01*
X81024953Y-107522616D01*
X81090960Y-107636944D01*
X81095378Y-107641851D01*
X81095379Y-107641852D01*
X81177452Y-107733003D01*
X81218747Y-107778866D01*
X81229132Y-107786411D01*
X81342112Y-107868496D01*
X81373248Y-107891118D01*
X81379276Y-107893802D01*
X81379278Y-107893803D01*
X81503119Y-107948940D01*
X81547712Y-107968794D01*
X81641113Y-107988647D01*
X81728056Y-108007128D01*
X81728061Y-108007128D01*
X81734513Y-108008500D01*
X81925487Y-108008500D01*
X81931939Y-108007128D01*
X81931944Y-108007128D01*
X82018887Y-107988647D01*
X82112288Y-107968794D01*
X82156881Y-107948940D01*
X82280722Y-107893803D01*
X82280724Y-107893802D01*
X82286752Y-107891118D01*
X82317889Y-107868496D01*
X82430868Y-107786411D01*
X82441253Y-107778866D01*
X82445668Y-107773963D01*
X82450580Y-107769540D01*
X82451705Y-107770789D01*
X82505014Y-107737949D01*
X82538200Y-107733500D01*
X86901233Y-107733500D01*
X86912416Y-107734027D01*
X86919909Y-107735702D01*
X86927835Y-107735453D01*
X86927836Y-107735453D01*
X86987986Y-107733562D01*
X86991945Y-107733500D01*
X87019856Y-107733500D01*
X87023791Y-107733003D01*
X87023856Y-107732995D01*
X87035693Y-107732062D01*
X87067951Y-107731048D01*
X87071970Y-107730922D01*
X87079889Y-107730673D01*
X87099343Y-107725021D01*
X87118700Y-107721013D01*
X87130930Y-107719468D01*
X87130931Y-107719468D01*
X87138797Y-107718474D01*
X87146168Y-107715555D01*
X87146170Y-107715555D01*
X87179912Y-107702196D01*
X87191142Y-107698351D01*
X87225983Y-107688229D01*
X87225984Y-107688229D01*
X87233593Y-107686018D01*
X87240412Y-107681985D01*
X87240417Y-107681983D01*
X87251028Y-107675707D01*
X87268776Y-107667012D01*
X87287617Y-107659552D01*
X87296812Y-107652872D01*
X87323387Y-107633564D01*
X87333307Y-107627048D01*
X87364535Y-107608580D01*
X87364538Y-107608578D01*
X87371362Y-107604542D01*
X87385683Y-107590221D01*
X87400717Y-107577380D01*
X87410694Y-107570131D01*
X87417107Y-107565472D01*
X87445298Y-107531395D01*
X87453288Y-107522616D01*
X90925499Y-104050405D01*
X90987811Y-104016379D01*
X91014594Y-104013500D01*
X102824274Y-104013500D01*
X102892395Y-104033502D01*
X102931707Y-104073665D01*
X102999987Y-104185088D01*
X103146250Y-104353938D01*
X103318126Y-104496632D01*
X103511000Y-104609338D01*
X103719692Y-104689030D01*
X103724760Y-104690061D01*
X103724763Y-104690062D01*
X103835202Y-104712531D01*
X103897967Y-104745712D01*
X103932829Y-104807560D01*
X103928720Y-104878438D01*
X103886943Y-104935842D01*
X103820764Y-104961547D01*
X103810081Y-104962001D01*
X102555331Y-104962001D01*
X102548510Y-104962371D01*
X102497648Y-104967895D01*
X102482396Y-104971521D01*
X102361946Y-105016676D01*
X102346351Y-105025214D01*
X102244276Y-105101715D01*
X102231715Y-105114276D01*
X102155214Y-105216351D01*
X102146676Y-105231946D01*
X102101522Y-105352394D01*
X102097895Y-105367649D01*
X102092369Y-105418514D01*
X102092000Y-105425328D01*
X102092000Y-105872885D01*
X102096475Y-105888124D01*
X102097865Y-105889329D01*
X102105548Y-105891000D01*
X104427885Y-105891000D01*
X104443124Y-105886525D01*
X104444329Y-105885135D01*
X104446000Y-105877452D01*
X104446000Y-104980116D01*
X104441525Y-104964877D01*
X104440135Y-104963672D01*
X104432452Y-104962001D01*
X104410464Y-104962001D01*
X104342343Y-104941999D01*
X104295850Y-104888343D01*
X104285746Y-104818069D01*
X104315240Y-104753489D01*
X104374966Y-104715105D01*
X104380216Y-104713778D01*
X104383416Y-104713368D01*
X104476492Y-104685444D01*
X104592429Y-104650661D01*
X104592434Y-104650659D01*
X104597384Y-104649174D01*
X104797994Y-104550896D01*
X104979860Y-104421173D01*
X105138096Y-104263489D01*
X105268453Y-104082077D01*
X105272611Y-104073665D01*
X105365136Y-103886453D01*
X105365137Y-103886451D01*
X105367430Y-103881811D01*
X105432370Y-103668069D01*
X105461529Y-103446590D01*
X105463156Y-103380000D01*
X105444852Y-103157361D01*
X105390431Y-102940702D01*
X105301354Y-102735840D01*
X105180014Y-102548277D01*
X105029670Y-102383051D01*
X105025619Y-102379852D01*
X105025615Y-102379848D01*
X104858414Y-102247800D01*
X104858410Y-102247798D01*
X104854359Y-102244598D01*
X104813053Y-102221796D01*
X104763084Y-102171364D01*
X104748312Y-102101921D01*
X104773428Y-102035516D01*
X104800780Y-102008909D01*
X104868320Y-101960733D01*
X104979860Y-101881173D01*
X104997740Y-101863356D01*
X105134435Y-101727137D01*
X105138096Y-101723489D01*
X105197594Y-101640689D01*
X105265435Y-101546277D01*
X105268453Y-101542077D01*
X105278141Y-101522476D01*
X105365136Y-101346453D01*
X105365137Y-101346451D01*
X105367430Y-101341811D01*
X105432370Y-101128069D01*
X105461529Y-100906590D01*
X105463156Y-100840000D01*
X105444852Y-100617361D01*
X105390431Y-100400702D01*
X105301354Y-100195840D01*
X105254745Y-100123794D01*
X105182822Y-100012617D01*
X105182820Y-100012614D01*
X105180014Y-100008277D01*
X105029670Y-99843051D01*
X105025619Y-99839852D01*
X105025615Y-99839848D01*
X104858414Y-99707800D01*
X104858410Y-99707798D01*
X104854359Y-99704598D01*
X104812569Y-99681529D01*
X104762598Y-99631097D01*
X104747826Y-99561654D01*
X104772942Y-99495248D01*
X104800294Y-99468641D01*
X104975328Y-99343792D01*
X104983200Y-99337139D01*
X105134052Y-99186812D01*
X105140730Y-99178965D01*
X105265003Y-99006020D01*
X105270313Y-98997183D01*
X105364670Y-98806267D01*
X105368469Y-98796672D01*
X105430377Y-98592910D01*
X105432555Y-98582837D01*
X105433986Y-98571962D01*
X105431775Y-98557778D01*
X105418617Y-98554000D01*
X102783225Y-98554000D01*
X102769694Y-98557973D01*
X102768257Y-98567966D01*
X102798565Y-98702446D01*
X102801645Y-98712275D01*
X102881770Y-98909603D01*
X102886413Y-98918794D01*
X102997694Y-99100388D01*
X103003777Y-99108699D01*
X103143213Y-99269667D01*
X103150580Y-99276883D01*
X103314434Y-99412916D01*
X103322881Y-99418831D01*
X103391969Y-99459203D01*
X103440693Y-99510842D01*
X103453764Y-99580625D01*
X103427033Y-99646396D01*
X103386584Y-99679752D01*
X103373607Y-99686507D01*
X103369474Y-99689610D01*
X103369471Y-99689612D01*
X103199100Y-99817530D01*
X103194965Y-99820635D01*
X103040629Y-99982138D01*
X102914743Y-100166680D01*
X102881223Y-100238893D01*
X102843575Y-100320000D01*
X102820688Y-100369305D01*
X102760989Y-100584570D01*
X102737251Y-100806695D01*
X102737548Y-100811848D01*
X102737548Y-100811851D01*
X102745259Y-100945590D01*
X102750110Y-101029715D01*
X102751247Y-101034761D01*
X102751248Y-101034767D01*
X102768455Y-101111118D01*
X102799222Y-101247639D01*
X102837461Y-101341811D01*
X102880783Y-101448500D01*
X102883266Y-101454616D01*
X102907595Y-101494318D01*
X102995865Y-101638361D01*
X102999987Y-101645088D01*
X103146250Y-101813938D01*
X103255548Y-101904679D01*
X103296832Y-101938953D01*
X103318126Y-101956632D01*
X103384704Y-101995537D01*
X103391445Y-101999476D01*
X103440169Y-102051114D01*
X103453240Y-102120897D01*
X103426509Y-102186669D01*
X103386055Y-102220027D01*
X103373607Y-102226507D01*
X103369474Y-102229610D01*
X103369471Y-102229612D01*
X103262571Y-102309875D01*
X103194965Y-102360635D01*
X103191393Y-102364373D01*
X103056530Y-102505499D01*
X103040629Y-102522138D01*
X103037715Y-102526410D01*
X103037714Y-102526411D01*
X102925095Y-102691504D01*
X102870184Y-102736507D01*
X102821007Y-102746500D01*
X90778763Y-102746500D01*
X90767579Y-102745973D01*
X90760091Y-102744299D01*
X90752168Y-102744548D01*
X90692033Y-102746438D01*
X90688075Y-102746500D01*
X90660144Y-102746500D01*
X90656229Y-102746995D01*
X90656225Y-102746995D01*
X90656167Y-102747003D01*
X90656138Y-102747006D01*
X90644296Y-102747939D01*
X90600110Y-102749327D01*
X90582744Y-102754372D01*
X90580658Y-102754978D01*
X90561306Y-102758986D01*
X90549068Y-102760532D01*
X90549066Y-102760533D01*
X90541203Y-102761526D01*
X90500086Y-102777806D01*
X90488885Y-102781641D01*
X90446406Y-102793982D01*
X90439587Y-102798015D01*
X90439582Y-102798017D01*
X90428971Y-102804293D01*
X90411221Y-102812990D01*
X90392383Y-102820448D01*
X90385967Y-102825109D01*
X90385966Y-102825110D01*
X90356625Y-102846428D01*
X90346701Y-102852947D01*
X90315460Y-102871422D01*
X90315455Y-102871426D01*
X90308637Y-102875458D01*
X90294313Y-102889782D01*
X90279281Y-102902621D01*
X90262893Y-102914528D01*
X90245168Y-102935954D01*
X90234712Y-102948593D01*
X90226722Y-102957373D01*
X86754500Y-106429595D01*
X86692188Y-106463621D01*
X86665405Y-106466500D01*
X82538200Y-106466500D01*
X82470079Y-106446498D01*
X82450853Y-106430157D01*
X82450580Y-106430460D01*
X82445668Y-106426037D01*
X82441253Y-106421134D01*
X82286752Y-106308882D01*
X82280724Y-106306198D01*
X82280722Y-106306197D01*
X82118319Y-106233891D01*
X82118318Y-106233891D01*
X82112288Y-106231206D01*
X82018887Y-106211353D01*
X81931944Y-106192872D01*
X81931939Y-106192872D01*
X81925487Y-106191500D01*
X81734513Y-106191500D01*
X81728061Y-106192872D01*
X81728056Y-106192872D01*
X81641112Y-106211353D01*
X81547712Y-106231206D01*
X81541682Y-106233891D01*
X81541681Y-106233891D01*
X81379278Y-106306197D01*
X81379276Y-106306198D01*
X81373248Y-106308882D01*
X81218747Y-106421134D01*
X81214326Y-106426044D01*
X81214325Y-106426045D01*
X81140858Y-106507639D01*
X81090960Y-106563056D01*
X81087659Y-106568774D01*
X80999046Y-106722256D01*
X80995473Y-106728444D01*
X80936458Y-106910072D01*
X80916496Y-107100000D01*
X78993500Y-107100000D01*
X78993500Y-99948763D01*
X78994027Y-99937579D01*
X78995701Y-99930091D01*
X78993562Y-99862032D01*
X78993500Y-99858075D01*
X78993500Y-99830144D01*
X78992994Y-99826138D01*
X78992061Y-99814292D01*
X78992034Y-99813414D01*
X78990673Y-99770110D01*
X78985022Y-99750658D01*
X78981014Y-99731306D01*
X78979468Y-99719068D01*
X78979467Y-99719066D01*
X78978474Y-99711203D01*
X78962194Y-99670086D01*
X78958359Y-99658885D01*
X78946018Y-99616406D01*
X78941985Y-99609587D01*
X78941983Y-99609582D01*
X78935707Y-99598971D01*
X78927010Y-99581221D01*
X78919552Y-99562383D01*
X78893571Y-99526623D01*
X78887053Y-99516701D01*
X78868578Y-99485460D01*
X78868574Y-99485455D01*
X78864542Y-99478637D01*
X78850218Y-99464313D01*
X78837376Y-99449278D01*
X78825472Y-99432893D01*
X78791406Y-99404711D01*
X78782627Y-99396722D01*
X77283652Y-97897747D01*
X77276112Y-97889461D01*
X77272000Y-97882982D01*
X77222348Y-97836356D01*
X77219507Y-97833602D01*
X77199770Y-97813865D01*
X77196573Y-97811385D01*
X77187551Y-97803680D01*
X77169925Y-97787128D01*
X77155321Y-97773414D01*
X77148375Y-97769595D01*
X77148372Y-97769593D01*
X77137566Y-97763652D01*
X77121047Y-97752801D01*
X77112419Y-97746109D01*
X77105041Y-97740386D01*
X77097772Y-97737241D01*
X77097768Y-97737238D01*
X77064463Y-97722826D01*
X77053813Y-97717609D01*
X77015060Y-97696305D01*
X76995437Y-97691267D01*
X76976734Y-97684863D01*
X76965420Y-97679967D01*
X76965419Y-97679967D01*
X76958145Y-97676819D01*
X76950322Y-97675580D01*
X76950312Y-97675577D01*
X76914476Y-97669901D01*
X76902856Y-97667495D01*
X76867711Y-97658472D01*
X76867710Y-97658472D01*
X76860030Y-97656500D01*
X76839776Y-97656500D01*
X76820065Y-97654949D01*
X76807886Y-97653020D01*
X76800057Y-97651780D01*
X76770786Y-97654547D01*
X76756039Y-97655941D01*
X76744181Y-97656500D01*
X70808767Y-97656500D01*
X70797584Y-97655973D01*
X70790091Y-97654298D01*
X70782165Y-97654547D01*
X70782164Y-97654547D01*
X70722014Y-97656438D01*
X70718055Y-97656500D01*
X70690144Y-97656500D01*
X70686210Y-97656997D01*
X70686209Y-97656997D01*
X70686144Y-97657005D01*
X70674307Y-97657938D01*
X70642490Y-97658938D01*
X70638029Y-97659078D01*
X70630110Y-97659327D01*
X70612454Y-97664456D01*
X70610658Y-97664978D01*
X70591306Y-97668986D01*
X70584235Y-97669880D01*
X70571203Y-97671526D01*
X70563834Y-97674443D01*
X70563832Y-97674444D01*
X70530097Y-97687800D01*
X70518869Y-97691645D01*
X70476407Y-97703982D01*
X70469585Y-97708016D01*
X70469579Y-97708019D01*
X70458968Y-97714294D01*
X70441218Y-97722990D01*
X70429756Y-97727528D01*
X70429751Y-97727531D01*
X70422383Y-97730448D01*
X70404970Y-97743099D01*
X70386625Y-97756427D01*
X70376707Y-97762943D01*
X70365463Y-97769593D01*
X70338637Y-97785458D01*
X70324313Y-97799782D01*
X70309281Y-97812621D01*
X70292893Y-97824528D01*
X70264712Y-97858593D01*
X70256722Y-97867373D01*
X69067747Y-99056348D01*
X69059461Y-99063888D01*
X69052982Y-99068000D01*
X69047557Y-99073777D01*
X69006356Y-99117652D01*
X69003601Y-99120494D01*
X68983865Y-99140230D01*
X68981385Y-99143427D01*
X68973682Y-99152447D01*
X68943414Y-99184679D01*
X68939595Y-99191625D01*
X68939593Y-99191628D01*
X68933652Y-99202434D01*
X68922801Y-99218953D01*
X68910386Y-99234959D01*
X68907241Y-99242228D01*
X68907238Y-99242232D01*
X68892826Y-99275537D01*
X68887609Y-99286187D01*
X68866305Y-99324940D01*
X68864334Y-99332615D01*
X68864334Y-99332616D01*
X68861267Y-99344562D01*
X68854863Y-99363266D01*
X68846819Y-99381855D01*
X68845580Y-99389678D01*
X68845577Y-99389688D01*
X68839901Y-99425524D01*
X68837495Y-99437144D01*
X68831832Y-99459203D01*
X68826500Y-99479970D01*
X68826500Y-99500224D01*
X68824949Y-99519934D01*
X68821780Y-99539943D01*
X68822526Y-99547835D01*
X68825941Y-99583961D01*
X68826500Y-99595819D01*
X68826500Y-99617476D01*
X68806498Y-99685597D01*
X68794142Y-99701779D01*
X68720960Y-99783056D01*
X68625473Y-99948444D01*
X68566458Y-100130072D01*
X68565768Y-100136633D01*
X68565768Y-100136635D01*
X68554360Y-100245178D01*
X68546496Y-100320000D01*
X68547186Y-100326565D01*
X68564025Y-100486776D01*
X68566458Y-100509928D01*
X68625473Y-100691556D01*
X68628776Y-100697278D01*
X68628777Y-100697279D01*
X68656107Y-100744615D01*
X68720960Y-100856944D01*
X68725378Y-100861851D01*
X68725379Y-100861852D01*
X68824349Y-100971769D01*
X68848747Y-100998866D01*
X69003248Y-101111118D01*
X69009276Y-101113802D01*
X69009278Y-101113803D01*
X69171681Y-101186109D01*
X69177712Y-101188794D01*
X69271113Y-101208647D01*
X69358056Y-101227128D01*
X69358061Y-101227128D01*
X69364513Y-101228500D01*
X69555487Y-101228500D01*
X69561939Y-101227128D01*
X69561944Y-101227128D01*
X69648887Y-101208647D01*
X69742288Y-101188794D01*
X69748319Y-101186109D01*
X69910722Y-101113803D01*
X69910724Y-101113802D01*
X69916752Y-101111118D01*
X70071253Y-100998866D01*
X70095651Y-100971769D01*
X70194621Y-100861852D01*
X70194622Y-100861851D01*
X70199040Y-100856944D01*
X70263893Y-100744615D01*
X70291223Y-100697279D01*
X70291224Y-100697278D01*
X70294527Y-100691556D01*
X70353542Y-100509928D01*
X70355976Y-100486776D01*
X70372814Y-100326565D01*
X70373504Y-100320000D01*
X70365640Y-100245178D01*
X70354232Y-100136635D01*
X70354232Y-100136633D01*
X70353542Y-100130072D01*
X70294527Y-99948444D01*
X70223152Y-99824819D01*
X70206415Y-99755827D01*
X70229635Y-99688735D01*
X70243177Y-99672727D01*
X70955499Y-98960405D01*
X71017811Y-98926379D01*
X71044594Y-98923500D01*
X76465406Y-98923500D01*
X76533527Y-98943502D01*
X76554501Y-98960405D01*
X77689595Y-100095499D01*
X77723621Y-100157811D01*
X77726500Y-100184594D01*
X77726500Y-107891233D01*
X77725973Y-107902416D01*
X77724298Y-107909909D01*
X77724547Y-107917835D01*
X77724547Y-107917836D01*
X77726438Y-107977986D01*
X77726500Y-107981945D01*
X77726500Y-108009856D01*
X77726997Y-108013790D01*
X77726997Y-108013791D01*
X77727005Y-108013856D01*
X77727938Y-108025693D01*
X77729327Y-108069889D01*
X77734978Y-108089339D01*
X77738987Y-108108700D01*
X77741526Y-108128797D01*
X77744445Y-108136168D01*
X77744445Y-108136170D01*
X77757804Y-108169912D01*
X77761649Y-108181142D01*
X77773982Y-108223593D01*
X77778015Y-108230412D01*
X77778017Y-108230417D01*
X77784293Y-108241028D01*
X77792988Y-108258776D01*
X77800448Y-108277617D01*
X77805110Y-108284033D01*
X77805110Y-108284034D01*
X77826436Y-108313387D01*
X77832952Y-108323307D01*
X77855458Y-108361362D01*
X77869779Y-108375683D01*
X77882619Y-108390716D01*
X77894528Y-108407107D01*
X77900634Y-108412158D01*
X77928605Y-108435298D01*
X77937384Y-108443288D01*
X79936343Y-110442247D01*
X79943887Y-110450537D01*
X79948000Y-110457018D01*
X79953777Y-110462443D01*
X79997667Y-110503658D01*
X80000509Y-110506413D01*
X80020230Y-110526134D01*
X80023425Y-110528612D01*
X80032447Y-110536318D01*
X80064679Y-110566586D01*
X80071628Y-110570406D01*
X80082432Y-110576346D01*
X80098956Y-110587199D01*
X80114959Y-110599613D01*
X80155543Y-110617176D01*
X80166173Y-110622383D01*
X80204940Y-110643695D01*
X80212617Y-110645666D01*
X80212622Y-110645668D01*
X80224558Y-110648732D01*
X80243266Y-110655137D01*
X80261855Y-110663181D01*
X80269683Y-110664421D01*
X80269690Y-110664423D01*
X80305524Y-110670099D01*
X80317144Y-110672505D01*
X80347440Y-110680283D01*
X80359970Y-110683500D01*
X80380224Y-110683500D01*
X80399934Y-110685051D01*
X80419943Y-110688220D01*
X80427835Y-110687474D01*
X80463961Y-110684059D01*
X80475819Y-110683500D01*
X83139768Y-110683500D01*
X83207889Y-110703502D01*
X83254382Y-110757158D01*
X83264486Y-110827432D01*
X83234992Y-110892012D01*
X83215427Y-110910255D01*
X83174965Y-110940635D01*
X83020629Y-111102138D01*
X82894743Y-111286680D01*
X82879476Y-111319570D01*
X82825025Y-111436876D01*
X82800688Y-111489305D01*
X82740989Y-111704570D01*
X82717251Y-111926695D01*
X82717548Y-111931848D01*
X82717548Y-111931851D01*
X82723011Y-112026590D01*
X82730110Y-112149715D01*
X82731247Y-112154761D01*
X82731248Y-112154767D01*
X82746433Y-112222145D01*
X82779222Y-112367639D01*
X82831784Y-112497084D01*
X82858315Y-112562422D01*
X82863266Y-112574616D01*
X82912496Y-112654953D01*
X82977291Y-112760688D01*
X82979987Y-112765088D01*
X83126250Y-112933938D01*
X83282482Y-113063644D01*
X83290533Y-113070328D01*
X83330168Y-113129230D01*
X83331666Y-113200211D01*
X83294552Y-113260734D01*
X83230608Y-113291583D01*
X83210057Y-113293272D01*
X71489112Y-113293903D01*
X45247794Y-113295317D01*
X45227699Y-113293705D01*
X45214723Y-113291610D01*
X45205857Y-113290178D01*
X45196946Y-113291292D01*
X45196945Y-113291292D01*
X45194749Y-113291566D01*
X45166151Y-113291870D01*
X45075849Y-113282524D01*
X45037576Y-113278563D01*
X45013551Y-113273677D01*
X44869668Y-113229474D01*
X44847039Y-113220025D01*
X44714436Y-113148784D01*
X44694066Y-113135132D01*
X44607912Y-113064325D01*
X44577778Y-113039559D01*
X44560439Y-113022220D01*
X44543142Y-113001173D01*
X44519251Y-112972105D01*
X44464868Y-112905934D01*
X44451216Y-112885564D01*
X44379975Y-112752961D01*
X44370526Y-112730332D01*
X44363682Y-112708054D01*
X44326323Y-112586451D01*
X44321437Y-112562422D01*
X44313251Y-112483324D01*
X44308829Y-112440602D01*
X44309196Y-112424538D01*
X44308504Y-112424533D01*
X44308563Y-112415558D01*
X44309893Y-112406682D01*
X44305843Y-112377018D01*
X44304685Y-112359960D01*
X44304720Y-112074669D01*
X53542001Y-112074669D01*
X53542371Y-112081490D01*
X53547895Y-112132352D01*
X53551521Y-112147604D01*
X53596676Y-112268054D01*
X53605214Y-112283649D01*
X53681715Y-112385724D01*
X53694276Y-112398285D01*
X53796351Y-112474786D01*
X53811946Y-112483324D01*
X53932394Y-112528478D01*
X53947649Y-112532105D01*
X53998514Y-112537631D01*
X54005328Y-112538000D01*
X54627885Y-112538000D01*
X54643124Y-112533525D01*
X54644329Y-112532135D01*
X54646000Y-112524452D01*
X54646000Y-112519884D01*
X55154000Y-112519884D01*
X55158475Y-112535123D01*
X55159865Y-112536328D01*
X55167548Y-112537999D01*
X55794669Y-112537999D01*
X55801490Y-112537629D01*
X55852352Y-112532105D01*
X55867604Y-112528479D01*
X55988054Y-112483324D01*
X56003649Y-112474786D01*
X56005853Y-112473134D01*
X68241500Y-112473134D01*
X68248255Y-112535316D01*
X68299385Y-112671705D01*
X68386739Y-112788261D01*
X68503295Y-112875615D01*
X68639684Y-112926745D01*
X68701866Y-112933500D01*
X70498134Y-112933500D01*
X70560316Y-112926745D01*
X70696705Y-112875615D01*
X70813261Y-112788261D01*
X70900615Y-112671705D01*
X70938807Y-112569829D01*
X70944798Y-112553848D01*
X70987440Y-112497084D01*
X71054001Y-112472384D01*
X71123350Y-112487592D01*
X71158017Y-112515580D01*
X71183218Y-112544673D01*
X71190580Y-112551883D01*
X71354434Y-112687916D01*
X71362881Y-112693831D01*
X71546756Y-112801279D01*
X71556042Y-112805729D01*
X71755001Y-112881703D01*
X71764899Y-112884579D01*
X71868250Y-112905606D01*
X71882299Y-112904410D01*
X71886000Y-112894065D01*
X71886000Y-112893517D01*
X72394000Y-112893517D01*
X72398064Y-112907359D01*
X72411478Y-112909393D01*
X72418184Y-112908534D01*
X72428262Y-112906392D01*
X72632255Y-112845191D01*
X72641842Y-112841433D01*
X72833095Y-112747739D01*
X72841945Y-112742464D01*
X73015328Y-112618792D01*
X73023200Y-112612139D01*
X73174052Y-112461812D01*
X73180730Y-112453965D01*
X73308022Y-112276819D01*
X73309279Y-112277722D01*
X73356373Y-112234362D01*
X73426311Y-112222145D01*
X73491751Y-112249678D01*
X73519579Y-112281511D01*
X73579987Y-112380088D01*
X73726250Y-112548938D01*
X73898126Y-112691632D01*
X74091000Y-112804338D01*
X74299692Y-112884030D01*
X74304760Y-112885061D01*
X74304763Y-112885062D01*
X74374775Y-112899306D01*
X74518597Y-112928567D01*
X74523772Y-112928757D01*
X74523774Y-112928757D01*
X74736673Y-112936564D01*
X74736677Y-112936564D01*
X74741837Y-112936753D01*
X74746957Y-112936097D01*
X74746959Y-112936097D01*
X74958288Y-112909025D01*
X74958289Y-112909025D01*
X74963416Y-112908368D01*
X74968366Y-112906883D01*
X75172429Y-112845661D01*
X75172434Y-112845659D01*
X75177384Y-112844174D01*
X75377994Y-112745896D01*
X75559860Y-112616173D01*
X75601563Y-112574616D01*
X75704152Y-112472384D01*
X75718096Y-112458489D01*
X75848453Y-112277077D01*
X75852913Y-112268054D01*
X75945136Y-112081453D01*
X75945137Y-112081451D01*
X75947430Y-112076811D01*
X76012370Y-111863069D01*
X76041529Y-111641590D01*
X76043156Y-111575000D01*
X76024852Y-111352361D01*
X75970431Y-111135702D01*
X75881354Y-110930840D01*
X75833165Y-110856351D01*
X75762822Y-110747617D01*
X75762820Y-110747614D01*
X75760014Y-110743277D01*
X75609670Y-110578051D01*
X75605619Y-110574852D01*
X75605615Y-110574848D01*
X75438414Y-110442800D01*
X75438410Y-110442798D01*
X75434359Y-110439598D01*
X75429835Y-110437101D01*
X75429831Y-110437098D01*
X75378608Y-110408822D01*
X75328636Y-110358390D01*
X75313500Y-110298513D01*
X75313500Y-102594594D01*
X75333502Y-102526473D01*
X75350405Y-102505499D01*
X76370500Y-101485405D01*
X76432812Y-101451379D01*
X76447131Y-101449840D01*
X76447063Y-101449190D01*
X76453630Y-101448500D01*
X76460232Y-101448500D01*
X76466685Y-101447128D01*
X76466689Y-101447128D01*
X76548492Y-101429740D01*
X76636752Y-101410980D01*
X76642783Y-101408295D01*
X76795585Y-101340263D01*
X76795587Y-101340262D01*
X76801615Y-101337578D01*
X76918818Y-101252425D01*
X76942269Y-101235387D01*
X76942271Y-101235385D01*
X76947613Y-101231504D01*
X76952035Y-101226593D01*
X77063948Y-101102301D01*
X77063949Y-101102300D01*
X77068367Y-101097393D01*
X77131159Y-100988634D01*
X77155295Y-100946830D01*
X77155296Y-100946829D01*
X77158599Y-100941107D01*
X77197005Y-100822903D01*
X77212325Y-100775754D01*
X77212325Y-100775753D01*
X77214365Y-100769475D01*
X77224593Y-100672169D01*
X77232539Y-100596565D01*
X77233229Y-100590000D01*
X77222396Y-100486929D01*
X77215055Y-100417089D01*
X77215055Y-100417088D01*
X77214365Y-100410525D01*
X77199771Y-100365607D01*
X77160641Y-100245178D01*
X77158599Y-100238893D01*
X77068367Y-100082607D01*
X77059740Y-100073025D01*
X76952035Y-99953407D01*
X76952034Y-99953406D01*
X76947613Y-99948496D01*
X76939672Y-99942726D01*
X76806957Y-99846303D01*
X76806956Y-99846302D01*
X76801615Y-99842422D01*
X76795587Y-99839738D01*
X76795585Y-99839737D01*
X76642783Y-99771705D01*
X76642781Y-99771705D01*
X76636752Y-99769020D01*
X76538923Y-99748226D01*
X76466689Y-99732872D01*
X76466685Y-99732872D01*
X76460232Y-99731500D01*
X76279768Y-99731500D01*
X76273315Y-99732872D01*
X76273311Y-99732872D01*
X76201077Y-99748226D01*
X76103248Y-99769020D01*
X76097219Y-99771704D01*
X76097217Y-99771705D01*
X75944416Y-99839737D01*
X75944414Y-99839738D01*
X75938386Y-99842422D01*
X75933045Y-99846302D01*
X75933044Y-99846303D01*
X75797731Y-99944613D01*
X75797729Y-99944615D01*
X75792387Y-99948496D01*
X75787966Y-99953406D01*
X75787965Y-99953407D01*
X75680261Y-100073025D01*
X75671633Y-100082607D01*
X75581401Y-100238893D01*
X75579359Y-100245178D01*
X75540230Y-100365607D01*
X75525635Y-100410525D01*
X75524945Y-100417089D01*
X75524945Y-100417090D01*
X75515273Y-100509113D01*
X75488260Y-100574770D01*
X75479058Y-100585038D01*
X74287747Y-101776348D01*
X74279461Y-101783888D01*
X74272982Y-101788000D01*
X74267557Y-101793777D01*
X74226357Y-101837651D01*
X74223602Y-101840493D01*
X74203865Y-101860230D01*
X74201385Y-101863427D01*
X74193682Y-101872447D01*
X74163414Y-101904679D01*
X74159595Y-101911625D01*
X74159593Y-101911628D01*
X74153652Y-101922434D01*
X74142801Y-101938953D01*
X74130386Y-101954959D01*
X74127241Y-101962228D01*
X74127238Y-101962232D01*
X74112826Y-101995537D01*
X74107609Y-102006187D01*
X74086305Y-102044940D01*
X74084334Y-102052615D01*
X74084334Y-102052616D01*
X74081267Y-102064562D01*
X74074863Y-102083266D01*
X74066819Y-102101855D01*
X74065580Y-102109678D01*
X74065577Y-102109688D01*
X74059901Y-102145524D01*
X74057495Y-102157144D01*
X74046500Y-102199970D01*
X74046500Y-102220224D01*
X74044949Y-102239934D01*
X74041780Y-102259943D01*
X74042526Y-102267835D01*
X74045941Y-102303961D01*
X74046500Y-102315819D01*
X74046500Y-110296692D01*
X74026498Y-110364813D01*
X73978683Y-110408453D01*
X73953607Y-110421507D01*
X73949474Y-110424610D01*
X73949471Y-110424612D01*
X73779100Y-110552530D01*
X73774965Y-110555635D01*
X73756605Y-110574848D01*
X73648977Y-110687474D01*
X73620629Y-110717138D01*
X73617715Y-110721410D01*
X73617714Y-110721411D01*
X73512898Y-110875066D01*
X73457987Y-110920069D01*
X73387462Y-110928240D01*
X73323715Y-110896986D01*
X73303018Y-110872502D01*
X73222426Y-110747926D01*
X73216136Y-110739757D01*
X73072806Y-110582240D01*
X73065273Y-110575215D01*
X72898139Y-110443222D01*
X72889552Y-110437517D01*
X72703117Y-110334599D01*
X72693705Y-110330369D01*
X72492959Y-110259280D01*
X72482988Y-110256646D01*
X72411837Y-110243972D01*
X72398540Y-110245432D01*
X72394000Y-110259989D01*
X72394000Y-112893517D01*
X71886000Y-112893517D01*
X71886000Y-110258102D01*
X71882082Y-110244758D01*
X71867806Y-110242771D01*
X71829324Y-110248660D01*
X71819288Y-110251051D01*
X71616868Y-110317212D01*
X71607359Y-110321209D01*
X71418463Y-110419542D01*
X71409738Y-110425036D01*
X71239433Y-110552905D01*
X71231726Y-110559748D01*
X71154478Y-110640584D01*
X71092954Y-110676014D01*
X71022042Y-110672557D01*
X70964255Y-110631311D01*
X70945402Y-110597763D01*
X70903767Y-110486703D01*
X70900615Y-110478295D01*
X70813261Y-110361739D01*
X70696705Y-110274385D01*
X70560316Y-110223255D01*
X70498134Y-110216500D01*
X68701866Y-110216500D01*
X68639684Y-110223255D01*
X68503295Y-110274385D01*
X68386739Y-110361739D01*
X68299385Y-110478295D01*
X68248255Y-110614684D01*
X68241500Y-110676866D01*
X68241500Y-112473134D01*
X56005853Y-112473134D01*
X56105724Y-112398285D01*
X56118285Y-112385724D01*
X56194786Y-112283649D01*
X56203324Y-112268054D01*
X56248478Y-112147606D01*
X56252105Y-112132351D01*
X56257631Y-112081486D01*
X56258000Y-112074672D01*
X56258000Y-111452115D01*
X56253525Y-111436876D01*
X56252135Y-111435671D01*
X56244452Y-111434000D01*
X55172115Y-111434000D01*
X55156876Y-111438475D01*
X55155671Y-111439865D01*
X55154000Y-111447548D01*
X55154000Y-112519884D01*
X54646000Y-112519884D01*
X54646000Y-111452115D01*
X54641525Y-111436876D01*
X54640135Y-111435671D01*
X54632452Y-111434000D01*
X53560116Y-111434000D01*
X53544877Y-111438475D01*
X53543672Y-111439865D01*
X53542001Y-111447548D01*
X53542001Y-112074669D01*
X44304720Y-112074669D01*
X44304766Y-111703124D01*
X44305376Y-106718474D01*
X44306411Y-98271585D01*
X44786698Y-98271585D01*
X44786887Y-98275377D01*
X44802695Y-98592910D01*
X44802936Y-98597759D01*
X44803577Y-98601490D01*
X44803578Y-98601498D01*
X44856520Y-98909603D01*
X44858241Y-98919619D01*
X44859329Y-98923258D01*
X44859330Y-98923261D01*
X44926578Y-99148120D01*
X44951814Y-99232504D01*
X44953327Y-99235975D01*
X44953329Y-99235981D01*
X45016908Y-99381855D01*
X45082297Y-99531881D01*
X45084220Y-99535152D01*
X45084222Y-99535156D01*
X45126584Y-99607215D01*
X45247802Y-99813414D01*
X45250103Y-99816429D01*
X45443631Y-100070012D01*
X45443636Y-100070017D01*
X45445931Y-100073025D01*
X45507897Y-100136635D01*
X45601938Y-100233170D01*
X45673814Y-100306953D01*
X45790206Y-100400702D01*
X45925196Y-100509431D01*
X45925201Y-100509435D01*
X45928149Y-100511809D01*
X46205253Y-100684627D01*
X46501112Y-100822903D01*
X46504721Y-100824086D01*
X46766519Y-100909908D01*
X46811440Y-100924634D01*
X47131742Y-100988346D01*
X47135514Y-100988633D01*
X47135522Y-100988634D01*
X47453602Y-101012829D01*
X47453607Y-101012829D01*
X47457379Y-101013116D01*
X47783633Y-100998586D01*
X47843425Y-100988634D01*
X48102037Y-100945590D01*
X48102042Y-100945589D01*
X48105778Y-100944967D01*
X48419149Y-100853034D01*
X48422616Y-100851544D01*
X48422620Y-100851543D01*
X48715721Y-100725616D01*
X48715723Y-100725615D01*
X48719205Y-100724119D01*
X49001601Y-100560091D01*
X49262245Y-100363324D01*
X49431056Y-100200590D01*
X49494632Y-100139303D01*
X49494635Y-100139300D01*
X49497363Y-100136670D01*
X49645486Y-99954729D01*
X49701155Y-99886351D01*
X49701158Y-99886347D01*
X49703549Y-99883410D01*
X49729014Y-99843051D01*
X49875788Y-99610428D01*
X49875790Y-99610425D01*
X49877815Y-99607215D01*
X49890413Y-99580625D01*
X49984583Y-99381855D01*
X50017638Y-99312084D01*
X50018840Y-99308482D01*
X50119790Y-99005897D01*
X50119792Y-99005891D01*
X50120992Y-99002293D01*
X50186381Y-98682329D01*
X50186998Y-98674753D01*
X50212674Y-98359061D01*
X50212856Y-98356826D01*
X50213451Y-98300000D01*
X50211510Y-98267796D01*
X50194026Y-97977793D01*
X50194026Y-97977789D01*
X50193798Y-97974015D01*
X50188650Y-97945824D01*
X50135805Y-97656473D01*
X50135804Y-97656469D01*
X50135125Y-97652751D01*
X50131218Y-97640166D01*
X50063479Y-97422012D01*
X50038282Y-97340863D01*
X49904670Y-97042869D01*
X49736226Y-96763084D01*
X49733899Y-96760100D01*
X49733894Y-96760093D01*
X49537726Y-96508558D01*
X49537724Y-96508556D01*
X49535390Y-96505563D01*
X49305070Y-96274034D01*
X49048603Y-96071852D01*
X48769705Y-95901945D01*
X48766261Y-95900379D01*
X48766257Y-95900377D01*
X48596602Y-95823240D01*
X48472414Y-95766775D01*
X48161037Y-95668300D01*
X47904191Y-95620000D01*
X47843809Y-95608645D01*
X47843807Y-95608645D01*
X47840086Y-95607945D01*
X47514208Y-95586586D01*
X47510428Y-95586794D01*
X47510427Y-95586794D01*
X47412897Y-95592162D01*
X47188124Y-95604532D01*
X47184397Y-95605193D01*
X47184393Y-95605193D01*
X47038112Y-95631118D01*
X46866557Y-95661522D01*
X46862941Y-95662624D01*
X46862933Y-95662626D01*
X46571747Y-95751373D01*
X46554167Y-95756731D01*
X46255477Y-95888781D01*
X46192080Y-95926498D01*
X45978074Y-96053817D01*
X45978068Y-96053821D01*
X45974814Y-96055757D01*
X45913807Y-96102824D01*
X45737591Y-96238774D01*
X45716244Y-96255243D01*
X45667986Y-96302749D01*
X45506136Y-96462077D01*
X45483513Y-96484347D01*
X45481149Y-96487314D01*
X45481146Y-96487317D01*
X45284623Y-96733938D01*
X45279991Y-96739751D01*
X45108626Y-97017757D01*
X45107037Y-97021204D01*
X44989345Y-97276500D01*
X44971902Y-97314336D01*
X44970741Y-97317940D01*
X44970741Y-97317941D01*
X44962196Y-97344477D01*
X44871797Y-97625192D01*
X44871079Y-97628903D01*
X44871078Y-97628907D01*
X44810482Y-97942105D01*
X44810481Y-97942114D01*
X44809763Y-97945824D01*
X44809496Y-97949600D01*
X44809495Y-97949605D01*
X44796258Y-98136565D01*
X44786698Y-98271585D01*
X44306411Y-98271585D01*
X44306973Y-93688134D01*
X46191500Y-93688134D01*
X46198255Y-93750316D01*
X46249385Y-93886705D01*
X46336739Y-94003261D01*
X46453295Y-94090615D01*
X46589684Y-94141745D01*
X46651866Y-94148500D01*
X49748134Y-94148500D01*
X49810316Y-94141745D01*
X49946705Y-94090615D01*
X50063261Y-94003261D01*
X50150615Y-93886705D01*
X50201745Y-93750316D01*
X50208500Y-93688134D01*
X50208500Y-90591866D01*
X50201745Y-90529684D01*
X50150615Y-90393295D01*
X50063261Y-90276739D01*
X49946705Y-90189385D01*
X49810316Y-90138255D01*
X49748134Y-90131500D01*
X46651866Y-90131500D01*
X46589684Y-90138255D01*
X46453295Y-90189385D01*
X46336739Y-90276739D01*
X46249385Y-90393295D01*
X46198255Y-90529684D01*
X46191500Y-90591866D01*
X46191500Y-93688134D01*
X44306973Y-93688134D01*
X44307590Y-88649654D01*
X46975618Y-88649654D01*
X46982673Y-88659627D01*
X47013679Y-88685551D01*
X47020598Y-88690579D01*
X47245272Y-88831515D01*
X47252807Y-88835556D01*
X47494520Y-88944694D01*
X47502551Y-88947680D01*
X47756832Y-89023002D01*
X47765184Y-89024869D01*
X48027340Y-89064984D01*
X48035874Y-89065700D01*
X48301045Y-89069867D01*
X48309596Y-89069418D01*
X48572883Y-89037557D01*
X48581284Y-89035955D01*
X48837824Y-88968653D01*
X48845926Y-88965926D01*
X49090949Y-88864434D01*
X49098617Y-88860628D01*
X49327598Y-88726822D01*
X49334679Y-88722009D01*
X49414655Y-88659301D01*
X49423125Y-88647442D01*
X49416608Y-88635818D01*
X48212812Y-87432022D01*
X48198868Y-87424408D01*
X48197035Y-87424539D01*
X48190420Y-87428790D01*
X46982910Y-88636300D01*
X46975618Y-88649654D01*
X44307590Y-88649654D01*
X44307787Y-87043204D01*
X46187665Y-87043204D01*
X46202932Y-87307969D01*
X46204005Y-87316470D01*
X46255065Y-87576722D01*
X46257276Y-87584974D01*
X46343184Y-87835894D01*
X46346499Y-87843779D01*
X46465664Y-88080713D01*
X46470020Y-88088079D01*
X46599347Y-88276250D01*
X46609601Y-88284594D01*
X46623342Y-88277448D01*
X47827978Y-87072812D01*
X47834356Y-87061132D01*
X48564408Y-87061132D01*
X48564539Y-87062965D01*
X48568790Y-87069580D01*
X49775730Y-88276520D01*
X49787939Y-88283187D01*
X49799439Y-88274497D01*
X49896831Y-88141913D01*
X49901418Y-88134685D01*
X50027962Y-87901621D01*
X50031530Y-87893827D01*
X50125271Y-87645750D01*
X50127748Y-87637544D01*
X50186954Y-87379038D01*
X50188294Y-87370577D01*
X50212031Y-87104616D01*
X50212277Y-87099677D01*
X50212666Y-87062485D01*
X50212523Y-87057519D01*
X50194362Y-86791123D01*
X50193201Y-86782649D01*
X50139419Y-86522944D01*
X50137120Y-86514709D01*
X50048588Y-86264705D01*
X50045191Y-86256854D01*
X49923550Y-86021178D01*
X49919122Y-86013866D01*
X49800031Y-85844417D01*
X49789509Y-85836037D01*
X49776121Y-85843089D01*
X48572022Y-87047188D01*
X48564408Y-87061132D01*
X47834356Y-87061132D01*
X47835592Y-87058868D01*
X47835461Y-87057035D01*
X47831210Y-87050420D01*
X46623814Y-85843024D01*
X46611804Y-85836466D01*
X46600064Y-85845434D01*
X46491935Y-85995911D01*
X46487418Y-86003196D01*
X46363325Y-86237567D01*
X46359839Y-86245395D01*
X46268700Y-86494446D01*
X46266311Y-86502670D01*
X46209812Y-86761795D01*
X46208563Y-86770250D01*
X46187754Y-87034653D01*
X46187665Y-87043204D01*
X44307787Y-87043204D01*
X44307979Y-85472500D01*
X46976584Y-85472500D01*
X46982980Y-85483770D01*
X48187188Y-86687978D01*
X48201132Y-86695592D01*
X48202965Y-86695461D01*
X48209580Y-86691210D01*
X49416604Y-85484186D01*
X49423795Y-85471017D01*
X49416473Y-85460780D01*
X49369233Y-85422115D01*
X49362261Y-85417160D01*
X49136122Y-85278582D01*
X49128552Y-85274624D01*
X48885704Y-85168022D01*
X48877644Y-85165120D01*
X48622592Y-85092467D01*
X48614214Y-85090685D01*
X48351656Y-85053318D01*
X48343111Y-85052691D01*
X48077908Y-85051302D01*
X48069374Y-85051839D01*
X47806433Y-85086456D01*
X47798035Y-85088149D01*
X47542238Y-85158127D01*
X47534143Y-85160946D01*
X47290199Y-85264997D01*
X47282577Y-85268881D01*
X47055013Y-85405075D01*
X47047981Y-85409962D01*
X46985053Y-85460377D01*
X46976584Y-85472500D01*
X44307979Y-85472500D01*
X44307994Y-85350107D01*
X44309540Y-85330446D01*
X44311768Y-85316355D01*
X44311768Y-85316351D01*
X44313170Y-85307484D01*
X44312027Y-85298579D01*
X44312027Y-85298574D01*
X44311753Y-85296438D01*
X44311361Y-85267791D01*
X44324274Y-85139404D01*
X44329121Y-85115259D01*
X44372946Y-84971551D01*
X44382396Y-84948811D01*
X44383635Y-84946498D01*
X44453340Y-84816367D01*
X44467029Y-84795907D01*
X44562379Y-84679793D01*
X44579793Y-84662379D01*
X44695907Y-84567029D01*
X44716367Y-84553340D01*
X44848813Y-84482395D01*
X44871551Y-84472946D01*
X45015259Y-84429121D01*
X45039404Y-84424274D01*
X45161039Y-84412040D01*
X45177086Y-84412455D01*
X45177093Y-84411751D01*
X45186073Y-84411839D01*
X45194944Y-84413199D01*
X45225726Y-84409100D01*
X45242346Y-84407998D01*
X63592913Y-84406986D01*
X63661035Y-84426984D01*
G37*
%TD.AperFunction*%
%TD*%
M02*
