M48
; DRILL file {KiCad (6.0.1)} date Mon Mar  6 20:27:35 2023
; FORMAT={-:-/ absolute / inch / decimal}
; #@! TF.CreationDate,2023-03-06T20:27:35-05:00
; #@! TF.GenerationSoftware,Kicad,Pcbnew,(6.0.1)
; #@! TF.FileFunction,Plated,1,2,PTH
FMAT,2
INCH
; #@! TA.AperFunction,Plated,PTH,ViaDrill
T1C0.0118
; #@! TA.AperFunction,Plated,PTH,ViaDrill
T2C0.0157
; #@! TA.AperFunction,Plated,PTH,ComponentDrill
T3C0.0394
; #@! TA.AperFunction,Plated,PTH,ComponentDrill
T4C0.0598
; #@! TA.AperFunction,Plated,PTH,ComponentDrill
T5C0.0866
%
G90
G05
T1
X1.9933Y-3.4299
X2.022Y-3.9677
X2.0433Y-3.4811
X2.0484Y-3.5465
X2.1024Y-3.5807
X2.2228Y-3.7386
X2.2787Y-4.3807
X2.3799Y-3.7283
X2.4217Y-3.6217
X2.4217Y-3.8783
X2.5642Y-3.6843
X2.5744Y-4.3799
X2.585Y-3.4083
X2.6161Y-3.628
X2.6346Y-3.3783
X2.6614Y-3.4606
X2.6988Y-3.815
X2.7343Y-3.7185
X2.7795Y-3.6772
X2.8622Y-4.1417
X2.8661Y-3.4563
X2.8858Y-3.3823
X2.9764Y-3.4173
X3.0067Y-3.9602
X3.0547Y-3.6626
X3.1535Y-3.6433
X3.511Y-4.272
X3.6114Y-4.1685
X3.8516Y-4.211
T2
X2.7346Y-3.9496
X2.874Y-3.7646
X3.0677Y-3.8098
X3.1559Y-3.5331
X3.2217Y-4.2165
X3.2445Y-4.2898
X3.2457Y-3.7787
X3.528Y-3.5295
X3.5693Y-3.7339
X3.6803Y-3.8634
X3.7563Y-3.6929
X3.7839Y-3.8142
X4.0252Y-3.9063
T3
X2.1614Y-4.1772
X2.1614Y-4.2772
X2.1614Y-4.3772
X2.7402Y-4.3927
X2.8402Y-4.3927
X2.9402Y-4.3927
X3.3102Y-4.4079
X3.4102Y-4.4079
X3.5102Y-4.4079
X3.6102Y-4.4079
X3.7102Y-4.4079
X4.0984Y-3.3701
X4.0984Y-3.4701
X4.0984Y-3.5701
X4.0984Y-3.6701
X4.0984Y-3.7701
X4.0984Y-3.8701
X4.0984Y-3.9701
X4.0984Y-4.0701
T4
X1.8976Y-3.4276
X1.8976Y-3.6276
T5
X1.8701Y-3.8701
X4.315Y-3.8701
T0
M30
