%TF.GenerationSoftware,KiCad,Pcbnew,(6.0.1)*%
%TF.CreationDate,2023-03-06T20:27:36-05:00*%
%TF.ProjectId,PCBFiles_Node,50434246-696c-4657-935f-4e6f64652e6b,rev?*%
%TF.SameCoordinates,Original*%
%TF.FileFunction,Legend,Top*%
%TF.FilePolarity,Positive*%
%FSLAX46Y46*%
G04 Gerber Fmt 4.6, Leading zero omitted, Abs format (unit mm)*
G04 Created by KiCad (PCBNEW (6.0.1)) date 2023-03-06 20:27:36*
%MOMM*%
%LPD*%
G01*
G04 APERTURE LIST*
%ADD10C,0.100000*%
%ADD11C,0.300000*%
%ADD12C,0.150000*%
%ADD13C,0.125000*%
%ADD14C,0.120000*%
G04 APERTURE END LIST*
D10*
X52178571Y-92242857D02*
X52635714Y-92242857D01*
X52407142Y-92471428D02*
X52407142Y-92014285D01*
X53207142Y-91871428D02*
X52921428Y-91871428D01*
X52892857Y-92157142D01*
X52921428Y-92128571D01*
X52978571Y-92100000D01*
X53121428Y-92100000D01*
X53178571Y-92128571D01*
X53207142Y-92157142D01*
X53235714Y-92214285D01*
X53235714Y-92357142D01*
X53207142Y-92414285D01*
X53178571Y-92442857D01*
X53121428Y-92471428D01*
X52978571Y-92471428D01*
X52921428Y-92442857D01*
X52892857Y-92414285D01*
X53407142Y-91871428D02*
X53607142Y-92471428D01*
X53807142Y-91871428D01*
D11*
X73700000Y-89435714D02*
X73771428Y-89507142D01*
X73700000Y-89578571D01*
X73628571Y-89507142D01*
X73700000Y-89435714D01*
X73700000Y-89578571D01*
D10*
X52642857Y-86900000D02*
X52585714Y-86871428D01*
X52500000Y-86871428D01*
X52414285Y-86900000D01*
X52357142Y-86957142D01*
X52328571Y-87014285D01*
X52300000Y-87128571D01*
X52300000Y-87214285D01*
X52328571Y-87328571D01*
X52357142Y-87385714D01*
X52414285Y-87442857D01*
X52500000Y-87471428D01*
X52557142Y-87471428D01*
X52642857Y-87442857D01*
X52671428Y-87414285D01*
X52671428Y-87214285D01*
X52557142Y-87214285D01*
X52928571Y-87471428D02*
X52928571Y-86871428D01*
X53271428Y-87471428D01*
X53271428Y-86871428D01*
X53557142Y-87471428D02*
X53557142Y-86871428D01*
X53700000Y-86871428D01*
X53785714Y-86900000D01*
X53842857Y-86957142D01*
X53871428Y-87014285D01*
X53900000Y-87128571D01*
X53900000Y-87214285D01*
X53871428Y-87328571D01*
X53842857Y-87385714D01*
X53785714Y-87442857D01*
X53700000Y-87471428D01*
X53557142Y-87471428D01*
X86068571Y-92051428D02*
X85868571Y-91765714D01*
X85725714Y-92051428D02*
X85725714Y-91451428D01*
X85954285Y-91451428D01*
X86011428Y-91480000D01*
X86040000Y-91508571D01*
X86068571Y-91565714D01*
X86068571Y-91651428D01*
X86040000Y-91708571D01*
X86011428Y-91737142D01*
X85954285Y-91765714D01*
X85725714Y-91765714D01*
X86325714Y-91737142D02*
X86525714Y-91737142D01*
X86611428Y-92051428D02*
X86325714Y-92051428D01*
X86325714Y-91451428D01*
X86611428Y-91451428D01*
X86840000Y-92022857D02*
X86925714Y-92051428D01*
X87068571Y-92051428D01*
X87125714Y-92022857D01*
X87154285Y-91994285D01*
X87182857Y-91937142D01*
X87182857Y-91880000D01*
X87154285Y-91822857D01*
X87125714Y-91794285D01*
X87068571Y-91765714D01*
X86954285Y-91737142D01*
X86897142Y-91708571D01*
X86868571Y-91680000D01*
X86840000Y-91622857D01*
X86840000Y-91565714D01*
X86868571Y-91508571D01*
X86897142Y-91480000D01*
X86954285Y-91451428D01*
X87097142Y-91451428D01*
X87182857Y-91480000D01*
X87440000Y-91737142D02*
X87640000Y-91737142D01*
X87725714Y-92051428D02*
X87440000Y-92051428D01*
X87440000Y-91451428D01*
X87725714Y-91451428D01*
X87897142Y-91451428D02*
X88240000Y-91451428D01*
X88068571Y-92051428D02*
X88068571Y-91451428D01*
X58557142Y-106007142D02*
X58757142Y-106007142D01*
X58842857Y-106321428D02*
X58557142Y-106321428D01*
X58557142Y-105721428D01*
X58842857Y-105721428D01*
X59442857Y-106321428D02*
X59242857Y-106035714D01*
X59100000Y-106321428D02*
X59100000Y-105721428D01*
X59328571Y-105721428D01*
X59385714Y-105750000D01*
X59414285Y-105778571D01*
X59442857Y-105835714D01*
X59442857Y-105921428D01*
X59414285Y-105978571D01*
X59385714Y-106007142D01*
X59328571Y-106035714D01*
X59100000Y-106035714D01*
X60042857Y-106321428D02*
X59842857Y-106035714D01*
X59700000Y-106321428D02*
X59700000Y-105721428D01*
X59928571Y-105721428D01*
X59985714Y-105750000D01*
X60014285Y-105778571D01*
X60042857Y-105835714D01*
X60042857Y-105921428D01*
X60014285Y-105978571D01*
X59985714Y-106007142D01*
X59928571Y-106035714D01*
X59700000Y-106035714D01*
X60414285Y-105721428D02*
X60528571Y-105721428D01*
X60585714Y-105750000D01*
X60642857Y-105807142D01*
X60671428Y-105921428D01*
X60671428Y-106121428D01*
X60642857Y-106235714D01*
X60585714Y-106292857D01*
X60528571Y-106321428D01*
X60414285Y-106321428D01*
X60357142Y-106292857D01*
X60300000Y-106235714D01*
X60271428Y-106121428D01*
X60271428Y-105921428D01*
X60300000Y-105807142D01*
X60357142Y-105750000D01*
X60414285Y-105721428D01*
X61271428Y-106321428D02*
X61071428Y-106035714D01*
X60928571Y-106321428D02*
X60928571Y-105721428D01*
X61157142Y-105721428D01*
X61214285Y-105750000D01*
X61242857Y-105778571D01*
X61271428Y-105835714D01*
X61271428Y-105921428D01*
X61242857Y-105978571D01*
X61214285Y-106007142D01*
X61157142Y-106035714D01*
X60928571Y-106035714D01*
D12*
X65042857Y-95587142D02*
X65042857Y-96230000D01*
X65000000Y-96358571D01*
X64914285Y-96444285D01*
X64785714Y-96487142D01*
X64700000Y-96487142D01*
X65900000Y-96487142D02*
X65471428Y-96487142D01*
X65471428Y-95587142D01*
X66714285Y-96401428D02*
X66671428Y-96444285D01*
X66542857Y-96487142D01*
X66457142Y-96487142D01*
X66328571Y-96444285D01*
X66242857Y-96358571D01*
X66200000Y-96272857D01*
X66157142Y-96101428D01*
X66157142Y-95972857D01*
X66200000Y-95801428D01*
X66242857Y-95715714D01*
X66328571Y-95630000D01*
X66457142Y-95587142D01*
X66542857Y-95587142D01*
X66671428Y-95630000D01*
X66714285Y-95672857D01*
X67357142Y-95587142D02*
X67357142Y-96230000D01*
X67314285Y-96358571D01*
X67228571Y-96444285D01*
X67100000Y-96487142D01*
X67014285Y-96487142D01*
X68214285Y-96487142D02*
X67785714Y-96487142D01*
X67785714Y-95587142D01*
X69028571Y-96401428D02*
X68985714Y-96444285D01*
X68857142Y-96487142D01*
X68771428Y-96487142D01*
X68642857Y-96444285D01*
X68557142Y-96358571D01*
X68514285Y-96272857D01*
X68471428Y-96101428D01*
X68471428Y-95972857D01*
X68514285Y-95801428D01*
X68557142Y-95715714D01*
X68642857Y-95630000D01*
X68771428Y-95587142D01*
X68857142Y-95587142D01*
X68985714Y-95630000D01*
X69028571Y-95672857D01*
X69671428Y-95587142D02*
X69671428Y-96230000D01*
X69628571Y-96358571D01*
X69542857Y-96444285D01*
X69414285Y-96487142D01*
X69328571Y-96487142D01*
X70528571Y-96487142D02*
X70100000Y-96487142D01*
X70100000Y-95587142D01*
X71342857Y-96401428D02*
X71300000Y-96444285D01*
X71171428Y-96487142D01*
X71085714Y-96487142D01*
X70957142Y-96444285D01*
X70871428Y-96358571D01*
X70828571Y-96272857D01*
X70785714Y-96101428D01*
X70785714Y-95972857D01*
X70828571Y-95801428D01*
X70871428Y-95715714D01*
X70957142Y-95630000D01*
X71085714Y-95587142D01*
X71171428Y-95587142D01*
X71300000Y-95630000D01*
X71342857Y-95672857D01*
X71985714Y-95587142D02*
X71985714Y-96230000D01*
X71942857Y-96358571D01*
X71857142Y-96444285D01*
X71728571Y-96487142D01*
X71642857Y-96487142D01*
X72842857Y-96487142D02*
X72414285Y-96487142D01*
X72414285Y-95587142D01*
X73657142Y-96401428D02*
X73614285Y-96444285D01*
X73485714Y-96487142D01*
X73400000Y-96487142D01*
X73271428Y-96444285D01*
X73185714Y-96358571D01*
X73142857Y-96272857D01*
X73100000Y-96101428D01*
X73100000Y-95972857D01*
X73142857Y-95801428D01*
X73185714Y-95715714D01*
X73271428Y-95630000D01*
X73400000Y-95587142D01*
X73485714Y-95587142D01*
X73614285Y-95630000D01*
X73657142Y-95672857D01*
D13*
X74437142Y-107815714D02*
X74408571Y-107901428D01*
X74408571Y-108044285D01*
X74437142Y-108101428D01*
X74465714Y-108130000D01*
X74522857Y-108158571D01*
X74580000Y-108158571D01*
X74637142Y-108130000D01*
X74665714Y-108101428D01*
X74694285Y-108044285D01*
X74722857Y-107930000D01*
X74751428Y-107872857D01*
X74780000Y-107844285D01*
X74837142Y-107815714D01*
X74894285Y-107815714D01*
X74951428Y-107844285D01*
X74980000Y-107872857D01*
X75008571Y-107930000D01*
X75008571Y-108072857D01*
X74980000Y-108158571D01*
X74465714Y-108758571D02*
X74437142Y-108730000D01*
X74408571Y-108644285D01*
X74408571Y-108587142D01*
X74437142Y-108501428D01*
X74494285Y-108444285D01*
X74551428Y-108415714D01*
X74665714Y-108387142D01*
X74751428Y-108387142D01*
X74865714Y-108415714D01*
X74922857Y-108444285D01*
X74980000Y-108501428D01*
X75008571Y-108587142D01*
X75008571Y-108644285D01*
X74980000Y-108730000D01*
X74951428Y-108758571D01*
X74408571Y-109301428D02*
X74408571Y-109015714D01*
X75008571Y-109015714D01*
X74408571Y-109501428D02*
X75008571Y-109501428D01*
X74408571Y-109844285D02*
X74751428Y-109587142D01*
X75008571Y-109844285D02*
X74665714Y-109501428D01*
X72450000Y-108567857D02*
X72478571Y-108510714D01*
X72478571Y-108425000D01*
X72450000Y-108339285D01*
X72392857Y-108282142D01*
X72335714Y-108253571D01*
X72221428Y-108225000D01*
X72135714Y-108225000D01*
X72021428Y-108253571D01*
X71964285Y-108282142D01*
X71907142Y-108339285D01*
X71878571Y-108425000D01*
X71878571Y-108482142D01*
X71907142Y-108567857D01*
X71935714Y-108596428D01*
X72135714Y-108596428D01*
X72135714Y-108482142D01*
X71878571Y-108853571D02*
X72478571Y-108853571D01*
X71878571Y-109196428D01*
X72478571Y-109196428D01*
X71878571Y-109482142D02*
X72478571Y-109482142D01*
X72478571Y-109625000D01*
X72450000Y-109710714D01*
X72392857Y-109767857D01*
X72335714Y-109796428D01*
X72221428Y-109825000D01*
X72135714Y-109825000D01*
X72021428Y-109796428D01*
X71964285Y-109767857D01*
X71907142Y-109710714D01*
X71878571Y-109625000D01*
X71878571Y-109482142D01*
D10*
X58587142Y-108690000D02*
X58872857Y-108690000D01*
X58530000Y-108861428D02*
X58730000Y-108261428D01*
X58930000Y-108861428D01*
X59472857Y-108804285D02*
X59444285Y-108832857D01*
X59358571Y-108861428D01*
X59301428Y-108861428D01*
X59215714Y-108832857D01*
X59158571Y-108775714D01*
X59130000Y-108718571D01*
X59101428Y-108604285D01*
X59101428Y-108518571D01*
X59130000Y-108404285D01*
X59158571Y-108347142D01*
X59215714Y-108290000D01*
X59301428Y-108261428D01*
X59358571Y-108261428D01*
X59444285Y-108290000D01*
X59472857Y-108318571D01*
X59644285Y-108261428D02*
X59987142Y-108261428D01*
X59815714Y-108861428D02*
X59815714Y-108261428D01*
X60187142Y-108861428D02*
X60187142Y-108261428D01*
X60387142Y-108261428D02*
X60587142Y-108861428D01*
X60787142Y-108261428D01*
X60987142Y-108547142D02*
X61187142Y-108547142D01*
X61272857Y-108861428D02*
X60987142Y-108861428D01*
X60987142Y-108261428D01*
X61272857Y-108261428D01*
D13*
X69367142Y-107971428D02*
X69338571Y-108057142D01*
X69338571Y-108200000D01*
X69367142Y-108257142D01*
X69395714Y-108285714D01*
X69452857Y-108314285D01*
X69510000Y-108314285D01*
X69567142Y-108285714D01*
X69595714Y-108257142D01*
X69624285Y-108200000D01*
X69652857Y-108085714D01*
X69681428Y-108028571D01*
X69710000Y-108000000D01*
X69767142Y-107971428D01*
X69824285Y-107971428D01*
X69881428Y-108000000D01*
X69910000Y-108028571D01*
X69938571Y-108085714D01*
X69938571Y-108228571D01*
X69910000Y-108314285D01*
X69338571Y-108571428D02*
X69938571Y-108571428D01*
X69938571Y-108714285D01*
X69910000Y-108800000D01*
X69852857Y-108857142D01*
X69795714Y-108885714D01*
X69681428Y-108914285D01*
X69595714Y-108914285D01*
X69481428Y-108885714D01*
X69424285Y-108857142D01*
X69367142Y-108800000D01*
X69338571Y-108714285D01*
X69338571Y-108571428D01*
X69338571Y-109171428D02*
X69938571Y-109171428D01*
X69938571Y-109571428D02*
X69938571Y-109685714D01*
X69910000Y-109742857D01*
X69852857Y-109800000D01*
X69738571Y-109828571D01*
X69538571Y-109828571D01*
X69424285Y-109800000D01*
X69367142Y-109742857D01*
X69338571Y-109685714D01*
X69338571Y-109571428D01*
X69367142Y-109514285D01*
X69424285Y-109457142D01*
X69538571Y-109428571D01*
X69738571Y-109428571D01*
X69852857Y-109457142D01*
X69910000Y-109514285D01*
X69938571Y-109571428D01*
D12*
%TO.C,D1*%
X77971904Y-109552380D02*
X77971904Y-108552380D01*
X78210000Y-108552380D01*
X78352857Y-108600000D01*
X78448095Y-108695238D01*
X78495714Y-108790476D01*
X78543333Y-108980952D01*
X78543333Y-109123809D01*
X78495714Y-109314285D01*
X78448095Y-109409523D01*
X78352857Y-109504761D01*
X78210000Y-109552380D01*
X77971904Y-109552380D01*
X79495714Y-109552380D02*
X78924285Y-109552380D01*
X79210000Y-109552380D02*
X79210000Y-108552380D01*
X79114761Y-108695238D01*
X79019523Y-108790476D01*
X78924285Y-108838095D01*
D14*
%TO.C,J1*%
X52010000Y-84520000D02*
X44390000Y-84520000D01*
X44390000Y-94680000D02*
X52010000Y-94680000D01*
X44390000Y-84520000D02*
X44390000Y-94680000D01*
X52010000Y-94680000D02*
X52010000Y-84520000D01*
X50740000Y-84520000D02*
X50740000Y-94680000D01*
%TO.C,R4*%
X95305000Y-90862936D02*
X95305000Y-91317064D01*
X96775000Y-90862936D02*
X96775000Y-91317064D01*
%TO.C,C13*%
X68357836Y-85495000D02*
X68142164Y-85495000D01*
X68357836Y-86215000D02*
X68142164Y-86215000D01*
%TO.C,C14*%
X102600000Y-100587836D02*
X102600000Y-100372164D01*
X101880000Y-100587836D02*
X101880000Y-100372164D01*
%TO.C,D1*%
X80960000Y-108100000D02*
X80960000Y-106100000D01*
X80960000Y-108100000D02*
X77060000Y-108100000D01*
X80960000Y-106100000D02*
X77060000Y-106100000D01*
%TO.C,U1*%
X74310000Y-92140000D02*
X74310000Y-91190000D01*
X74310000Y-91190000D02*
X73360000Y-91190000D01*
X74310000Y-101410000D02*
X73360000Y-101410000D01*
X64090000Y-92140000D02*
X64090000Y-91190000D01*
X64090000Y-100460000D02*
X64090000Y-101410000D01*
X64090000Y-91190000D02*
X65040000Y-91190000D01*
X73360000Y-91190000D02*
X73360000Y-89850000D01*
X74310000Y-100460000D02*
X74310000Y-101410000D01*
X64090000Y-101410000D02*
X65040000Y-101410000D01*
%TO.C,C10*%
X66140000Y-87107836D02*
X66140000Y-86892164D01*
X66860000Y-87107836D02*
X66860000Y-86892164D01*
%TO.C,C11*%
X66992164Y-89010000D02*
X67207836Y-89010000D01*
X66992164Y-88290000D02*
X67207836Y-88290000D01*
%TO.C,C1*%
X54060000Y-93111252D02*
X54060000Y-91688748D01*
X55880000Y-93111252D02*
X55880000Y-91688748D01*
%TO.C,C8*%
X77260000Y-92442164D02*
X77260000Y-92657836D01*
X76540000Y-92442164D02*
X76540000Y-92657836D01*
%TO.C,C3*%
X75040000Y-88307836D02*
X75040000Y-88092164D01*
X75760000Y-88307836D02*
X75760000Y-88092164D01*
%TO.C,C6*%
X61860000Y-99907836D02*
X61860000Y-99692164D01*
X61140000Y-99907836D02*
X61140000Y-99692164D01*
%TO.C,C2*%
X54741252Y-99870000D02*
X53318748Y-99870000D01*
X54741252Y-101690000D02*
X53318748Y-101690000D01*
%TO.C,SW1*%
X85160000Y-91050000D02*
X88460000Y-91050000D01*
X88460000Y-91050000D02*
X88460000Y-90750000D01*
X88460000Y-88250000D02*
X88460000Y-88550000D01*
X85160000Y-90750000D02*
X85160000Y-91050000D01*
X85160000Y-88550000D02*
X85160000Y-88250000D01*
X85160000Y-88250000D02*
X88460000Y-88250000D01*
%TO.C,R1*%
X78215000Y-93687064D02*
X78215000Y-93232936D01*
X79685000Y-93687064D02*
X79685000Y-93232936D01*
%TO.C,R2*%
X63122936Y-110515000D02*
X63577064Y-110515000D01*
X63122936Y-111985000D02*
X63577064Y-111985000D01*
%TO.C,Y1*%
X68250000Y-86600000D02*
X71850000Y-86600000D01*
X68250000Y-88600000D02*
X71850000Y-88600000D01*
X68250000Y-86600000D02*
X68250000Y-88600000D01*
%TO.C,R3*%
X60027064Y-111985000D02*
X59572936Y-111985000D01*
X60027064Y-110515000D02*
X59572936Y-110515000D01*
%TO.C,R5*%
X92365000Y-89352936D02*
X92365000Y-89807064D01*
X93835000Y-89352936D02*
X93835000Y-89807064D01*
%TO.C,C4*%
X73407836Y-88340000D02*
X73192164Y-88340000D01*
X73407836Y-89060000D02*
X73192164Y-89060000D01*
%TO.C,U3*%
X53950000Y-97270000D02*
X53950000Y-97920000D01*
X57070000Y-97270000D02*
X57070000Y-95595000D01*
X53950000Y-97270000D02*
X53950000Y-96620000D01*
X57070000Y-97270000D02*
X57070000Y-97920000D01*
%TO.C,J4*%
X95570000Y-111960000D02*
X95570000Y-113290000D01*
X92970000Y-110630000D02*
X82750000Y-110630000D01*
X82750000Y-110630000D02*
X82750000Y-113290000D01*
X92970000Y-113290000D02*
X82750000Y-113290000D01*
X95570000Y-113290000D02*
X94240000Y-113290000D01*
X92970000Y-110630000D02*
X92970000Y-113290000D01*
%TO.C,C9*%
X86702164Y-87040000D02*
X86917836Y-87040000D01*
X86702164Y-87760000D02*
X86917836Y-87760000D01*
%TO.C,C12*%
X71842164Y-86215000D02*
X72057836Y-86215000D01*
X71842164Y-85495000D02*
X72057836Y-85495000D01*
%TO.C,C7*%
X73157836Y-104460000D02*
X72942164Y-104460000D01*
X73157836Y-103740000D02*
X72942164Y-103740000D01*
D12*
%TO.C,U2*%
X84350000Y-110460000D02*
X100350000Y-110460000D01*
X84350000Y-93460000D02*
X100350000Y-93460000D01*
X83850000Y-92960000D02*
G75*
G03*
X83850000Y-92960000I-500000J0D01*
G01*
D14*
%TO.C,C5*%
X61860000Y-93357836D02*
X61860000Y-93142164D01*
X61140000Y-93357836D02*
X61140000Y-93142164D01*
%TO.C,D2*%
X61815000Y-107865000D02*
X61815000Y-109335000D01*
X61815000Y-109335000D02*
X64100000Y-109335000D01*
X64100000Y-107865000D02*
X61815000Y-107865000D01*
%TO.C,D3*%
X64735000Y-106785000D02*
X64735000Y-105315000D01*
X64735000Y-105315000D02*
X62450000Y-105315000D01*
X62450000Y-106785000D02*
X64735000Y-106785000D01*
%TO.C,J2*%
X70870000Y-112905000D02*
X76010000Y-112905000D01*
X76010000Y-112905000D02*
X76010000Y-110245000D01*
X70870000Y-110245000D02*
X76010000Y-110245000D01*
X68270000Y-110245000D02*
X69600000Y-110245000D01*
X68270000Y-111575000D02*
X68270000Y-110245000D01*
X70870000Y-112905000D02*
X70870000Y-110245000D01*
%TO.C,J7*%
X106700000Y-110920000D02*
X106700000Y-109810000D01*
X102440000Y-108970000D02*
X101940000Y-108720000D01*
X106700000Y-108130000D02*
X106700000Y-107020000D01*
X101940000Y-108720000D02*
X101940000Y-109220000D01*
X102990000Y-110920000D02*
X102990000Y-109810000D01*
X102990000Y-108130000D02*
X102990000Y-107020000D01*
X101940000Y-109220000D02*
X102440000Y-108970000D01*
%TD*%
M02*
