%TF.GenerationSoftware,KiCad,Pcbnew,(6.0.1)*%
%TF.CreationDate,2023-03-06T20:27:36-05:00*%
%TF.ProjectId,PCBFiles_Node,50434246-696c-4657-935f-4e6f64652e6b,rev?*%
%TF.SameCoordinates,Original*%
%TF.FileFunction,Paste,Top*%
%TF.FilePolarity,Positive*%
%FSLAX46Y46*%
G04 Gerber Fmt 4.6, Leading zero omitted, Abs format (unit mm)*
G04 Created by KiCad (PCBNEW (6.0.1)) date 2023-03-06 20:27:36*
%MOMM*%
%LPD*%
G01*
G04 APERTURE LIST*
G04 Aperture macros list*
%AMRoundRect*
0 Rectangle with rounded corners*
0 $1 Rounding radius*
0 $2 $3 $4 $5 $6 $7 $8 $9 X,Y pos of 4 corners*
0 Add a 4 corners polygon primitive as box body*
4,1,4,$2,$3,$4,$5,$6,$7,$8,$9,$2,$3,0*
0 Add four circle primitives for the rounded corners*
1,1,$1+$1,$2,$3*
1,1,$1+$1,$4,$5*
1,1,$1+$1,$6,$7*
1,1,$1+$1,$8,$9*
0 Add four rect primitives between the rounded corners*
20,1,$1+$1,$2,$3,$4,$5,0*
20,1,$1+$1,$4,$5,$6,$7,0*
20,1,$1+$1,$6,$7,$8,$9,0*
20,1,$1+$1,$8,$9,$2,$3,0*%
G04 Aperture macros list end*
%ADD10RoundRect,0.250000X-0.450000X0.262500X-0.450000X-0.262500X0.450000X-0.262500X0.450000X0.262500X0*%
%ADD11RoundRect,0.140000X0.140000X0.170000X-0.140000X0.170000X-0.140000X-0.170000X0.140000X-0.170000X0*%
%ADD12RoundRect,0.140000X0.170000X-0.140000X0.170000X0.140000X-0.170000X0.140000X-0.170000X-0.140000X0*%
%ADD13R,0.900000X1.200000*%
%ADD14RoundRect,0.075000X-0.075000X0.700000X-0.075000X-0.700000X0.075000X-0.700000X0.075000X0.700000X0*%
%ADD15RoundRect,0.075000X-0.700000X0.075000X-0.700000X-0.075000X0.700000X-0.075000X0.700000X0.075000X0*%
%ADD16RoundRect,0.140000X-0.140000X-0.170000X0.140000X-0.170000X0.140000X0.170000X-0.140000X0.170000X0*%
%ADD17RoundRect,0.250000X0.650000X-0.325000X0.650000X0.325000X-0.650000X0.325000X-0.650000X-0.325000X0*%
%ADD18RoundRect,0.140000X-0.170000X0.140000X-0.170000X-0.140000X0.170000X-0.140000X0.170000X0.140000X0*%
%ADD19RoundRect,0.147500X-0.147500X-0.172500X0.147500X-0.172500X0.147500X0.172500X-0.147500X0.172500X0*%
%ADD20RoundRect,0.250000X0.325000X0.650000X-0.325000X0.650000X-0.325000X-0.650000X0.325000X-0.650000X0*%
%ADD21R,0.900000X1.700000*%
%ADD22RoundRect,0.250000X0.450000X-0.262500X0.450000X0.262500X-0.450000X0.262500X-0.450000X-0.262500X0*%
%ADD23RoundRect,0.250000X-0.262500X-0.450000X0.262500X-0.450000X0.262500X0.450000X-0.262500X0.450000X0*%
%ADD24R,1.000000X1.800000*%
%ADD25RoundRect,0.250000X0.262500X0.450000X-0.262500X0.450000X-0.262500X-0.450000X0.262500X-0.450000X0*%
%ADD26RoundRect,0.150000X-0.150000X0.587500X-0.150000X-0.587500X0.150000X-0.587500X0.150000X0.587500X0*%
%ADD27R,3.000000X1.300000*%
%ADD28RoundRect,0.218750X-0.218750X-0.256250X0.218750X-0.256250X0.218750X0.256250X-0.218750X0.256250X0*%
%ADD29RoundRect,0.218750X0.218750X0.256250X-0.218750X0.256250X-0.218750X-0.256250X0.218750X-0.256250X0*%
%ADD30R,3.600000X1.270000*%
%ADD31R,4.200000X1.350000*%
G04 APERTURE END LIST*
D10*
%TO.C,R4*%
X96040000Y-90177500D03*
X96040000Y-92002500D03*
%TD*%
D11*
%TO.C,C13*%
X68730000Y-85855000D03*
X67770000Y-85855000D03*
%TD*%
D12*
%TO.C,C14*%
X102240000Y-100960000D03*
X102240000Y-100000000D03*
%TD*%
D13*
%TO.C,D1*%
X80360000Y-107100000D03*
X77060000Y-107100000D03*
%TD*%
D14*
%TO.C,U1*%
X72950000Y-90625000D03*
X72450000Y-90625000D03*
X71950000Y-90625000D03*
X71450000Y-90625000D03*
X70950000Y-90625000D03*
X70450000Y-90625000D03*
X69950000Y-90625000D03*
X69450000Y-90625000D03*
X68950000Y-90625000D03*
X68450000Y-90625000D03*
X67950000Y-90625000D03*
X67450000Y-90625000D03*
X66950000Y-90625000D03*
X66450000Y-90625000D03*
X65950000Y-90625000D03*
X65450000Y-90625000D03*
D15*
X63525000Y-92550000D03*
X63525000Y-93050000D03*
X63525000Y-93550000D03*
X63525000Y-94050000D03*
X63525000Y-94550000D03*
X63525000Y-95050000D03*
X63525000Y-95550000D03*
X63525000Y-96050000D03*
X63525000Y-96550000D03*
X63525000Y-97050000D03*
X63525000Y-97550000D03*
X63525000Y-98050000D03*
X63525000Y-98550000D03*
X63525000Y-99050000D03*
X63525000Y-99550000D03*
X63525000Y-100050000D03*
D14*
X65450000Y-101975000D03*
X65950000Y-101975000D03*
X66450000Y-101975000D03*
X66950000Y-101975000D03*
X67450000Y-101975000D03*
X67950000Y-101975000D03*
X68450000Y-101975000D03*
X68950000Y-101975000D03*
X69450000Y-101975000D03*
X69950000Y-101975000D03*
X70450000Y-101975000D03*
X70950000Y-101975000D03*
X71450000Y-101975000D03*
X71950000Y-101975000D03*
X72450000Y-101975000D03*
X72950000Y-101975000D03*
D15*
X74875000Y-100050000D03*
X74875000Y-99550000D03*
X74875000Y-99050000D03*
X74875000Y-98550000D03*
X74875000Y-98050000D03*
X74875000Y-97550000D03*
X74875000Y-97050000D03*
X74875000Y-96550000D03*
X74875000Y-96050000D03*
X74875000Y-95550000D03*
X74875000Y-95050000D03*
X74875000Y-94550000D03*
X74875000Y-94050000D03*
X74875000Y-93550000D03*
X74875000Y-93050000D03*
X74875000Y-92550000D03*
%TD*%
D12*
%TO.C,C10*%
X66500000Y-87480000D03*
X66500000Y-86520000D03*
%TD*%
D16*
%TO.C,C11*%
X66620000Y-88650000D03*
X67580000Y-88650000D03*
%TD*%
D17*
%TO.C,C1*%
X54970000Y-93875000D03*
X54970000Y-90925000D03*
%TD*%
D18*
%TO.C,C8*%
X76900000Y-92070000D03*
X76900000Y-93030000D03*
%TD*%
D12*
%TO.C,C3*%
X75400000Y-88680000D03*
X75400000Y-87720000D03*
%TD*%
%TO.C,C6*%
X61500000Y-100280000D03*
X61500000Y-99320000D03*
%TD*%
D19*
%TO.C,L1*%
X64265000Y-87550000D03*
X65235000Y-87550000D03*
%TD*%
D20*
%TO.C,C2*%
X55505000Y-100780000D03*
X52555000Y-100780000D03*
%TD*%
D21*
%TO.C,SW1*%
X85110000Y-89650000D03*
X88510000Y-89650000D03*
%TD*%
D22*
%TO.C,R1*%
X78950000Y-94372500D03*
X78950000Y-92547500D03*
%TD*%
D23*
%TO.C,R2*%
X62437500Y-111250000D03*
X64262500Y-111250000D03*
%TD*%
D24*
%TO.C,Y1*%
X68850000Y-87600000D03*
X71350000Y-87600000D03*
%TD*%
D25*
%TO.C,R3*%
X60712500Y-111250000D03*
X58887500Y-111250000D03*
%TD*%
D10*
%TO.C,R5*%
X93100000Y-88667500D03*
X93100000Y-90492500D03*
%TD*%
D11*
%TO.C,C4*%
X73780000Y-88700000D03*
X72820000Y-88700000D03*
%TD*%
D26*
%TO.C,U3*%
X56460000Y-96332500D03*
X54560000Y-96332500D03*
X55510000Y-98207500D03*
%TD*%
D16*
%TO.C,C9*%
X86330000Y-87400000D03*
X87290000Y-87400000D03*
%TD*%
%TO.C,C12*%
X71470000Y-85855000D03*
X72430000Y-85855000D03*
%TD*%
D11*
%TO.C,C7*%
X73530000Y-104100000D03*
X72570000Y-104100000D03*
%TD*%
D27*
%TO.C,U2*%
X84850000Y-94960000D03*
X84850000Y-96960000D03*
X84850000Y-98960000D03*
X84850000Y-100960000D03*
X84850000Y-102960000D03*
X84850000Y-104960000D03*
X84850000Y-106960000D03*
X84850000Y-108960000D03*
X99850000Y-94960000D03*
X99850000Y-96960000D03*
X99850000Y-98960000D03*
X99850000Y-100960000D03*
X99850000Y-102960000D03*
X99850000Y-104960000D03*
X99850000Y-106960000D03*
X99850000Y-108960000D03*
%TD*%
D12*
%TO.C,C5*%
X61500000Y-93730000D03*
X61500000Y-92770000D03*
%TD*%
D28*
%TO.C,D2*%
X62512500Y-108600000D03*
X64087500Y-108600000D03*
%TD*%
D29*
%TO.C,D3*%
X64037500Y-106050000D03*
X62462500Y-106050000D03*
%TD*%
D30*
%TO.C,J7*%
X104900000Y-108970000D03*
D31*
X104700000Y-111795000D03*
X104700000Y-106145000D03*
%TD*%
M02*
