%TF.GenerationSoftware,KiCad,Pcbnew,(6.0.1)*%
%TF.CreationDate,2023-03-02T19:10:53-05:00*%
%TF.ProjectId,PCBFiles_Gateway,50434246-696c-4657-935f-476174657761,rev?*%
%TF.SameCoordinates,Original*%
%TF.FileFunction,Legend,Bot*%
%TF.FilePolarity,Positive*%
%FSLAX46Y46*%
G04 Gerber Fmt 4.6, Leading zero omitted, Abs format (unit mm)*
G04 Created by KiCad (PCBNEW (6.0.1)) date 2023-03-02 19:10:53*
%MOMM*%
%LPD*%
G01*
G04 APERTURE LIST*
%ADD10C,0.150000*%
G04 APERTURE END LIST*
D10*
X128607380Y-107016190D02*
X129607380Y-107349523D01*
X128607380Y-107682857D01*
X129607380Y-108539999D02*
X129607380Y-107968571D01*
X129607380Y-108254285D02*
X128607380Y-108254285D01*
X128750238Y-108159047D01*
X128845476Y-108063809D01*
X128893095Y-107968571D01*
X129512142Y-108968571D02*
X129559761Y-109016190D01*
X129607380Y-108968571D01*
X129559761Y-108920952D01*
X129512142Y-108968571D01*
X129607380Y-108968571D01*
X128607380Y-109635238D02*
X128607380Y-109730476D01*
X128655000Y-109825714D01*
X128702619Y-109873333D01*
X128797857Y-109920952D01*
X128988333Y-109968571D01*
X129226428Y-109968571D01*
X129416904Y-109920952D01*
X129512142Y-109873333D01*
X129559761Y-109825714D01*
X129607380Y-109730476D01*
X129607380Y-109635238D01*
X129559761Y-109539999D01*
X129512142Y-109492380D01*
X129416904Y-109444761D01*
X129226428Y-109397142D01*
X128988333Y-109397142D01*
X128797857Y-109444761D01*
X128702619Y-109492380D01*
X128655000Y-109539999D01*
X128607380Y-109635238D01*
X130217380Y-106540000D02*
X130217380Y-106063809D01*
X130693571Y-106016190D01*
X130645952Y-106063809D01*
X130598333Y-106159047D01*
X130598333Y-106397142D01*
X130645952Y-106492380D01*
X130693571Y-106540000D01*
X130788809Y-106587619D01*
X131026904Y-106587619D01*
X131122142Y-106540000D01*
X131169761Y-106492380D01*
X131217380Y-106397142D01*
X131217380Y-106159047D01*
X131169761Y-106063809D01*
X131122142Y-106016190D01*
X130217380Y-106873333D02*
X131217380Y-107206666D01*
X130217380Y-107540000D01*
X131217380Y-108635238D02*
X130217380Y-108635238D01*
X130931666Y-108968571D01*
X130217380Y-109301904D01*
X131217380Y-109301904D01*
X131217380Y-110206666D02*
X130693571Y-110206666D01*
X130598333Y-110159047D01*
X130550714Y-110063809D01*
X130550714Y-109873333D01*
X130598333Y-109778095D01*
X131169761Y-110206666D02*
X131217380Y-110111428D01*
X131217380Y-109873333D01*
X131169761Y-109778095D01*
X131074523Y-109730476D01*
X130979285Y-109730476D01*
X130884047Y-109778095D01*
X130836428Y-109873333D01*
X130836428Y-110111428D01*
X130788809Y-110206666D01*
X131217380Y-110587619D02*
X130550714Y-111111428D01*
X130550714Y-110587619D02*
X131217380Y-111111428D01*
X161183809Y-104882380D02*
X161183809Y-103882380D01*
X160945714Y-103882380D01*
X160802857Y-103930000D01*
X160707619Y-104025238D01*
X160660000Y-104120476D01*
X160612380Y-104310952D01*
X160612380Y-104453809D01*
X160660000Y-104644285D01*
X160707619Y-104739523D01*
X160802857Y-104834761D01*
X160945714Y-104882380D01*
X161183809Y-104882380D01*
X159802857Y-104834761D02*
X159898095Y-104882380D01*
X160088571Y-104882380D01*
X160183809Y-104834761D01*
X160231428Y-104739523D01*
X160231428Y-104358571D01*
X160183809Y-104263333D01*
X160088571Y-104215714D01*
X159898095Y-104215714D01*
X159802857Y-104263333D01*
X159755238Y-104358571D01*
X159755238Y-104453809D01*
X160231428Y-104549047D01*
X159374285Y-104834761D02*
X159279047Y-104882380D01*
X159088571Y-104882380D01*
X158993333Y-104834761D01*
X158945714Y-104739523D01*
X158945714Y-104691904D01*
X158993333Y-104596666D01*
X159088571Y-104549047D01*
X159231428Y-104549047D01*
X159326666Y-104501428D01*
X159374285Y-104406190D01*
X159374285Y-104358571D01*
X159326666Y-104263333D01*
X159231428Y-104215714D01*
X159088571Y-104215714D01*
X158993333Y-104263333D01*
X158088571Y-104882380D02*
X158088571Y-104358571D01*
X158136190Y-104263333D01*
X158231428Y-104215714D01*
X158421904Y-104215714D01*
X158517142Y-104263333D01*
X158088571Y-104834761D02*
X158183809Y-104882380D01*
X158421904Y-104882380D01*
X158517142Y-104834761D01*
X158564761Y-104739523D01*
X158564761Y-104644285D01*
X158517142Y-104549047D01*
X158421904Y-104501428D01*
X158183809Y-104501428D01*
X158088571Y-104453809D01*
X157612380Y-104882380D02*
X157612380Y-104215714D01*
X157612380Y-104406190D02*
X157564761Y-104310952D01*
X157517142Y-104263333D01*
X157421904Y-104215714D01*
X157326666Y-104215714D01*
X156993333Y-104882380D02*
X156993333Y-104215714D01*
X156993333Y-104406190D02*
X156945714Y-104310952D01*
X156898095Y-104263333D01*
X156802857Y-104215714D01*
X156707619Y-104215714D01*
X156231428Y-104882380D02*
X156326666Y-104834761D01*
X156374285Y-104787142D01*
X156421904Y-104691904D01*
X156421904Y-104406190D01*
X156374285Y-104310952D01*
X156326666Y-104263333D01*
X156231428Y-104215714D01*
X156088571Y-104215714D01*
X155993333Y-104263333D01*
X155945714Y-104310952D01*
X155898095Y-104406190D01*
X155898095Y-104691904D01*
X155945714Y-104787142D01*
X155993333Y-104834761D01*
X156088571Y-104882380D01*
X156231428Y-104882380D01*
X155326666Y-104882380D02*
X155421904Y-104834761D01*
X155469523Y-104739523D01*
X155469523Y-103882380D01*
X154802857Y-104882380D02*
X154898095Y-104834761D01*
X154945714Y-104739523D01*
X154945714Y-103882380D01*
X153993333Y-104882380D02*
X153993333Y-104358571D01*
X154040952Y-104263333D01*
X154136190Y-104215714D01*
X154326666Y-104215714D01*
X154421904Y-104263333D01*
X153993333Y-104834761D02*
X154088571Y-104882380D01*
X154326666Y-104882380D01*
X154421904Y-104834761D01*
X154469523Y-104739523D01*
X154469523Y-104644285D01*
X154421904Y-104549047D01*
X154326666Y-104501428D01*
X154088571Y-104501428D01*
X153993333Y-104453809D01*
X153088571Y-104882380D02*
X153088571Y-103882380D01*
X153088571Y-104834761D02*
X153183809Y-104882380D01*
X153374285Y-104882380D01*
X153469523Y-104834761D01*
X153517142Y-104787142D01*
X153564761Y-104691904D01*
X153564761Y-104406190D01*
X153517142Y-104310952D01*
X153469523Y-104263333D01*
X153374285Y-104215714D01*
X153183809Y-104215714D01*
X153088571Y-104263333D01*
X152469523Y-104882380D02*
X152564761Y-104834761D01*
X152612380Y-104787142D01*
X152660000Y-104691904D01*
X152660000Y-104406190D01*
X152612380Y-104310952D01*
X152564761Y-104263333D01*
X152469523Y-104215714D01*
X152326666Y-104215714D01*
X152231428Y-104263333D01*
X152183809Y-104310952D01*
X152136190Y-104406190D01*
X152136190Y-104691904D01*
X152183809Y-104787142D01*
X152231428Y-104834761D01*
X152326666Y-104882380D01*
X152469523Y-104882380D01*
X150945714Y-104215714D02*
X150945714Y-105215714D01*
X150945714Y-104263333D02*
X150850476Y-104215714D01*
X150660000Y-104215714D01*
X150564761Y-104263333D01*
X150517142Y-104310952D01*
X150469523Y-104406190D01*
X150469523Y-104691904D01*
X150517142Y-104787142D01*
X150564761Y-104834761D01*
X150660000Y-104882380D01*
X150850476Y-104882380D01*
X150945714Y-104834761D01*
X149898095Y-104882380D02*
X149993333Y-104834761D01*
X150040952Y-104787142D01*
X150088571Y-104691904D01*
X150088571Y-104406190D01*
X150040952Y-104310952D01*
X149993333Y-104263333D01*
X149898095Y-104215714D01*
X149755238Y-104215714D01*
X149660000Y-104263333D01*
X149612380Y-104310952D01*
X149564761Y-104406190D01*
X149564761Y-104691904D01*
X149612380Y-104787142D01*
X149660000Y-104834761D01*
X149755238Y-104882380D01*
X149898095Y-104882380D01*
X149136190Y-104882380D02*
X149136190Y-104215714D01*
X149136190Y-104406190D02*
X149088571Y-104310952D01*
X149040952Y-104263333D01*
X148945714Y-104215714D01*
X148850476Y-104215714D01*
X148517142Y-104787142D02*
X148469523Y-104834761D01*
X148517142Y-104882380D01*
X148564761Y-104834761D01*
X148517142Y-104787142D01*
X148517142Y-104882380D01*
X148517142Y-104263333D02*
X148469523Y-104310952D01*
X148517142Y-104358571D01*
X148564761Y-104310952D01*
X148517142Y-104263333D01*
X148517142Y-104358571D01*
X146802857Y-104882380D02*
X147279047Y-104882380D01*
X147279047Y-103882380D01*
X146469523Y-104787142D02*
X146421904Y-104834761D01*
X146469523Y-104882380D01*
X146517142Y-104834761D01*
X146469523Y-104787142D01*
X146469523Y-104882380D01*
X145326666Y-103882380D02*
X144660000Y-103882380D01*
X145326666Y-104882380D01*
X144660000Y-104882380D01*
X143850476Y-104882380D02*
X143850476Y-104358571D01*
X143898095Y-104263333D01*
X143993333Y-104215714D01*
X144183809Y-104215714D01*
X144279047Y-104263333D01*
X143850476Y-104834761D02*
X143945714Y-104882380D01*
X144183809Y-104882380D01*
X144279047Y-104834761D01*
X144326666Y-104739523D01*
X144326666Y-104644285D01*
X144279047Y-104549047D01*
X144183809Y-104501428D01*
X143945714Y-104501428D01*
X143850476Y-104453809D01*
X142945714Y-104215714D02*
X142945714Y-105025238D01*
X142993333Y-105120476D01*
X143040952Y-105168095D01*
X143136190Y-105215714D01*
X143279047Y-105215714D01*
X143374285Y-105168095D01*
X142945714Y-104834761D02*
X143040952Y-104882380D01*
X143231428Y-104882380D01*
X143326666Y-104834761D01*
X143374285Y-104787142D01*
X143421904Y-104691904D01*
X143421904Y-104406190D01*
X143374285Y-104310952D01*
X143326666Y-104263333D01*
X143231428Y-104215714D01*
X143040952Y-104215714D01*
X142945714Y-104263333D01*
X142040952Y-104882380D02*
X142040952Y-104358571D01*
X142088571Y-104263333D01*
X142183809Y-104215714D01*
X142374285Y-104215714D01*
X142469523Y-104263333D01*
X142040952Y-104834761D02*
X142136190Y-104882380D01*
X142374285Y-104882380D01*
X142469523Y-104834761D01*
X142517142Y-104739523D01*
X142517142Y-104644285D01*
X142469523Y-104549047D01*
X142374285Y-104501428D01*
X142136190Y-104501428D01*
X142040952Y-104453809D01*
X141612380Y-104834761D02*
X141517142Y-104882380D01*
X141326666Y-104882380D01*
X141231428Y-104834761D01*
X141183809Y-104739523D01*
X141183809Y-104691904D01*
X141231428Y-104596666D01*
X141326666Y-104549047D01*
X141469523Y-104549047D01*
X141564761Y-104501428D01*
X141612380Y-104406190D01*
X141612380Y-104358571D01*
X141564761Y-104263333D01*
X141469523Y-104215714D01*
X141326666Y-104215714D01*
X141231428Y-104263333D01*
X140898095Y-104215714D02*
X140517142Y-104215714D01*
X140755238Y-103882380D02*
X140755238Y-104739523D01*
X140707619Y-104834761D01*
X140612380Y-104882380D01*
X140517142Y-104882380D01*
X140183809Y-104882380D02*
X140183809Y-104215714D01*
X140183809Y-103882380D02*
X140231428Y-103930000D01*
X140183809Y-103977619D01*
X140136190Y-103930000D01*
X140183809Y-103882380D01*
X140183809Y-103977619D01*
X139802857Y-104215714D02*
X139279047Y-104215714D01*
X139802857Y-104882380D01*
X139279047Y-104882380D01*
X138469523Y-104882380D02*
X138469523Y-104358571D01*
X138517142Y-104263333D01*
X138612380Y-104215714D01*
X138802857Y-104215714D01*
X138898095Y-104263333D01*
X138469523Y-104834761D02*
X138564761Y-104882380D01*
X138802857Y-104882380D01*
X138898095Y-104834761D01*
X138945714Y-104739523D01*
X138945714Y-104644285D01*
X138898095Y-104549047D01*
X138802857Y-104501428D01*
X138564761Y-104501428D01*
X138469523Y-104453809D01*
X137993333Y-104882380D02*
X137993333Y-103882380D01*
X137993333Y-104263333D02*
X137898095Y-104215714D01*
X137707619Y-104215714D01*
X137612380Y-104263333D01*
X137564761Y-104310952D01*
X137517142Y-104406190D01*
X137517142Y-104691904D01*
X137564761Y-104787142D01*
X137612380Y-104834761D01*
X137707619Y-104882380D01*
X137898095Y-104882380D01*
X137993333Y-104834761D01*
X136660000Y-104882380D02*
X136660000Y-104358571D01*
X136707619Y-104263333D01*
X136802857Y-104215714D01*
X136993333Y-104215714D01*
X137088571Y-104263333D01*
X136660000Y-104834761D02*
X136755238Y-104882380D01*
X136993333Y-104882380D01*
X137088571Y-104834761D01*
X137136190Y-104739523D01*
X137136190Y-104644285D01*
X137088571Y-104549047D01*
X136993333Y-104501428D01*
X136755238Y-104501428D01*
X136660000Y-104453809D01*
X136040952Y-104882380D02*
X136136190Y-104834761D01*
X136183809Y-104739523D01*
X136183809Y-103882380D01*
X158981904Y-102912380D02*
X158981904Y-101912380D01*
X158505714Y-102245714D02*
X158505714Y-102912380D01*
X158505714Y-102340952D02*
X158458095Y-102293333D01*
X158362857Y-102245714D01*
X158220000Y-102245714D01*
X158124761Y-102293333D01*
X158077142Y-102388571D01*
X158077142Y-102912380D01*
X157172380Y-102245714D02*
X157172380Y-103055238D01*
X157220000Y-103150476D01*
X157267619Y-103198095D01*
X157362857Y-103245714D01*
X157505714Y-103245714D01*
X157600952Y-103198095D01*
X157172380Y-102864761D02*
X157267619Y-102912380D01*
X157458095Y-102912380D01*
X157553333Y-102864761D01*
X157600952Y-102817142D01*
X157648571Y-102721904D01*
X157648571Y-102436190D01*
X157600952Y-102340952D01*
X157553333Y-102293333D01*
X157458095Y-102245714D01*
X157267619Y-102245714D01*
X157172380Y-102293333D01*
X156315238Y-102864761D02*
X156410476Y-102912380D01*
X156600952Y-102912380D01*
X156696190Y-102864761D01*
X156743809Y-102769523D01*
X156743809Y-102388571D01*
X156696190Y-102293333D01*
X156600952Y-102245714D01*
X156410476Y-102245714D01*
X156315238Y-102293333D01*
X156267619Y-102388571D01*
X156267619Y-102483809D01*
X156743809Y-102579047D01*
X155839047Y-102245714D02*
X155839047Y-102912380D01*
X155839047Y-102340952D02*
X155791428Y-102293333D01*
X155696190Y-102245714D01*
X155553333Y-102245714D01*
X155458095Y-102293333D01*
X155410476Y-102388571D01*
X155410476Y-102912380D01*
X154934285Y-102912380D02*
X154934285Y-102245714D01*
X154934285Y-101912380D02*
X154981904Y-101960000D01*
X154934285Y-102007619D01*
X154886666Y-101960000D01*
X154934285Y-101912380D01*
X154934285Y-102007619D01*
X154077142Y-102864761D02*
X154172380Y-102912380D01*
X154362857Y-102912380D01*
X154458095Y-102864761D01*
X154505714Y-102769523D01*
X154505714Y-102388571D01*
X154458095Y-102293333D01*
X154362857Y-102245714D01*
X154172380Y-102245714D01*
X154077142Y-102293333D01*
X154029523Y-102388571D01*
X154029523Y-102483809D01*
X154505714Y-102579047D01*
X153600952Y-102912380D02*
X153600952Y-102245714D01*
X153600952Y-102436190D02*
X153553333Y-102340952D01*
X153505714Y-102293333D01*
X153410476Y-102245714D01*
X153315238Y-102245714D01*
X152981904Y-102912380D02*
X152981904Y-102245714D01*
X152886666Y-101864761D02*
X153029523Y-102007619D01*
X152077142Y-102912380D02*
X152077142Y-102388571D01*
X152124761Y-102293333D01*
X152220000Y-102245714D01*
X152410476Y-102245714D01*
X152505714Y-102293333D01*
X152077142Y-102864761D02*
X152172380Y-102912380D01*
X152410476Y-102912380D01*
X152505714Y-102864761D01*
X152553333Y-102769523D01*
X152553333Y-102674285D01*
X152505714Y-102579047D01*
X152410476Y-102531428D01*
X152172380Y-102531428D01*
X152077142Y-102483809D01*
X150839047Y-102388571D02*
X150505714Y-102388571D01*
X150362857Y-102912380D02*
X150839047Y-102912380D01*
X150839047Y-101912380D01*
X150362857Y-101912380D01*
X149791428Y-102912380D02*
X149886666Y-102864761D01*
X149934285Y-102769523D01*
X149934285Y-101912380D01*
X149029523Y-102864761D02*
X149124761Y-102912380D01*
X149315238Y-102912380D01*
X149410476Y-102864761D01*
X149458095Y-102769523D01*
X149458095Y-102388571D01*
X149410476Y-102293333D01*
X149315238Y-102245714D01*
X149124761Y-102245714D01*
X149029523Y-102293333D01*
X148981904Y-102388571D01*
X148981904Y-102483809D01*
X149458095Y-102579047D01*
X148124761Y-102864761D02*
X148220000Y-102912380D01*
X148410476Y-102912380D01*
X148505714Y-102864761D01*
X148553333Y-102817142D01*
X148600952Y-102721904D01*
X148600952Y-102436190D01*
X148553333Y-102340952D01*
X148505714Y-102293333D01*
X148410476Y-102245714D01*
X148220000Y-102245714D01*
X148124761Y-102293333D01*
X147839047Y-102245714D02*
X147458095Y-102245714D01*
X147696190Y-101912380D02*
X147696190Y-102769523D01*
X147648571Y-102864761D01*
X147553333Y-102912380D01*
X147458095Y-102912380D01*
X147124761Y-102912380D02*
X147124761Y-102245714D01*
X147124761Y-102436190D02*
X147077142Y-102340952D01*
X147029523Y-102293333D01*
X146934285Y-102245714D01*
X146839047Y-102245714D01*
X146362857Y-102912380D02*
X146458095Y-102864761D01*
X146505714Y-102817142D01*
X146553333Y-102721904D01*
X146553333Y-102436190D01*
X146505714Y-102340952D01*
X146458095Y-102293333D01*
X146362857Y-102245714D01*
X146220000Y-102245714D01*
X146124761Y-102293333D01*
X146077142Y-102340952D01*
X146029523Y-102436190D01*
X146029523Y-102721904D01*
X146077142Y-102817142D01*
X146124761Y-102864761D01*
X146220000Y-102912380D01*
X146362857Y-102912380D01*
X146172380Y-101864761D02*
X146315238Y-102007619D01*
X145600952Y-102245714D02*
X145600952Y-102912380D01*
X145600952Y-102340952D02*
X145553333Y-102293333D01*
X145458095Y-102245714D01*
X145315238Y-102245714D01*
X145220000Y-102293333D01*
X145172380Y-102388571D01*
X145172380Y-102912380D01*
X144696190Y-102912380D02*
X144696190Y-102245714D01*
X144696190Y-101912380D02*
X144743809Y-101960000D01*
X144696190Y-102007619D01*
X144648571Y-101960000D01*
X144696190Y-101912380D01*
X144696190Y-102007619D01*
X143791428Y-102864761D02*
X143886666Y-102912380D01*
X144077142Y-102912380D01*
X144172380Y-102864761D01*
X144220000Y-102817142D01*
X144267619Y-102721904D01*
X144267619Y-102436190D01*
X144220000Y-102340952D01*
X144172380Y-102293333D01*
X144077142Y-102245714D01*
X143886666Y-102245714D01*
X143791428Y-102293333D01*
X142934285Y-102912380D02*
X142934285Y-102388571D01*
X142981904Y-102293333D01*
X143077142Y-102245714D01*
X143267619Y-102245714D01*
X143362857Y-102293333D01*
X142934285Y-102864761D02*
X143029523Y-102912380D01*
X143267619Y-102912380D01*
X143362857Y-102864761D01*
X143410476Y-102769523D01*
X143410476Y-102674285D01*
X143362857Y-102579047D01*
X143267619Y-102531428D01*
X143029523Y-102531428D01*
X142934285Y-102483809D01*
X141696190Y-101912380D02*
X141696190Y-102721904D01*
X141648571Y-102817142D01*
X141600952Y-102864761D01*
X141505714Y-102912380D01*
X141315238Y-102912380D01*
X141220000Y-102864761D01*
X141172380Y-102817142D01*
X141124761Y-102721904D01*
X141124761Y-101912380D01*
X140791428Y-101912380D02*
X140220000Y-101912380D01*
X140505714Y-102912380D02*
X140505714Y-101912380D01*
X139886666Y-102388571D02*
X139553333Y-102388571D01*
X139410476Y-102912380D02*
X139886666Y-102912380D01*
X139886666Y-101912380D01*
X139410476Y-101912380D01*
X138410476Y-102817142D02*
X138458095Y-102864761D01*
X138600952Y-102912380D01*
X138696190Y-102912380D01*
X138839047Y-102864761D01*
X138934285Y-102769523D01*
X138981904Y-102674285D01*
X139029523Y-102483809D01*
X139029523Y-102340952D01*
X138981904Y-102150476D01*
X138934285Y-102055238D01*
X138839047Y-101960000D01*
X138696190Y-101912380D01*
X138600952Y-101912380D01*
X138458095Y-101960000D01*
X138410476Y-102007619D01*
%TO.C,G\u002A\u002A\u002A*%
G36*
X152444274Y-96843641D02*
G01*
X152417622Y-96894977D01*
X152358837Y-96908903D01*
X152149646Y-96927109D01*
X151823340Y-96941815D01*
X151411293Y-96952858D01*
X150944883Y-96960076D01*
X150455483Y-96963307D01*
X149974470Y-96962386D01*
X149533220Y-96957152D01*
X149163108Y-96947442D01*
X148895511Y-96933093D01*
X148761802Y-96913941D01*
X148706777Y-96875756D01*
X148646114Y-96723511D01*
X148627877Y-96437074D01*
X148627877Y-96011597D01*
X149474544Y-95166704D01*
X149625859Y-95014991D01*
X149924926Y-94706565D01*
X150125718Y-94479765D01*
X150246510Y-94310431D01*
X150305582Y-94174402D01*
X150321211Y-94047516D01*
X150332706Y-93936933D01*
X150408889Y-93660657D01*
X150532877Y-93375130D01*
X150553881Y-93334881D01*
X150710513Y-92928456D01*
X150720641Y-92605063D01*
X150583746Y-92362086D01*
X150299309Y-92196911D01*
X150270851Y-92188693D01*
X150038077Y-92199021D01*
X149784128Y-92299527D01*
X149589970Y-92460162D01*
X149489862Y-92685056D01*
X149519849Y-92949375D01*
X149684002Y-93282333D01*
X149780609Y-93447899D01*
X149881163Y-93680656D01*
X149904415Y-93893409D01*
X149840657Y-94112817D01*
X149680181Y-94365541D01*
X149413277Y-94678243D01*
X149030236Y-95077584D01*
X148861299Y-95249521D01*
X148572441Y-95548367D01*
X148376411Y-95766121D01*
X148255019Y-95929501D01*
X148190076Y-96065226D01*
X148163392Y-96200013D01*
X148156777Y-96360582D01*
X148152263Y-96483312D01*
X148126858Y-96722521D01*
X148088088Y-96863606D01*
X148048177Y-96883762D01*
X147865010Y-96914052D01*
X147567113Y-96937952D01*
X147189098Y-96955088D01*
X146765578Y-96965087D01*
X146331163Y-96967577D01*
X145920466Y-96962183D01*
X145568098Y-96948534D01*
X145308672Y-96926256D01*
X145176800Y-96894977D01*
X145160590Y-96873219D01*
X145136925Y-96780214D01*
X145118146Y-96605963D01*
X145114763Y-96542000D01*
X145495211Y-96542000D01*
X146595877Y-96542000D01*
X147026517Y-96540789D01*
X147339761Y-96534223D01*
X147536372Y-96518078D01*
X147643365Y-96488132D01*
X147687752Y-96440163D01*
X147696544Y-96369947D01*
X147706077Y-96249689D01*
X147798651Y-95960774D01*
X147998635Y-95626568D01*
X148316973Y-95230534D01*
X148764608Y-94756137D01*
X149571860Y-93943940D01*
X149301187Y-93427571D01*
X149269081Y-93365011D01*
X149107724Y-92959230D01*
X149080019Y-92627028D01*
X149189019Y-92337847D01*
X149437780Y-92061134D01*
X149662142Y-91908516D01*
X150031173Y-91796299D01*
X150404529Y-91817876D01*
X150740703Y-91968408D01*
X150998189Y-92243056D01*
X151143294Y-92619264D01*
X151133223Y-93032462D01*
X150958419Y-93451667D01*
X150902925Y-93548574D01*
X150792370Y-93794968D01*
X150747187Y-93983553D01*
X150731346Y-94141487D01*
X150639404Y-94411163D01*
X150452758Y-94712106D01*
X150156739Y-95066266D01*
X149736676Y-95495595D01*
X149706899Y-95524704D01*
X149418252Y-95819026D01*
X149182950Y-96080282D01*
X149024521Y-96281032D01*
X148966496Y-96393833D01*
X148973828Y-96436732D01*
X149015740Y-96477728D01*
X149114950Y-96506518D01*
X149293863Y-96525220D01*
X149574885Y-96535955D01*
X149980421Y-96540842D01*
X150532877Y-96542000D01*
X152099211Y-96542000D01*
X152099211Y-89853333D01*
X151167877Y-89853333D01*
X150978862Y-89853569D01*
X150633468Y-89857859D01*
X150415850Y-89871772D01*
X150296696Y-89900721D01*
X150246697Y-89950120D01*
X150236544Y-90025386D01*
X150233422Y-90092986D01*
X150156149Y-90384296D01*
X149967642Y-90721786D01*
X149657793Y-91121037D01*
X149216493Y-91597631D01*
X149176427Y-91638585D01*
X148896166Y-91930906D01*
X148668071Y-92178780D01*
X148514683Y-92357131D01*
X148458544Y-92440878D01*
X148470945Y-92481375D01*
X148554692Y-92636483D01*
X148691377Y-92847210D01*
X148692618Y-92849002D01*
X148884543Y-93246947D01*
X148926480Y-93640661D01*
X148826572Y-94000698D01*
X148592960Y-94297614D01*
X148233788Y-94501964D01*
X147863568Y-94575966D01*
X147520831Y-94504786D01*
X147182663Y-94275390D01*
X147027708Y-94104370D01*
X146877381Y-93756189D01*
X146884883Y-93354616D01*
X147050861Y-92906353D01*
X147134913Y-92729382D01*
X147234414Y-92460221D01*
X147273211Y-92263687D01*
X147275950Y-92197965D01*
X147358136Y-91900832D01*
X147565163Y-91578678D01*
X147911234Y-91208000D01*
X148042275Y-91078577D01*
X148303664Y-90801433D01*
X148553541Y-90515651D01*
X148765150Y-90253624D01*
X148911736Y-90047742D01*
X148966544Y-89930397D01*
X148964590Y-89926538D01*
X148859836Y-89902842D01*
X148611638Y-89882677D01*
X148242445Y-89867039D01*
X147774708Y-89856926D01*
X147230877Y-89853333D01*
X145495211Y-89853333D01*
X145495211Y-96542000D01*
X145114763Y-96542000D01*
X145103967Y-96337884D01*
X145094105Y-95963398D01*
X145088275Y-95469924D01*
X145086192Y-94844882D01*
X145087573Y-94075692D01*
X145092133Y-93149773D01*
X145114211Y-89472333D01*
X147296485Y-89449733D01*
X147418936Y-89448497D01*
X148073069Y-89443535D01*
X148579099Y-89443593D01*
X148955228Y-89449466D01*
X149219656Y-89461948D01*
X149390586Y-89481834D01*
X149486218Y-89509918D01*
X149524754Y-89546995D01*
X149532549Y-89576700D01*
X149498877Y-89782666D01*
X149357680Y-90076638D01*
X149123051Y-90436496D01*
X148809086Y-90840118D01*
X148429880Y-91265384D01*
X148420824Y-91274923D01*
X148113961Y-91605081D01*
X147906520Y-91850176D01*
X147776828Y-92042162D01*
X147703211Y-92212996D01*
X147663998Y-92394633D01*
X147649417Y-92475743D01*
X147559797Y-92781131D01*
X147440893Y-93029633D01*
X147305741Y-93335483D01*
X147290035Y-93647792D01*
X147390701Y-93914926D01*
X147593874Y-94101301D01*
X147885691Y-94171333D01*
X148037912Y-94144810D01*
X148282172Y-94005844D01*
X148468836Y-93792741D01*
X148543211Y-93556631D01*
X148539395Y-93513849D01*
X148466941Y-93300540D01*
X148331544Y-93070667D01*
X148202028Y-92847960D01*
X148119877Y-92450146D01*
X148122445Y-92362659D01*
X148147488Y-92224296D01*
X148215394Y-92082001D01*
X148345653Y-91907098D01*
X148557755Y-91670910D01*
X148871193Y-91344762D01*
X149230434Y-90970202D01*
X149486698Y-90684647D01*
X149655708Y-90463521D01*
X149754992Y-90280393D01*
X149802082Y-90108830D01*
X149814507Y-89922399D01*
X149819822Y-89744204D01*
X149850043Y-89610827D01*
X149929206Y-89521948D01*
X150081379Y-89469438D01*
X150330632Y-89445166D01*
X150701035Y-89441002D01*
X151216659Y-89448819D01*
X152480211Y-89472333D01*
X152502289Y-93149773D01*
X152505324Y-93710792D01*
X152508060Y-94543564D01*
X152507451Y-95226961D01*
X152503212Y-95773564D01*
X152495060Y-96195954D01*
X152482709Y-96506709D01*
X152479903Y-96542000D01*
X152465875Y-96718412D01*
X152444274Y-96843641D01*
G37*
G36*
X156352703Y-96241865D02*
G01*
X156333695Y-96513950D01*
X156271022Y-96702629D01*
X156139554Y-96825004D01*
X155914159Y-96898178D01*
X155569706Y-96939254D01*
X155081064Y-96965333D01*
X154702774Y-96982282D01*
X154404983Y-97001443D01*
X154221642Y-97027424D01*
X154123583Y-97067531D01*
X154081638Y-97129066D01*
X154066639Y-97219333D01*
X154052676Y-97334413D01*
X153939107Y-97801430D01*
X153739296Y-98133409D01*
X153439989Y-98346121D01*
X153027932Y-98455338D01*
X152962845Y-98463992D01*
X152792044Y-98494607D01*
X152675521Y-98550727D01*
X152599539Y-98660995D01*
X152550362Y-98854052D01*
X152514253Y-99158543D01*
X152477476Y-99603111D01*
X152451024Y-99887364D01*
X152390645Y-100277737D01*
X152304572Y-100540408D01*
X152182435Y-100701893D01*
X152013867Y-100788707D01*
X151882533Y-100810849D01*
X151608281Y-100822511D01*
X151294877Y-100810042D01*
X151260134Y-100807113D01*
X150957128Y-100767268D01*
X150745731Y-100691425D01*
X150609659Y-100552977D01*
X150532628Y-100325320D01*
X150498351Y-99981847D01*
X150490544Y-99495953D01*
X150490544Y-98574000D01*
X149643877Y-98574000D01*
X149643877Y-99509182D01*
X149643652Y-99678295D01*
X149638671Y-100038837D01*
X149622063Y-100279970D01*
X149587186Y-100438220D01*
X149527398Y-100550115D01*
X149436059Y-100652182D01*
X149346497Y-100732821D01*
X149197736Y-100813478D01*
X148990736Y-100850870D01*
X148670211Y-100860000D01*
X148450356Y-100856677D01*
X148208415Y-100831314D01*
X148044846Y-100768150D01*
X147904362Y-100652182D01*
X147866832Y-100613636D01*
X147787818Y-100512209D01*
X147737924Y-100387577D01*
X147710508Y-100203214D01*
X147698928Y-99922591D01*
X147696544Y-99509182D01*
X147696544Y-98574000D01*
X146864449Y-98574000D01*
X146835997Y-99554655D01*
X146828534Y-99791411D01*
X146803944Y-100199264D01*
X146750534Y-100475263D01*
X146646904Y-100645139D01*
X146471652Y-100734623D01*
X146203376Y-100769444D01*
X145820674Y-100775333D01*
X145616115Y-100773427D01*
X145349139Y-100751110D01*
X145164559Y-100683393D01*
X145045070Y-100545501D01*
X144973368Y-100312655D01*
X144932148Y-99960081D01*
X144904106Y-99463000D01*
X144890168Y-99176781D01*
X144870055Y-98865440D01*
X144843915Y-98673177D01*
X144803669Y-98569850D01*
X144741238Y-98525315D01*
X144648544Y-98509428D01*
X144438312Y-98481484D01*
X144040615Y-98371005D01*
X143766328Y-98178372D01*
X143587651Y-97878349D01*
X143476784Y-97445698D01*
X143416730Y-97092333D01*
X142434353Y-97047817D01*
X142160441Y-97032441D01*
X141757172Y-96995869D01*
X141469907Y-96949914D01*
X141325305Y-96898173D01*
X141272896Y-96835197D01*
X141188672Y-96605405D01*
X141145108Y-96290150D01*
X141141242Y-95939622D01*
X141176114Y-95604014D01*
X141197067Y-95526000D01*
X141507797Y-95526000D01*
X141533004Y-96055167D01*
X141558211Y-96584333D01*
X142657914Y-96626667D01*
X143015381Y-96641380D01*
X143355227Y-96660735D01*
X143574206Y-96684929D01*
X143699782Y-96719141D01*
X143759419Y-96768550D01*
X143780581Y-96838333D01*
X143786390Y-96880117D01*
X143852120Y-97260820D01*
X143930675Y-97594020D01*
X144011188Y-97839492D01*
X144082793Y-97957015D01*
X144198092Y-97998390D01*
X144434613Y-98055070D01*
X144733211Y-98111133D01*
X145283544Y-98202015D01*
X145325877Y-99255841D01*
X145368211Y-100309667D01*
X145894818Y-100334807D01*
X146421426Y-100359947D01*
X146445152Y-99276473D01*
X146468877Y-98193000D01*
X148077544Y-98193000D01*
X148124848Y-100444618D01*
X148651529Y-100419475D01*
X149178211Y-100394333D01*
X149220544Y-99293667D01*
X149262877Y-98193000D01*
X150871544Y-98193000D01*
X150913877Y-99293667D01*
X150956211Y-100394333D01*
X151444068Y-100419756D01*
X151661934Y-100425131D01*
X151879332Y-100401248D01*
X151964931Y-100335089D01*
X151979906Y-100258297D01*
X152012386Y-100035635D01*
X152053617Y-99714655D01*
X152098179Y-99336000D01*
X152129415Y-99059277D01*
X152168495Y-98713970D01*
X152198056Y-98453853D01*
X152213386Y-98320468D01*
X152243635Y-98266911D01*
X152421997Y-98178014D01*
X152764150Y-98098074D01*
X153023962Y-98039467D01*
X153281957Y-97953896D01*
X153432456Y-97869707D01*
X153510078Y-97729083D01*
X153592690Y-97472846D01*
X153659316Y-97160768D01*
X153753671Y-96584333D01*
X154852608Y-96542000D01*
X155951544Y-96499667D01*
X155978602Y-96169071D01*
X155994503Y-95960346D01*
X155994193Y-95742719D01*
X155945778Y-95596525D01*
X155825022Y-95506590D01*
X155607694Y-95457743D01*
X155269557Y-95434809D01*
X154786379Y-95422617D01*
X153665544Y-95399000D01*
X153640821Y-94692294D01*
X153638001Y-94332188D01*
X153662307Y-94026251D01*
X153714688Y-93866794D01*
X153734073Y-93848279D01*
X153847781Y-93800666D01*
X154058118Y-93769745D01*
X154389235Y-93753021D01*
X154865285Y-93748000D01*
X155917291Y-93748000D01*
X155892084Y-93218833D01*
X155866877Y-92689667D01*
X154766211Y-92647333D01*
X153665544Y-92605000D01*
X153665544Y-90996333D01*
X154766211Y-90954000D01*
X155866877Y-90911667D01*
X155892016Y-90385110D01*
X155901437Y-90164181D01*
X155890024Y-89995534D01*
X155832388Y-89883362D01*
X155703933Y-89815059D01*
X155480063Y-89778015D01*
X155136180Y-89759622D01*
X154647688Y-89747272D01*
X153767165Y-89726333D01*
X153623274Y-89200042D01*
X153606649Y-89139966D01*
X153495350Y-88793412D01*
X153381608Y-88574005D01*
X153240783Y-88446408D01*
X153048238Y-88375283D01*
X153031878Y-88371321D01*
X152781396Y-88308827D01*
X152503963Y-88237408D01*
X152189048Y-88154865D01*
X152141544Y-86085667D01*
X151040877Y-86085667D01*
X150998544Y-87186333D01*
X150956211Y-88287000D01*
X149347544Y-88287000D01*
X149305211Y-87186333D01*
X149262877Y-86085667D01*
X148246877Y-86085667D01*
X148204544Y-87186333D01*
X148162211Y-88287000D01*
X146553544Y-88287000D01*
X146502139Y-87186333D01*
X146498359Y-87106069D01*
X146478532Y-86705774D01*
X146460759Y-86379178D01*
X146446855Y-86158102D01*
X146438639Y-86074370D01*
X146378608Y-86048166D01*
X146184925Y-86020561D01*
X145932660Y-86015336D01*
X145690198Y-86035997D01*
X145368211Y-86088130D01*
X145325877Y-87138399D01*
X145283544Y-88188668D01*
X145029544Y-88264481D01*
X144615896Y-88392708D01*
X144317700Y-88510488D01*
X144118869Y-88644089D01*
X143987001Y-88824646D01*
X143889694Y-89083293D01*
X143794543Y-89451167D01*
X143697108Y-89853333D01*
X142708093Y-89853333D01*
X142552877Y-89854018D01*
X142075622Y-89868702D01*
X141763254Y-89902393D01*
X141617477Y-89954933D01*
X141571735Y-90036361D01*
X141527551Y-90258862D01*
X141520447Y-90530863D01*
X141550423Y-90780789D01*
X141617477Y-90937067D01*
X141651342Y-90958332D01*
X141855074Y-91003049D01*
X142224301Y-91029784D01*
X142760477Y-91038667D01*
X143801877Y-91038667D01*
X143801877Y-92647333D01*
X142849377Y-92648489D01*
X142346607Y-92650464D01*
X141987354Y-92662540D01*
X141749552Y-92696076D01*
X141609223Y-92762432D01*
X141542387Y-92872968D01*
X141525068Y-93039046D01*
X141533286Y-93272024D01*
X141558211Y-93790333D01*
X143801877Y-93837581D01*
X143801877Y-94630399D01*
X143801766Y-94701785D01*
X143794789Y-95063790D01*
X143773440Y-95292589D01*
X143732802Y-95419192D01*
X143667953Y-95474608D01*
X143542105Y-95494001D01*
X143282069Y-95510619D01*
X142928740Y-95521865D01*
X142520913Y-95526000D01*
X141507797Y-95526000D01*
X141197067Y-95526000D01*
X141248763Y-95333516D01*
X141358227Y-95178321D01*
X141456451Y-95153087D01*
X141696280Y-95127999D01*
X142032632Y-95110708D01*
X142426044Y-95103963D01*
X143378544Y-95102667D01*
X143378544Y-94277308D01*
X142392605Y-94239569D01*
X142230638Y-94233140D01*
X141852632Y-94213671D01*
X141599056Y-94188207D01*
X141436380Y-94149949D01*
X141331073Y-94092102D01*
X141249605Y-94007869D01*
X141170063Y-93867529D01*
X141097325Y-93564476D01*
X141086290Y-93209789D01*
X141132656Y-92857222D01*
X141232121Y-92560528D01*
X141380386Y-92373463D01*
X141472324Y-92351779D01*
X141704799Y-92330470D01*
X142035485Y-92315755D01*
X142426044Y-92309963D01*
X143378544Y-92308667D01*
X143378292Y-91419667D01*
X142455816Y-91419667D01*
X142128231Y-91416042D01*
X141738959Y-91390036D01*
X141473442Y-91327666D01*
X141304309Y-91215798D01*
X141204191Y-91041299D01*
X141145716Y-90791035D01*
X141129494Y-90613444D01*
X141140642Y-90294806D01*
X141189021Y-89981649D01*
X141264956Y-89728526D01*
X141358768Y-89589987D01*
X141452018Y-89565499D01*
X141688321Y-89540218D01*
X142021639Y-89522773D01*
X142412163Y-89515963D01*
X143350782Y-89514666D01*
X143489395Y-89016101D01*
X143538076Y-88861715D01*
X143756153Y-88447286D01*
X144076698Y-88159961D01*
X144516164Y-87983189D01*
X144877378Y-87892234D01*
X144929672Y-86904284D01*
X144941637Y-86691886D01*
X144978672Y-86260270D01*
X145040753Y-85963151D01*
X145147300Y-85775548D01*
X145317732Y-85672477D01*
X145571467Y-85628955D01*
X145927924Y-85620000D01*
X146081548Y-85621192D01*
X146388397Y-85642593D01*
X146600663Y-85710010D01*
X146735644Y-85848067D01*
X146810640Y-86081390D01*
X146842951Y-86434604D01*
X146849877Y-86932333D01*
X146849877Y-87906000D01*
X147766639Y-87906000D01*
X147795092Y-86935132D01*
X147803213Y-86686601D01*
X147829396Y-86268800D01*
X147883255Y-85983381D01*
X147983760Y-85805184D01*
X148149885Y-85709050D01*
X148400600Y-85669819D01*
X148754877Y-85662333D01*
X148981908Y-85664326D01*
X149267602Y-85686876D01*
X149463761Y-85754926D01*
X149588457Y-85893243D01*
X149659759Y-86126594D01*
X149695739Y-86479743D01*
X149714468Y-86977457D01*
X149742726Y-87990667D01*
X150575211Y-87990667D01*
X150575211Y-87141280D01*
X150575996Y-86994592D01*
X150597683Y-86491294D01*
X150655164Y-86127941D01*
X150756589Y-85882483D01*
X150910109Y-85732873D01*
X151123874Y-85657060D01*
X151245138Y-85639081D01*
X151592519Y-85625590D01*
X151940676Y-85654861D01*
X152233394Y-85720046D01*
X152414458Y-85814294D01*
X152470223Y-85903325D01*
X152524626Y-86103255D01*
X152566058Y-86424322D01*
X152598636Y-86890592D01*
X152649544Y-87833621D01*
X153113449Y-87990369D01*
X153309188Y-88064129D01*
X153626185Y-88249287D01*
X153831667Y-88503263D01*
X153964952Y-88866515D01*
X153985869Y-88947495D01*
X154048158Y-89179631D01*
X154090400Y-89324167D01*
X154138078Y-89365086D01*
X154305084Y-89402398D01*
X154606633Y-89423412D01*
X155059887Y-89430000D01*
X155086066Y-89430006D01*
X155495952Y-89433531D01*
X155773971Y-89447417D01*
X155955642Y-89477355D01*
X156076485Y-89529033D01*
X156172020Y-89608142D01*
X156176632Y-89612779D01*
X156266827Y-89726379D01*
X156314854Y-89867800D01*
X156329132Y-90083933D01*
X156318077Y-90421664D01*
X156310564Y-90554007D01*
X156273971Y-90881414D01*
X156196814Y-91108479D01*
X156053390Y-91253403D01*
X155817998Y-91334387D01*
X155464934Y-91369630D01*
X154968498Y-91377333D01*
X154046544Y-91377333D01*
X154046544Y-92209428D01*
X155027867Y-92237881D01*
X155217268Y-92244059D01*
X155660945Y-92272209D01*
X155968576Y-92330592D01*
X156164855Y-92438355D01*
X156274479Y-92614643D01*
X156322144Y-92878602D01*
X156332544Y-93249380D01*
X156331352Y-93403003D01*
X156309951Y-93709853D01*
X156242534Y-93922118D01*
X156104477Y-94057099D01*
X155871154Y-94132096D01*
X155517940Y-94164407D01*
X155020211Y-94171333D01*
X154046544Y-94171333D01*
X154046544Y-95018000D01*
X154880577Y-95018000D01*
X155136040Y-95020837D01*
X155626033Y-95051308D01*
X155972273Y-95118466D01*
X156190720Y-95226378D01*
X156297335Y-95379112D01*
X156322714Y-95517531D01*
X156345094Y-95784727D01*
X156349905Y-95960346D01*
X156353711Y-96099261D01*
X156352703Y-96241865D01*
G37*
%TD*%
M02*
