%TF.GenerationSoftware,KiCad,Pcbnew,(6.0.1)*%
%TF.CreationDate,2023-03-02T19:10:53-05:00*%
%TF.ProjectId,PCBFiles_Gateway,50434246-696c-4657-935f-476174657761,rev?*%
%TF.SameCoordinates,Original*%
%TF.FileFunction,Legend,Top*%
%TF.FilePolarity,Positive*%
%FSLAX46Y46*%
G04 Gerber Fmt 4.6, Leading zero omitted, Abs format (unit mm)*
G04 Created by KiCad (PCBNEW (6.0.1)) date 2023-03-02 19:10:53*
%MOMM*%
%LPD*%
G01*
G04 APERTURE LIST*
%ADD10C,0.100000*%
%ADD11C,0.200000*%
%ADD12C,0.120000*%
%ADD13C,0.150000*%
G04 APERTURE END LIST*
D10*
X134150000Y-83950000D02*
X134126190Y-83997619D01*
X134126190Y-84069047D01*
X134150000Y-84140476D01*
X134197619Y-84188095D01*
X134245238Y-84211904D01*
X134340476Y-84235714D01*
X134411904Y-84235714D01*
X134507142Y-84211904D01*
X134554761Y-84188095D01*
X134602380Y-84140476D01*
X134626190Y-84069047D01*
X134626190Y-84021428D01*
X134602380Y-83950000D01*
X134578571Y-83926190D01*
X134411904Y-83926190D01*
X134411904Y-84021428D01*
X134626190Y-83711904D02*
X134126190Y-83711904D01*
X134126190Y-83521428D01*
X134150000Y-83473809D01*
X134173809Y-83450000D01*
X134221428Y-83426190D01*
X134292857Y-83426190D01*
X134340476Y-83450000D01*
X134364285Y-83473809D01*
X134388095Y-83521428D01*
X134388095Y-83711904D01*
X134626190Y-83211904D02*
X134126190Y-83211904D01*
X134126190Y-82878571D02*
X134126190Y-82783333D01*
X134150000Y-82735714D01*
X134197619Y-82688095D01*
X134292857Y-82664285D01*
X134459523Y-82664285D01*
X134554761Y-82688095D01*
X134602380Y-82735714D01*
X134626190Y-82783333D01*
X134626190Y-82878571D01*
X134602380Y-82926190D01*
X134554761Y-82973809D01*
X134459523Y-82997619D01*
X134292857Y-82997619D01*
X134197619Y-82973809D01*
X134150000Y-82926190D01*
X134126190Y-82878571D01*
D11*
X136880952Y-92162380D02*
X136880952Y-92876666D01*
X136833333Y-93019523D01*
X136738095Y-93114761D01*
X136595238Y-93162380D01*
X136500000Y-93162380D01*
X137833333Y-93162380D02*
X137357142Y-93162380D01*
X137357142Y-92162380D01*
X138738095Y-93067142D02*
X138690476Y-93114761D01*
X138547619Y-93162380D01*
X138452380Y-93162380D01*
X138309523Y-93114761D01*
X138214285Y-93019523D01*
X138166666Y-92924285D01*
X138119047Y-92733809D01*
X138119047Y-92590952D01*
X138166666Y-92400476D01*
X138214285Y-92305238D01*
X138309523Y-92210000D01*
X138452380Y-92162380D01*
X138547619Y-92162380D01*
X138690476Y-92210000D01*
X138738095Y-92257619D01*
X139452380Y-92162380D02*
X139452380Y-92876666D01*
X139404761Y-93019523D01*
X139309523Y-93114761D01*
X139166666Y-93162380D01*
X139071428Y-93162380D01*
X140404761Y-93162380D02*
X139928571Y-93162380D01*
X139928571Y-92162380D01*
X141309523Y-93067142D02*
X141261904Y-93114761D01*
X141119047Y-93162380D01*
X141023809Y-93162380D01*
X140880952Y-93114761D01*
X140785714Y-93019523D01*
X140738095Y-92924285D01*
X140690476Y-92733809D01*
X140690476Y-92590952D01*
X140738095Y-92400476D01*
X140785714Y-92305238D01*
X140880952Y-92210000D01*
X141023809Y-92162380D01*
X141119047Y-92162380D01*
X141261904Y-92210000D01*
X141309523Y-92257619D01*
X142023809Y-92162380D02*
X142023809Y-92876666D01*
X141976190Y-93019523D01*
X141880952Y-93114761D01*
X141738095Y-93162380D01*
X141642857Y-93162380D01*
X142976190Y-93162380D02*
X142500000Y-93162380D01*
X142500000Y-92162380D01*
X143880952Y-93067142D02*
X143833333Y-93114761D01*
X143690476Y-93162380D01*
X143595238Y-93162380D01*
X143452380Y-93114761D01*
X143357142Y-93019523D01*
X143309523Y-92924285D01*
X143261904Y-92733809D01*
X143261904Y-92590952D01*
X143309523Y-92400476D01*
X143357142Y-92305238D01*
X143452380Y-92210000D01*
X143595238Y-92162380D01*
X143690476Y-92162380D01*
X143833333Y-92210000D01*
X143880952Y-92257619D01*
X144595238Y-92162380D02*
X144595238Y-92876666D01*
X144547619Y-93019523D01*
X144452380Y-93114761D01*
X144309523Y-93162380D01*
X144214285Y-93162380D01*
X145547619Y-93162380D02*
X145071428Y-93162380D01*
X145071428Y-92162380D01*
X146452380Y-93067142D02*
X146404761Y-93114761D01*
X146261904Y-93162380D01*
X146166666Y-93162380D01*
X146023809Y-93114761D01*
X145928571Y-93019523D01*
X145880952Y-92924285D01*
X145833333Y-92733809D01*
X145833333Y-92590952D01*
X145880952Y-92400476D01*
X145928571Y-92305238D01*
X146023809Y-92210000D01*
X146166666Y-92162380D01*
X146261904Y-92162380D01*
X146404761Y-92210000D01*
X146452380Y-92257619D01*
X129501428Y-90895714D02*
X129501428Y-91229047D01*
X128977619Y-91371904D02*
X128977619Y-90895714D01*
X129977619Y-90895714D01*
X129977619Y-91371904D01*
X129644285Y-91800476D02*
X128977619Y-91800476D01*
X129549047Y-91800476D02*
X129596666Y-91848095D01*
X129644285Y-91943333D01*
X129644285Y-92086190D01*
X129596666Y-92181428D01*
X129501428Y-92229047D01*
X128977619Y-92229047D01*
X129025238Y-93133809D02*
X128977619Y-93038571D01*
X128977619Y-92848095D01*
X129025238Y-92752857D01*
X129072857Y-92705238D01*
X129168095Y-92657619D01*
X129453809Y-92657619D01*
X129549047Y-92705238D01*
X129596666Y-92752857D01*
X129644285Y-92848095D01*
X129644285Y-93038571D01*
X129596666Y-93133809D01*
X129025238Y-93943333D02*
X128977619Y-93848095D01*
X128977619Y-93657619D01*
X129025238Y-93562380D01*
X129120476Y-93514761D01*
X129501428Y-93514761D01*
X129596666Y-93562380D01*
X129644285Y-93657619D01*
X129644285Y-93848095D01*
X129596666Y-93943333D01*
X129501428Y-93990952D01*
X129406190Y-93990952D01*
X129310952Y-93514761D01*
X129644285Y-94419523D02*
X128977619Y-94419523D01*
X129549047Y-94419523D02*
X129596666Y-94467142D01*
X129644285Y-94562380D01*
X129644285Y-94705238D01*
X129596666Y-94800476D01*
X129501428Y-94848095D01*
X128977619Y-94848095D01*
X129072857Y-95324285D02*
X129025238Y-95371904D01*
X128977619Y-95324285D01*
X129025238Y-95276666D01*
X129072857Y-95324285D01*
X128977619Y-95324285D01*
D10*
X147246190Y-84176190D02*
X147008095Y-84342857D01*
X147246190Y-84461904D02*
X146746190Y-84461904D01*
X146746190Y-84271428D01*
X146770000Y-84223809D01*
X146793809Y-84200000D01*
X146841428Y-84176190D01*
X146912857Y-84176190D01*
X146960476Y-84200000D01*
X146984285Y-84223809D01*
X147008095Y-84271428D01*
X147008095Y-84461904D01*
X146984285Y-83961904D02*
X146984285Y-83795238D01*
X147246190Y-83723809D02*
X147246190Y-83961904D01*
X146746190Y-83961904D01*
X146746190Y-83723809D01*
X147222380Y-83533333D02*
X147246190Y-83461904D01*
X147246190Y-83342857D01*
X147222380Y-83295238D01*
X147198571Y-83271428D01*
X147150952Y-83247619D01*
X147103333Y-83247619D01*
X147055714Y-83271428D01*
X147031904Y-83295238D01*
X147008095Y-83342857D01*
X146984285Y-83438095D01*
X146960476Y-83485714D01*
X146936666Y-83509523D01*
X146889047Y-83533333D01*
X146841428Y-83533333D01*
X146793809Y-83509523D01*
X146770000Y-83485714D01*
X146746190Y-83438095D01*
X146746190Y-83319047D01*
X146770000Y-83247619D01*
X146984285Y-83033333D02*
X146984285Y-82866666D01*
X147246190Y-82795238D02*
X147246190Y-83033333D01*
X146746190Y-83033333D01*
X146746190Y-82795238D01*
X146746190Y-82652380D02*
X146746190Y-82366666D01*
X147246190Y-82509523D02*
X146746190Y-82509523D01*
D12*
%TO.C,D2*%
X128490000Y-93140580D02*
X128490000Y-92859420D01*
X127470000Y-93140580D02*
X127470000Y-92859420D01*
%TO.C,C4*%
X148110000Y-109648748D02*
X148110000Y-111071252D01*
X149930000Y-109648748D02*
X149930000Y-111071252D01*
%TO.C,C15*%
X162140000Y-97352164D02*
X162140000Y-97567836D01*
X161420000Y-97352164D02*
X161420000Y-97567836D01*
D13*
%TO.C,U4*%
X149270000Y-85120000D02*
X133270000Y-85120000D01*
X149270000Y-102120000D02*
X133270000Y-102120000D01*
X150770000Y-102620000D02*
G75*
G03*
X150770000Y-102620000I-500000J0D01*
G01*
D12*
%TO.C,R7*%
X158446359Y-101950000D02*
X158753641Y-101950000D01*
X158446359Y-101190000D02*
X158753641Y-101190000D01*
%TO.C,J2*%
X130142500Y-87450000D02*
X130142500Y-88560000D01*
X131192500Y-86860000D02*
X131192500Y-86360000D01*
X126432500Y-87450000D02*
X126432500Y-88560000D01*
X131192500Y-86360000D02*
X130692500Y-86610000D01*
X126432500Y-84660000D02*
X126432500Y-85770000D01*
X130692500Y-86610000D02*
X131192500Y-86860000D01*
X130142500Y-84660000D02*
X130142500Y-85770000D01*
%TO.C,D1*%
X153550580Y-106490000D02*
X153269420Y-106490000D01*
X153550580Y-107510000D02*
X153269420Y-107510000D01*
%TO.C,C6*%
X164170000Y-95647836D02*
X164170000Y-95432164D01*
X163450000Y-95647836D02*
X163450000Y-95432164D01*
%TO.C,F1*%
X137137221Y-111350000D02*
X137462779Y-111350000D01*
X137137221Y-112370000D02*
X137462779Y-112370000D01*
%TO.C,J4*%
X152440000Y-84600000D02*
X151110000Y-84600000D01*
X161390000Y-84600000D02*
X161390000Y-81940000D01*
X153710000Y-84600000D02*
X153710000Y-81940000D01*
X153710000Y-81940000D02*
X161390000Y-81940000D01*
X151110000Y-84600000D02*
X151110000Y-83270000D01*
X153710000Y-84600000D02*
X161390000Y-84600000D01*
%TO.C,C8*%
X159632164Y-91880000D02*
X159847836Y-91880000D01*
X159632164Y-91160000D02*
X159847836Y-91160000D01*
%TO.C,U3*%
X155200000Y-92615000D02*
X154725000Y-92615000D01*
X154725000Y-97835000D02*
X154725000Y-97360000D01*
X159470000Y-97835000D02*
X159945000Y-97835000D01*
X154725000Y-92615000D02*
X154725000Y-93090000D01*
X159470000Y-92615000D02*
X159945000Y-92615000D01*
X155200000Y-97835000D02*
X154725000Y-97835000D01*
X159945000Y-92615000D02*
X159945000Y-93090000D01*
%TO.C,C9*%
X153280000Y-92387836D02*
X153280000Y-92172164D01*
X154000000Y-92387836D02*
X154000000Y-92172164D01*
%TO.C,C19*%
X157552164Y-90810000D02*
X157767836Y-90810000D01*
X157552164Y-90090000D02*
X157767836Y-90090000D01*
%TO.C,C11*%
X155060000Y-91257836D02*
X155060000Y-91042164D01*
X154340000Y-91257836D02*
X154340000Y-91042164D01*
%TO.C,C7*%
X162122164Y-94660000D02*
X162337836Y-94660000D01*
X162122164Y-95380000D02*
X162337836Y-95380000D01*
%TO.C,C3*%
X144860000Y-109688748D02*
X144860000Y-111111252D01*
X143040000Y-109688748D02*
X143040000Y-111111252D01*
%TO.C,SW2*%
X135530000Y-82350000D02*
X135530000Y-82050000D01*
X135530000Y-84850000D02*
X138830000Y-84850000D01*
X135530000Y-82050000D02*
X138830000Y-82050000D01*
X138830000Y-82050000D02*
X138830000Y-82350000D01*
X135530000Y-84550000D02*
X135530000Y-84850000D01*
X138830000Y-84850000D02*
X138830000Y-84550000D01*
%TO.C,Y1*%
X162665000Y-90835000D02*
X162665000Y-92185000D01*
X164415000Y-90835000D02*
X164415000Y-92185000D01*
%TO.C,R2*%
X128896359Y-101860000D02*
X129203641Y-101860000D01*
X128896359Y-102620000D02*
X129203641Y-102620000D01*
%TO.C,C14*%
X165570000Y-90502164D02*
X165570000Y-90717836D01*
X164850000Y-90502164D02*
X164850000Y-90717836D01*
%TO.C,U2*%
X148650000Y-103830000D02*
X146975000Y-103830000D01*
X148650000Y-106950000D02*
X148000000Y-106950000D01*
X148650000Y-103830000D02*
X149300000Y-103830000D01*
X148650000Y-106950000D02*
X149300000Y-106950000D01*
%TO.C,U1*%
X137867500Y-107270000D02*
X136067500Y-107270000D01*
X137867500Y-107270000D02*
X138667500Y-107270000D01*
X137867500Y-110390000D02*
X138667500Y-110390000D01*
X137867500Y-110390000D02*
X137067500Y-110390000D01*
%TO.C,C17*%
X158950000Y-105482164D02*
X158950000Y-105697836D01*
X158230000Y-105482164D02*
X158230000Y-105697836D01*
%TO.C,C20*%
X130490000Y-94992164D02*
X130490000Y-95207836D01*
X131210000Y-94992164D02*
X131210000Y-95207836D01*
%TO.C,U5*%
X156120000Y-103080000D02*
X156120000Y-103880000D01*
X156120000Y-103080000D02*
X156120000Y-101280000D01*
X153000000Y-103080000D02*
X153000000Y-102280000D01*
X153000000Y-103080000D02*
X153000000Y-103880000D01*
%TO.C,R8*%
X137145000Y-104022936D02*
X137145000Y-104477064D01*
X138615000Y-104022936D02*
X138615000Y-104477064D01*
%TO.C,J3*%
X157330000Y-112120000D02*
X164950000Y-112120000D01*
X156530000Y-107100000D02*
X156530000Y-107700000D01*
X159070000Y-107100000D02*
X159070000Y-107700000D01*
X157580000Y-113120000D02*
X157580000Y-112120000D01*
X159070000Y-107700000D02*
X160670000Y-107700000D01*
X165750000Y-107700000D02*
X165750000Y-107100000D01*
X158130000Y-107700000D02*
X158130000Y-107100000D01*
X166330000Y-107100000D02*
X155950000Y-107100000D01*
X160670000Y-107700000D02*
X160670000Y-107100000D01*
X155950000Y-113120000D02*
X166330000Y-113120000D01*
X155660000Y-108130000D02*
X155660000Y-112130000D01*
X164950000Y-112120000D02*
X164950000Y-113120000D01*
X164700000Y-111590000D02*
X164950000Y-112120000D01*
X166330000Y-113120000D02*
X166330000Y-107100000D01*
X161610000Y-107700000D02*
X163210000Y-107700000D01*
X157330000Y-112120000D02*
X157580000Y-111590000D01*
X155950000Y-107100000D02*
X155950000Y-113120000D01*
X164150000Y-107100000D02*
X164150000Y-107700000D01*
X161610000Y-107100000D02*
X161610000Y-107700000D01*
X164150000Y-107700000D02*
X165750000Y-107700000D01*
X163210000Y-107700000D02*
X163210000Y-107100000D01*
X156530000Y-107700000D02*
X158130000Y-107700000D01*
X164700000Y-113120000D02*
X164700000Y-112120000D01*
X157580000Y-111590000D02*
X164700000Y-111590000D01*
X157330000Y-113120000D02*
X157330000Y-112120000D01*
%TO.C,R1*%
X131493641Y-102620000D02*
X131186359Y-102620000D01*
X131493641Y-101860000D02*
X131186359Y-101860000D01*
%TO.C,C5*%
X165290000Y-95647836D02*
X165290000Y-95432164D01*
X164570000Y-95647836D02*
X164570000Y-95432164D01*
%TO.C,C13*%
X164880000Y-92627836D02*
X164880000Y-92412164D01*
X165600000Y-92627836D02*
X165600000Y-92412164D01*
%TO.C,C12*%
X163120000Y-87527836D02*
X163120000Y-87312164D01*
X162400000Y-87527836D02*
X162400000Y-87312164D01*
%TO.C,Y2*%
X159500000Y-102620000D02*
X159500000Y-105920000D01*
X159500000Y-105920000D02*
X163500000Y-105920000D01*
%TO.C,R9*%
X158155000Y-87962936D02*
X158155000Y-88417064D01*
X159625000Y-87962936D02*
X159625000Y-88417064D01*
%TO.C,C10*%
X159242164Y-99300000D02*
X159457836Y-99300000D01*
X159242164Y-98580000D02*
X159457836Y-98580000D01*
%TO.C,R3*%
X153455000Y-110102936D02*
X153455000Y-110557064D01*
X154925000Y-110102936D02*
X154925000Y-110557064D01*
%TO.C,C2*%
X147360000Y-109668748D02*
X147360000Y-111091252D01*
X145540000Y-109668748D02*
X145540000Y-111091252D01*
%TO.C,C1*%
X144090000Y-106091252D02*
X144090000Y-104668748D01*
X142270000Y-106091252D02*
X142270000Y-104668748D01*
%TO.C,C16*%
X164455000Y-97357164D02*
X164455000Y-97572836D01*
X165175000Y-97357164D02*
X165175000Y-97572836D01*
%TO.C,J1*%
X131390000Y-103620000D02*
X129390000Y-103620000D01*
X131390000Y-113020000D02*
X129390000Y-113020000D01*
%TO.C,R6*%
X152242936Y-86425000D02*
X152697064Y-86425000D01*
X152242936Y-87895000D02*
X152697064Y-87895000D01*
%TO.C,R4*%
X161845000Y-87972936D02*
X161845000Y-88427064D01*
X160375000Y-87972936D02*
X160375000Y-88427064D01*
%TO.C,SW1*%
X145900000Y-82030000D02*
X142600000Y-82030000D01*
X145900000Y-84830000D02*
X142600000Y-84830000D01*
X142600000Y-84830000D02*
X142600000Y-84530000D01*
X145900000Y-84530000D02*
X145900000Y-84830000D01*
X142600000Y-82030000D02*
X142600000Y-82330000D01*
X145900000Y-82330000D02*
X145900000Y-82030000D01*
%TO.C,C18*%
X162972164Y-101210000D02*
X163187836Y-101210000D01*
X162972164Y-101930000D02*
X163187836Y-101930000D01*
%TO.C,R5*%
X152222936Y-90015000D02*
X152677064Y-90015000D01*
X152222936Y-88545000D02*
X152677064Y-88545000D01*
%TD*%
M02*
