%TF.GenerationSoftware,KiCad,Pcbnew,(6.0.1)*%
%TF.CreationDate,2023-03-02T19:10:53-05:00*%
%TF.ProjectId,PCBFiles_Gateway,50434246-696c-4657-935f-476174657761,rev?*%
%TF.SameCoordinates,Original*%
%TF.FileFunction,Soldermask,Top*%
%TF.FilePolarity,Negative*%
%FSLAX46Y46*%
G04 Gerber Fmt 4.6, Leading zero omitted, Abs format (unit mm)*
G04 Created by KiCad (PCBNEW (6.0.1)) date 2023-03-02 19:10:53*
%MOMM*%
%LPD*%
G01*
G04 APERTURE LIST*
G04 Aperture macros list*
%AMRoundRect*
0 Rectangle with rounded corners*
0 $1 Rounding radius*
0 $2 $3 $4 $5 $6 $7 $8 $9 X,Y pos of 4 corners*
0 Add a 4 corners polygon primitive as box body*
4,1,4,$2,$3,$4,$5,$6,$7,$8,$9,$2,$3,0*
0 Add four circle primitives for the rounded corners*
1,1,$1+$1,$2,$3*
1,1,$1+$1,$4,$5*
1,1,$1+$1,$6,$7*
1,1,$1+$1,$8,$9*
0 Add four rect primitives between the rounded corners*
20,1,$1+$1,$2,$3,$4,$5,0*
20,1,$1+$1,$4,$5,$6,$7,0*
20,1,$1+$1,$6,$7,$8,$9,0*
20,1,$1+$1,$8,$9,$2,$3,0*%
G04 Aperture macros list end*
%ADD10RoundRect,0.225000X0.250000X-0.225000X0.250000X0.225000X-0.250000X0.225000X-0.250000X-0.225000X0*%
%ADD11RoundRect,0.250000X-0.650000X0.325000X-0.650000X-0.325000X0.650000X-0.325000X0.650000X0.325000X0*%
%ADD12RoundRect,0.140000X-0.170000X0.140000X-0.170000X-0.140000X0.170000X-0.140000X0.170000X0.140000X0*%
%ADD13R,3.000000X1.300000*%
%ADD14RoundRect,0.135000X-0.135000X-0.185000X0.135000X-0.185000X0.135000X0.185000X-0.135000X0.185000X0*%
%ADD15R,3.600000X1.270000*%
%ADD16R,4.200000X1.350000*%
%ADD17RoundRect,0.225000X0.225000X0.250000X-0.225000X0.250000X-0.225000X-0.250000X0.225000X-0.250000X0*%
%ADD18C,4.400000*%
%ADD19RoundRect,0.140000X0.170000X-0.140000X0.170000X0.140000X-0.170000X0.140000X-0.170000X-0.140000X0*%
%ADD20RoundRect,0.147500X-0.147500X-0.172500X0.147500X-0.172500X0.147500X0.172500X-0.147500X0.172500X0*%
%ADD21RoundRect,0.218750X-0.218750X-0.256250X0.218750X-0.256250X0.218750X0.256250X-0.218750X0.256250X0*%
%ADD22R,1.700000X1.700000*%
%ADD23O,1.700000X1.700000*%
%ADD24RoundRect,0.140000X-0.140000X-0.170000X0.140000X-0.170000X0.140000X0.170000X-0.140000X0.170000X0*%
%ADD25RoundRect,0.062500X0.337500X0.062500X-0.337500X0.062500X-0.337500X-0.062500X0.337500X-0.062500X0*%
%ADD26RoundRect,0.062500X0.062500X0.337500X-0.062500X0.337500X-0.062500X-0.337500X0.062500X-0.337500X0*%
%ADD27R,3.700000X3.700000*%
%ADD28R,0.900000X1.700000*%
%ADD29R,1.800000X1.000000*%
%ADD30RoundRect,0.150000X-0.587500X-0.150000X0.587500X-0.150000X0.587500X0.150000X-0.587500X0.150000X0*%
%ADD31RoundRect,0.150000X-0.512500X-0.150000X0.512500X-0.150000X0.512500X0.150000X-0.512500X0.150000X0*%
%ADD32RoundRect,0.150000X-0.150000X0.512500X-0.150000X-0.512500X0.150000X-0.512500X0.150000X0.512500X0*%
%ADD33RoundRect,0.250000X-0.450000X0.262500X-0.450000X-0.262500X0.450000X-0.262500X0.450000X0.262500X0*%
%ADD34RoundRect,0.250000X-0.620000X-0.845000X0.620000X-0.845000X0.620000X0.845000X-0.620000X0.845000X0*%
%ADD35O,1.740000X2.190000*%
%ADD36RoundRect,0.135000X0.135000X0.185000X-0.135000X0.185000X-0.135000X-0.185000X0.135000X-0.185000X0*%
%ADD37R,1.400000X1.200000*%
%ADD38RoundRect,0.147500X0.147500X0.172500X-0.147500X0.172500X-0.147500X-0.172500X0.147500X-0.172500X0*%
%ADD39RoundRect,0.250000X0.650000X-0.325000X0.650000X0.325000X-0.650000X0.325000X-0.650000X-0.325000X0*%
%ADD40C,0.650000*%
%ADD41R,1.450000X0.600000*%
%ADD42R,1.450000X0.300000*%
%ADD43O,2.100000X1.000000*%
%ADD44O,1.800000X1.000000*%
%ADD45RoundRect,0.250000X-0.262500X-0.450000X0.262500X-0.450000X0.262500X0.450000X-0.262500X0.450000X0*%
G04 APERTURE END LIST*
D10*
%TO.C,D2*%
X127980000Y-93775000D03*
X127980000Y-92225000D03*
%TD*%
D11*
%TO.C,C4*%
X149020000Y-108885000D03*
X149020000Y-111835000D03*
%TD*%
D12*
%TO.C,C15*%
X161780000Y-96980000D03*
X161780000Y-97940000D03*
%TD*%
D13*
%TO.C,U4*%
X148770000Y-100620000D03*
X148770000Y-98620000D03*
X148770000Y-96620000D03*
X148770000Y-94620000D03*
X148770000Y-92620000D03*
X148770000Y-90620000D03*
X148770000Y-88620000D03*
X148770000Y-86620000D03*
X133770000Y-86620000D03*
X133770000Y-88620000D03*
X133770000Y-90620000D03*
X133770000Y-92620000D03*
X133770000Y-94620000D03*
X133770000Y-96620000D03*
X133770000Y-98620000D03*
X133770000Y-100620000D03*
%TD*%
D14*
%TO.C,R7*%
X158090000Y-101570000D03*
X159110000Y-101570000D03*
%TD*%
D15*
%TO.C,J2*%
X128232500Y-86610000D03*
D16*
X128432500Y-89435000D03*
X128432500Y-83785000D03*
%TD*%
D17*
%TO.C,D1*%
X154185000Y-107000000D03*
X152635000Y-107000000D03*
%TD*%
D18*
%TO.C,H2*%
X129350000Y-98910000D03*
%TD*%
D19*
%TO.C,C6*%
X163810000Y-96020000D03*
X163810000Y-95060000D03*
%TD*%
D20*
%TO.C,L1*%
X144885000Y-106780000D03*
X145855000Y-106780000D03*
%TD*%
D21*
%TO.C,F1*%
X136512500Y-111860000D03*
X138087500Y-111860000D03*
%TD*%
D20*
%TO.C,L3*%
X162820000Y-96985000D03*
X163790000Y-96985000D03*
%TD*%
D22*
%TO.C,J4*%
X152440000Y-83270000D03*
D23*
X154980000Y-83270000D03*
X157520000Y-83270000D03*
X160060000Y-83270000D03*
%TD*%
D24*
%TO.C,C8*%
X159260000Y-91520000D03*
X160220000Y-91520000D03*
%TD*%
D25*
%TO.C,U3*%
X159785000Y-96975000D03*
X159785000Y-96475000D03*
X159785000Y-95975000D03*
X159785000Y-95475000D03*
X159785000Y-94975000D03*
X159785000Y-94475000D03*
X159785000Y-93975000D03*
X159785000Y-93475000D03*
D26*
X159085000Y-92775000D03*
X158585000Y-92775000D03*
X158085000Y-92775000D03*
X157585000Y-92775000D03*
X157085000Y-92775000D03*
X156585000Y-92775000D03*
X156085000Y-92775000D03*
X155585000Y-92775000D03*
D25*
X154885000Y-93475000D03*
X154885000Y-93975000D03*
X154885000Y-94475000D03*
X154885000Y-94975000D03*
X154885000Y-95475000D03*
X154885000Y-95975000D03*
X154885000Y-96475000D03*
X154885000Y-96975000D03*
D26*
X155585000Y-97675000D03*
X156085000Y-97675000D03*
X156585000Y-97675000D03*
X157085000Y-97675000D03*
X157585000Y-97675000D03*
X158085000Y-97675000D03*
X158585000Y-97675000D03*
X159085000Y-97675000D03*
D27*
X157335000Y-95225000D03*
%TD*%
D19*
%TO.C,C9*%
X153640000Y-92760000D03*
X153640000Y-91800000D03*
%TD*%
D24*
%TO.C,C19*%
X157180000Y-90450000D03*
X158140000Y-90450000D03*
%TD*%
D19*
%TO.C,C11*%
X154700000Y-91630000D03*
X154700000Y-90670000D03*
%TD*%
D24*
%TO.C,C7*%
X161750000Y-95020000D03*
X162710000Y-95020000D03*
%TD*%
D11*
%TO.C,C3*%
X143950000Y-108925000D03*
X143950000Y-111875000D03*
%TD*%
D28*
%TO.C,SW2*%
X135480000Y-83450000D03*
X138880000Y-83450000D03*
%TD*%
D29*
%TO.C,Y1*%
X163540000Y-92760000D03*
X163540000Y-90260000D03*
%TD*%
D14*
%TO.C,R2*%
X128540000Y-102240000D03*
X129560000Y-102240000D03*
%TD*%
D12*
%TO.C,C14*%
X165210000Y-90130000D03*
X165210000Y-91090000D03*
%TD*%
D18*
%TO.C,H1*%
X165050000Y-84160000D03*
%TD*%
D30*
%TO.C,U2*%
X147712500Y-104440000D03*
X147712500Y-106340000D03*
X149587500Y-105390000D03*
%TD*%
D31*
%TO.C,U1*%
X136730000Y-107880000D03*
X136730000Y-108830000D03*
X136730000Y-109780000D03*
X139005000Y-109780000D03*
X139005000Y-108830000D03*
X139005000Y-107880000D03*
%TD*%
D12*
%TO.C,C17*%
X158590000Y-105110000D03*
X158590000Y-106070000D03*
%TD*%
%TO.C,C20*%
X130850000Y-94620000D03*
X130850000Y-95580000D03*
%TD*%
D32*
%TO.C,U5*%
X155510000Y-101942500D03*
X154560000Y-101942500D03*
X153610000Y-101942500D03*
X153610000Y-104217500D03*
X154560000Y-104217500D03*
X155510000Y-104217500D03*
%TD*%
D33*
%TO.C,R8*%
X137880000Y-103337500D03*
X137880000Y-105162500D03*
%TD*%
D34*
%TO.C,J3*%
X157330000Y-110130000D03*
D35*
X159870000Y-110130000D03*
X162410000Y-110130000D03*
X164950000Y-110130000D03*
%TD*%
D36*
%TO.C,R1*%
X131850000Y-102240000D03*
X130830000Y-102240000D03*
%TD*%
D19*
%TO.C,C5*%
X164930000Y-96020000D03*
X164930000Y-95060000D03*
%TD*%
%TO.C,C13*%
X165240000Y-93000000D03*
X165240000Y-92040000D03*
%TD*%
%TO.C,C12*%
X162760000Y-87900000D03*
X162760000Y-86940000D03*
%TD*%
D37*
%TO.C,Y2*%
X160400000Y-105120000D03*
X162600000Y-105120000D03*
X162600000Y-103420000D03*
X160400000Y-103420000D03*
%TD*%
D33*
%TO.C,R9*%
X158890000Y-87277500D03*
X158890000Y-89102500D03*
%TD*%
D24*
%TO.C,C10*%
X158870000Y-98940000D03*
X159830000Y-98940000D03*
%TD*%
D33*
%TO.C,R3*%
X154190000Y-109417500D03*
X154190000Y-111242500D03*
%TD*%
D11*
%TO.C,C2*%
X146450000Y-108905000D03*
X146450000Y-111855000D03*
%TD*%
D38*
%TO.C,L2*%
X162725000Y-96020000D03*
X161755000Y-96020000D03*
%TD*%
D39*
%TO.C,C1*%
X143180000Y-106855000D03*
X143180000Y-103905000D03*
%TD*%
D12*
%TO.C,C16*%
X164815000Y-96985000D03*
X164815000Y-97945000D03*
%TD*%
D40*
%TO.C,J1*%
X132090000Y-111210000D03*
X132090000Y-105430000D03*
D41*
X133535000Y-105070000D03*
X133535000Y-105870000D03*
D42*
X133535000Y-107070000D03*
X133535000Y-108070000D03*
X133535000Y-108570000D03*
X133535000Y-109570000D03*
D41*
X133535000Y-110770000D03*
X133535000Y-111570000D03*
X133535000Y-111570000D03*
X133535000Y-110770000D03*
D42*
X133535000Y-110070000D03*
X133535000Y-109070000D03*
X133535000Y-107570000D03*
X133535000Y-106570000D03*
D41*
X133535000Y-105870000D03*
X133535000Y-105070000D03*
D43*
X132620000Y-112640000D03*
D44*
X128440000Y-104000000D03*
X128440000Y-112640000D03*
D43*
X132620000Y-104000000D03*
%TD*%
D45*
%TO.C,R6*%
X151557500Y-87160000D03*
X153382500Y-87160000D03*
%TD*%
D33*
%TO.C,R4*%
X161110000Y-87287500D03*
X161110000Y-89112500D03*
%TD*%
D28*
%TO.C,SW1*%
X145950000Y-83430000D03*
X142550000Y-83430000D03*
%TD*%
D24*
%TO.C,C18*%
X162600000Y-101570000D03*
X163560000Y-101570000D03*
%TD*%
D45*
%TO.C,R5*%
X151537500Y-89280000D03*
X153362500Y-89280000D03*
%TD*%
M02*
