%FSLAX45Y45*%
G04 Gerber Fmt 4.5, Leading zero omitted, Abs format (unit mm)*
G04 Created by KiCad (PCBNEW (6.0.1)) date 2023-03-02 19:10:51*
%MOMM*%
%LPD*%
G01*
G04 APERTURE LIST*
%TA.AperFunction,Profile*%
%ADD10C,0.100000*%
%TD*%
%ADD11C,0.200000*%
%ADD12C,0.065000*%
G04 APERTURE END LIST*
D10*
X12732711Y-8136000D02*
G75*
G03*
X12632711Y-8236000I0J-100000D01*
G01*
X16787000Y-9203000D02*
X16786000Y-8236000D01*
X17777000Y-11390000D02*
X12632500Y-11390000D01*
X12632500Y-11390000D02*
X12632711Y-8236000D01*
X17877000Y-11290000D02*
X17877000Y-9403000D01*
X12732711Y-8136000D02*
X16685000Y-8136000D01*
X17877000Y-9403000D02*
G75*
G03*
X17777000Y-9303000I-100000J0D01*
G01*
X17777000Y-11390000D02*
G75*
G03*
X17877000Y-11290000I0J100000D01*
G01*
X17777000Y-9303000D02*
X16887000Y-9303000D01*
X16787000Y-9203000D02*
G75*
G03*
X16887000Y-9303000I100000J0D01*
G01*
X16786000Y-8236000D02*
G75*
G03*
X16685000Y-8136000I-100005J0D01*
G01*
D11*
D12*
X13176500Y-10510500D02*
X13241500Y-10575500D01*
X13241500Y-10510500D02*
X13176500Y-10575500D01*
X13176500Y-11088500D02*
X13241500Y-11153500D01*
X13241500Y-11088500D02*
X13176500Y-11153500D01*
D11*
X12885119Y-11705476D02*
X12885119Y-11505476D01*
X12932738Y-11505476D01*
X12961309Y-11515000D01*
X12980357Y-11534048D01*
X12989881Y-11553095D01*
X12999405Y-11591190D01*
X12999405Y-11619762D01*
X12989881Y-11657857D01*
X12980357Y-11676905D01*
X12961309Y-11695952D01*
X12932738Y-11705476D01*
X12885119Y-11705476D01*
X13085119Y-11705476D02*
X13085119Y-11572143D01*
X13085119Y-11610238D02*
X13094643Y-11591190D01*
X13104167Y-11581667D01*
X13123214Y-11572143D01*
X13142262Y-11572143D01*
X13208928Y-11705476D02*
X13208928Y-11572143D01*
X13208928Y-11505476D02*
X13199405Y-11515000D01*
X13208928Y-11524524D01*
X13218452Y-11515000D01*
X13208928Y-11505476D01*
X13208928Y-11524524D01*
X13332738Y-11705476D02*
X13313690Y-11695952D01*
X13304167Y-11676905D01*
X13304167Y-11505476D01*
X13437500Y-11705476D02*
X13418452Y-11695952D01*
X13408928Y-11676905D01*
X13408928Y-11505476D01*
X13666071Y-11705476D02*
X13666071Y-11505476D01*
X13732738Y-11648333D01*
X13799405Y-11505476D01*
X13799405Y-11705476D01*
X13980357Y-11705476D02*
X13980357Y-11600714D01*
X13970833Y-11581667D01*
X13951786Y-11572143D01*
X13913690Y-11572143D01*
X13894643Y-11581667D01*
X13980357Y-11695952D02*
X13961309Y-11705476D01*
X13913690Y-11705476D01*
X13894643Y-11695952D01*
X13885119Y-11676905D01*
X13885119Y-11657857D01*
X13894643Y-11638809D01*
X13913690Y-11629286D01*
X13961309Y-11629286D01*
X13980357Y-11619762D01*
X14075595Y-11572143D02*
X14075595Y-11772143D01*
X14075595Y-11581667D02*
X14094643Y-11572143D01*
X14132738Y-11572143D01*
X14151786Y-11581667D01*
X14161309Y-11591190D01*
X14170833Y-11610238D01*
X14170833Y-11667381D01*
X14161309Y-11686428D01*
X14151786Y-11695952D01*
X14132738Y-11705476D01*
X14094643Y-11705476D01*
X14075595Y-11695952D01*
X14256548Y-11686428D02*
X14266071Y-11695952D01*
X14256548Y-11705476D01*
X14247024Y-11695952D01*
X14256548Y-11686428D01*
X14256548Y-11705476D01*
X14256548Y-11581667D02*
X14266071Y-11591190D01*
X14256548Y-11600714D01*
X14247024Y-11591190D01*
X14256548Y-11581667D01*
X14256548Y-11600714D01*
D12*
X12562500Y-12002500D02*
X12627500Y-12067500D01*
X12627500Y-12002500D02*
X12562500Y-12067500D01*
D11*
X12923214Y-11925476D02*
X12942262Y-11925476D01*
X12961309Y-11935000D01*
X12970833Y-11944524D01*
X12980357Y-11963571D01*
X12989881Y-12001667D01*
X12989881Y-12049286D01*
X12980357Y-12087381D01*
X12970833Y-12106428D01*
X12961309Y-12115952D01*
X12942262Y-12125476D01*
X12923214Y-12125476D01*
X12904167Y-12115952D01*
X12894643Y-12106428D01*
X12885119Y-12087381D01*
X12875595Y-12049286D01*
X12875595Y-12001667D01*
X12885119Y-11963571D01*
X12894643Y-11944524D01*
X12904167Y-11935000D01*
X12923214Y-11925476D01*
X13075595Y-12106428D02*
X13085119Y-12115952D01*
X13075595Y-12125476D01*
X13066071Y-12115952D01*
X13075595Y-12106428D01*
X13075595Y-12125476D01*
X13256548Y-11925476D02*
X13218452Y-11925476D01*
X13199405Y-11935000D01*
X13189881Y-11944524D01*
X13170833Y-11973095D01*
X13161309Y-12011190D01*
X13161309Y-12087381D01*
X13170833Y-12106428D01*
X13180357Y-12115952D01*
X13199405Y-12125476D01*
X13237500Y-12125476D01*
X13256548Y-12115952D01*
X13266071Y-12106428D01*
X13275595Y-12087381D01*
X13275595Y-12039762D01*
X13266071Y-12020714D01*
X13256548Y-12011190D01*
X13237500Y-12001667D01*
X13199405Y-12001667D01*
X13180357Y-12011190D01*
X13170833Y-12020714D01*
X13161309Y-12039762D01*
X13456548Y-11925476D02*
X13361309Y-11925476D01*
X13351786Y-12020714D01*
X13361309Y-12011190D01*
X13380357Y-12001667D01*
X13427976Y-12001667D01*
X13447024Y-12011190D01*
X13456548Y-12020714D01*
X13466071Y-12039762D01*
X13466071Y-12087381D01*
X13456548Y-12106428D01*
X13447024Y-12115952D01*
X13427976Y-12125476D01*
X13380357Y-12125476D01*
X13361309Y-12115952D01*
X13351786Y-12106428D01*
X13589881Y-11925476D02*
X13608928Y-11925476D01*
X13627976Y-11935000D01*
X13637500Y-11944524D01*
X13647024Y-11963571D01*
X13656548Y-12001667D01*
X13656548Y-12049286D01*
X13647024Y-12087381D01*
X13637500Y-12106428D01*
X13627976Y-12115952D01*
X13608928Y-12125476D01*
X13589881Y-12125476D01*
X13570833Y-12115952D01*
X13561309Y-12106428D01*
X13551786Y-12087381D01*
X13542262Y-12049286D01*
X13542262Y-12001667D01*
X13551786Y-11963571D01*
X13561309Y-11944524D01*
X13570833Y-11935000D01*
X13589881Y-11925476D01*
X13742262Y-12125476D02*
X13742262Y-11992143D01*
X13742262Y-12011190D02*
X13751786Y-12001667D01*
X13770833Y-11992143D01*
X13799405Y-11992143D01*
X13818452Y-12001667D01*
X13827976Y-12020714D01*
X13827976Y-12125476D01*
X13827976Y-12020714D02*
X13837500Y-12001667D01*
X13856548Y-11992143D01*
X13885119Y-11992143D01*
X13904167Y-12001667D01*
X13913690Y-12020714D01*
X13913690Y-12125476D01*
X14008928Y-12125476D02*
X14008928Y-11992143D01*
X14008928Y-12011190D02*
X14018452Y-12001667D01*
X14037500Y-11992143D01*
X14066071Y-11992143D01*
X14085119Y-12001667D01*
X14094643Y-12020714D01*
X14094643Y-12125476D01*
X14094643Y-12020714D02*
X14104167Y-12001667D01*
X14123214Y-11992143D01*
X14151786Y-11992143D01*
X14170833Y-12001667D01*
X14180357Y-12020714D01*
X14180357Y-12125476D01*
X14570833Y-11915952D02*
X14399405Y-12173095D01*
X14827976Y-11925476D02*
X14847024Y-11925476D01*
X14866071Y-11935000D01*
X14875595Y-11944524D01*
X14885119Y-11963571D01*
X14894643Y-12001667D01*
X14894643Y-12049286D01*
X14885119Y-12087381D01*
X14875595Y-12106428D01*
X14866071Y-12115952D01*
X14847024Y-12125476D01*
X14827976Y-12125476D01*
X14808928Y-12115952D01*
X14799405Y-12106428D01*
X14789881Y-12087381D01*
X14780357Y-12049286D01*
X14780357Y-12001667D01*
X14789881Y-11963571D01*
X14799405Y-11944524D01*
X14808928Y-11935000D01*
X14827976Y-11925476D01*
X14980357Y-12106428D02*
X14989881Y-12115952D01*
X14980357Y-12125476D01*
X14970833Y-12115952D01*
X14980357Y-12106428D01*
X14980357Y-12125476D01*
X15113690Y-11925476D02*
X15132738Y-11925476D01*
X15151786Y-11935000D01*
X15161309Y-11944524D01*
X15170833Y-11963571D01*
X15180357Y-12001667D01*
X15180357Y-12049286D01*
X15170833Y-12087381D01*
X15161309Y-12106428D01*
X15151786Y-12115952D01*
X15132738Y-12125476D01*
X15113690Y-12125476D01*
X15094643Y-12115952D01*
X15085119Y-12106428D01*
X15075595Y-12087381D01*
X15066071Y-12049286D01*
X15066071Y-12001667D01*
X15075595Y-11963571D01*
X15085119Y-11944524D01*
X15094643Y-11935000D01*
X15113690Y-11925476D01*
X15256548Y-11944524D02*
X15266071Y-11935000D01*
X15285119Y-11925476D01*
X15332738Y-11925476D01*
X15351786Y-11935000D01*
X15361309Y-11944524D01*
X15370833Y-11963571D01*
X15370833Y-11982619D01*
X15361309Y-12011190D01*
X15247024Y-12125476D01*
X15370833Y-12125476D01*
X15551786Y-11925476D02*
X15456548Y-11925476D01*
X15447024Y-12020714D01*
X15456548Y-12011190D01*
X15475595Y-12001667D01*
X15523214Y-12001667D01*
X15542262Y-12011190D01*
X15551786Y-12020714D01*
X15561309Y-12039762D01*
X15561309Y-12087381D01*
X15551786Y-12106428D01*
X15542262Y-12115952D01*
X15523214Y-12125476D01*
X15475595Y-12125476D01*
X15456548Y-12115952D01*
X15447024Y-12106428D01*
X15732738Y-11925476D02*
X15694643Y-11925476D01*
X15675595Y-11935000D01*
X15666071Y-11944524D01*
X15647024Y-11973095D01*
X15637500Y-12011190D01*
X15637500Y-12087381D01*
X15647024Y-12106428D01*
X15656548Y-12115952D01*
X15675595Y-12125476D01*
X15713690Y-12125476D01*
X15732738Y-12115952D01*
X15742262Y-12106428D01*
X15751786Y-12087381D01*
X15751786Y-12039762D01*
X15742262Y-12020714D01*
X15732738Y-12011190D01*
X15713690Y-12001667D01*
X15675595Y-12001667D01*
X15656548Y-12011190D01*
X15647024Y-12020714D01*
X15637500Y-12039762D01*
X15827976Y-11925476D02*
X15827976Y-11963571D01*
X15904167Y-11925476D02*
X15904167Y-11963571D01*
X16199405Y-12201667D02*
X16189881Y-12192143D01*
X16170833Y-12163571D01*
X16161309Y-12144524D01*
X16151786Y-12115952D01*
X16142262Y-12068333D01*
X16142262Y-12030238D01*
X16151786Y-11982619D01*
X16161309Y-11954048D01*
X16170833Y-11935000D01*
X16189881Y-11906428D01*
X16199405Y-11896905D01*
X16266071Y-11944524D02*
X16275595Y-11935000D01*
X16294643Y-11925476D01*
X16342262Y-11925476D01*
X16361309Y-11935000D01*
X16370833Y-11944524D01*
X16380357Y-11963571D01*
X16380357Y-11982619D01*
X16370833Y-12011190D01*
X16256548Y-12125476D01*
X16380357Y-12125476D01*
X16618452Y-12125476D02*
X16618452Y-11925476D01*
X16704167Y-12125476D02*
X16704167Y-12020714D01*
X16694643Y-12001667D01*
X16675595Y-11992143D01*
X16647024Y-11992143D01*
X16627976Y-12001667D01*
X16618452Y-12011190D01*
X16827976Y-12125476D02*
X16808929Y-12115952D01*
X16799405Y-12106428D01*
X16789881Y-12087381D01*
X16789881Y-12030238D01*
X16799405Y-12011190D01*
X16808929Y-12001667D01*
X16827976Y-11992143D01*
X16856548Y-11992143D01*
X16875595Y-12001667D01*
X16885119Y-12011190D01*
X16894643Y-12030238D01*
X16894643Y-12087381D01*
X16885119Y-12106428D01*
X16875595Y-12115952D01*
X16856548Y-12125476D01*
X16827976Y-12125476D01*
X17008929Y-12125476D02*
X16989881Y-12115952D01*
X16980357Y-12096905D01*
X16980357Y-11925476D01*
X17161310Y-12115952D02*
X17142262Y-12125476D01*
X17104167Y-12125476D01*
X17085119Y-12115952D01*
X17075595Y-12096905D01*
X17075595Y-12020714D01*
X17085119Y-12001667D01*
X17104167Y-11992143D01*
X17142262Y-11992143D01*
X17161310Y-12001667D01*
X17170833Y-12020714D01*
X17170833Y-12039762D01*
X17075595Y-12058809D01*
X17247024Y-12115952D02*
X17266071Y-12125476D01*
X17304167Y-12125476D01*
X17323214Y-12115952D01*
X17332738Y-12096905D01*
X17332738Y-12087381D01*
X17323214Y-12068333D01*
X17304167Y-12058809D01*
X17275595Y-12058809D01*
X17256548Y-12049286D01*
X17247024Y-12030238D01*
X17247024Y-12020714D01*
X17256548Y-12001667D01*
X17275595Y-11992143D01*
X17304167Y-11992143D01*
X17323214Y-12001667D01*
X17399405Y-12201667D02*
X17408929Y-12192143D01*
X17427976Y-12163571D01*
X17437500Y-12144524D01*
X17447024Y-12115952D01*
X17456548Y-12068333D01*
X17456548Y-12030238D01*
X17447024Y-11982619D01*
X17437500Y-11954048D01*
X17427976Y-11935000D01*
X17408929Y-11906428D01*
X17399405Y-11896905D01*
X17761310Y-12201667D02*
X17751786Y-12192143D01*
X17732738Y-12163571D01*
X17723214Y-12144524D01*
X17713690Y-12115952D01*
X17704167Y-12068333D01*
X17704167Y-12030238D01*
X17713690Y-11982619D01*
X17723214Y-11954048D01*
X17732738Y-11935000D01*
X17751786Y-11906428D01*
X17761310Y-11896905D01*
X17837500Y-11992143D02*
X17837500Y-12125476D01*
X17837500Y-12011190D02*
X17847024Y-12001667D01*
X17866071Y-11992143D01*
X17894643Y-11992143D01*
X17913690Y-12001667D01*
X17923214Y-12020714D01*
X17923214Y-12125476D01*
X18047024Y-12125476D02*
X18027976Y-12115952D01*
X18018452Y-12106428D01*
X18008929Y-12087381D01*
X18008929Y-12030238D01*
X18018452Y-12011190D01*
X18027976Y-12001667D01*
X18047024Y-11992143D01*
X18075595Y-11992143D01*
X18094643Y-12001667D01*
X18104167Y-12011190D01*
X18113690Y-12030238D01*
X18113690Y-12087381D01*
X18104167Y-12106428D01*
X18094643Y-12115952D01*
X18075595Y-12125476D01*
X18047024Y-12125476D01*
X18170833Y-11992143D02*
X18247024Y-11992143D01*
X18199405Y-11925476D02*
X18199405Y-12096905D01*
X18208929Y-12115952D01*
X18227976Y-12125476D01*
X18247024Y-12125476D01*
X18466071Y-11992143D02*
X18466071Y-12192143D01*
X18466071Y-12001667D02*
X18485119Y-11992143D01*
X18523214Y-11992143D01*
X18542262Y-12001667D01*
X18551786Y-12011190D01*
X18561310Y-12030238D01*
X18561310Y-12087381D01*
X18551786Y-12106428D01*
X18542262Y-12115952D01*
X18523214Y-12125476D01*
X18485119Y-12125476D01*
X18466071Y-12115952D01*
X18675595Y-12125476D02*
X18656548Y-12115952D01*
X18647024Y-12096905D01*
X18647024Y-11925476D01*
X18837500Y-12125476D02*
X18837500Y-12020714D01*
X18827976Y-12001667D01*
X18808929Y-11992143D01*
X18770833Y-11992143D01*
X18751786Y-12001667D01*
X18837500Y-12115952D02*
X18818452Y-12125476D01*
X18770833Y-12125476D01*
X18751786Y-12115952D01*
X18742262Y-12096905D01*
X18742262Y-12077857D01*
X18751786Y-12058809D01*
X18770833Y-12049286D01*
X18818452Y-12049286D01*
X18837500Y-12039762D01*
X18904167Y-11992143D02*
X18980357Y-11992143D01*
X18932738Y-11925476D02*
X18932738Y-12096905D01*
X18942262Y-12115952D01*
X18961310Y-12125476D01*
X18980357Y-12125476D01*
X19123214Y-12115952D02*
X19104167Y-12125476D01*
X19066071Y-12125476D01*
X19047024Y-12115952D01*
X19037500Y-12096905D01*
X19037500Y-12020714D01*
X19047024Y-12001667D01*
X19066071Y-11992143D01*
X19104167Y-11992143D01*
X19123214Y-12001667D01*
X19132738Y-12020714D01*
X19132738Y-12039762D01*
X19037500Y-12058809D01*
X19304167Y-12125476D02*
X19304167Y-11925476D01*
X19304167Y-12115952D02*
X19285119Y-12125476D01*
X19247024Y-12125476D01*
X19227976Y-12115952D01*
X19218452Y-12106428D01*
X19208929Y-12087381D01*
X19208929Y-12030238D01*
X19218452Y-12011190D01*
X19227976Y-12001667D01*
X19247024Y-11992143D01*
X19285119Y-11992143D01*
X19304167Y-12001667D01*
X19380357Y-12201667D02*
X19389881Y-12192143D01*
X19408929Y-12163571D01*
X19418452Y-12144524D01*
X19427976Y-12115952D01*
X19437500Y-12068333D01*
X19437500Y-12030238D01*
X19427976Y-11982619D01*
X19418452Y-11954048D01*
X19408929Y-11935000D01*
X19389881Y-11906428D01*
X19380357Y-11896905D01*
M02*
