M48
; DRILL file {KiCad (6.0.1)} date Thu Mar  2 19:10:52 2023
; FORMAT={-:-/ absolute / inch / decimal}
; #@! TF.CreationDate,2023-03-02T19:10:52-05:00
; #@! TF.GenerationSoftware,Kicad,Pcbnew,(6.0.1)
; #@! TF.FileFunction,Plated,1,4,PTH
FMAT,2
INCH
; #@! TA.AperFunction,Plated,PTH,ViaDrill
T1C0.0118
; #@! TA.AperFunction,Plated,PTH,ViaDrill
T2C0.0157
; #@! TA.AperFunction,Plated,PTH,ViaDrill
T3C0.0197
; #@! TA.AperFunction,Plated,PTH,ComponentDrill
T4C0.0236
; #@! TA.AperFunction,Plated,PTH,ComponentDrill
T5C0.0394
; #@! TA.AperFunction,Plated,PTH,ComponentDrill
T6C0.0469
; #@! TA.AperFunction,Plated,PTH,ComponentDrill
T7C0.0866
%
G90
G05
T1
X5.0311Y-4.0256
X5.1343Y-4.0953
X5.1516Y-3.801
X5.2177Y-3.2783
X5.2181Y-4.0256
X5.298Y-4.3925
X5.3004Y-4.1366
X5.3185Y-4.3264
X5.3843Y-3.65
X5.3906Y-3.4335
X5.3906Y-3.513
X5.3996Y-3.986
X5.4083Y-3.8827
X5.5059Y-4.0055
X5.5134Y-3.8406
X5.5429Y-3.3425
X5.561Y-3.9287
X5.5776Y-3.4913
X5.5803Y-3.7484
X5.5988Y-3.4205
X5.6331Y-3.5571
X5.6528Y-3.8382
X5.6713Y-3.4917
X5.698Y-3.9213
X5.7181Y-3.7606
X5.722Y-3.426
X5.7539Y-3.3425
X5.8862Y-3.2563
X6.0488Y-3.5917
X6.0906Y-3.55
X6.1008Y-3.4465
X6.1535Y-3.7945
X6.1551Y-3.7047
X6.1551Y-3.7504
X6.1559Y-3.4063
X6.1594Y-3.4587
X6.2091Y-3.7941
X6.2106Y-3.7476
X6.211Y-3.6071
X6.211Y-3.7055
X6.226Y-3.5748
X6.2437Y-4.1969
X6.2559Y-3.4126
X6.2587Y-3.6031
X6.3142Y-3.8953
X6.3217Y-3.6035
X6.3693Y-3.8772
X6.4079Y-3.398
X6.4287Y-3.8976
X6.4496Y-3.7299
X6.4661Y-3.9992
X6.489Y-3.8795
X6.4933Y-3.7299
X6.5209Y-3.4681
X6.5291Y-3.5858
X6.5295Y-3.6236
X6.5378Y-3.8551
X6.5756Y-3.4217
X6.576Y-3.5173
X6.5768Y-3.4685
X6.5768Y-3.561
X6.5772Y-3.6039
X6.5776Y-3.7378
X6.5776Y-3.8567
X6.5776Y-3.9819
X6.5776Y-4.2504
X6.578Y-3.6941
X6.578Y-4.0201
X6.578Y-4.061
X6.5783Y-3.65
X6.5783Y-3.8961
X6.5783Y-3.9394
X6.5783Y-4.1051
X6.5787Y-4.2953
X6.5791Y-4.1488
X6.5791Y-4.2008
X6.5795Y-4.3445
X6.5803Y-4.4378
X6.5807Y-4.3906
T2
X5.0508Y-3.7764
X5.1071Y-3.6008
X5.3717Y-4.0697
X5.4276Y-4.2114
X5.5087Y-3.4894
X5.6114Y-4.4047
X5.6378Y-4.1413
X5.6673Y-4.4445
X5.6917Y-4.0909
X5.7165Y-3.9614
X5.7421Y-4.1472
X5.7661Y-4.4433
X5.8638Y-4.1118
X5.8673Y-4.4421
X5.922Y-4.4031
X5.989Y-4.089
X6.0543Y-3.7039
X6.0705Y-4.4161
X6.0854Y-3.9646
X6.2488Y-4.0717
X6.3268Y-3.6437
X6.4744Y-4.1386
T3
X5.4524Y-3.6937
X5.9524Y-4.2126
X6.0114Y-3.6429
X6.2094Y-3.3768
X6.2815Y-3.9484
X6.5406Y-3.7665
T5
X6.0016Y-3.2783
X6.1016Y-3.2783
X6.2016Y-3.2783
X6.3016Y-3.2783
T6
X6.1941Y-4.3358
X6.2941Y-4.3358
X6.3941Y-4.3358
X6.4941Y-4.3358
T7
X5.0925Y-3.8941
X6.498Y-3.3134
T4
G00X5.0724Y-4.0945
M15
G01X5.0409Y-4.0945
M16
G05
G00X5.0724Y-4.4346
M15
G01X5.0409Y-4.4346
M16
G05
G00X5.2429Y-4.0945
M15
G01X5.1996Y-4.0945
M16
G05
G00X5.2429Y-4.4346
M15
G01X5.1996Y-4.4346
M16
G05
T0
M30
