%TF.GenerationSoftware,KiCad,Pcbnew,(6.0.1)*%
%TF.CreationDate,2023-03-02T19:10:53-05:00*%
%TF.ProjectId,PCBFiles_Gateway,50434246-696c-4657-935f-476174657761,rev?*%
%TF.SameCoordinates,Original*%
%TF.FileFunction,Copper,L3,Inr*%
%TF.FilePolarity,Positive*%
%FSLAX46Y46*%
G04 Gerber Fmt 4.6, Leading zero omitted, Abs format (unit mm)*
G04 Created by KiCad (PCBNEW (6.0.1)) date 2023-03-02 19:10:53*
%MOMM*%
%LPD*%
G01*
G04 APERTURE LIST*
G04 Aperture macros list*
%AMRoundRect*
0 Rectangle with rounded corners*
0 $1 Rounding radius*
0 $2 $3 $4 $5 $6 $7 $8 $9 X,Y pos of 4 corners*
0 Add a 4 corners polygon primitive as box body*
4,1,4,$2,$3,$4,$5,$6,$7,$8,$9,$2,$3,0*
0 Add four circle primitives for the rounded corners*
1,1,$1+$1,$2,$3*
1,1,$1+$1,$4,$5*
1,1,$1+$1,$6,$7*
1,1,$1+$1,$8,$9*
0 Add four rect primitives between the rounded corners*
20,1,$1+$1,$2,$3,$4,$5,0*
20,1,$1+$1,$4,$5,$6,$7,0*
20,1,$1+$1,$6,$7,$8,$9,0*
20,1,$1+$1,$8,$9,$2,$3,0*%
G04 Aperture macros list end*
%TA.AperFunction,ComponentPad*%
%ADD10C,4.400000*%
%TD*%
%TA.AperFunction,ComponentPad*%
%ADD11R,1.700000X1.700000*%
%TD*%
%TA.AperFunction,ComponentPad*%
%ADD12O,1.700000X1.700000*%
%TD*%
%TA.AperFunction,ComponentPad*%
%ADD13RoundRect,0.250000X-0.620000X-0.845000X0.620000X-0.845000X0.620000X0.845000X-0.620000X0.845000X0*%
%TD*%
%TA.AperFunction,ComponentPad*%
%ADD14O,1.740000X2.190000*%
%TD*%
%TA.AperFunction,ComponentPad*%
%ADD15O,2.100000X1.000000*%
%TD*%
%TA.AperFunction,ComponentPad*%
%ADD16O,1.800000X1.000000*%
%TD*%
%TA.AperFunction,ViaPad*%
%ADD17C,0.600000*%
%TD*%
%TA.AperFunction,ViaPad*%
%ADD18C,0.800000*%
%TD*%
%TA.AperFunction,ViaPad*%
%ADD19C,0.900000*%
%TD*%
G04 APERTURE END LIST*
D10*
%TO.N,N/C*%
%TO.C,H2*%
X129350000Y-98910000D03*
%TD*%
D11*
%TO.N,GND*%
%TO.C,J4*%
X152440000Y-83270000D03*
D12*
%TO.N,I2C_SDA*%
X154980000Y-83270000D03*
%TO.N,I2C_SCL*%
X157520000Y-83270000D03*
%TO.N,+3V3*%
X160060000Y-83270000D03*
%TD*%
D10*
%TO.N,N/C*%
%TO.C,H1*%
X165050000Y-84160000D03*
%TD*%
D13*
%TO.N,GND*%
%TO.C,J3*%
X157330000Y-110130000D03*
D14*
%TO.N,UART_CONN_RX*%
X159870000Y-110130000D03*
%TO.N,UART_CONN_TX*%
X162410000Y-110130000D03*
%TO.N,+3V3*%
X164950000Y-110130000D03*
%TD*%
D15*
%TO.N,unconnected-(J1-PadS1)*%
%TO.C,J1*%
X132620000Y-112640000D03*
D16*
X128440000Y-104000000D03*
X128440000Y-112640000D03*
D15*
X132620000Y-104000000D03*
%TD*%
D17*
%TO.N,GND*%
X161780000Y-98480000D03*
X167110000Y-106700000D03*
X136920000Y-87210000D03*
X142210000Y-86880000D03*
X167020000Y-86910000D03*
D18*
X146460000Y-112860000D03*
D17*
X160570000Y-91530000D03*
D18*
X143950000Y-112890000D03*
D17*
X160380000Y-98940000D03*
X164820000Y-98540000D03*
X140040000Y-97550000D03*
X167080000Y-103150000D03*
X145240000Y-95520000D03*
X145340000Y-87020000D03*
X167070000Y-97960000D03*
X165850000Y-92040000D03*
D18*
X143200000Y-105190000D03*
D17*
X167050000Y-88100000D03*
D18*
X158720000Y-103420000D03*
D17*
X141250000Y-99790000D03*
D18*
X150420000Y-111840000D03*
X149030000Y-112830000D03*
D17*
X166060000Y-97920000D03*
X167090000Y-100060000D03*
X144050000Y-88690000D03*
X163290000Y-99000000D03*
X134570000Y-111570000D03*
X164930000Y-94740000D03*
X153640000Y-91230000D03*
X167060000Y-91540000D03*
X167050000Y-90450000D03*
X165840000Y-91080000D03*
X136920000Y-89230000D03*
X163820000Y-94740000D03*
X132540000Y-102250000D03*
X143080000Y-90350000D03*
X141670000Y-88680000D03*
X149510000Y-82710000D03*
X167070000Y-101140000D03*
X158590000Y-106600000D03*
D18*
X142530000Y-111880000D03*
D17*
X167080000Y-93830000D03*
X156340000Y-94100000D03*
X136760000Y-92710000D03*
X157750000Y-95190000D03*
X156340000Y-95260000D03*
X143580000Y-97490000D03*
X167150000Y-111520000D03*
D18*
X144570000Y-103910000D03*
D17*
X167080000Y-102110000D03*
X127790000Y-102250000D03*
X164240000Y-101580000D03*
D18*
X154570000Y-100700000D03*
D17*
X137150000Y-101244500D03*
X134630000Y-105070000D03*
X162760000Y-86310000D03*
X167100000Y-109100000D03*
X157710000Y-96370000D03*
X167030000Y-89340000D03*
D18*
X148940000Y-104440000D03*
D17*
X157760000Y-94120000D03*
X139850000Y-101740000D03*
X154700000Y-90170000D03*
X158140000Y-90800000D03*
X167120000Y-110350000D03*
X167090000Y-92710000D03*
X132530000Y-83270000D03*
X167070000Y-107960000D03*
D18*
X137860000Y-106970000D03*
D17*
X167090000Y-104270000D03*
D18*
X164450000Y-105120000D03*
D17*
X130850000Y-96544500D03*
X167070000Y-94940000D03*
X158900000Y-86680000D03*
X141740000Y-95210000D03*
X165630000Y-88090000D03*
X167110000Y-105380000D03*
X144730000Y-99600000D03*
D18*
X154190000Y-112170000D03*
D17*
X167090000Y-98960000D03*
X167140000Y-112720000D03*
X156300000Y-96380000D03*
D19*
%TO.N,+3V3*%
X138490000Y-93820000D03*
X166130000Y-95670000D03*
X151190000Y-107000000D03*
X152690000Y-92530000D03*
X157720000Y-85770000D03*
D17*
X158970000Y-91520000D03*
D19*
X159550000Y-100290000D03*
D17*
%TO.N,Net-(C12-Pad1)*%
X156360000Y-86520000D03*
X146150000Y-84900000D03*
%TO.N,BUTT_1*%
X156450000Y-87850000D03*
X140790000Y-84900000D03*
D18*
%TO.N,Net-(D2-Pad1)*%
X136440000Y-103370000D03*
X128290000Y-95920000D03*
%TO.N,GP_LED*%
X129720000Y-91460000D03*
D17*
X154960000Y-87540000D03*
%TO.N,Net-(J1-PadB5)*%
X135090000Y-109890000D03*
X130410000Y-104020000D03*
D18*
%TO.N,DIO0_RFM9X*%
X160700000Y-92550000D03*
X139920000Y-88630000D03*
D17*
%TO.N,DIO1_RFM9X*%
X137370000Y-98620000D03*
X157760000Y-91620000D03*
D18*
%TO.N,DIO2_RFM9X*%
X153780000Y-94080000D03*
X145200000Y-100620000D03*
%TO.N,+5V*%
X145850000Y-105340000D03*
X152120000Y-103860000D03*
%TD*%
%TA.AperFunction,Conductor*%
%TO.N,GND*%
G36*
X151313414Y-81780002D02*
G01*
X151359907Y-81833658D01*
X151370011Y-81903932D01*
X151340517Y-81968512D01*
X151320858Y-81986827D01*
X151234272Y-82051719D01*
X151221715Y-82064276D01*
X151145214Y-82166351D01*
X151136676Y-82181946D01*
X151091522Y-82302394D01*
X151087895Y-82317649D01*
X151082369Y-82368514D01*
X151082000Y-82375328D01*
X151082000Y-82997885D01*
X151086475Y-83013124D01*
X151087865Y-83014329D01*
X151095548Y-83016000D01*
X152568000Y-83016000D01*
X152636121Y-83036002D01*
X152682614Y-83089658D01*
X152694000Y-83142000D01*
X152694000Y-84609884D01*
X152698475Y-84625123D01*
X152699865Y-84626328D01*
X152707548Y-84627999D01*
X153334669Y-84627999D01*
X153341490Y-84627629D01*
X153392352Y-84622105D01*
X153407604Y-84618479D01*
X153528054Y-84573324D01*
X153543649Y-84564786D01*
X153645724Y-84488285D01*
X153658285Y-84475724D01*
X153734786Y-84373649D01*
X153743324Y-84358054D01*
X153788478Y-84237606D01*
X153792105Y-84222351D01*
X153797631Y-84171486D01*
X153798000Y-84164672D01*
X153798000Y-83789192D01*
X153818002Y-83721071D01*
X153871658Y-83674578D01*
X153941932Y-83664474D01*
X154006512Y-83693968D01*
X154036067Y-83731598D01*
X154085263Y-83827323D01*
X154092712Y-83841818D01*
X154220677Y-84003270D01*
X154225370Y-84007264D01*
X154225371Y-84007265D01*
X154363569Y-84124880D01*
X154377564Y-84136791D01*
X154382942Y-84139797D01*
X154382944Y-84139798D01*
X154426308Y-84164033D01*
X154557398Y-84237297D01*
X154652238Y-84268113D01*
X154747471Y-84299056D01*
X154747475Y-84299057D01*
X154753329Y-84300959D01*
X154957894Y-84325351D01*
X154964029Y-84324879D01*
X154964031Y-84324879D01*
X155020039Y-84320569D01*
X155163300Y-84309546D01*
X155169230Y-84307890D01*
X155169232Y-84307890D01*
X155355797Y-84255800D01*
X155355796Y-84255800D01*
X155361725Y-84254145D01*
X155367214Y-84251372D01*
X155367220Y-84251370D01*
X155540116Y-84164033D01*
X155545610Y-84161258D01*
X155707951Y-84034424D01*
X155842564Y-83878472D01*
X155863387Y-83841818D01*
X155941276Y-83704707D01*
X155944323Y-83699344D01*
X156009351Y-83503863D01*
X156035171Y-83299474D01*
X156035390Y-83283806D01*
X156035534Y-83273522D01*
X156035534Y-83273518D01*
X156035583Y-83270000D01*
X156034138Y-83255262D01*
X156464520Y-83255262D01*
X156465036Y-83261406D01*
X156480747Y-83448496D01*
X156481759Y-83460553D01*
X156483458Y-83466478D01*
X156534412Y-83644175D01*
X156538544Y-83658586D01*
X156541359Y-83664063D01*
X156541360Y-83664066D01*
X156629897Y-83836341D01*
X156632712Y-83841818D01*
X156760677Y-84003270D01*
X156765370Y-84007264D01*
X156765371Y-84007265D01*
X156903569Y-84124880D01*
X156917564Y-84136791D01*
X156922942Y-84139797D01*
X156922944Y-84139798D01*
X156966308Y-84164033D01*
X157097398Y-84237297D01*
X157192238Y-84268113D01*
X157287471Y-84299056D01*
X157287475Y-84299057D01*
X157293329Y-84300959D01*
X157497894Y-84325351D01*
X157504029Y-84324879D01*
X157504031Y-84324879D01*
X157560039Y-84320569D01*
X157703300Y-84309546D01*
X157709230Y-84307890D01*
X157709232Y-84307890D01*
X157895797Y-84255800D01*
X157895796Y-84255800D01*
X157901725Y-84254145D01*
X157907214Y-84251372D01*
X157907220Y-84251370D01*
X158080116Y-84164033D01*
X158085610Y-84161258D01*
X158247951Y-84034424D01*
X158382564Y-83878472D01*
X158403387Y-83841818D01*
X158481276Y-83704707D01*
X158484323Y-83699344D01*
X158549351Y-83503863D01*
X158575171Y-83299474D01*
X158575390Y-83283806D01*
X158575534Y-83273522D01*
X158575534Y-83273518D01*
X158575583Y-83270000D01*
X158572746Y-83241069D01*
X158955164Y-83241069D01*
X158968392Y-83442894D01*
X159018178Y-83638928D01*
X159102856Y-83822607D01*
X159219588Y-83987780D01*
X159364466Y-84128913D01*
X159532637Y-84241282D01*
X159537940Y-84243560D01*
X159537943Y-84243562D01*
X159713163Y-84318842D01*
X159718470Y-84321122D01*
X159915740Y-84365760D01*
X159921509Y-84365987D01*
X159921512Y-84365987D01*
X159997683Y-84368979D01*
X160117842Y-84373700D01*
X160225753Y-84358054D01*
X160312286Y-84345508D01*
X160312291Y-84345507D01*
X160318007Y-84344678D01*
X160323479Y-84342820D01*
X160323481Y-84342820D01*
X160504067Y-84281519D01*
X160504069Y-84281518D01*
X160509531Y-84279664D01*
X160686001Y-84180837D01*
X160697240Y-84171490D01*
X160837073Y-84055191D01*
X160841505Y-84051505D01*
X160970837Y-83896001D01*
X161069664Y-83719531D01*
X161078504Y-83693491D01*
X161132820Y-83533481D01*
X161132820Y-83533479D01*
X161134678Y-83528007D01*
X161135507Y-83522291D01*
X161135508Y-83522286D01*
X161163167Y-83331516D01*
X161163700Y-83327842D01*
X161165215Y-83270000D01*
X161146708Y-83068591D01*
X161091807Y-82873926D01*
X161002351Y-82692527D01*
X160984079Y-82668057D01*
X160884788Y-82535091D01*
X160884787Y-82535090D01*
X160881335Y-82530467D01*
X160872469Y-82522271D01*
X160737053Y-82397094D01*
X160737051Y-82397092D01*
X160732812Y-82393174D01*
X160704528Y-82375328D01*
X160566637Y-82288325D01*
X160561757Y-82285246D01*
X160373898Y-82210298D01*
X160175526Y-82170839D01*
X160169752Y-82170763D01*
X160169748Y-82170763D01*
X160067257Y-82169422D01*
X159973286Y-82168192D01*
X159967589Y-82169171D01*
X159967588Y-82169171D01*
X159779646Y-82201465D01*
X159779645Y-82201465D01*
X159773949Y-82202444D01*
X159584193Y-82272449D01*
X159579232Y-82275401D01*
X159579231Y-82275401D01*
X159422729Y-82368510D01*
X159410371Y-82375862D01*
X159258305Y-82509220D01*
X159133089Y-82668057D01*
X159038914Y-82847053D01*
X158978937Y-83040213D01*
X158955164Y-83241069D01*
X158572746Y-83241069D01*
X158555480Y-83064970D01*
X158495935Y-82867749D01*
X158399218Y-82685849D01*
X158325859Y-82595902D01*
X158272906Y-82530975D01*
X158272903Y-82530972D01*
X158269011Y-82526200D01*
X158251786Y-82511950D01*
X158115025Y-82398811D01*
X158115021Y-82398809D01*
X158110275Y-82394882D01*
X157929055Y-82296897D01*
X157732254Y-82235977D01*
X157726129Y-82235333D01*
X157726128Y-82235333D01*
X157533498Y-82215087D01*
X157533496Y-82215087D01*
X157527369Y-82214443D01*
X157440529Y-82222346D01*
X157328342Y-82232555D01*
X157328339Y-82232556D01*
X157322203Y-82233114D01*
X157124572Y-82291280D01*
X156942002Y-82386726D01*
X156937201Y-82390586D01*
X156937198Y-82390588D01*
X156787703Y-82510785D01*
X156781447Y-82515815D01*
X156649024Y-82673630D01*
X156646056Y-82679028D01*
X156646053Y-82679033D01*
X156607272Y-82749576D01*
X156549776Y-82854162D01*
X156487484Y-83050532D01*
X156486798Y-83056649D01*
X156486797Y-83056653D01*
X156470018Y-83206245D01*
X156464520Y-83255262D01*
X156034138Y-83255262D01*
X156015480Y-83064970D01*
X155955935Y-82867749D01*
X155859218Y-82685849D01*
X155785859Y-82595902D01*
X155732906Y-82530975D01*
X155732903Y-82530972D01*
X155729011Y-82526200D01*
X155711786Y-82511950D01*
X155575025Y-82398811D01*
X155575021Y-82398809D01*
X155570275Y-82394882D01*
X155389055Y-82296897D01*
X155192254Y-82235977D01*
X155186129Y-82235333D01*
X155186128Y-82235333D01*
X154993498Y-82215087D01*
X154993496Y-82215087D01*
X154987369Y-82214443D01*
X154900529Y-82222346D01*
X154788342Y-82232555D01*
X154788339Y-82232556D01*
X154782203Y-82233114D01*
X154584572Y-82291280D01*
X154402002Y-82386726D01*
X154397201Y-82390586D01*
X154397198Y-82390588D01*
X154247703Y-82510785D01*
X154241447Y-82515815D01*
X154109024Y-82673630D01*
X154106054Y-82679033D01*
X154106053Y-82679034D01*
X154034414Y-82809345D01*
X153984068Y-82859404D01*
X153914651Y-82874297D01*
X153848202Y-82849296D01*
X153805818Y-82792339D01*
X153797999Y-82748644D01*
X153797999Y-82375331D01*
X153797629Y-82368510D01*
X153792105Y-82317648D01*
X153788479Y-82302396D01*
X153743324Y-82181946D01*
X153734786Y-82166351D01*
X153658285Y-82064276D01*
X153645728Y-82051719D01*
X153559142Y-81986827D01*
X153516627Y-81929967D01*
X153511601Y-81859149D01*
X153545661Y-81796855D01*
X153607992Y-81762865D01*
X153634707Y-81760000D01*
X163942010Y-81760000D01*
X164010131Y-81780002D01*
X164056624Y-81833658D01*
X164066728Y-81903932D01*
X164037234Y-81968512D01*
X164002711Y-81996414D01*
X163790511Y-82113073D01*
X163761205Y-82129184D01*
X163758003Y-82131510D01*
X163758002Y-82131511D01*
X163522801Y-82302394D01*
X163516838Y-82306726D01*
X163296651Y-82513496D01*
X163172540Y-82663521D01*
X163144258Y-82697708D01*
X163104115Y-82746232D01*
X162942267Y-83001264D01*
X162940583Y-83004843D01*
X162940579Y-83004850D01*
X162817548Y-83266305D01*
X162813659Y-83274570D01*
X162812433Y-83278342D01*
X162812433Y-83278343D01*
X162805567Y-83299474D01*
X162720319Y-83561840D01*
X162663720Y-83858543D01*
X162644754Y-84160000D01*
X162663720Y-84461457D01*
X162720319Y-84758160D01*
X162813659Y-85045430D01*
X162815346Y-85049016D01*
X162815348Y-85049020D01*
X162940579Y-85315150D01*
X162940583Y-85315157D01*
X162942267Y-85318736D01*
X163104115Y-85573768D01*
X163106634Y-85576814D01*
X163106637Y-85576817D01*
X163127206Y-85601680D01*
X163296651Y-85806504D01*
X163516838Y-86013274D01*
X163520040Y-86015601D01*
X163520042Y-86015602D01*
X163758002Y-86188489D01*
X163761205Y-86190816D01*
X163764674Y-86192723D01*
X163764677Y-86192725D01*
X164022427Y-86334425D01*
X164025896Y-86336332D01*
X164029565Y-86337785D01*
X164029570Y-86337787D01*
X164252604Y-86426092D01*
X164306738Y-86447525D01*
X164599302Y-86522642D01*
X164898973Y-86560500D01*
X165201027Y-86560500D01*
X165500698Y-86522642D01*
X165793262Y-86447525D01*
X165847396Y-86426092D01*
X166070430Y-86337787D01*
X166070435Y-86337785D01*
X166074104Y-86336332D01*
X166077573Y-86334425D01*
X166335323Y-86192725D01*
X166335326Y-86192723D01*
X166338795Y-86190816D01*
X166341998Y-86188489D01*
X166579958Y-86015602D01*
X166579960Y-86015601D01*
X166583162Y-86013274D01*
X166803349Y-85806504D01*
X166972794Y-85601680D01*
X166993363Y-85576817D01*
X166993366Y-85576814D01*
X166995885Y-85573768D01*
X167157733Y-85318736D01*
X167159417Y-85315157D01*
X167159421Y-85315150D01*
X167222964Y-85180113D01*
X167270067Y-85126992D01*
X167338411Y-85107769D01*
X167406299Y-85128548D01*
X167452176Y-85182731D01*
X167462972Y-85233631D01*
X167469954Y-91984536D01*
X167469958Y-91988738D01*
X167468406Y-92008581D01*
X167466565Y-92020202D01*
X167466565Y-92020208D01*
X167465014Y-92030000D01*
X167466320Y-92038245D01*
X167466566Y-92041371D01*
X167466566Y-92041972D01*
X167466707Y-92043169D01*
X167482960Y-92249685D01*
X167484116Y-92254500D01*
X167487227Y-92267459D01*
X167490708Y-92296880D01*
X167490648Y-93228461D01*
X167490638Y-93230063D01*
X167490000Y-93280000D01*
X167490000Y-93330000D01*
X167486207Y-94513305D01*
X167480000Y-96449908D01*
X167480000Y-97480000D01*
X167521064Y-113373676D01*
X167501239Y-113441847D01*
X167447703Y-113488478D01*
X167395065Y-113500000D01*
X133559080Y-113500000D01*
X133490959Y-113479998D01*
X133444466Y-113426342D01*
X133434362Y-113356068D01*
X133463856Y-113291488D01*
X133496885Y-113265359D01*
X133496923Y-113265345D01*
X133503184Y-113261042D01*
X133630392Y-113173614D01*
X133630393Y-113173613D01*
X133636651Y-113169312D01*
X133646132Y-113158671D01*
X133744388Y-113048392D01*
X133744390Y-113048388D01*
X133749440Y-113042721D01*
X133756238Y-113029883D01*
X133825224Y-112899589D01*
X133828776Y-112892881D01*
X133870081Y-112728441D01*
X133870969Y-112558895D01*
X133831388Y-112394032D01*
X133753625Y-112243369D01*
X133748313Y-112237279D01*
X133647163Y-112121329D01*
X133642169Y-112115604D01*
X133583649Y-112074475D01*
X133509670Y-112022482D01*
X133509668Y-112022481D01*
X133503453Y-112018113D01*
X133345487Y-111956524D01*
X133337954Y-111955532D01*
X133337953Y-111955532D01*
X133220261Y-111940038D01*
X133220260Y-111940038D01*
X133216174Y-111939500D01*
X132455482Y-111939500D01*
X132387361Y-111919498D01*
X132340868Y-111865842D01*
X132330764Y-111795568D01*
X132360258Y-111730988D01*
X132381077Y-111713798D01*
X132380233Y-111712698D01*
X132493901Y-111625477D01*
X132500451Y-111620451D01*
X132592698Y-111500233D01*
X132650687Y-111360236D01*
X132654566Y-111330776D01*
X132669388Y-111218188D01*
X132670466Y-111210000D01*
X132650687Y-111059764D01*
X132635084Y-111022095D01*
X155952001Y-111022095D01*
X155952338Y-111028614D01*
X155962257Y-111124206D01*
X155965149Y-111137600D01*
X156016588Y-111291784D01*
X156022761Y-111304962D01*
X156108063Y-111442807D01*
X156117099Y-111454208D01*
X156231829Y-111568739D01*
X156243240Y-111577751D01*
X156381243Y-111662816D01*
X156394424Y-111668963D01*
X156548710Y-111720138D01*
X156562086Y-111723005D01*
X156656438Y-111732672D01*
X156662854Y-111733000D01*
X157057885Y-111733000D01*
X157073124Y-111728525D01*
X157074329Y-111727135D01*
X157076000Y-111719452D01*
X157076000Y-111714884D01*
X157584000Y-111714884D01*
X157588475Y-111730123D01*
X157589865Y-111731328D01*
X157597548Y-111732999D01*
X157997095Y-111732999D01*
X158003614Y-111732662D01*
X158099206Y-111722743D01*
X158112600Y-111719851D01*
X158266784Y-111668412D01*
X158279962Y-111662239D01*
X158417807Y-111576937D01*
X158429208Y-111567901D01*
X158543739Y-111453171D01*
X158552751Y-111441760D01*
X158637816Y-111303757D01*
X158643963Y-111290576D01*
X158695138Y-111136290D01*
X158698005Y-111122914D01*
X158707672Y-111028562D01*
X158708000Y-111022146D01*
X158708000Y-110955276D01*
X158728002Y-110887155D01*
X158781658Y-110840662D01*
X158851932Y-110830558D01*
X158916512Y-110860052D01*
X158945251Y-110896123D01*
X158974043Y-110950272D01*
X158979798Y-110957328D01*
X159102834Y-111108186D01*
X159102837Y-111108189D01*
X159106729Y-111112961D01*
X159111476Y-111116888D01*
X159111478Y-111116890D01*
X159263737Y-111242850D01*
X159263741Y-111242852D01*
X159268487Y-111246779D01*
X159453157Y-111346630D01*
X159653705Y-111408710D01*
X159659830Y-111409354D01*
X159659831Y-111409354D01*
X159856362Y-111430010D01*
X159856363Y-111430010D01*
X159862490Y-111430654D01*
X159950001Y-111422690D01*
X160065423Y-111412186D01*
X160065426Y-111412185D01*
X160071562Y-111411627D01*
X160077468Y-111409889D01*
X160077472Y-111409888D01*
X160267048Y-111354092D01*
X160267047Y-111354092D01*
X160272957Y-111352353D01*
X160459003Y-111255091D01*
X160622614Y-111123544D01*
X160757558Y-110962724D01*
X160760522Y-110957332D01*
X160760525Y-110957328D01*
X160855729Y-110784152D01*
X160858696Y-110778755D01*
X160922174Y-110578646D01*
X160923163Y-110569836D01*
X160940107Y-110418764D01*
X160940500Y-110415264D01*
X160940500Y-110407830D01*
X161339500Y-110407830D01*
X161354806Y-110563934D01*
X161415484Y-110764910D01*
X161418377Y-110770351D01*
X161431230Y-110794523D01*
X161514043Y-110950272D01*
X161519798Y-110957328D01*
X161642834Y-111108186D01*
X161642837Y-111108189D01*
X161646729Y-111112961D01*
X161651476Y-111116888D01*
X161651478Y-111116890D01*
X161803737Y-111242850D01*
X161803741Y-111242852D01*
X161808487Y-111246779D01*
X161993157Y-111346630D01*
X162193705Y-111408710D01*
X162199830Y-111409354D01*
X162199831Y-111409354D01*
X162396362Y-111430010D01*
X162396363Y-111430010D01*
X162402490Y-111430654D01*
X162490001Y-111422690D01*
X162605423Y-111412186D01*
X162605426Y-111412185D01*
X162611562Y-111411627D01*
X162617468Y-111409889D01*
X162617472Y-111409888D01*
X162807048Y-111354092D01*
X162807047Y-111354092D01*
X162812957Y-111352353D01*
X162999003Y-111255091D01*
X163162614Y-111123544D01*
X163297558Y-110962724D01*
X163300522Y-110957332D01*
X163300525Y-110957328D01*
X163395729Y-110784152D01*
X163398696Y-110778755D01*
X163462174Y-110578646D01*
X163463163Y-110569836D01*
X163480107Y-110418764D01*
X163480500Y-110415264D01*
X163480500Y-110408423D01*
X163829500Y-110408423D01*
X163844710Y-110567845D01*
X163904899Y-110773011D01*
X163934538Y-110830558D01*
X163999829Y-110957328D01*
X164002798Y-110963093D01*
X164006502Y-110967808D01*
X164131168Y-111126517D01*
X164131172Y-111126522D01*
X164134874Y-111131234D01*
X164139404Y-111135165D01*
X164139405Y-111135166D01*
X164142210Y-111137600D01*
X164296362Y-111271366D01*
X164481436Y-111378433D01*
X164487105Y-111380402D01*
X164487108Y-111380403D01*
X164563377Y-111406888D01*
X164683416Y-111448573D01*
X164689354Y-111449434D01*
X164889075Y-111478392D01*
X164889078Y-111478392D01*
X164895015Y-111479253D01*
X165108598Y-111469368D01*
X165114422Y-111467964D01*
X165114425Y-111467964D01*
X165310633Y-111420677D01*
X165310632Y-111420677D01*
X165316459Y-111419273D01*
X165333276Y-111411627D01*
X165446303Y-111360236D01*
X165511096Y-111330776D01*
X165515979Y-111327313D01*
X165515983Y-111327310D01*
X165680602Y-111210537D01*
X165680603Y-111210536D01*
X165685488Y-111207071D01*
X165833342Y-111052621D01*
X165853020Y-111022146D01*
X165946065Y-110878043D01*
X165949322Y-110872999D01*
X166029245Y-110674687D01*
X166070225Y-110464839D01*
X166070500Y-110459216D01*
X166070500Y-109851577D01*
X166055290Y-109692155D01*
X165995101Y-109486989D01*
X165933018Y-109366448D01*
X165899948Y-109302238D01*
X165899946Y-109302235D01*
X165897202Y-109296907D01*
X165855603Y-109243949D01*
X165768832Y-109133483D01*
X165768828Y-109133478D01*
X165765126Y-109128766D01*
X165759300Y-109123710D01*
X165682718Y-109057256D01*
X165603638Y-108988634D01*
X165418564Y-108881567D01*
X165412895Y-108879598D01*
X165412892Y-108879597D01*
X165270039Y-108829990D01*
X165216584Y-108811427D01*
X165177720Y-108805792D01*
X165010925Y-108781608D01*
X165010922Y-108781608D01*
X165004985Y-108780747D01*
X164791402Y-108790632D01*
X164785578Y-108792036D01*
X164785575Y-108792036D01*
X164681191Y-108817193D01*
X164583541Y-108840727D01*
X164578086Y-108843207D01*
X164578084Y-108843208D01*
X164560309Y-108851290D01*
X164388904Y-108929224D01*
X164384021Y-108932687D01*
X164384017Y-108932690D01*
X164276763Y-109008771D01*
X164214512Y-109052929D01*
X164066658Y-109207379D01*
X164063404Y-109212418D01*
X164063402Y-109212421D01*
X164005128Y-109302672D01*
X163950678Y-109387001D01*
X163870755Y-109585313D01*
X163829775Y-109795161D01*
X163829500Y-109800784D01*
X163829500Y-110408423D01*
X163480500Y-110408423D01*
X163480500Y-109852170D01*
X163465194Y-109696066D01*
X163404516Y-109495090D01*
X163397376Y-109481662D01*
X163308853Y-109315174D01*
X163308851Y-109315172D01*
X163305957Y-109309728D01*
X163242063Y-109231386D01*
X163177166Y-109151814D01*
X163177163Y-109151811D01*
X163173271Y-109147039D01*
X163161240Y-109137086D01*
X163016263Y-109017150D01*
X163016259Y-109017148D01*
X163011513Y-109013221D01*
X162826843Y-108913370D01*
X162626295Y-108851290D01*
X162620170Y-108850646D01*
X162620169Y-108850646D01*
X162423638Y-108829990D01*
X162423637Y-108829990D01*
X162417510Y-108829346D01*
X162329999Y-108837310D01*
X162214577Y-108847814D01*
X162214574Y-108847815D01*
X162208438Y-108848373D01*
X162202532Y-108850111D01*
X162202528Y-108850112D01*
X162102348Y-108879597D01*
X162007043Y-108907647D01*
X161820997Y-109004909D01*
X161657386Y-109136456D01*
X161522442Y-109297276D01*
X161519478Y-109302668D01*
X161519475Y-109302672D01*
X161424271Y-109475848D01*
X161421304Y-109481245D01*
X161357826Y-109681354D01*
X161357140Y-109687471D01*
X161357139Y-109687475D01*
X161351005Y-109742163D01*
X161339500Y-109844736D01*
X161339500Y-110407830D01*
X160940500Y-110407830D01*
X160940500Y-109852170D01*
X160925194Y-109696066D01*
X160864516Y-109495090D01*
X160857376Y-109481662D01*
X160768853Y-109315174D01*
X160768851Y-109315172D01*
X160765957Y-109309728D01*
X160702063Y-109231386D01*
X160637166Y-109151814D01*
X160637163Y-109151811D01*
X160633271Y-109147039D01*
X160621240Y-109137086D01*
X160476263Y-109017150D01*
X160476259Y-109017148D01*
X160471513Y-109013221D01*
X160286843Y-108913370D01*
X160086295Y-108851290D01*
X160080170Y-108850646D01*
X160080169Y-108850646D01*
X159883638Y-108829990D01*
X159883637Y-108829990D01*
X159877510Y-108829346D01*
X159789999Y-108837310D01*
X159674577Y-108847814D01*
X159674574Y-108847815D01*
X159668438Y-108848373D01*
X159662532Y-108850111D01*
X159662528Y-108850112D01*
X159562348Y-108879597D01*
X159467043Y-108907647D01*
X159280997Y-109004909D01*
X159117386Y-109136456D01*
X158982442Y-109297276D01*
X158979476Y-109302672D01*
X158979470Y-109302680D01*
X158944413Y-109366448D01*
X158894068Y-109416507D01*
X158824651Y-109431400D01*
X158758202Y-109406399D01*
X158715818Y-109349442D01*
X158707999Y-109305747D01*
X158707999Y-109237905D01*
X158707662Y-109231386D01*
X158697743Y-109135794D01*
X158694851Y-109122400D01*
X158643412Y-108968216D01*
X158637239Y-108955038D01*
X158551937Y-108817193D01*
X158542901Y-108805792D01*
X158428171Y-108691261D01*
X158416760Y-108682249D01*
X158278757Y-108597184D01*
X158265576Y-108591037D01*
X158111290Y-108539862D01*
X158097914Y-108536995D01*
X158003562Y-108527328D01*
X157997145Y-108527000D01*
X157602115Y-108527000D01*
X157586876Y-108531475D01*
X157585671Y-108532865D01*
X157584000Y-108540548D01*
X157584000Y-111714884D01*
X157076000Y-111714884D01*
X157076000Y-110402115D01*
X157071525Y-110386876D01*
X157070135Y-110385671D01*
X157062452Y-110384000D01*
X155970116Y-110384000D01*
X155954877Y-110388475D01*
X155953672Y-110389865D01*
X155952001Y-110397548D01*
X155952001Y-111022095D01*
X132635084Y-111022095D01*
X132592698Y-110919767D01*
X132500451Y-110799549D01*
X132380233Y-110707302D01*
X132240236Y-110649313D01*
X132127720Y-110634500D01*
X132052280Y-110634500D01*
X131939764Y-110649313D01*
X131799767Y-110707302D01*
X131679549Y-110799549D01*
X131587302Y-110919767D01*
X131529313Y-111059764D01*
X131509534Y-111210000D01*
X131510612Y-111218188D01*
X131525435Y-111330776D01*
X131529313Y-111360236D01*
X131587302Y-111500233D01*
X131679549Y-111620451D01*
X131799767Y-111712698D01*
X131859928Y-111737617D01*
X131915207Y-111782166D01*
X131937628Y-111849529D01*
X131920069Y-111918321D01*
X131868107Y-111966699D01*
X131856245Y-111971892D01*
X131743077Y-112014655D01*
X131603349Y-112110688D01*
X131598297Y-112116358D01*
X131598296Y-112116359D01*
X131495612Y-112231608D01*
X131495610Y-112231612D01*
X131490560Y-112237279D01*
X131487008Y-112243988D01*
X131487007Y-112243989D01*
X131454746Y-112304920D01*
X131411224Y-112387119D01*
X131369919Y-112551559D01*
X131369031Y-112721105D01*
X131408612Y-112885968D01*
X131486375Y-113036631D01*
X131491367Y-113042353D01*
X131491368Y-113042355D01*
X131553808Y-113113931D01*
X131597831Y-113164396D01*
X131736547Y-113261887D01*
X131741246Y-113263719D01*
X131791054Y-113312773D01*
X131806674Y-113382030D01*
X131782371Y-113448737D01*
X131725862Y-113491716D01*
X131680930Y-113500000D01*
X129229080Y-113500000D01*
X129160959Y-113479998D01*
X129114466Y-113426342D01*
X129104362Y-113356068D01*
X129133856Y-113291488D01*
X129166885Y-113265359D01*
X129166923Y-113265345D01*
X129173184Y-113261042D01*
X129300392Y-113173614D01*
X129300393Y-113173613D01*
X129306651Y-113169312D01*
X129316132Y-113158671D01*
X129414388Y-113048392D01*
X129414390Y-113048388D01*
X129419440Y-113042721D01*
X129426238Y-113029883D01*
X129495224Y-112899589D01*
X129498776Y-112892881D01*
X129540081Y-112728441D01*
X129540969Y-112558895D01*
X129501388Y-112394032D01*
X129423625Y-112243369D01*
X129418313Y-112237279D01*
X129317163Y-112121329D01*
X129312169Y-112115604D01*
X129253649Y-112074475D01*
X129179670Y-112022482D01*
X129179668Y-112022481D01*
X129173453Y-112018113D01*
X129015487Y-111956524D01*
X129007954Y-111955532D01*
X129007953Y-111955532D01*
X128890261Y-111940038D01*
X128890260Y-111940038D01*
X128886174Y-111939500D01*
X127997484Y-111939500D01*
X127871680Y-111954724D01*
X127713077Y-112014655D01*
X127573349Y-112110688D01*
X127568297Y-112116358D01*
X127568296Y-112116359D01*
X127465612Y-112231608D01*
X127465610Y-112231612D01*
X127460560Y-112237279D01*
X127457008Y-112243988D01*
X127457007Y-112243989D01*
X127424746Y-112304920D01*
X127381224Y-112387119D01*
X127339919Y-112551559D01*
X127339031Y-112721105D01*
X127378612Y-112885968D01*
X127456375Y-113036631D01*
X127461367Y-113042353D01*
X127461368Y-113042355D01*
X127523808Y-113113931D01*
X127567831Y-113164396D01*
X127706547Y-113261887D01*
X127711246Y-113263719D01*
X127761054Y-113312773D01*
X127776674Y-113382030D01*
X127752371Y-113448737D01*
X127695862Y-113491716D01*
X127650930Y-113500000D01*
X126851035Y-113500000D01*
X126782914Y-113479998D01*
X126736421Y-113426342D01*
X126725035Y-113373992D01*
X126725037Y-113356068D01*
X126725269Y-109883823D01*
X134584391Y-109883823D01*
X134585555Y-109892725D01*
X134585555Y-109892728D01*
X134586814Y-109902354D01*
X134602980Y-110025979D01*
X134660720Y-110157203D01*
X134666497Y-110164076D01*
X134666498Y-110164077D01*
X134673792Y-110172754D01*
X134752970Y-110266948D01*
X134872313Y-110346390D01*
X135009157Y-110389142D01*
X135018129Y-110389306D01*
X135018132Y-110389307D01*
X135083463Y-110390504D01*
X135152499Y-110391770D01*
X135161533Y-110389307D01*
X135282158Y-110356421D01*
X135282160Y-110356420D01*
X135290817Y-110354060D01*
X135412991Y-110279045D01*
X135509200Y-110172754D01*
X135571710Y-110043733D01*
X135595496Y-109902354D01*
X135595647Y-109890000D01*
X135591048Y-109857885D01*
X155952000Y-109857885D01*
X155956475Y-109873124D01*
X155957865Y-109874329D01*
X155965548Y-109876000D01*
X157057885Y-109876000D01*
X157073124Y-109871525D01*
X157074329Y-109870135D01*
X157076000Y-109862452D01*
X157076000Y-108545116D01*
X157071525Y-108529877D01*
X157070135Y-108528672D01*
X157062452Y-108527001D01*
X156662905Y-108527001D01*
X156656386Y-108527338D01*
X156560794Y-108537257D01*
X156547400Y-108540149D01*
X156393216Y-108591588D01*
X156380038Y-108597761D01*
X156242193Y-108683063D01*
X156230792Y-108692099D01*
X156116261Y-108806829D01*
X156107249Y-108818240D01*
X156022184Y-108956243D01*
X156016037Y-108969424D01*
X155964862Y-109123710D01*
X155961995Y-109137086D01*
X155952328Y-109231438D01*
X155952000Y-109237855D01*
X155952000Y-109857885D01*
X135591048Y-109857885D01*
X135583093Y-109802336D01*
X135576596Y-109756968D01*
X135576595Y-109756965D01*
X135575323Y-109748082D01*
X135515984Y-109617572D01*
X135483394Y-109579750D01*
X135428260Y-109515763D01*
X135428257Y-109515760D01*
X135422400Y-109508963D01*
X135302095Y-109430985D01*
X135164739Y-109389907D01*
X135155763Y-109389852D01*
X135155762Y-109389852D01*
X135095555Y-109389484D01*
X135021376Y-109389031D01*
X134883529Y-109428428D01*
X134762280Y-109504930D01*
X134667377Y-109612388D01*
X134606447Y-109742163D01*
X134605066Y-109751035D01*
X134586057Y-109873124D01*
X134584391Y-109883823D01*
X126725269Y-109883823D01*
X126725462Y-106992611D01*
X150484394Y-106992611D01*
X150502999Y-107161135D01*
X150561266Y-107320356D01*
X150565502Y-107326659D01*
X150565502Y-107326660D01*
X150578574Y-107346113D01*
X150655830Y-107461083D01*
X150661442Y-107466190D01*
X150661445Y-107466193D01*
X150775612Y-107570077D01*
X150775616Y-107570080D01*
X150781233Y-107575191D01*
X150787906Y-107578814D01*
X150787910Y-107578817D01*
X150923558Y-107652467D01*
X150923560Y-107652468D01*
X150930235Y-107656092D01*
X150937584Y-107658020D01*
X151086883Y-107697188D01*
X151086885Y-107697188D01*
X151094233Y-107699116D01*
X151180609Y-107700473D01*
X151256161Y-107701660D01*
X151256164Y-107701660D01*
X151263760Y-107701779D01*
X151271165Y-107700083D01*
X151271166Y-107700083D01*
X151331586Y-107686245D01*
X151429029Y-107663928D01*
X151580498Y-107587747D01*
X151709423Y-107477634D01*
X151808361Y-107339947D01*
X151816237Y-107320356D01*
X151868766Y-107189687D01*
X151868767Y-107189685D01*
X151871601Y-107182634D01*
X151895490Y-107014778D01*
X151895645Y-107000000D01*
X151893840Y-106985080D01*
X151876188Y-106839220D01*
X151875276Y-106831680D01*
X151815345Y-106673077D01*
X151719312Y-106533349D01*
X151707514Y-106522837D01*
X151598392Y-106425612D01*
X151598388Y-106425610D01*
X151592721Y-106420560D01*
X151442881Y-106341224D01*
X151278441Y-106299919D01*
X151270843Y-106299879D01*
X151270841Y-106299879D01*
X151193668Y-106299475D01*
X151108895Y-106299031D01*
X151101508Y-106300805D01*
X151101504Y-106300805D01*
X150958162Y-106335220D01*
X150944032Y-106338612D01*
X150937288Y-106342093D01*
X150937285Y-106342094D01*
X150932089Y-106344776D01*
X150793369Y-106416375D01*
X150665604Y-106527831D01*
X150568113Y-106666547D01*
X150506524Y-106824513D01*
X150484394Y-106992611D01*
X126725462Y-106992611D01*
X126725593Y-105026099D01*
X126725656Y-104081105D01*
X127339031Y-104081105D01*
X127340805Y-104088492D01*
X127340805Y-104088496D01*
X127375220Y-104231838D01*
X127378612Y-104245968D01*
X127382093Y-104252712D01*
X127382094Y-104252715D01*
X127407921Y-104302754D01*
X127456375Y-104396631D01*
X127461367Y-104402353D01*
X127461368Y-104402355D01*
X127515671Y-104464604D01*
X127567831Y-104524396D01*
X127574045Y-104528763D01*
X127700330Y-104617518D01*
X127700332Y-104617519D01*
X127706547Y-104621887D01*
X127864513Y-104683476D01*
X127872046Y-104684468D01*
X127872047Y-104684468D01*
X127989739Y-104699962D01*
X127993826Y-104700500D01*
X128882516Y-104700500D01*
X129008320Y-104685276D01*
X129166923Y-104625345D01*
X129306651Y-104529312D01*
X129316132Y-104518671D01*
X129414388Y-104408392D01*
X129414390Y-104408388D01*
X129419440Y-104402721D01*
X129426138Y-104390072D01*
X129476964Y-104294077D01*
X129498776Y-104252881D01*
X129540081Y-104088441D01*
X129540417Y-104024391D01*
X129540472Y-104013823D01*
X129904391Y-104013823D01*
X129905555Y-104022725D01*
X129905555Y-104022728D01*
X129906814Y-104032354D01*
X129922980Y-104155979D01*
X129926597Y-104164199D01*
X129968570Y-104259589D01*
X129980720Y-104287203D01*
X129986497Y-104294076D01*
X129986498Y-104294077D01*
X129993792Y-104302754D01*
X130072970Y-104396948D01*
X130192313Y-104476390D01*
X130329157Y-104519142D01*
X130338129Y-104519306D01*
X130338132Y-104519307D01*
X130403463Y-104520504D01*
X130472499Y-104521770D01*
X130481533Y-104519307D01*
X130602158Y-104486421D01*
X130602160Y-104486420D01*
X130610817Y-104484060D01*
X130732991Y-104409045D01*
X130739047Y-104402355D01*
X130823178Y-104309407D01*
X130829200Y-104302754D01*
X130891710Y-104173733D01*
X130907294Y-104081105D01*
X131369031Y-104081105D01*
X131370805Y-104088492D01*
X131370805Y-104088496D01*
X131405220Y-104231838D01*
X131408612Y-104245968D01*
X131412093Y-104252712D01*
X131412094Y-104252715D01*
X131437921Y-104302754D01*
X131486375Y-104396631D01*
X131491367Y-104402353D01*
X131491368Y-104402355D01*
X131545671Y-104464604D01*
X131597831Y-104524396D01*
X131604045Y-104528763D01*
X131730330Y-104617518D01*
X131730332Y-104617519D01*
X131736547Y-104621887D01*
X131743623Y-104624646D01*
X131743627Y-104624648D01*
X131856912Y-104668816D01*
X131913114Y-104712197D01*
X131936940Y-104779076D01*
X131920826Y-104848220D01*
X131869889Y-104897676D01*
X131859367Y-104902615D01*
X131799767Y-104927302D01*
X131679549Y-105019549D01*
X131587302Y-105139767D01*
X131529313Y-105279764D01*
X131509534Y-105430000D01*
X131529313Y-105580236D01*
X131587302Y-105720233D01*
X131679549Y-105840451D01*
X131799767Y-105932698D01*
X131939764Y-105990687D01*
X132052280Y-106005500D01*
X132127720Y-106005500D01*
X132240236Y-105990687D01*
X132380233Y-105932698D01*
X132500451Y-105840451D01*
X132592698Y-105720233D01*
X132650687Y-105580236D01*
X132670466Y-105430000D01*
X132658617Y-105340000D01*
X145244318Y-105340000D01*
X145264956Y-105496762D01*
X145325464Y-105642841D01*
X145421718Y-105768282D01*
X145547159Y-105864536D01*
X145693238Y-105925044D01*
X145850000Y-105945682D01*
X145858188Y-105944604D01*
X145998574Y-105926122D01*
X146006762Y-105925044D01*
X146152841Y-105864536D01*
X146278282Y-105768282D01*
X146374536Y-105642841D01*
X146435044Y-105496762D01*
X146455682Y-105340000D01*
X146435044Y-105183238D01*
X146374536Y-105037159D01*
X146278282Y-104911718D01*
X146152841Y-104815464D01*
X146006762Y-104754956D01*
X145958590Y-104748614D01*
X145858188Y-104735396D01*
X145850000Y-104734318D01*
X145841812Y-104735396D01*
X145741411Y-104748614D01*
X145693238Y-104754956D01*
X145547159Y-104815464D01*
X145421718Y-104911718D01*
X145325464Y-105037159D01*
X145264956Y-105183238D01*
X145244318Y-105340000D01*
X132658617Y-105340000D01*
X132650687Y-105279764D01*
X132592698Y-105139767D01*
X132500451Y-105019549D01*
X132380233Y-104927302D01*
X132382159Y-104924792D01*
X132343490Y-104884239D01*
X132330052Y-104814526D01*
X132356438Y-104748614D01*
X132414269Y-104707431D01*
X132455482Y-104700500D01*
X133212516Y-104700500D01*
X133338320Y-104685276D01*
X133496923Y-104625345D01*
X133636651Y-104529312D01*
X133646132Y-104518671D01*
X133744388Y-104408392D01*
X133744390Y-104408388D01*
X133749440Y-104402721D01*
X133756138Y-104390072D01*
X133806964Y-104294077D01*
X133828776Y-104252881D01*
X133870081Y-104088441D01*
X133870417Y-104024391D01*
X133870929Y-103926495D01*
X133870969Y-103918895D01*
X133865880Y-103897696D01*
X133833161Y-103761417D01*
X133831388Y-103754032D01*
X133824543Y-103740769D01*
X133757108Y-103610117D01*
X133757108Y-103610116D01*
X133753625Y-103603369D01*
X133748313Y-103597279D01*
X133647163Y-103481329D01*
X133642169Y-103475604D01*
X133572578Y-103426695D01*
X133509670Y-103382482D01*
X133509668Y-103382481D01*
X133503453Y-103378113D01*
X133482644Y-103370000D01*
X135834318Y-103370000D01*
X135854956Y-103526762D01*
X135915464Y-103672841D01*
X136011718Y-103798282D01*
X136137159Y-103894536D01*
X136283238Y-103955044D01*
X136440000Y-103975682D01*
X136448188Y-103974604D01*
X136588574Y-103956122D01*
X136596762Y-103955044D01*
X136742841Y-103894536D01*
X136787849Y-103860000D01*
X151514318Y-103860000D01*
X151534956Y-104016762D01*
X151595464Y-104162841D01*
X151691718Y-104288282D01*
X151817159Y-104384536D01*
X151963238Y-104445044D01*
X152120000Y-104465682D01*
X152128188Y-104464604D01*
X152268574Y-104446122D01*
X152276762Y-104445044D01*
X152422841Y-104384536D01*
X152548282Y-104288282D01*
X152644536Y-104162841D01*
X152705044Y-104016762D01*
X152725682Y-103860000D01*
X152705044Y-103703238D01*
X152644536Y-103557159D01*
X152548282Y-103431718D01*
X152422841Y-103335464D01*
X152276762Y-103274956D01*
X152120000Y-103254318D01*
X151963238Y-103274956D01*
X151817159Y-103335464D01*
X151691718Y-103431718D01*
X151595464Y-103557159D01*
X151534956Y-103703238D01*
X151514318Y-103860000D01*
X136787849Y-103860000D01*
X136868282Y-103798282D01*
X136964536Y-103672841D01*
X137025044Y-103526762D01*
X137045682Y-103370000D01*
X137025044Y-103213238D01*
X136964536Y-103067159D01*
X136868282Y-102941718D01*
X136742841Y-102845464D01*
X136596762Y-102784956D01*
X136440000Y-102764318D01*
X136283238Y-102784956D01*
X136137159Y-102845464D01*
X136011718Y-102941718D01*
X135915464Y-103067159D01*
X135854956Y-103213238D01*
X135834318Y-103370000D01*
X133482644Y-103370000D01*
X133345487Y-103316524D01*
X133337954Y-103315532D01*
X133337953Y-103315532D01*
X133220261Y-103300038D01*
X133220260Y-103300038D01*
X133216174Y-103299500D01*
X132027484Y-103299500D01*
X131901680Y-103314724D01*
X131743077Y-103374655D01*
X131603349Y-103470688D01*
X131598297Y-103476358D01*
X131598296Y-103476359D01*
X131495612Y-103591608D01*
X131495610Y-103591612D01*
X131490560Y-103597279D01*
X131487008Y-103603988D01*
X131487007Y-103603989D01*
X131467062Y-103641659D01*
X131411224Y-103747119D01*
X131369919Y-103911559D01*
X131369879Y-103919157D01*
X131369879Y-103919159D01*
X131369589Y-103974604D01*
X131369031Y-104081105D01*
X130907294Y-104081105D01*
X130915496Y-104032354D01*
X130915647Y-104020000D01*
X130901168Y-103918895D01*
X130896596Y-103886968D01*
X130896595Y-103886965D01*
X130895323Y-103878082D01*
X130890825Y-103868188D01*
X130856064Y-103791736D01*
X130835984Y-103747572D01*
X130817598Y-103726234D01*
X130748260Y-103645763D01*
X130748257Y-103645760D01*
X130742400Y-103638963D01*
X130622095Y-103560985D01*
X130484739Y-103519907D01*
X130475763Y-103519852D01*
X130475762Y-103519852D01*
X130415555Y-103519484D01*
X130341376Y-103519031D01*
X130203529Y-103558428D01*
X130082280Y-103634930D01*
X129987377Y-103742388D01*
X129926447Y-103872163D01*
X129904391Y-104013823D01*
X129540472Y-104013823D01*
X129540929Y-103926495D01*
X129540969Y-103918895D01*
X129535880Y-103897696D01*
X129503161Y-103761417D01*
X129501388Y-103754032D01*
X129494543Y-103740769D01*
X129427108Y-103610117D01*
X129427108Y-103610116D01*
X129423625Y-103603369D01*
X129418313Y-103597279D01*
X129317163Y-103481329D01*
X129312169Y-103475604D01*
X129242578Y-103426695D01*
X129179670Y-103382482D01*
X129179668Y-103382481D01*
X129173453Y-103378113D01*
X129015487Y-103316524D01*
X129007954Y-103315532D01*
X129007953Y-103315532D01*
X128890261Y-103300038D01*
X128890260Y-103300038D01*
X128886174Y-103299500D01*
X127997484Y-103299500D01*
X127871680Y-103314724D01*
X127713077Y-103374655D01*
X127573349Y-103470688D01*
X127568297Y-103476358D01*
X127568296Y-103476359D01*
X127465612Y-103591608D01*
X127465610Y-103591612D01*
X127460560Y-103597279D01*
X127457008Y-103603988D01*
X127457007Y-103603989D01*
X127437062Y-103641659D01*
X127381224Y-103747119D01*
X127339919Y-103911559D01*
X127339879Y-103919157D01*
X127339879Y-103919159D01*
X127339589Y-103974604D01*
X127339031Y-104081105D01*
X126725656Y-104081105D01*
X126725976Y-99298089D01*
X126745983Y-99229969D01*
X126799641Y-99183480D01*
X126869916Y-99173381D01*
X126934495Y-99202878D01*
X126972874Y-99262607D01*
X126975742Y-99274479D01*
X127020319Y-99508160D01*
X127021546Y-99511936D01*
X127086346Y-99711368D01*
X127113659Y-99795430D01*
X127115346Y-99799016D01*
X127115348Y-99799020D01*
X127240579Y-100065150D01*
X127240583Y-100065157D01*
X127242267Y-100068736D01*
X127404115Y-100323768D01*
X127596651Y-100556504D01*
X127816838Y-100763274D01*
X127820040Y-100765601D01*
X127820042Y-100765602D01*
X128036464Y-100922841D01*
X128061205Y-100940816D01*
X128064674Y-100942723D01*
X128064677Y-100942725D01*
X128265820Y-101053305D01*
X128325896Y-101086332D01*
X128329565Y-101087785D01*
X128329570Y-101087787D01*
X128480884Y-101147696D01*
X128606738Y-101197525D01*
X128899302Y-101272642D01*
X129198973Y-101310500D01*
X129501027Y-101310500D01*
X129800698Y-101272642D01*
X130093262Y-101197525D01*
X130219116Y-101147696D01*
X130370430Y-101087787D01*
X130370435Y-101087785D01*
X130374104Y-101086332D01*
X130434180Y-101053305D01*
X130635323Y-100942725D01*
X130635326Y-100942723D01*
X130638795Y-100940816D01*
X130663536Y-100922841D01*
X130879958Y-100765602D01*
X130879960Y-100765601D01*
X130883162Y-100763274D01*
X131035733Y-100620000D01*
X144594318Y-100620000D01*
X144614956Y-100776762D01*
X144675464Y-100922841D01*
X144771718Y-101048282D01*
X144897159Y-101144536D01*
X145043238Y-101205044D01*
X145200000Y-101225682D01*
X145208188Y-101224604D01*
X145348574Y-101206122D01*
X145356762Y-101205044D01*
X145502841Y-101144536D01*
X145628282Y-101048282D01*
X145724536Y-100922841D01*
X145785044Y-100776762D01*
X145805682Y-100620000D01*
X145785044Y-100463238D01*
X145724536Y-100317159D01*
X145698026Y-100282611D01*
X158844394Y-100282611D01*
X158862999Y-100451135D01*
X158921266Y-100610356D01*
X158925502Y-100616659D01*
X158925502Y-100616660D01*
X158938574Y-100636113D01*
X159015830Y-100751083D01*
X159021442Y-100756190D01*
X159021445Y-100756193D01*
X159135612Y-100860077D01*
X159135616Y-100860080D01*
X159141233Y-100865191D01*
X159147906Y-100868814D01*
X159147910Y-100868817D01*
X159283558Y-100942467D01*
X159283560Y-100942468D01*
X159290235Y-100946092D01*
X159297584Y-100948020D01*
X159446883Y-100987188D01*
X159446885Y-100987188D01*
X159454233Y-100989116D01*
X159540609Y-100990473D01*
X159616161Y-100991660D01*
X159616164Y-100991660D01*
X159623760Y-100991779D01*
X159631165Y-100990083D01*
X159631166Y-100990083D01*
X159691586Y-100976245D01*
X159789029Y-100953928D01*
X159940498Y-100877747D01*
X160069423Y-100767634D01*
X160168361Y-100629947D01*
X160176237Y-100610356D01*
X160228766Y-100479687D01*
X160228767Y-100479685D01*
X160231601Y-100472634D01*
X160238877Y-100421511D01*
X160254909Y-100308862D01*
X160254909Y-100308859D01*
X160255490Y-100304778D01*
X160255645Y-100290000D01*
X160253840Y-100275080D01*
X160244544Y-100198264D01*
X160235276Y-100121680D01*
X160175345Y-99963077D01*
X160079312Y-99823349D01*
X160043742Y-99791657D01*
X159958392Y-99715612D01*
X159958388Y-99715610D01*
X159952721Y-99710560D01*
X159802881Y-99631224D01*
X159638441Y-99589919D01*
X159630843Y-99589879D01*
X159630841Y-99589879D01*
X159553668Y-99589475D01*
X159468895Y-99589031D01*
X159461508Y-99590805D01*
X159461504Y-99590805D01*
X159318162Y-99625220D01*
X159304032Y-99628612D01*
X159297288Y-99632093D01*
X159297285Y-99632094D01*
X159292089Y-99634776D01*
X159153369Y-99706375D01*
X159025604Y-99817831D01*
X158928113Y-99956547D01*
X158866524Y-100114513D01*
X158844394Y-100282611D01*
X145698026Y-100282611D01*
X145628282Y-100191718D01*
X145502841Y-100095464D01*
X145356762Y-100034956D01*
X145200000Y-100014318D01*
X145043238Y-100034956D01*
X144897159Y-100095464D01*
X144771718Y-100191718D01*
X144675464Y-100317159D01*
X144614956Y-100463238D01*
X144594318Y-100620000D01*
X131035733Y-100620000D01*
X131103349Y-100556504D01*
X131295885Y-100323768D01*
X131457733Y-100068736D01*
X131459417Y-100065157D01*
X131459421Y-100065150D01*
X131584652Y-99799020D01*
X131584654Y-99799016D01*
X131586341Y-99795430D01*
X131613655Y-99711368D01*
X131678454Y-99511936D01*
X131679681Y-99508160D01*
X131736280Y-99211457D01*
X131755246Y-98910000D01*
X131736612Y-98613823D01*
X136864391Y-98613823D01*
X136865555Y-98622725D01*
X136865555Y-98622728D01*
X136866814Y-98632354D01*
X136882980Y-98755979D01*
X136940720Y-98887203D01*
X136946497Y-98894076D01*
X136946498Y-98894077D01*
X136953792Y-98902754D01*
X137032970Y-98996948D01*
X137152313Y-99076390D01*
X137289157Y-99119142D01*
X137298129Y-99119306D01*
X137298132Y-99119307D01*
X137363463Y-99120504D01*
X137432499Y-99121770D01*
X137441533Y-99119307D01*
X137562158Y-99086421D01*
X137562160Y-99086420D01*
X137570817Y-99084060D01*
X137692991Y-99009045D01*
X137789200Y-98902754D01*
X137851710Y-98773733D01*
X137875496Y-98632354D01*
X137875647Y-98620000D01*
X137863309Y-98533847D01*
X137856596Y-98486968D01*
X137856595Y-98486965D01*
X137855323Y-98478082D01*
X137795984Y-98347572D01*
X137761942Y-98308064D01*
X137708260Y-98245763D01*
X137708257Y-98245760D01*
X137702400Y-98238963D01*
X137582095Y-98160985D01*
X137444739Y-98119907D01*
X137435763Y-98119852D01*
X137435762Y-98119852D01*
X137375555Y-98119484D01*
X137301376Y-98119031D01*
X137163529Y-98158428D01*
X137042280Y-98234930D01*
X136947377Y-98342388D01*
X136886447Y-98472163D01*
X136885066Y-98481035D01*
X136866589Y-98599708D01*
X136864391Y-98613823D01*
X131736612Y-98613823D01*
X131736280Y-98608543D01*
X131679681Y-98311840D01*
X131586341Y-98024570D01*
X131584652Y-98020980D01*
X131459421Y-97754850D01*
X131459417Y-97754843D01*
X131457733Y-97751264D01*
X131295885Y-97496232D01*
X131103349Y-97263496D01*
X130883162Y-97056726D01*
X130638795Y-96879184D01*
X130374104Y-96733668D01*
X130370435Y-96732215D01*
X130370430Y-96732213D01*
X130096932Y-96623928D01*
X130096931Y-96623928D01*
X130093262Y-96622475D01*
X129800698Y-96547358D01*
X129501027Y-96509500D01*
X129198973Y-96509500D01*
X128899302Y-96547358D01*
X128895473Y-96548341D01*
X128895463Y-96548343D01*
X128831959Y-96564648D01*
X128761004Y-96562214D01*
X128702629Y-96521806D01*
X128675366Y-96456253D01*
X128687873Y-96386366D01*
X128711530Y-96353511D01*
X128711736Y-96353305D01*
X128718282Y-96348282D01*
X128738091Y-96322467D01*
X128746059Y-96312082D01*
X128814536Y-96222841D01*
X128875044Y-96076762D01*
X128895682Y-95920000D01*
X128875044Y-95763238D01*
X128833363Y-95662611D01*
X165424394Y-95662611D01*
X165442999Y-95831135D01*
X165501266Y-95990356D01*
X165505502Y-95996659D01*
X165505502Y-95996660D01*
X165518574Y-96016113D01*
X165595830Y-96131083D01*
X165601442Y-96136190D01*
X165601445Y-96136193D01*
X165715612Y-96240077D01*
X165715616Y-96240080D01*
X165721233Y-96245191D01*
X165727906Y-96248814D01*
X165727910Y-96248817D01*
X165863558Y-96322467D01*
X165863560Y-96322468D01*
X165870235Y-96326092D01*
X165877584Y-96328020D01*
X166026883Y-96367188D01*
X166026885Y-96367188D01*
X166034233Y-96369116D01*
X166120609Y-96370473D01*
X166196161Y-96371660D01*
X166196164Y-96371660D01*
X166203760Y-96371779D01*
X166211165Y-96370083D01*
X166211166Y-96370083D01*
X166306355Y-96348282D01*
X166369029Y-96333928D01*
X166520498Y-96257747D01*
X166649423Y-96147634D01*
X166748361Y-96009947D01*
X166756237Y-95990356D01*
X166808766Y-95859687D01*
X166808767Y-95859685D01*
X166811601Y-95852634D01*
X166824324Y-95763238D01*
X166834909Y-95688862D01*
X166834909Y-95688859D01*
X166835490Y-95684778D01*
X166835645Y-95670000D01*
X166833840Y-95655080D01*
X166830174Y-95624789D01*
X166815276Y-95501680D01*
X166755345Y-95343077D01*
X166659312Y-95203349D01*
X166647514Y-95192837D01*
X166538392Y-95095612D01*
X166538388Y-95095610D01*
X166532721Y-95090560D01*
X166382881Y-95011224D01*
X166218441Y-94969919D01*
X166210843Y-94969879D01*
X166210841Y-94969879D01*
X166133668Y-94969475D01*
X166048895Y-94969031D01*
X166041508Y-94970805D01*
X166041504Y-94970805D01*
X165898162Y-95005220D01*
X165884032Y-95008612D01*
X165877288Y-95012093D01*
X165877285Y-95012094D01*
X165872089Y-95014776D01*
X165733369Y-95086375D01*
X165605604Y-95197831D01*
X165601237Y-95204045D01*
X165523736Y-95314318D01*
X165508113Y-95336547D01*
X165446524Y-95494513D01*
X165445532Y-95502046D01*
X165445532Y-95502047D01*
X165430378Y-95617159D01*
X165424394Y-95662611D01*
X128833363Y-95662611D01*
X128814536Y-95617159D01*
X128718282Y-95491718D01*
X128592841Y-95395464D01*
X128446762Y-95334956D01*
X128290000Y-95314318D01*
X128133238Y-95334956D01*
X127987159Y-95395464D01*
X127861718Y-95491718D01*
X127765464Y-95617159D01*
X127704956Y-95763238D01*
X127684318Y-95920000D01*
X127704956Y-96076762D01*
X127765464Y-96222841D01*
X127833941Y-96312082D01*
X127841910Y-96322467D01*
X127861718Y-96348282D01*
X127868264Y-96353305D01*
X127886357Y-96367188D01*
X127987159Y-96444536D01*
X128133238Y-96505044D01*
X128141426Y-96506122D01*
X128243119Y-96519510D01*
X128308046Y-96548232D01*
X128347138Y-96607497D01*
X128347983Y-96678489D01*
X128310313Y-96738668D01*
X128287382Y-96754841D01*
X128061205Y-96879184D01*
X127816838Y-97056726D01*
X127596651Y-97263496D01*
X127404115Y-97496232D01*
X127242267Y-97751264D01*
X127240583Y-97754843D01*
X127240579Y-97754850D01*
X127115348Y-98020980D01*
X127113659Y-98024570D01*
X127020319Y-98311840D01*
X126975795Y-98545243D01*
X126943384Y-98608407D01*
X126881967Y-98644022D01*
X126811045Y-98640779D01*
X126753134Y-98599708D01*
X126726622Y-98533847D01*
X126726028Y-98521623D01*
X126726342Y-93812611D01*
X137784394Y-93812611D01*
X137802999Y-93981135D01*
X137861266Y-94140356D01*
X137865502Y-94146659D01*
X137865502Y-94146660D01*
X137878574Y-94166113D01*
X137955830Y-94281083D01*
X137961442Y-94286190D01*
X137961445Y-94286193D01*
X138075612Y-94390077D01*
X138075616Y-94390080D01*
X138081233Y-94395191D01*
X138087906Y-94398814D01*
X138087910Y-94398817D01*
X138223558Y-94472467D01*
X138223560Y-94472468D01*
X138230235Y-94476092D01*
X138237584Y-94478020D01*
X138386883Y-94517188D01*
X138386885Y-94517188D01*
X138394233Y-94519116D01*
X138480609Y-94520473D01*
X138556161Y-94521660D01*
X138556164Y-94521660D01*
X138563760Y-94521779D01*
X138571165Y-94520083D01*
X138571166Y-94520083D01*
X138651274Y-94501736D01*
X138729029Y-94483928D01*
X138880498Y-94407747D01*
X139009423Y-94297634D01*
X139108361Y-94159947D01*
X139116237Y-94140356D01*
X139140500Y-94080000D01*
X153174318Y-94080000D01*
X153194956Y-94236762D01*
X153255464Y-94382841D01*
X153351718Y-94508282D01*
X153358264Y-94513305D01*
X153365837Y-94519116D01*
X153477159Y-94604536D01*
X153623238Y-94665044D01*
X153780000Y-94685682D01*
X153788188Y-94684604D01*
X153928574Y-94666122D01*
X153936762Y-94665044D01*
X154082841Y-94604536D01*
X154194163Y-94519116D01*
X154201736Y-94513305D01*
X154208282Y-94508282D01*
X154304536Y-94382841D01*
X154365044Y-94236762D01*
X154385682Y-94080000D01*
X154365044Y-93923238D01*
X154304536Y-93777159D01*
X154236059Y-93687918D01*
X154213305Y-93658264D01*
X154208282Y-93651718D01*
X154127849Y-93590000D01*
X162350000Y-93590000D01*
X166160000Y-93590000D01*
X166160000Y-89450000D01*
X164173204Y-89465644D01*
X162368118Y-89479857D01*
X162368117Y-89479857D01*
X162350000Y-89480000D01*
X162350000Y-93590000D01*
X154127849Y-93590000D01*
X154082841Y-93555464D01*
X153936762Y-93494956D01*
X153780000Y-93474318D01*
X153623238Y-93494956D01*
X153477159Y-93555464D01*
X153351718Y-93651718D01*
X153346695Y-93658264D01*
X153323941Y-93687918D01*
X153255464Y-93777159D01*
X153194956Y-93923238D01*
X153174318Y-94080000D01*
X139140500Y-94080000D01*
X139168766Y-94009687D01*
X139168767Y-94009685D01*
X139171601Y-94002634D01*
X139195490Y-93834778D01*
X139195645Y-93820000D01*
X139193840Y-93805080D01*
X139176188Y-93659220D01*
X139175276Y-93651680D01*
X139115345Y-93493077D01*
X139019312Y-93353349D01*
X138993106Y-93330000D01*
X138898392Y-93245612D01*
X138898388Y-93245610D01*
X138892721Y-93240560D01*
X138872934Y-93230083D01*
X138825080Y-93204746D01*
X138742881Y-93161224D01*
X138578441Y-93119919D01*
X138570843Y-93119879D01*
X138570841Y-93119879D01*
X138493668Y-93119475D01*
X138408895Y-93119031D01*
X138401508Y-93120805D01*
X138401504Y-93120805D01*
X138260726Y-93154604D01*
X138244032Y-93158612D01*
X138237288Y-93162093D01*
X138237285Y-93162094D01*
X138100117Y-93232892D01*
X138093369Y-93236375D01*
X137965604Y-93347831D01*
X137957327Y-93359608D01*
X137876708Y-93474318D01*
X137868113Y-93486547D01*
X137806524Y-93644513D01*
X137805532Y-93652046D01*
X137805532Y-93652047D01*
X137788057Y-93784789D01*
X137784394Y-93812611D01*
X126726342Y-93812611D01*
X126726428Y-92522611D01*
X151984394Y-92522611D01*
X152002999Y-92691135D01*
X152061266Y-92850356D01*
X152065502Y-92856659D01*
X152065502Y-92856660D01*
X152078574Y-92876113D01*
X152155830Y-92991083D01*
X152161442Y-92996190D01*
X152161445Y-92996193D01*
X152275612Y-93100077D01*
X152275616Y-93100080D01*
X152281233Y-93105191D01*
X152287906Y-93108814D01*
X152287910Y-93108817D01*
X152423558Y-93182467D01*
X152423560Y-93182468D01*
X152430235Y-93186092D01*
X152437584Y-93188020D01*
X152586883Y-93227188D01*
X152586885Y-93227188D01*
X152594233Y-93229116D01*
X152680609Y-93230473D01*
X152756161Y-93231660D01*
X152756164Y-93231660D01*
X152763760Y-93231779D01*
X152771165Y-93230083D01*
X152771166Y-93230083D01*
X152831586Y-93216245D01*
X152929029Y-93193928D01*
X153080498Y-93117747D01*
X153209423Y-93007634D01*
X153308361Y-92869947D01*
X153318305Y-92845211D01*
X153368766Y-92719687D01*
X153368767Y-92719685D01*
X153371601Y-92712634D01*
X153394747Y-92550000D01*
X160094318Y-92550000D01*
X160114956Y-92706762D01*
X160175464Y-92852841D01*
X160271718Y-92978282D01*
X160397159Y-93074536D01*
X160543238Y-93135044D01*
X160700000Y-93155682D01*
X160708188Y-93154604D01*
X160848574Y-93136122D01*
X160856762Y-93135044D01*
X161002841Y-93074536D01*
X161128282Y-92978282D01*
X161224536Y-92852841D01*
X161285044Y-92706762D01*
X161305682Y-92550000D01*
X161285044Y-92393238D01*
X161224536Y-92247159D01*
X161128282Y-92121718D01*
X161002841Y-92025464D01*
X160856762Y-91964956D01*
X160700000Y-91944318D01*
X160543238Y-91964956D01*
X160397159Y-92025464D01*
X160271718Y-92121718D01*
X160175464Y-92247159D01*
X160114956Y-92393238D01*
X160094318Y-92550000D01*
X153394747Y-92550000D01*
X153395490Y-92544778D01*
X153395645Y-92530000D01*
X153393840Y-92515080D01*
X153387653Y-92463961D01*
X153375276Y-92361680D01*
X153315345Y-92203077D01*
X153259428Y-92121718D01*
X153223614Y-92069608D01*
X153223613Y-92069607D01*
X153219312Y-92063349D01*
X153211434Y-92056330D01*
X153098392Y-91955612D01*
X153098388Y-91955610D01*
X153092721Y-91950560D01*
X152942881Y-91871224D01*
X152778441Y-91829919D01*
X152770843Y-91829879D01*
X152770841Y-91829879D01*
X152693668Y-91829475D01*
X152608895Y-91829031D01*
X152601508Y-91830805D01*
X152601504Y-91830805D01*
X152458162Y-91865220D01*
X152444032Y-91868612D01*
X152437288Y-91872093D01*
X152437285Y-91872094D01*
X152364993Y-91909407D01*
X152293369Y-91946375D01*
X152287647Y-91951367D01*
X152287645Y-91951368D01*
X152229156Y-92002391D01*
X152165604Y-92057831D01*
X152147170Y-92084060D01*
X152091330Y-92163513D01*
X152068113Y-92196547D01*
X152006524Y-92354513D01*
X152005532Y-92362046D01*
X152005532Y-92362047D01*
X151999997Y-92404094D01*
X151984394Y-92522611D01*
X126726428Y-92522611D01*
X126726499Y-91460000D01*
X129114318Y-91460000D01*
X129134956Y-91616762D01*
X129195464Y-91762841D01*
X129248355Y-91831770D01*
X129281355Y-91874776D01*
X129291718Y-91888282D01*
X129417159Y-91984536D01*
X129563238Y-92045044D01*
X129571426Y-92046122D01*
X129622432Y-92052837D01*
X129720000Y-92065682D01*
X129728188Y-92064604D01*
X129776103Y-92058296D01*
X129817568Y-92052837D01*
X129868574Y-92046122D01*
X129876762Y-92045044D01*
X130022841Y-91984536D01*
X130148282Y-91888282D01*
X130158646Y-91874776D01*
X130191645Y-91831770D01*
X130244536Y-91762841D01*
X130305044Y-91616762D01*
X130305431Y-91613823D01*
X157254391Y-91613823D01*
X157255555Y-91622725D01*
X157255555Y-91622728D01*
X157256814Y-91632354D01*
X157272980Y-91755979D01*
X157330720Y-91887203D01*
X157336497Y-91894076D01*
X157336498Y-91894077D01*
X157395172Y-91963878D01*
X157422970Y-91996948D01*
X157465809Y-92025464D01*
X157532125Y-92069608D01*
X157542313Y-92076390D01*
X157679157Y-92119142D01*
X157688129Y-92119306D01*
X157688132Y-92119307D01*
X157753463Y-92120504D01*
X157822499Y-92121770D01*
X157831533Y-92119307D01*
X157952158Y-92086421D01*
X157952160Y-92086420D01*
X157960817Y-92084060D01*
X158082991Y-92009045D01*
X158109726Y-91979509D01*
X158173178Y-91909407D01*
X158179200Y-91902754D01*
X158226960Y-91804178D01*
X158237796Y-91781812D01*
X158237796Y-91781811D01*
X158241710Y-91773733D01*
X158241882Y-91772713D01*
X158279410Y-91717209D01*
X158344661Y-91689231D01*
X158414680Y-91700972D01*
X158467236Y-91748704D01*
X158476087Y-91766113D01*
X158489139Y-91797625D01*
X158577379Y-91912621D01*
X158692375Y-92000861D01*
X158826291Y-92056330D01*
X158970000Y-92075250D01*
X159113709Y-92056330D01*
X159247625Y-92000861D01*
X159362621Y-91912621D01*
X159450861Y-91797625D01*
X159506330Y-91663709D01*
X159525250Y-91520000D01*
X159506330Y-91376291D01*
X159450861Y-91242375D01*
X159362621Y-91127379D01*
X159247625Y-91039139D01*
X159113709Y-90983670D01*
X158970000Y-90964750D01*
X158826291Y-90983670D01*
X158692375Y-91039139D01*
X158577379Y-91127379D01*
X158489139Y-91242375D01*
X158433670Y-91376291D01*
X158430961Y-91375169D01*
X158401355Y-91423718D01*
X158337488Y-91454727D01*
X158266995Y-91446284D01*
X158212258Y-91401069D01*
X158201918Y-91382617D01*
X158189702Y-91355748D01*
X158189700Y-91355745D01*
X158185984Y-91347572D01*
X158167598Y-91326234D01*
X158098260Y-91245763D01*
X158098257Y-91245760D01*
X158092400Y-91238963D01*
X157972095Y-91160985D01*
X157834739Y-91119907D01*
X157825763Y-91119852D01*
X157825762Y-91119852D01*
X157765555Y-91119484D01*
X157691376Y-91119031D01*
X157553529Y-91158428D01*
X157432280Y-91234930D01*
X157337377Y-91342388D01*
X157276447Y-91472163D01*
X157254391Y-91613823D01*
X130305431Y-91613823D01*
X130325682Y-91460000D01*
X130305044Y-91303238D01*
X130244536Y-91157159D01*
X130148282Y-91031718D01*
X130022841Y-90935464D01*
X129876762Y-90874956D01*
X129720000Y-90854318D01*
X129563238Y-90874956D01*
X129417159Y-90935464D01*
X129291718Y-91031718D01*
X129195464Y-91157159D01*
X129134956Y-91303238D01*
X129114318Y-91460000D01*
X126726499Y-91460000D01*
X126726688Y-88630000D01*
X139314318Y-88630000D01*
X139334956Y-88786762D01*
X139395464Y-88932841D01*
X139491718Y-89058282D01*
X139617159Y-89154536D01*
X139763238Y-89215044D01*
X139920000Y-89235682D01*
X139928188Y-89234604D01*
X140068574Y-89216122D01*
X140076762Y-89215044D01*
X140222841Y-89154536D01*
X140348282Y-89058282D01*
X140444536Y-88932841D01*
X140505044Y-88786762D01*
X140525682Y-88630000D01*
X140505044Y-88473238D01*
X140444536Y-88327159D01*
X140367642Y-88226948D01*
X140353305Y-88208264D01*
X140348282Y-88201718D01*
X140222841Y-88105464D01*
X140076762Y-88044956D01*
X140051309Y-88041605D01*
X139928188Y-88025396D01*
X139920000Y-88024318D01*
X139911812Y-88025396D01*
X139788692Y-88041605D01*
X139763238Y-88044956D01*
X139617159Y-88105464D01*
X139491718Y-88201718D01*
X139486695Y-88208264D01*
X139472358Y-88226948D01*
X139395464Y-88327159D01*
X139334956Y-88473238D01*
X139314318Y-88630000D01*
X126726688Y-88630000D01*
X126726708Y-88334789D01*
X126726762Y-87533823D01*
X154454391Y-87533823D01*
X154455555Y-87542725D01*
X154455555Y-87542728D01*
X154461181Y-87585746D01*
X154472980Y-87675979D01*
X154530720Y-87807203D01*
X154536497Y-87814076D01*
X154536498Y-87814077D01*
X154570779Y-87854859D01*
X154622970Y-87916948D01*
X154742313Y-87996390D01*
X154879157Y-88039142D01*
X154888129Y-88039306D01*
X154888132Y-88039307D01*
X154953463Y-88040504D01*
X155022499Y-88041770D01*
X155031533Y-88039307D01*
X155152158Y-88006421D01*
X155152160Y-88006420D01*
X155160817Y-88004060D01*
X155282991Y-87929045D01*
X155360129Y-87843823D01*
X155944391Y-87843823D01*
X155945555Y-87852725D01*
X155945555Y-87852728D01*
X155946814Y-87862354D01*
X155962980Y-87985979D01*
X156020720Y-88117203D01*
X156026497Y-88124076D01*
X156026498Y-88124077D01*
X156107190Y-88220072D01*
X156112970Y-88226948D01*
X156232313Y-88306390D01*
X156369157Y-88349142D01*
X156378129Y-88349306D01*
X156378132Y-88349307D01*
X156443463Y-88350504D01*
X156512499Y-88351770D01*
X156521533Y-88349307D01*
X156642158Y-88316421D01*
X156642160Y-88316420D01*
X156650817Y-88314060D01*
X156772991Y-88239045D01*
X156806778Y-88201718D01*
X156863178Y-88139407D01*
X156869200Y-88132754D01*
X156915852Y-88036464D01*
X156927795Y-88011814D01*
X156927795Y-88011813D01*
X156931710Y-88003733D01*
X156955496Y-87862354D01*
X156955647Y-87850000D01*
X156935323Y-87708082D01*
X156875984Y-87577572D01*
X156830642Y-87524950D01*
X156788260Y-87475763D01*
X156788257Y-87475760D01*
X156782400Y-87468963D01*
X156662095Y-87390985D01*
X156524739Y-87349907D01*
X156515763Y-87349852D01*
X156515762Y-87349852D01*
X156455555Y-87349484D01*
X156381376Y-87349031D01*
X156243529Y-87388428D01*
X156122280Y-87464930D01*
X156027377Y-87572388D01*
X155966447Y-87702163D01*
X155965066Y-87711035D01*
X155946636Y-87829407D01*
X155944391Y-87843823D01*
X155360129Y-87843823D01*
X155379200Y-87822754D01*
X155441710Y-87693733D01*
X155465496Y-87552354D01*
X155465647Y-87540000D01*
X155445323Y-87398082D01*
X155440927Y-87388412D01*
X155389700Y-87275746D01*
X155385984Y-87267572D01*
X155367598Y-87246234D01*
X155298260Y-87165763D01*
X155298257Y-87165760D01*
X155292400Y-87158963D01*
X155172095Y-87080985D01*
X155034739Y-87039907D01*
X155025763Y-87039852D01*
X155025762Y-87039852D01*
X154965555Y-87039484D01*
X154891376Y-87039031D01*
X154753529Y-87078428D01*
X154632280Y-87154930D01*
X154537377Y-87262388D01*
X154476447Y-87392163D01*
X154454391Y-87533823D01*
X126726762Y-87533823D01*
X126726830Y-86513823D01*
X155854391Y-86513823D01*
X155855555Y-86522725D01*
X155855555Y-86522728D01*
X155856814Y-86532354D01*
X155872980Y-86655979D01*
X155930720Y-86787203D01*
X155936497Y-86794076D01*
X155936498Y-86794077D01*
X155943792Y-86802754D01*
X156022970Y-86896948D01*
X156142313Y-86976390D01*
X156279157Y-87019142D01*
X156288129Y-87019306D01*
X156288132Y-87019307D01*
X156353463Y-87020504D01*
X156422499Y-87021770D01*
X156431533Y-87019307D01*
X156552158Y-86986421D01*
X156552160Y-86986420D01*
X156560817Y-86984060D01*
X156682991Y-86909045D01*
X156779200Y-86802754D01*
X156841710Y-86673733D01*
X156865496Y-86532354D01*
X156865647Y-86520000D01*
X156855060Y-86446072D01*
X156846596Y-86386968D01*
X156846595Y-86386965D01*
X156845323Y-86378082D01*
X156785984Y-86247572D01*
X156735075Y-86188489D01*
X156698260Y-86145763D01*
X156698257Y-86145760D01*
X156692400Y-86138963D01*
X156572095Y-86060985D01*
X156434739Y-86019907D01*
X156425763Y-86019852D01*
X156425762Y-86019852D01*
X156365555Y-86019484D01*
X156291376Y-86019031D01*
X156153529Y-86058428D01*
X156032280Y-86134930D01*
X155937377Y-86242388D01*
X155876447Y-86372163D01*
X155875066Y-86381035D01*
X155860956Y-86471660D01*
X155854391Y-86513823D01*
X126726830Y-86513823D01*
X126726880Y-85762611D01*
X157014394Y-85762611D01*
X157032999Y-85931135D01*
X157040867Y-85952634D01*
X157082306Y-86065871D01*
X157091266Y-86090356D01*
X157095502Y-86096659D01*
X157095502Y-86096660D01*
X157108574Y-86116113D01*
X157185830Y-86231083D01*
X157191442Y-86236190D01*
X157191445Y-86236193D01*
X157305612Y-86340077D01*
X157305616Y-86340080D01*
X157311233Y-86345191D01*
X157317906Y-86348814D01*
X157317910Y-86348817D01*
X157453558Y-86422467D01*
X157453560Y-86422468D01*
X157460235Y-86426092D01*
X157467584Y-86428020D01*
X157616883Y-86467188D01*
X157616885Y-86467188D01*
X157624233Y-86469116D01*
X157710609Y-86470473D01*
X157786161Y-86471660D01*
X157786164Y-86471660D01*
X157793760Y-86471779D01*
X157801165Y-86470083D01*
X157801166Y-86470083D01*
X157899660Y-86447525D01*
X157959029Y-86433928D01*
X158110498Y-86357747D01*
X158239423Y-86247634D01*
X158338361Y-86109947D01*
X158346237Y-86090356D01*
X158398766Y-85959687D01*
X158398767Y-85959685D01*
X158401601Y-85952634D01*
X158422398Y-85806504D01*
X158424909Y-85788862D01*
X158424909Y-85788859D01*
X158425490Y-85784778D01*
X158425645Y-85770000D01*
X158423840Y-85755080D01*
X158406188Y-85609220D01*
X158405276Y-85601680D01*
X158345345Y-85443077D01*
X158313309Y-85396464D01*
X158253614Y-85309608D01*
X158253613Y-85309607D01*
X158249312Y-85303349D01*
X158243119Y-85297831D01*
X158128392Y-85195612D01*
X158128388Y-85195610D01*
X158122721Y-85190560D01*
X157972881Y-85111224D01*
X157808441Y-85069919D01*
X157800843Y-85069879D01*
X157800841Y-85069879D01*
X157723668Y-85069475D01*
X157638895Y-85069031D01*
X157631508Y-85070805D01*
X157631504Y-85070805D01*
X157488162Y-85105220D01*
X157474032Y-85108612D01*
X157467288Y-85112093D01*
X157467285Y-85112094D01*
X157330117Y-85182892D01*
X157323369Y-85186375D01*
X157195604Y-85297831D01*
X157157946Y-85351413D01*
X157122555Y-85401770D01*
X157098113Y-85436547D01*
X157036524Y-85594513D01*
X157014394Y-85762611D01*
X126726880Y-85762611D01*
X126726938Y-84893823D01*
X140284391Y-84893823D01*
X140285555Y-84902725D01*
X140285555Y-84902728D01*
X140286814Y-84912354D01*
X140302980Y-85035979D01*
X140360720Y-85167203D01*
X140366497Y-85174076D01*
X140366498Y-85174077D01*
X140381033Y-85191368D01*
X140452970Y-85276948D01*
X140572313Y-85356390D01*
X140709157Y-85399142D01*
X140718129Y-85399306D01*
X140718132Y-85399307D01*
X140783463Y-85400504D01*
X140852499Y-85401770D01*
X140861533Y-85399307D01*
X140982158Y-85366421D01*
X140982160Y-85366420D01*
X140990817Y-85364060D01*
X141112991Y-85289045D01*
X141209200Y-85182754D01*
X141263868Y-85069919D01*
X141267795Y-85061814D01*
X141267795Y-85061813D01*
X141271710Y-85053733D01*
X141295496Y-84912354D01*
X141295647Y-84900000D01*
X141294762Y-84893823D01*
X145644391Y-84893823D01*
X145645555Y-84902725D01*
X145645555Y-84902728D01*
X145646814Y-84912354D01*
X145662980Y-85035979D01*
X145720720Y-85167203D01*
X145726497Y-85174076D01*
X145726498Y-85174077D01*
X145741033Y-85191368D01*
X145812970Y-85276948D01*
X145932313Y-85356390D01*
X146069157Y-85399142D01*
X146078129Y-85399306D01*
X146078132Y-85399307D01*
X146143463Y-85400504D01*
X146212499Y-85401770D01*
X146221533Y-85399307D01*
X146342158Y-85366421D01*
X146342160Y-85366420D01*
X146350817Y-85364060D01*
X146472991Y-85289045D01*
X146569200Y-85182754D01*
X146623868Y-85069919D01*
X146627795Y-85061814D01*
X146627795Y-85061813D01*
X146631710Y-85053733D01*
X146655496Y-84912354D01*
X146655647Y-84900000D01*
X146635323Y-84758082D01*
X146575984Y-84627572D01*
X146521884Y-84564786D01*
X146488260Y-84525763D01*
X146488257Y-84525760D01*
X146482400Y-84518963D01*
X146362095Y-84440985D01*
X146224739Y-84399907D01*
X146215763Y-84399852D01*
X146215762Y-84399852D01*
X146155555Y-84399484D01*
X146081376Y-84399031D01*
X145943529Y-84438428D01*
X145822280Y-84514930D01*
X145727377Y-84622388D01*
X145666447Y-84752163D01*
X145644391Y-84893823D01*
X141294762Y-84893823D01*
X141275323Y-84758082D01*
X141215984Y-84627572D01*
X141161884Y-84564786D01*
X141128260Y-84525763D01*
X141128257Y-84525760D01*
X141122400Y-84518963D01*
X141002095Y-84440985D01*
X140864739Y-84399907D01*
X140855763Y-84399852D01*
X140855762Y-84399852D01*
X140795555Y-84399484D01*
X140721376Y-84399031D01*
X140583529Y-84438428D01*
X140462280Y-84514930D01*
X140367377Y-84622388D01*
X140306447Y-84752163D01*
X140284391Y-84893823D01*
X126726938Y-84893823D01*
X126726987Y-84164669D01*
X151082001Y-84164669D01*
X151082371Y-84171490D01*
X151087895Y-84222352D01*
X151091521Y-84237604D01*
X151136676Y-84358054D01*
X151145214Y-84373649D01*
X151221715Y-84475724D01*
X151234276Y-84488285D01*
X151336351Y-84564786D01*
X151351946Y-84573324D01*
X151472394Y-84618478D01*
X151487649Y-84622105D01*
X151538514Y-84627631D01*
X151545328Y-84628000D01*
X152167885Y-84628000D01*
X152183124Y-84623525D01*
X152184329Y-84622135D01*
X152186000Y-84614452D01*
X152186000Y-83542115D01*
X152181525Y-83526876D01*
X152180135Y-83525671D01*
X152172452Y-83524000D01*
X151100116Y-83524000D01*
X151084877Y-83528475D01*
X151083672Y-83529865D01*
X151082001Y-83537548D01*
X151082001Y-84164669D01*
X126726987Y-84164669D01*
X126727104Y-82401404D01*
X126728655Y-82381705D01*
X126729581Y-82375862D01*
X126732093Y-82360000D01*
X126730542Y-82350206D01*
X126730542Y-82340292D01*
X126731440Y-82340292D01*
X126731091Y-82324649D01*
X126740561Y-82240593D01*
X126746838Y-82213089D01*
X126781837Y-82113067D01*
X126794077Y-82087650D01*
X126850457Y-81997923D01*
X126868049Y-81975865D01*
X126942972Y-81900942D01*
X126965030Y-81883350D01*
X127054757Y-81826970D01*
X127080174Y-81814730D01*
X127180196Y-81779731D01*
X127207700Y-81773454D01*
X127291756Y-81763984D01*
X127307399Y-81764333D01*
X127307399Y-81763435D01*
X127317313Y-81763435D01*
X127327107Y-81764986D01*
X127348796Y-81761551D01*
X127368505Y-81760000D01*
X151245293Y-81760000D01*
X151313414Y-81780002D01*
G37*
%TD.AperFunction*%
%TD*%
M02*
