%FSLAX45Y45*%
G04 Gerber Fmt 4.5, Leading zero omitted, Abs format (unit mm)*
G04 Created by KiCad (PCBNEW (6.0.1)) date 2023-03-07 00:33:59*
%MOMM*%
%LPD*%
G01*
G04 APERTURE LIST*
%TA.AperFunction,Profile*%
%ADD10C,0.100000*%
%TD*%
%ADD11C,0.200000*%
%ADD12C,0.040000*%
%ADD13C,0.100000*%
%ADD14C,0.220000*%
G04 APERTURE END LIST*
D10*
X11786790Y-8288836D02*
G75*
G03*
X11721128Y-8355665I182J-65852D01*
G01*
X11716673Y-9928333D02*
G75*
G03*
X11783665Y-9995333I66014J-985D01*
G01*
X13347333Y-9995327D02*
G75*
G03*
X13414333Y-9928335I985J66014D01*
G01*
X13406662Y-8356164D02*
G75*
G03*
X13339670Y-8289164I-66014J986D01*
G01*
X11786790Y-8288836D02*
X13339670Y-8289164D01*
X11716673Y-9928333D02*
X11721128Y-8355665D01*
X13347333Y-9995327D02*
X11783665Y-9995333D01*
X13406663Y-8356164D02*
X13414333Y-9928335D01*
D11*
D12*
X12519000Y-9391000D02*
X12559000Y-9431000D01*
X12559000Y-9391000D02*
X12519000Y-9431000D01*
X12695000Y-9103000D02*
X12735000Y-9143000D01*
X12735000Y-9103000D02*
X12695000Y-9143000D01*
X12901000Y-9124000D02*
X12941000Y-9164000D01*
X12941000Y-9124000D02*
X12901000Y-9164000D01*
X12998000Y-8965000D02*
X13038000Y-9005000D01*
X13038000Y-8965000D02*
X12998000Y-9005000D01*
X13080000Y-9076000D02*
X13120000Y-9116000D01*
X13120000Y-9076000D02*
X13080000Y-9116000D01*
D13*
X11979500Y-8789000D02*
G75*
G03*
X11979500Y-8789000I-50000J0D01*
G01*
X11979500Y-9043000D02*
G75*
G03*
X11979500Y-9043000I-50000J0D01*
G01*
X11979500Y-9297000D02*
G75*
G03*
X11979500Y-9297000I-50000J0D01*
G01*
X11979500Y-9551000D02*
G75*
G03*
X11979500Y-9551000I-50000J0D01*
G01*
X11979500Y-9805000D02*
G75*
G03*
X11979500Y-9805000I-50000J0D01*
G01*
D14*
X13116000Y-9574000D02*
X13116000Y-9794000D01*
X13006000Y-9684000D02*
X13226000Y-9684000D01*
X13122000Y-8462000D02*
X13122000Y-8682000D01*
X13012000Y-8572000D02*
X13232000Y-8572000D01*
D11*
X11969284Y-10310816D02*
X11969284Y-10110816D01*
X12016903Y-10110816D01*
X12045475Y-10120340D01*
X12064522Y-10139388D01*
X12074046Y-10158435D01*
X12083570Y-10196530D01*
X12083570Y-10225102D01*
X12074046Y-10263197D01*
X12064522Y-10282245D01*
X12045475Y-10301292D01*
X12016903Y-10310816D01*
X11969284Y-10310816D01*
X12169284Y-10310816D02*
X12169284Y-10177483D01*
X12169284Y-10215578D02*
X12178808Y-10196530D01*
X12188332Y-10187007D01*
X12207379Y-10177483D01*
X12226427Y-10177483D01*
X12293094Y-10310816D02*
X12293094Y-10177483D01*
X12293094Y-10110816D02*
X12283570Y-10120340D01*
X12293094Y-10129864D01*
X12302618Y-10120340D01*
X12293094Y-10110816D01*
X12293094Y-10129864D01*
X12416903Y-10310816D02*
X12397856Y-10301292D01*
X12388332Y-10282245D01*
X12388332Y-10110816D01*
X12521665Y-10310816D02*
X12502618Y-10301292D01*
X12493094Y-10282245D01*
X12493094Y-10110816D01*
X12750237Y-10310816D02*
X12750237Y-10110816D01*
X12816903Y-10253673D01*
X12883570Y-10110816D01*
X12883570Y-10310816D01*
X13064522Y-10310816D02*
X13064522Y-10206054D01*
X13054999Y-10187007D01*
X13035951Y-10177483D01*
X12997856Y-10177483D01*
X12978808Y-10187007D01*
X13064522Y-10301292D02*
X13045475Y-10310816D01*
X12997856Y-10310816D01*
X12978808Y-10301292D01*
X12969284Y-10282245D01*
X12969284Y-10263197D01*
X12978808Y-10244149D01*
X12997856Y-10234626D01*
X13045475Y-10234626D01*
X13064522Y-10225102D01*
X13159760Y-10177483D02*
X13159760Y-10377483D01*
X13159760Y-10187007D02*
X13178808Y-10177483D01*
X13216903Y-10177483D01*
X13235951Y-10187007D01*
X13245475Y-10196530D01*
X13254999Y-10215578D01*
X13254999Y-10272721D01*
X13245475Y-10291768D01*
X13235951Y-10301292D01*
X13216903Y-10310816D01*
X13178808Y-10310816D01*
X13159760Y-10301292D01*
X13340713Y-10291768D02*
X13350237Y-10301292D01*
X13340713Y-10310816D01*
X13331189Y-10301292D01*
X13340713Y-10291768D01*
X13340713Y-10310816D01*
X13340713Y-10187007D02*
X13350237Y-10196530D01*
X13340713Y-10206054D01*
X13331189Y-10196530D01*
X13340713Y-10187007D01*
X13340713Y-10206054D01*
D12*
X11671665Y-10620340D02*
X11711665Y-10660340D01*
X11711665Y-10620340D02*
X11671665Y-10660340D01*
D11*
X12007379Y-10530816D02*
X12026427Y-10530816D01*
X12045475Y-10540340D01*
X12054999Y-10549864D01*
X12064522Y-10568911D01*
X12074046Y-10607007D01*
X12074046Y-10654626D01*
X12064522Y-10692721D01*
X12054999Y-10711768D01*
X12045475Y-10721292D01*
X12026427Y-10730816D01*
X12007379Y-10730816D01*
X11988332Y-10721292D01*
X11978808Y-10711768D01*
X11969284Y-10692721D01*
X11959760Y-10654626D01*
X11959760Y-10607007D01*
X11969284Y-10568911D01*
X11978808Y-10549864D01*
X11988332Y-10540340D01*
X12007379Y-10530816D01*
X12159760Y-10711768D02*
X12169284Y-10721292D01*
X12159760Y-10730816D01*
X12150237Y-10721292D01*
X12159760Y-10711768D01*
X12159760Y-10730816D01*
X12340713Y-10597483D02*
X12340713Y-10730816D01*
X12293094Y-10521292D02*
X12245475Y-10664149D01*
X12369284Y-10664149D01*
X12483570Y-10530816D02*
X12502618Y-10530816D01*
X12521665Y-10540340D01*
X12531189Y-10549864D01*
X12540713Y-10568911D01*
X12550237Y-10607007D01*
X12550237Y-10654626D01*
X12540713Y-10692721D01*
X12531189Y-10711768D01*
X12521665Y-10721292D01*
X12502618Y-10730816D01*
X12483570Y-10730816D01*
X12464522Y-10721292D01*
X12454999Y-10711768D01*
X12445475Y-10692721D01*
X12435951Y-10654626D01*
X12435951Y-10607007D01*
X12445475Y-10568911D01*
X12454999Y-10549864D01*
X12464522Y-10540340D01*
X12483570Y-10530816D01*
X12674046Y-10530816D02*
X12693094Y-10530816D01*
X12712141Y-10540340D01*
X12721665Y-10549864D01*
X12731189Y-10568911D01*
X12740713Y-10607007D01*
X12740713Y-10654626D01*
X12731189Y-10692721D01*
X12721665Y-10711768D01*
X12712141Y-10721292D01*
X12693094Y-10730816D01*
X12674046Y-10730816D01*
X12654999Y-10721292D01*
X12645475Y-10711768D01*
X12635951Y-10692721D01*
X12626427Y-10654626D01*
X12626427Y-10607007D01*
X12635951Y-10568911D01*
X12645475Y-10549864D01*
X12654999Y-10540340D01*
X12674046Y-10530816D01*
X12826427Y-10730816D02*
X12826427Y-10597483D01*
X12826427Y-10616530D02*
X12835951Y-10607007D01*
X12854999Y-10597483D01*
X12883570Y-10597483D01*
X12902618Y-10607007D01*
X12912141Y-10626054D01*
X12912141Y-10730816D01*
X12912141Y-10626054D02*
X12921665Y-10607007D01*
X12940713Y-10597483D01*
X12969284Y-10597483D01*
X12988332Y-10607007D01*
X12997856Y-10626054D01*
X12997856Y-10730816D01*
X13093094Y-10730816D02*
X13093094Y-10597483D01*
X13093094Y-10616530D02*
X13102618Y-10607007D01*
X13121665Y-10597483D01*
X13150237Y-10597483D01*
X13169284Y-10607007D01*
X13178808Y-10626054D01*
X13178808Y-10730816D01*
X13178808Y-10626054D02*
X13188332Y-10607007D01*
X13207379Y-10597483D01*
X13235951Y-10597483D01*
X13254999Y-10607007D01*
X13264522Y-10626054D01*
X13264522Y-10730816D01*
X13654999Y-10521292D02*
X13483570Y-10778435D01*
X13912141Y-10530816D02*
X13931189Y-10530816D01*
X13950237Y-10540340D01*
X13959760Y-10549864D01*
X13969284Y-10568911D01*
X13978808Y-10607007D01*
X13978808Y-10654626D01*
X13969284Y-10692721D01*
X13959760Y-10711768D01*
X13950237Y-10721292D01*
X13931189Y-10730816D01*
X13912141Y-10730816D01*
X13893094Y-10721292D01*
X13883570Y-10711768D01*
X13874046Y-10692721D01*
X13864522Y-10654626D01*
X13864522Y-10607007D01*
X13874046Y-10568911D01*
X13883570Y-10549864D01*
X13893094Y-10540340D01*
X13912141Y-10530816D01*
X14064522Y-10711768D02*
X14074046Y-10721292D01*
X14064522Y-10730816D01*
X14054999Y-10721292D01*
X14064522Y-10711768D01*
X14064522Y-10730816D01*
X14197856Y-10530816D02*
X14216903Y-10530816D01*
X14235951Y-10540340D01*
X14245475Y-10549864D01*
X14254999Y-10568911D01*
X14264522Y-10607007D01*
X14264522Y-10654626D01*
X14254999Y-10692721D01*
X14245475Y-10711768D01*
X14235951Y-10721292D01*
X14216903Y-10730816D01*
X14197856Y-10730816D01*
X14178808Y-10721292D01*
X14169284Y-10711768D01*
X14159760Y-10692721D01*
X14150237Y-10654626D01*
X14150237Y-10607007D01*
X14159760Y-10568911D01*
X14169284Y-10549864D01*
X14178808Y-10540340D01*
X14197856Y-10530816D01*
X14454999Y-10730816D02*
X14340713Y-10730816D01*
X14397856Y-10730816D02*
X14397856Y-10530816D01*
X14378808Y-10559388D01*
X14359760Y-10578435D01*
X14340713Y-10587959D01*
X14635951Y-10530816D02*
X14540713Y-10530816D01*
X14531189Y-10626054D01*
X14540713Y-10616530D01*
X14559760Y-10607007D01*
X14607379Y-10607007D01*
X14626427Y-10616530D01*
X14635951Y-10626054D01*
X14645475Y-10645102D01*
X14645475Y-10692721D01*
X14635951Y-10711768D01*
X14626427Y-10721292D01*
X14607379Y-10730816D01*
X14559760Y-10730816D01*
X14540713Y-10721292D01*
X14531189Y-10711768D01*
X14712141Y-10530816D02*
X14845475Y-10530816D01*
X14759760Y-10730816D01*
X14912141Y-10530816D02*
X14912141Y-10568911D01*
X14988332Y-10530816D02*
X14988332Y-10568911D01*
X15283570Y-10807007D02*
X15274046Y-10797483D01*
X15254999Y-10768911D01*
X15245475Y-10749864D01*
X15235951Y-10721292D01*
X15226427Y-10673673D01*
X15226427Y-10635578D01*
X15235951Y-10587959D01*
X15245475Y-10559388D01*
X15254999Y-10540340D01*
X15274046Y-10511768D01*
X15283570Y-10502245D01*
X15454999Y-10530816D02*
X15359760Y-10530816D01*
X15350237Y-10626054D01*
X15359760Y-10616530D01*
X15378808Y-10607007D01*
X15426427Y-10607007D01*
X15445475Y-10616530D01*
X15454999Y-10626054D01*
X15464522Y-10645102D01*
X15464522Y-10692721D01*
X15454999Y-10711768D01*
X15445475Y-10721292D01*
X15426427Y-10730816D01*
X15378808Y-10730816D01*
X15359760Y-10721292D01*
X15350237Y-10711768D01*
X15702618Y-10730816D02*
X15702618Y-10530816D01*
X15788332Y-10730816D02*
X15788332Y-10626054D01*
X15778808Y-10607007D01*
X15759760Y-10597483D01*
X15731189Y-10597483D01*
X15712141Y-10607007D01*
X15702618Y-10616530D01*
X15912141Y-10730816D02*
X15893094Y-10721292D01*
X15883570Y-10711768D01*
X15874046Y-10692721D01*
X15874046Y-10635578D01*
X15883570Y-10616530D01*
X15893094Y-10607007D01*
X15912141Y-10597483D01*
X15940713Y-10597483D01*
X15959760Y-10607007D01*
X15969284Y-10616530D01*
X15978808Y-10635578D01*
X15978808Y-10692721D01*
X15969284Y-10711768D01*
X15959760Y-10721292D01*
X15940713Y-10730816D01*
X15912141Y-10730816D01*
X16093094Y-10730816D02*
X16074046Y-10721292D01*
X16064522Y-10702245D01*
X16064522Y-10530816D01*
X16245475Y-10721292D02*
X16226427Y-10730816D01*
X16188332Y-10730816D01*
X16169284Y-10721292D01*
X16159760Y-10702245D01*
X16159760Y-10626054D01*
X16169284Y-10607007D01*
X16188332Y-10597483D01*
X16226427Y-10597483D01*
X16245475Y-10607007D01*
X16254999Y-10626054D01*
X16254999Y-10645102D01*
X16159760Y-10664149D01*
X16331189Y-10721292D02*
X16350237Y-10730816D01*
X16388332Y-10730816D01*
X16407379Y-10721292D01*
X16416903Y-10702245D01*
X16416903Y-10692721D01*
X16407379Y-10673673D01*
X16388332Y-10664149D01*
X16359760Y-10664149D01*
X16340713Y-10654626D01*
X16331189Y-10635578D01*
X16331189Y-10626054D01*
X16340713Y-10607007D01*
X16359760Y-10597483D01*
X16388332Y-10597483D01*
X16407379Y-10607007D01*
X16483570Y-10807007D02*
X16493094Y-10797483D01*
X16512141Y-10768911D01*
X16521665Y-10749864D01*
X16531189Y-10721292D01*
X16540713Y-10673673D01*
X16540713Y-10635578D01*
X16531189Y-10587959D01*
X16521665Y-10559388D01*
X16512141Y-10540340D01*
X16493094Y-10511768D01*
X16483570Y-10502245D01*
D13*
X11711665Y-10904340D02*
G75*
G03*
X11711665Y-10904340I-50000J0D01*
G01*
D11*
X12074046Y-10994816D02*
X11959760Y-10994816D01*
X12016903Y-10994816D02*
X12016903Y-10794816D01*
X11997856Y-10823388D01*
X11978808Y-10842435D01*
X11959760Y-10851959D01*
X12159760Y-10975768D02*
X12169284Y-10985292D01*
X12159760Y-10994816D01*
X12150237Y-10985292D01*
X12159760Y-10975768D01*
X12159760Y-10994816D01*
X12293094Y-10794816D02*
X12312141Y-10794816D01*
X12331189Y-10804340D01*
X12340713Y-10813864D01*
X12350237Y-10832911D01*
X12359760Y-10871007D01*
X12359760Y-10918626D01*
X12350237Y-10956721D01*
X12340713Y-10975768D01*
X12331189Y-10985292D01*
X12312141Y-10994816D01*
X12293094Y-10994816D01*
X12274046Y-10985292D01*
X12264522Y-10975768D01*
X12254999Y-10956721D01*
X12245475Y-10918626D01*
X12245475Y-10871007D01*
X12254999Y-10832911D01*
X12264522Y-10813864D01*
X12274046Y-10804340D01*
X12293094Y-10794816D01*
X12483570Y-10794816D02*
X12502618Y-10794816D01*
X12521665Y-10804340D01*
X12531189Y-10813864D01*
X12540713Y-10832911D01*
X12550237Y-10871007D01*
X12550237Y-10918626D01*
X12540713Y-10956721D01*
X12531189Y-10975768D01*
X12521665Y-10985292D01*
X12502618Y-10994816D01*
X12483570Y-10994816D01*
X12464522Y-10985292D01*
X12454999Y-10975768D01*
X12445475Y-10956721D01*
X12435951Y-10918626D01*
X12435951Y-10871007D01*
X12445475Y-10832911D01*
X12454999Y-10813864D01*
X12464522Y-10804340D01*
X12483570Y-10794816D01*
X12674046Y-10794816D02*
X12693094Y-10794816D01*
X12712141Y-10804340D01*
X12721665Y-10813864D01*
X12731189Y-10832911D01*
X12740713Y-10871007D01*
X12740713Y-10918626D01*
X12731189Y-10956721D01*
X12721665Y-10975768D01*
X12712141Y-10985292D01*
X12693094Y-10994816D01*
X12674046Y-10994816D01*
X12654999Y-10985292D01*
X12645475Y-10975768D01*
X12635951Y-10956721D01*
X12626427Y-10918626D01*
X12626427Y-10871007D01*
X12635951Y-10832911D01*
X12645475Y-10813864D01*
X12654999Y-10804340D01*
X12674046Y-10794816D01*
X12826427Y-10994816D02*
X12826427Y-10861483D01*
X12826427Y-10880530D02*
X12835951Y-10871007D01*
X12854999Y-10861483D01*
X12883570Y-10861483D01*
X12902618Y-10871007D01*
X12912141Y-10890054D01*
X12912141Y-10994816D01*
X12912141Y-10890054D02*
X12921665Y-10871007D01*
X12940713Y-10861483D01*
X12969284Y-10861483D01*
X12988332Y-10871007D01*
X12997856Y-10890054D01*
X12997856Y-10994816D01*
X13093094Y-10994816D02*
X13093094Y-10861483D01*
X13093094Y-10880530D02*
X13102618Y-10871007D01*
X13121665Y-10861483D01*
X13150237Y-10861483D01*
X13169284Y-10871007D01*
X13178808Y-10890054D01*
X13178808Y-10994816D01*
X13178808Y-10890054D02*
X13188332Y-10871007D01*
X13207379Y-10861483D01*
X13235951Y-10861483D01*
X13254999Y-10871007D01*
X13264522Y-10890054D01*
X13264522Y-10994816D01*
X13654999Y-10785292D02*
X13483570Y-11042435D01*
X13912141Y-10794816D02*
X13931189Y-10794816D01*
X13950237Y-10804340D01*
X13959760Y-10813864D01*
X13969284Y-10832911D01*
X13978808Y-10871007D01*
X13978808Y-10918626D01*
X13969284Y-10956721D01*
X13959760Y-10975768D01*
X13950237Y-10985292D01*
X13931189Y-10994816D01*
X13912141Y-10994816D01*
X13893094Y-10985292D01*
X13883570Y-10975768D01*
X13874046Y-10956721D01*
X13864522Y-10918626D01*
X13864522Y-10871007D01*
X13874046Y-10832911D01*
X13883570Y-10813864D01*
X13893094Y-10804340D01*
X13912141Y-10794816D01*
X14064522Y-10975768D02*
X14074046Y-10985292D01*
X14064522Y-10994816D01*
X14054999Y-10985292D01*
X14064522Y-10975768D01*
X14064522Y-10994816D01*
X14197856Y-10794816D02*
X14216903Y-10794816D01*
X14235951Y-10804340D01*
X14245475Y-10813864D01*
X14254999Y-10832911D01*
X14264522Y-10871007D01*
X14264522Y-10918626D01*
X14254999Y-10956721D01*
X14245475Y-10975768D01*
X14235951Y-10985292D01*
X14216903Y-10994816D01*
X14197856Y-10994816D01*
X14178808Y-10985292D01*
X14169284Y-10975768D01*
X14159760Y-10956721D01*
X14150237Y-10918626D01*
X14150237Y-10871007D01*
X14159760Y-10832911D01*
X14169284Y-10813864D01*
X14178808Y-10804340D01*
X14197856Y-10794816D01*
X14331189Y-10794816D02*
X14454999Y-10794816D01*
X14388332Y-10871007D01*
X14416903Y-10871007D01*
X14435951Y-10880530D01*
X14445475Y-10890054D01*
X14454999Y-10909102D01*
X14454999Y-10956721D01*
X14445475Y-10975768D01*
X14435951Y-10985292D01*
X14416903Y-10994816D01*
X14359760Y-10994816D01*
X14340713Y-10985292D01*
X14331189Y-10975768D01*
X14550237Y-10994816D02*
X14588332Y-10994816D01*
X14607379Y-10985292D01*
X14616903Y-10975768D01*
X14635951Y-10947197D01*
X14645475Y-10909102D01*
X14645475Y-10832911D01*
X14635951Y-10813864D01*
X14626427Y-10804340D01*
X14607379Y-10794816D01*
X14569284Y-10794816D01*
X14550237Y-10804340D01*
X14540713Y-10813864D01*
X14531189Y-10832911D01*
X14531189Y-10880530D01*
X14540713Y-10899578D01*
X14550237Y-10909102D01*
X14569284Y-10918626D01*
X14607379Y-10918626D01*
X14626427Y-10909102D01*
X14635951Y-10899578D01*
X14645475Y-10880530D01*
X14816903Y-10861483D02*
X14816903Y-10994816D01*
X14769284Y-10785292D02*
X14721665Y-10928149D01*
X14845475Y-10928149D01*
X14912141Y-10794816D02*
X14912141Y-10832911D01*
X14988332Y-10794816D02*
X14988332Y-10832911D01*
X15283570Y-11071007D02*
X15274046Y-11061483D01*
X15254999Y-11032911D01*
X15245475Y-11013864D01*
X15235951Y-10985292D01*
X15226427Y-10937673D01*
X15226427Y-10899578D01*
X15235951Y-10851959D01*
X15245475Y-10823388D01*
X15254999Y-10804340D01*
X15274046Y-10775768D01*
X15283570Y-10766245D01*
X15454999Y-10794816D02*
X15359760Y-10794816D01*
X15350237Y-10890054D01*
X15359760Y-10880530D01*
X15378808Y-10871007D01*
X15426427Y-10871007D01*
X15445475Y-10880530D01*
X15454999Y-10890054D01*
X15464522Y-10909102D01*
X15464522Y-10956721D01*
X15454999Y-10975768D01*
X15445475Y-10985292D01*
X15426427Y-10994816D01*
X15378808Y-10994816D01*
X15359760Y-10985292D01*
X15350237Y-10975768D01*
X15702618Y-10994816D02*
X15702618Y-10794816D01*
X15788332Y-10994816D02*
X15788332Y-10890054D01*
X15778808Y-10871007D01*
X15759760Y-10861483D01*
X15731189Y-10861483D01*
X15712141Y-10871007D01*
X15702618Y-10880530D01*
X15912141Y-10994816D02*
X15893094Y-10985292D01*
X15883570Y-10975768D01*
X15874046Y-10956721D01*
X15874046Y-10899578D01*
X15883570Y-10880530D01*
X15893094Y-10871007D01*
X15912141Y-10861483D01*
X15940713Y-10861483D01*
X15959760Y-10871007D01*
X15969284Y-10880530D01*
X15978808Y-10899578D01*
X15978808Y-10956721D01*
X15969284Y-10975768D01*
X15959760Y-10985292D01*
X15940713Y-10994816D01*
X15912141Y-10994816D01*
X16093094Y-10994816D02*
X16074046Y-10985292D01*
X16064522Y-10966245D01*
X16064522Y-10794816D01*
X16245475Y-10985292D02*
X16226427Y-10994816D01*
X16188332Y-10994816D01*
X16169284Y-10985292D01*
X16159760Y-10966245D01*
X16159760Y-10890054D01*
X16169284Y-10871007D01*
X16188332Y-10861483D01*
X16226427Y-10861483D01*
X16245475Y-10871007D01*
X16254999Y-10890054D01*
X16254999Y-10909102D01*
X16159760Y-10928149D01*
X16331189Y-10985292D02*
X16350237Y-10994816D01*
X16388332Y-10994816D01*
X16407379Y-10985292D01*
X16416903Y-10966245D01*
X16416903Y-10956721D01*
X16407379Y-10937673D01*
X16388332Y-10928149D01*
X16359760Y-10928149D01*
X16340713Y-10918626D01*
X16331189Y-10899578D01*
X16331189Y-10890054D01*
X16340713Y-10871007D01*
X16359760Y-10861483D01*
X16388332Y-10861483D01*
X16407379Y-10871007D01*
X16483570Y-11071007D02*
X16493094Y-11061483D01*
X16512141Y-11032911D01*
X16521665Y-11013864D01*
X16531189Y-10985292D01*
X16540713Y-10937673D01*
X16540713Y-10899578D01*
X16531189Y-10851959D01*
X16521665Y-10823388D01*
X16512141Y-10804340D01*
X16493094Y-10775768D01*
X16483570Y-10766245D01*
X11611665Y-11068340D02*
X11611665Y-11268340D01*
X11511665Y-11168340D02*
X11711665Y-11168340D01*
X11959760Y-11077864D02*
X11969284Y-11068340D01*
X11988332Y-11058816D01*
X12035951Y-11058816D01*
X12054999Y-11068340D01*
X12064522Y-11077864D01*
X12074046Y-11096911D01*
X12074046Y-11115959D01*
X12064522Y-11144530D01*
X11950237Y-11258816D01*
X12074046Y-11258816D01*
X12159760Y-11239768D02*
X12169284Y-11249292D01*
X12159760Y-11258816D01*
X12150237Y-11249292D01*
X12159760Y-11239768D01*
X12159760Y-11258816D01*
X12245475Y-11077864D02*
X12254999Y-11068340D01*
X12274046Y-11058816D01*
X12321665Y-11058816D01*
X12340713Y-11068340D01*
X12350237Y-11077864D01*
X12359760Y-11096911D01*
X12359760Y-11115959D01*
X12350237Y-11144530D01*
X12235951Y-11258816D01*
X12359760Y-11258816D01*
X12483570Y-11058816D02*
X12502618Y-11058816D01*
X12521665Y-11068340D01*
X12531189Y-11077864D01*
X12540713Y-11096911D01*
X12550237Y-11135007D01*
X12550237Y-11182626D01*
X12540713Y-11220721D01*
X12531189Y-11239768D01*
X12521665Y-11249292D01*
X12502618Y-11258816D01*
X12483570Y-11258816D01*
X12464522Y-11249292D01*
X12454999Y-11239768D01*
X12445475Y-11220721D01*
X12435951Y-11182626D01*
X12435951Y-11135007D01*
X12445475Y-11096911D01*
X12454999Y-11077864D01*
X12464522Y-11068340D01*
X12483570Y-11058816D01*
X12674046Y-11058816D02*
X12693094Y-11058816D01*
X12712141Y-11068340D01*
X12721665Y-11077864D01*
X12731189Y-11096911D01*
X12740713Y-11135007D01*
X12740713Y-11182626D01*
X12731189Y-11220721D01*
X12721665Y-11239768D01*
X12712141Y-11249292D01*
X12693094Y-11258816D01*
X12674046Y-11258816D01*
X12654999Y-11249292D01*
X12645475Y-11239768D01*
X12635951Y-11220721D01*
X12626427Y-11182626D01*
X12626427Y-11135007D01*
X12635951Y-11096911D01*
X12645475Y-11077864D01*
X12654999Y-11068340D01*
X12674046Y-11058816D01*
X12826427Y-11258816D02*
X12826427Y-11125483D01*
X12826427Y-11144530D02*
X12835951Y-11135007D01*
X12854999Y-11125483D01*
X12883570Y-11125483D01*
X12902618Y-11135007D01*
X12912141Y-11154054D01*
X12912141Y-11258816D01*
X12912141Y-11154054D02*
X12921665Y-11135007D01*
X12940713Y-11125483D01*
X12969284Y-11125483D01*
X12988332Y-11135007D01*
X12997856Y-11154054D01*
X12997856Y-11258816D01*
X13093094Y-11258816D02*
X13093094Y-11125483D01*
X13093094Y-11144530D02*
X13102618Y-11135007D01*
X13121665Y-11125483D01*
X13150237Y-11125483D01*
X13169284Y-11135007D01*
X13178808Y-11154054D01*
X13178808Y-11258816D01*
X13178808Y-11154054D02*
X13188332Y-11135007D01*
X13207379Y-11125483D01*
X13235951Y-11125483D01*
X13254999Y-11135007D01*
X13264522Y-11154054D01*
X13264522Y-11258816D01*
X13654999Y-11049292D02*
X13483570Y-11306435D01*
X13912141Y-11058816D02*
X13931189Y-11058816D01*
X13950237Y-11068340D01*
X13959760Y-11077864D01*
X13969284Y-11096911D01*
X13978808Y-11135007D01*
X13978808Y-11182626D01*
X13969284Y-11220721D01*
X13959760Y-11239768D01*
X13950237Y-11249292D01*
X13931189Y-11258816D01*
X13912141Y-11258816D01*
X13893094Y-11249292D01*
X13883570Y-11239768D01*
X13874046Y-11220721D01*
X13864522Y-11182626D01*
X13864522Y-11135007D01*
X13874046Y-11096911D01*
X13883570Y-11077864D01*
X13893094Y-11068340D01*
X13912141Y-11058816D01*
X14064522Y-11239768D02*
X14074046Y-11249292D01*
X14064522Y-11258816D01*
X14054999Y-11249292D01*
X14064522Y-11239768D01*
X14064522Y-11258816D01*
X14197856Y-11058816D02*
X14216903Y-11058816D01*
X14235951Y-11068340D01*
X14245475Y-11077864D01*
X14254999Y-11096911D01*
X14264522Y-11135007D01*
X14264522Y-11182626D01*
X14254999Y-11220721D01*
X14245475Y-11239768D01*
X14235951Y-11249292D01*
X14216903Y-11258816D01*
X14197856Y-11258816D01*
X14178808Y-11249292D01*
X14169284Y-11239768D01*
X14159760Y-11220721D01*
X14150237Y-11182626D01*
X14150237Y-11135007D01*
X14159760Y-11096911D01*
X14169284Y-11077864D01*
X14178808Y-11068340D01*
X14197856Y-11058816D01*
X14378808Y-11144530D02*
X14359760Y-11135007D01*
X14350237Y-11125483D01*
X14340713Y-11106435D01*
X14340713Y-11096911D01*
X14350237Y-11077864D01*
X14359760Y-11068340D01*
X14378808Y-11058816D01*
X14416903Y-11058816D01*
X14435951Y-11068340D01*
X14445475Y-11077864D01*
X14454999Y-11096911D01*
X14454999Y-11106435D01*
X14445475Y-11125483D01*
X14435951Y-11135007D01*
X14416903Y-11144530D01*
X14378808Y-11144530D01*
X14359760Y-11154054D01*
X14350237Y-11163578D01*
X14340713Y-11182626D01*
X14340713Y-11220721D01*
X14350237Y-11239768D01*
X14359760Y-11249292D01*
X14378808Y-11258816D01*
X14416903Y-11258816D01*
X14435951Y-11249292D01*
X14445475Y-11239768D01*
X14454999Y-11220721D01*
X14454999Y-11182626D01*
X14445475Y-11163578D01*
X14435951Y-11154054D01*
X14416903Y-11144530D01*
X14626427Y-11058816D02*
X14588332Y-11058816D01*
X14569284Y-11068340D01*
X14559760Y-11077864D01*
X14540713Y-11106435D01*
X14531189Y-11144530D01*
X14531189Y-11220721D01*
X14540713Y-11239768D01*
X14550237Y-11249292D01*
X14569284Y-11258816D01*
X14607379Y-11258816D01*
X14626427Y-11249292D01*
X14635951Y-11239768D01*
X14645475Y-11220721D01*
X14645475Y-11173102D01*
X14635951Y-11154054D01*
X14626427Y-11144530D01*
X14607379Y-11135007D01*
X14569284Y-11135007D01*
X14550237Y-11144530D01*
X14540713Y-11154054D01*
X14531189Y-11173102D01*
X14816903Y-11058816D02*
X14778808Y-11058816D01*
X14759760Y-11068340D01*
X14750237Y-11077864D01*
X14731189Y-11106435D01*
X14721665Y-11144530D01*
X14721665Y-11220721D01*
X14731189Y-11239768D01*
X14740713Y-11249292D01*
X14759760Y-11258816D01*
X14797856Y-11258816D01*
X14816903Y-11249292D01*
X14826427Y-11239768D01*
X14835951Y-11220721D01*
X14835951Y-11173102D01*
X14826427Y-11154054D01*
X14816903Y-11144530D01*
X14797856Y-11135007D01*
X14759760Y-11135007D01*
X14740713Y-11144530D01*
X14731189Y-11154054D01*
X14721665Y-11173102D01*
X14912141Y-11058816D02*
X14912141Y-11096911D01*
X14988332Y-11058816D02*
X14988332Y-11096911D01*
X15283570Y-11335006D02*
X15274046Y-11325483D01*
X15254999Y-11296911D01*
X15245475Y-11277864D01*
X15235951Y-11249292D01*
X15226427Y-11201673D01*
X15226427Y-11163578D01*
X15235951Y-11115959D01*
X15245475Y-11087388D01*
X15254999Y-11068340D01*
X15274046Y-11039768D01*
X15283570Y-11030245D01*
X15350237Y-11077864D02*
X15359760Y-11068340D01*
X15378808Y-11058816D01*
X15426427Y-11058816D01*
X15445475Y-11068340D01*
X15454999Y-11077864D01*
X15464522Y-11096911D01*
X15464522Y-11115959D01*
X15454999Y-11144530D01*
X15340713Y-11258816D01*
X15464522Y-11258816D01*
X15702618Y-11258816D02*
X15702618Y-11058816D01*
X15788332Y-11258816D02*
X15788332Y-11154054D01*
X15778808Y-11135007D01*
X15759760Y-11125483D01*
X15731189Y-11125483D01*
X15712141Y-11135007D01*
X15702618Y-11144530D01*
X15912141Y-11258816D02*
X15893094Y-11249292D01*
X15883570Y-11239768D01*
X15874046Y-11220721D01*
X15874046Y-11163578D01*
X15883570Y-11144530D01*
X15893094Y-11135007D01*
X15912141Y-11125483D01*
X15940713Y-11125483D01*
X15959760Y-11135007D01*
X15969284Y-11144530D01*
X15978808Y-11163578D01*
X15978808Y-11220721D01*
X15969284Y-11239768D01*
X15959760Y-11249292D01*
X15940713Y-11258816D01*
X15912141Y-11258816D01*
X16093094Y-11258816D02*
X16074046Y-11249292D01*
X16064522Y-11230245D01*
X16064522Y-11058816D01*
X16245475Y-11249292D02*
X16226427Y-11258816D01*
X16188332Y-11258816D01*
X16169284Y-11249292D01*
X16159760Y-11230245D01*
X16159760Y-11154054D01*
X16169284Y-11135007D01*
X16188332Y-11125483D01*
X16226427Y-11125483D01*
X16245475Y-11135007D01*
X16254999Y-11154054D01*
X16254999Y-11173102D01*
X16159760Y-11192149D01*
X16331189Y-11249292D02*
X16350237Y-11258816D01*
X16388332Y-11258816D01*
X16407379Y-11249292D01*
X16416903Y-11230245D01*
X16416903Y-11220721D01*
X16407379Y-11201673D01*
X16388332Y-11192149D01*
X16359760Y-11192149D01*
X16340713Y-11182626D01*
X16331189Y-11163578D01*
X16331189Y-11154054D01*
X16340713Y-11135007D01*
X16359760Y-11125483D01*
X16388332Y-11125483D01*
X16407379Y-11135007D01*
X16483570Y-11335006D02*
X16493094Y-11325483D01*
X16512141Y-11296911D01*
X16521665Y-11277864D01*
X16531189Y-11249292D01*
X16540713Y-11201673D01*
X16540713Y-11163578D01*
X16531189Y-11115959D01*
X16521665Y-11087388D01*
X16512141Y-11068340D01*
X16493094Y-11039768D01*
X16483570Y-11030245D01*
M02*
