%TF.GenerationSoftware,KiCad,Pcbnew,(6.0.1)*%
%TF.CreationDate,2023-03-07T00:34:02-05:00*%
%TF.ProjectId,PCBFiles_Node_Extra,50434246-696c-4657-935f-4e6f64655f45,rev?*%
%TF.SameCoordinates,Original*%
%TF.FileFunction,Copper,L2,Bot*%
%TF.FilePolarity,Positive*%
%FSLAX46Y46*%
G04 Gerber Fmt 4.6, Leading zero omitted, Abs format (unit mm)*
G04 Created by KiCad (PCBNEW (6.0.1)) date 2023-03-07 00:34:02*
%MOMM*%
%LPD*%
G01*
G04 APERTURE LIST*
%TA.AperFunction,ComponentPad*%
%ADD10C,4.400000*%
%TD*%
%TA.AperFunction,ComponentPad*%
%ADD11R,1.700000X1.700000*%
%TD*%
%TA.AperFunction,ComponentPad*%
%ADD12O,1.700000X1.700000*%
%TD*%
%TA.AperFunction,ViaPad*%
%ADD13C,0.800000*%
%TD*%
%TA.AperFunction,Conductor*%
%ADD14C,0.250000*%
%TD*%
G04 APERTURE END LIST*
D10*
%TO.P,H2,1*%
%TO.N,N/C*%
X131160000Y-96840000D03*
%TD*%
%TO.P,H1,1*%
%TO.N,N/C*%
X131220000Y-85720000D03*
%TD*%
D11*
%TO.P,J1,1,Pin_1*%
%TO.N,GND*%
X119295000Y-87890000D03*
D12*
%TO.P,J1,2,Pin_2*%
%TO.N,I2C1_SDA*%
X119295000Y-90430000D03*
%TO.P,J1,3,Pin_3*%
%TO.N,I2C1_SCL*%
X119295000Y-92970000D03*
%TO.P,J1,4,Pin_4*%
%TO.N,RESET*%
X119295000Y-95510000D03*
%TO.P,J1,5,Pin_5*%
%TO.N,+3V3*%
X119295000Y-98050000D03*
%TD*%
D13*
%TO.N,GND*%
X127150000Y-91230000D03*
X130180000Y-89850000D03*
X131000000Y-90960000D03*
%TO.N,RESET*%
X125390000Y-94110000D03*
X129210000Y-91440000D03*
%TD*%
D14*
%TO.N,RESET*%
X128980000Y-94110000D02*
X129210000Y-93880000D01*
X125390000Y-94110000D02*
X128980000Y-94110000D01*
X129210000Y-93880000D02*
X129210000Y-91440000D01*
%TD*%
%TA.AperFunction,Conductor*%
%TO.N,GND*%
G36*
X129424998Y-83398800D02*
G01*
X129493114Y-83418816D01*
X129539596Y-83472482D01*
X129549685Y-83542758D01*
X129520178Y-83607333D01*
X129501937Y-83624561D01*
X129436244Y-83675243D01*
X129203513Y-83904347D01*
X129201149Y-83907314D01*
X129201146Y-83907317D01*
X129067397Y-84075162D01*
X128999991Y-84159751D01*
X128828626Y-84437757D01*
X128691902Y-84734336D01*
X128591797Y-85045192D01*
X128591079Y-85048903D01*
X128591078Y-85048907D01*
X128530482Y-85362105D01*
X128530481Y-85362114D01*
X128529763Y-85365824D01*
X128506698Y-85691585D01*
X128522936Y-86017759D01*
X128578241Y-86339619D01*
X128579329Y-86343258D01*
X128579330Y-86343261D01*
X128654681Y-86595214D01*
X128671814Y-86652504D01*
X128673327Y-86655975D01*
X128673329Y-86655981D01*
X128730151Y-86786351D01*
X128802297Y-86951881D01*
X128804220Y-86955152D01*
X128804222Y-86955156D01*
X128823830Y-86988510D01*
X128967802Y-87233414D01*
X128970103Y-87236429D01*
X129163631Y-87490012D01*
X129163636Y-87490017D01*
X129165931Y-87493025D01*
X129168575Y-87495739D01*
X129303584Y-87634329D01*
X129393814Y-87726953D01*
X129466635Y-87785607D01*
X129645196Y-87929431D01*
X129645201Y-87929435D01*
X129648149Y-87931809D01*
X129925253Y-88104627D01*
X130221112Y-88242903D01*
X130531440Y-88344634D01*
X130851742Y-88408346D01*
X130855514Y-88408633D01*
X130855522Y-88408634D01*
X131173602Y-88432829D01*
X131173607Y-88432829D01*
X131177379Y-88433116D01*
X131503633Y-88418586D01*
X131563425Y-88408634D01*
X131822037Y-88365590D01*
X131822042Y-88365589D01*
X131825778Y-88364967D01*
X132139149Y-88273034D01*
X132142616Y-88271544D01*
X132142620Y-88271543D01*
X132435721Y-88145616D01*
X132435723Y-88145615D01*
X132439205Y-88144119D01*
X132721601Y-87980091D01*
X132982245Y-87783324D01*
X133141155Y-87630135D01*
X133214632Y-87559303D01*
X133214635Y-87559300D01*
X133217363Y-87556670D01*
X133353967Y-87388879D01*
X133412485Y-87348680D01*
X133483449Y-87346501D01*
X133544325Y-87383033D01*
X133575786Y-87446679D01*
X133577677Y-87467810D01*
X133601214Y-92292401D01*
X133615483Y-95217162D01*
X133595813Y-95285380D01*
X133542385Y-95332134D01*
X133472161Y-95342580D01*
X133407437Y-95313403D01*
X133390127Y-95295264D01*
X133380050Y-95282342D01*
X133218909Y-95075720D01*
X133197726Y-95048558D01*
X133197724Y-95048556D01*
X133195390Y-95045563D01*
X132965070Y-94814034D01*
X132708603Y-94611852D01*
X132429705Y-94441945D01*
X132426261Y-94440379D01*
X132426257Y-94440377D01*
X132281583Y-94374598D01*
X132132414Y-94306775D01*
X131821037Y-94208300D01*
X131531232Y-94153802D01*
X131503809Y-94148645D01*
X131503807Y-94148645D01*
X131500086Y-94147945D01*
X131174208Y-94126586D01*
X131170428Y-94126794D01*
X131170427Y-94126794D01*
X131072897Y-94132162D01*
X130848124Y-94144532D01*
X130844397Y-94145193D01*
X130844393Y-94145193D01*
X130735663Y-94164463D01*
X130526557Y-94201522D01*
X130522941Y-94202624D01*
X130522933Y-94202626D01*
X130225211Y-94293365D01*
X130214167Y-94296731D01*
X129915477Y-94428781D01*
X129890041Y-94443914D01*
X129884998Y-94446914D01*
X129816227Y-94464553D01*
X129748837Y-94442212D01*
X129704224Y-94386983D01*
X129696552Y-94316402D01*
X129718643Y-94264563D01*
X129721159Y-94261100D01*
X129726586Y-94255321D01*
X129730403Y-94248378D01*
X129730406Y-94248374D01*
X129736348Y-94237566D01*
X129747199Y-94221047D01*
X129754758Y-94211301D01*
X129759614Y-94205041D01*
X129762759Y-94197772D01*
X129762762Y-94197768D01*
X129777174Y-94164463D01*
X129782391Y-94153813D01*
X129803695Y-94115060D01*
X129808733Y-94095437D01*
X129815137Y-94076734D01*
X129820033Y-94065420D01*
X129820033Y-94065419D01*
X129823181Y-94058145D01*
X129824420Y-94050322D01*
X129824423Y-94050312D01*
X129830099Y-94014476D01*
X129832505Y-94002856D01*
X129841528Y-93967711D01*
X129841528Y-93967710D01*
X129843500Y-93960030D01*
X129843500Y-93939776D01*
X129845051Y-93920065D01*
X129846980Y-93907886D01*
X129848220Y-93900057D01*
X129844059Y-93856038D01*
X129843500Y-93844181D01*
X129843500Y-92142524D01*
X129863502Y-92074403D01*
X129875858Y-92058221D01*
X129949040Y-91976944D01*
X130044527Y-91811556D01*
X130103542Y-91629928D01*
X130106594Y-91600896D01*
X130122814Y-91446565D01*
X130123504Y-91440000D01*
X130103542Y-91250072D01*
X130044527Y-91068444D01*
X129949040Y-90903056D01*
X129821253Y-90761134D01*
X129666752Y-90648882D01*
X129660724Y-90646198D01*
X129660722Y-90646197D01*
X129498319Y-90573891D01*
X129498318Y-90573891D01*
X129492288Y-90571206D01*
X129372749Y-90545797D01*
X129311944Y-90532872D01*
X129311939Y-90532872D01*
X129305487Y-90531500D01*
X129114513Y-90531500D01*
X129108061Y-90532872D01*
X129108056Y-90532872D01*
X129047251Y-90545797D01*
X128927712Y-90571206D01*
X128921682Y-90573891D01*
X128921681Y-90573891D01*
X128759278Y-90646197D01*
X128759276Y-90646198D01*
X128753248Y-90648882D01*
X128598747Y-90761134D01*
X128470960Y-90903056D01*
X128375473Y-91068444D01*
X128316458Y-91250072D01*
X128296496Y-91440000D01*
X128297186Y-91446565D01*
X128313407Y-91600896D01*
X128316458Y-91629928D01*
X128375473Y-91811556D01*
X128470960Y-91976944D01*
X128544137Y-92058215D01*
X128574853Y-92122221D01*
X128576500Y-92142524D01*
X128576500Y-93350500D01*
X128556498Y-93418621D01*
X128502842Y-93465114D01*
X128450500Y-93476500D01*
X126098200Y-93476500D01*
X126030079Y-93456498D01*
X126010853Y-93440157D01*
X126010580Y-93440460D01*
X126005668Y-93436037D01*
X126001253Y-93431134D01*
X125846752Y-93318882D01*
X125840724Y-93316198D01*
X125840722Y-93316197D01*
X125678319Y-93243891D01*
X125678318Y-93243891D01*
X125672288Y-93241206D01*
X125578887Y-93221353D01*
X125491944Y-93202872D01*
X125491939Y-93202872D01*
X125485487Y-93201500D01*
X125294513Y-93201500D01*
X125288061Y-93202872D01*
X125288056Y-93202872D01*
X125201113Y-93221353D01*
X125107712Y-93241206D01*
X125101682Y-93243891D01*
X125101681Y-93243891D01*
X124939278Y-93316197D01*
X124939276Y-93316198D01*
X124933248Y-93318882D01*
X124778747Y-93431134D01*
X124774326Y-93436044D01*
X124774325Y-93436045D01*
X124737942Y-93476453D01*
X124650960Y-93573056D01*
X124555473Y-93738444D01*
X124496458Y-93920072D01*
X124495768Y-93926633D01*
X124495768Y-93926635D01*
X124477186Y-94103435D01*
X124476496Y-94110000D01*
X124477186Y-94116565D01*
X124491040Y-94248374D01*
X124496458Y-94299928D01*
X124555473Y-94481556D01*
X124558776Y-94487278D01*
X124558777Y-94487279D01*
X124587384Y-94536828D01*
X124650960Y-94646944D01*
X124655378Y-94651851D01*
X124655379Y-94651852D01*
X124737452Y-94743003D01*
X124778747Y-94788866D01*
X124933248Y-94901118D01*
X124939276Y-94903802D01*
X124939278Y-94903803D01*
X124988878Y-94925886D01*
X125107712Y-94978794D01*
X125201113Y-94998647D01*
X125288056Y-95017128D01*
X125288061Y-95017128D01*
X125294513Y-95018500D01*
X125485487Y-95018500D01*
X125491939Y-95017128D01*
X125491944Y-95017128D01*
X125578888Y-94998647D01*
X125672288Y-94978794D01*
X125791122Y-94925886D01*
X125840722Y-94903803D01*
X125840724Y-94903802D01*
X125846752Y-94901118D01*
X125941333Y-94832401D01*
X125992476Y-94795243D01*
X126001253Y-94788866D01*
X126005668Y-94783963D01*
X126010580Y-94779540D01*
X126011705Y-94780789D01*
X126065014Y-94747949D01*
X126098200Y-94743500D01*
X128901233Y-94743500D01*
X128912416Y-94744027D01*
X128919909Y-94745702D01*
X128927835Y-94745453D01*
X128927836Y-94745453D01*
X128987986Y-94743562D01*
X128991945Y-94743500D01*
X129019856Y-94743500D01*
X129023791Y-94743003D01*
X129023856Y-94742995D01*
X129035693Y-94742062D01*
X129067951Y-94741048D01*
X129071970Y-94740922D01*
X129079889Y-94740673D01*
X129099343Y-94735021D01*
X129118698Y-94731013D01*
X129119166Y-94730954D01*
X129189257Y-94742260D01*
X129242108Y-94789665D01*
X129260941Y-94858118D01*
X129239775Y-94925886D01*
X129223352Y-94945752D01*
X129146221Y-95021681D01*
X129143513Y-95024347D01*
X129141149Y-95027314D01*
X129141146Y-95027317D01*
X128989866Y-95217162D01*
X128939991Y-95279751D01*
X128768626Y-95557757D01*
X128631902Y-95854336D01*
X128531797Y-96165192D01*
X128531079Y-96168903D01*
X128531078Y-96168907D01*
X128470482Y-96482105D01*
X128470481Y-96482114D01*
X128469763Y-96485824D01*
X128469496Y-96489600D01*
X128469495Y-96489605D01*
X128447048Y-96806638D01*
X128446698Y-96811585D01*
X128450603Y-96890027D01*
X128458560Y-97049848D01*
X128462936Y-97137759D01*
X128463577Y-97141490D01*
X128463578Y-97141498D01*
X128503990Y-97376680D01*
X128518241Y-97459619D01*
X128519329Y-97463258D01*
X128519330Y-97463261D01*
X128563425Y-97610702D01*
X128611814Y-97772504D01*
X128613327Y-97775975D01*
X128613329Y-97775981D01*
X128691391Y-97955083D01*
X128742297Y-98071881D01*
X128744220Y-98075152D01*
X128744222Y-98075156D01*
X128786584Y-98147215D01*
X128907802Y-98353414D01*
X128910103Y-98356429D01*
X129103631Y-98610012D01*
X129103636Y-98610017D01*
X129105931Y-98613025D01*
X129167931Y-98676670D01*
X129236871Y-98747438D01*
X129333814Y-98846953D01*
X129441251Y-98933489D01*
X129585196Y-99049431D01*
X129585201Y-99049435D01*
X129588149Y-99051809D01*
X129842317Y-99210323D01*
X129845606Y-99212374D01*
X129892822Y-99265394D01*
X129903878Y-99335524D01*
X129875264Y-99400499D01*
X129816064Y-99439689D01*
X129778929Y-99445286D01*
X120071988Y-99445319D01*
X120003868Y-99425317D01*
X119957375Y-99371662D01*
X119947270Y-99301388D01*
X119976763Y-99236807D01*
X119998818Y-99216742D01*
X120174860Y-99091173D01*
X120333096Y-98933489D01*
X120392594Y-98850689D01*
X120460435Y-98756277D01*
X120463453Y-98752077D01*
X120532177Y-98613025D01*
X120560136Y-98556453D01*
X120560137Y-98556451D01*
X120562430Y-98551811D01*
X120608992Y-98398558D01*
X120625865Y-98343023D01*
X120625865Y-98343021D01*
X120627370Y-98338069D01*
X120656529Y-98116590D01*
X120656611Y-98113240D01*
X120658074Y-98053365D01*
X120658074Y-98053361D01*
X120658156Y-98050000D01*
X120639852Y-97827361D01*
X120585431Y-97610702D01*
X120496354Y-97405840D01*
X120375014Y-97218277D01*
X120224670Y-97053051D01*
X120220619Y-97049852D01*
X120220615Y-97049848D01*
X120053414Y-96917800D01*
X120053410Y-96917798D01*
X120049359Y-96914598D01*
X120008053Y-96891796D01*
X119958084Y-96841364D01*
X119943312Y-96771921D01*
X119968428Y-96705516D01*
X119995780Y-96678909D01*
X120039603Y-96647650D01*
X120174860Y-96551173D01*
X120333096Y-96393489D01*
X120392594Y-96310689D01*
X120460435Y-96216277D01*
X120463453Y-96212077D01*
X120562430Y-96011811D01*
X120594900Y-95904940D01*
X120625865Y-95803023D01*
X120625865Y-95803021D01*
X120627370Y-95798069D01*
X120656529Y-95576590D01*
X120657068Y-95554528D01*
X120658074Y-95513365D01*
X120658074Y-95513361D01*
X120658156Y-95510000D01*
X120639852Y-95287361D01*
X120585431Y-95070702D01*
X120496354Y-94865840D01*
X120416882Y-94742995D01*
X120377822Y-94682617D01*
X120377820Y-94682614D01*
X120375014Y-94678277D01*
X120224670Y-94513051D01*
X120220619Y-94509852D01*
X120220615Y-94509848D01*
X120053414Y-94377800D01*
X120053410Y-94377798D01*
X120049359Y-94374598D01*
X120008053Y-94351796D01*
X119958084Y-94301364D01*
X119943312Y-94231921D01*
X119968428Y-94165516D01*
X119995780Y-94138909D01*
X120056724Y-94095438D01*
X120174860Y-94011173D01*
X120333096Y-93853489D01*
X120339785Y-93844181D01*
X120460435Y-93676277D01*
X120463453Y-93672077D01*
X120562430Y-93471811D01*
X120627370Y-93258069D01*
X120656529Y-93036590D01*
X120658156Y-92970000D01*
X120639852Y-92747361D01*
X120585431Y-92530702D01*
X120496354Y-92325840D01*
X120375014Y-92138277D01*
X120224670Y-91973051D01*
X120220619Y-91969852D01*
X120220615Y-91969848D01*
X120053414Y-91837800D01*
X120053410Y-91837798D01*
X120049359Y-91834598D01*
X120008053Y-91811796D01*
X119958084Y-91761364D01*
X119943312Y-91691921D01*
X119968428Y-91625516D01*
X119995780Y-91598909D01*
X120039603Y-91567650D01*
X120174860Y-91471173D01*
X120333096Y-91313489D01*
X120378666Y-91250072D01*
X120460435Y-91136277D01*
X120463453Y-91132077D01*
X120562430Y-90931811D01*
X120627370Y-90718069D01*
X120656529Y-90496590D01*
X120658156Y-90430000D01*
X120639852Y-90207361D01*
X120585431Y-89990702D01*
X120496354Y-89785840D01*
X120375014Y-89598277D01*
X120371540Y-89594459D01*
X120371533Y-89594450D01*
X120227435Y-89436088D01*
X120196383Y-89372242D01*
X120204779Y-89301744D01*
X120249956Y-89246976D01*
X120276400Y-89233307D01*
X120383052Y-89193325D01*
X120398649Y-89184786D01*
X120500724Y-89108285D01*
X120513285Y-89095724D01*
X120589786Y-88993649D01*
X120598324Y-88978054D01*
X120643478Y-88857606D01*
X120647105Y-88842351D01*
X120652631Y-88791486D01*
X120653000Y-88784672D01*
X120653000Y-88162115D01*
X120648525Y-88146876D01*
X120647135Y-88145671D01*
X120639452Y-88144000D01*
X119167000Y-88144000D01*
X119098879Y-88123998D01*
X119052386Y-88070342D01*
X119041000Y-88018000D01*
X119041000Y-87617885D01*
X119549000Y-87617885D01*
X119553475Y-87633124D01*
X119554865Y-87634329D01*
X119562548Y-87636000D01*
X120634884Y-87636000D01*
X120650123Y-87631525D01*
X120651328Y-87630135D01*
X120652999Y-87622452D01*
X120652999Y-86995331D01*
X120652629Y-86988510D01*
X120647105Y-86937648D01*
X120643479Y-86922396D01*
X120598324Y-86801946D01*
X120589786Y-86786351D01*
X120513285Y-86684276D01*
X120500724Y-86671715D01*
X120398649Y-86595214D01*
X120383054Y-86586676D01*
X120262606Y-86541522D01*
X120247351Y-86537895D01*
X120196486Y-86532369D01*
X120189672Y-86532000D01*
X119567115Y-86532000D01*
X119551876Y-86536475D01*
X119550671Y-86537865D01*
X119549000Y-86545548D01*
X119549000Y-87617885D01*
X119041000Y-87617885D01*
X119041000Y-86550116D01*
X119036525Y-86534877D01*
X119035135Y-86533672D01*
X119027452Y-86532001D01*
X118400331Y-86532001D01*
X118393510Y-86532371D01*
X118342648Y-86537895D01*
X118327396Y-86541521D01*
X118206946Y-86586676D01*
X118191351Y-86595214D01*
X118089276Y-86671715D01*
X118076715Y-86684276D01*
X118000214Y-86786351D01*
X117991676Y-86801946D01*
X117953907Y-86902694D01*
X117911265Y-86959458D01*
X117844704Y-86984158D01*
X117775355Y-86968950D01*
X117725237Y-86918664D01*
X117709926Y-86858107D01*
X117710419Y-86684276D01*
X117715932Y-84737941D01*
X117719151Y-83601831D01*
X117720376Y-83584654D01*
X117723250Y-83564199D01*
X117724500Y-83555305D01*
X117723204Y-83546421D01*
X117723186Y-83539588D01*
X117725297Y-83516291D01*
X117725401Y-83515730D01*
X117743809Y-83469779D01*
X117748542Y-83462535D01*
X117783253Y-83427205D01*
X117786732Y-83424843D01*
X117790413Y-83422344D01*
X117836100Y-83403115D01*
X117837572Y-83402816D01*
X117858271Y-83400834D01*
X117863051Y-83401564D01*
X117883746Y-83398800D01*
X117893616Y-83397482D01*
X117910323Y-83396373D01*
X129424998Y-83398800D01*
G37*
%TD.AperFunction*%
%TD*%
M02*
