%TF.GenerationSoftware,KiCad,Pcbnew,(6.0.1)*%
%TF.CreationDate,2023-03-07T00:34:02-05:00*%
%TF.ProjectId,PCBFiles_Node_Extra,50434246-696c-4657-935f-4e6f64655f45,rev?*%
%TF.SameCoordinates,Original*%
%TF.FileFunction,Copper,L1,Top*%
%TF.FilePolarity,Positive*%
%FSLAX46Y46*%
G04 Gerber Fmt 4.6, Leading zero omitted, Abs format (unit mm)*
G04 Created by KiCad (PCBNEW (6.0.1)) date 2023-03-07 00:34:02*
%MOMM*%
%LPD*%
G01*
G04 APERTURE LIST*
G04 Aperture macros list*
%AMRoundRect*
0 Rectangle with rounded corners*
0 $1 Rounding radius*
0 $2 $3 $4 $5 $6 $7 $8 $9 X,Y pos of 4 corners*
0 Add a 4 corners polygon primitive as box body*
4,1,4,$2,$3,$4,$5,$6,$7,$8,$9,$2,$3,0*
0 Add four circle primitives for the rounded corners*
1,1,$1+$1,$2,$3*
1,1,$1+$1,$4,$5*
1,1,$1+$1,$6,$7*
1,1,$1+$1,$8,$9*
0 Add four rect primitives between the rounded corners*
20,1,$1+$1,$2,$3,$4,$5,0*
20,1,$1+$1,$4,$5,$6,$7,0*
20,1,$1+$1,$6,$7,$8,$9,0*
20,1,$1+$1,$8,$9,$2,$3,0*%
%AMFreePoly0*
4,1,6,0.500000,-0.850000,-0.500000,-0.850000,-0.500000,0.550000,-0.200000,0.850000,0.500000,0.850000,0.500000,-0.850000,0.500000,-0.850000,$1*%
G04 Aperture macros list end*
%TA.AperFunction,ComponentPad*%
%ADD10C,4.400000*%
%TD*%
%TA.AperFunction,SMDPad,CuDef*%
%ADD11RoundRect,0.140000X0.170000X-0.140000X0.170000X0.140000X-0.170000X0.140000X-0.170000X-0.140000X0*%
%TD*%
%TA.AperFunction,SMDPad,CuDef*%
%ADD12R,0.550000X0.250000*%
%TD*%
%TA.AperFunction,SMDPad,CuDef*%
%ADD13FreePoly0,0.000000*%
%TD*%
%TA.AperFunction,ComponentPad*%
%ADD14R,1.700000X1.700000*%
%TD*%
%TA.AperFunction,ComponentPad*%
%ADD15O,1.700000X1.700000*%
%TD*%
%TA.AperFunction,ViaPad*%
%ADD16C,0.800000*%
%TD*%
%TA.AperFunction,Conductor*%
%ADD17C,0.250000*%
%TD*%
G04 APERTURE END LIST*
D10*
%TO.P,H2,1*%
%TO.N,N/C*%
X131160000Y-96840000D03*
%TD*%
D11*
%TO.P,C1,1*%
%TO.N,+3V3*%
X130180000Y-91930000D03*
%TO.P,C1,2*%
%TO.N,GND*%
X130180000Y-90970000D03*
%TD*%
D10*
%TO.P,H1,1*%
%TO.N,N/C*%
X131220000Y-85720000D03*
%TD*%
D12*
%TO.P,U1,1,SDA*%
%TO.N,I2C1_SDA*%
X125975000Y-90440000D03*
%TO.P,U1,2,ADDR*%
%TO.N,GND*%
X125975000Y-90940000D03*
%TO.P,U1,3,ALERT*%
%TO.N,unconnected-(U1-Pad3)*%
X125975000Y-91440000D03*
%TO.P,U1,4,SCL*%
%TO.N,I2C1_SCL*%
X125975000Y-91940000D03*
%TO.P,U1,5,VDD*%
%TO.N,+3V3*%
X128325000Y-91940000D03*
%TO.P,U1,6,~{RESET}*%
%TO.N,RESET*%
X128325000Y-91440000D03*
%TO.P,U1,7,R*%
%TO.N,GND*%
X128325000Y-90940000D03*
%TO.P,U1,8,VSS*%
X128325000Y-90440000D03*
D13*
%TO.P,U1,9,VSS*%
X127150000Y-91190000D03*
%TD*%
D14*
%TO.P,J1,1,Pin_1*%
%TO.N,GND*%
X119295000Y-87890000D03*
D15*
%TO.P,J1,2,Pin_2*%
%TO.N,I2C1_SDA*%
X119295000Y-90430000D03*
%TO.P,J1,3,Pin_3*%
%TO.N,I2C1_SCL*%
X119295000Y-92970000D03*
%TO.P,J1,4,Pin_4*%
%TO.N,RESET*%
X119295000Y-95510000D03*
%TO.P,J1,5,Pin_5*%
%TO.N,+3V3*%
X119295000Y-98050000D03*
%TD*%
D16*
%TO.N,GND*%
X127150000Y-91230000D03*
X130180000Y-89850000D03*
X131000000Y-90960000D03*
%TO.N,RESET*%
X125390000Y-94110000D03*
X129210000Y-91440000D03*
%TD*%
D17*
%TO.N,+3V3*%
X128845000Y-92460000D02*
X128325000Y-91940000D01*
X128325000Y-93715000D02*
X128325000Y-91940000D01*
X123990000Y-98050000D02*
X128325000Y-93715000D01*
X129650000Y-92460000D02*
X128845000Y-92460000D01*
X119295000Y-98050000D02*
X123990000Y-98050000D01*
X130180000Y-91930000D02*
X129650000Y-92460000D01*
%TO.N,GND*%
X125975000Y-90940000D02*
X126900000Y-90940000D01*
X128325000Y-90440000D02*
X128325000Y-90940000D01*
X129870000Y-90970000D02*
X130180000Y-90970000D01*
X126900000Y-90940000D02*
X127150000Y-91190000D01*
X129340000Y-90440000D02*
X129870000Y-90970000D01*
X128325000Y-90440000D02*
X129340000Y-90440000D01*
X128325000Y-90940000D02*
X127400000Y-90940000D01*
X127400000Y-90940000D02*
X127150000Y-91190000D01*
%TO.N,I2C1_SDA*%
X125965000Y-90430000D02*
X125975000Y-90440000D01*
X119295000Y-90430000D02*
X125965000Y-90430000D01*
%TO.N,I2C1_SCL*%
X123800000Y-92970000D02*
X124830000Y-91940000D01*
X119295000Y-92970000D02*
X123800000Y-92970000D01*
X124830000Y-91940000D02*
X125975000Y-91940000D01*
%TO.N,RESET*%
X129210000Y-91440000D02*
X128325000Y-91440000D01*
X119295000Y-95510000D02*
X123990000Y-95510000D01*
X123990000Y-95510000D02*
X125390000Y-94110000D01*
%TD*%
%TA.AperFunction,Conductor*%
%TO.N,GND*%
G36*
X129424998Y-83398800D02*
G01*
X129493114Y-83418816D01*
X129539596Y-83472482D01*
X129549685Y-83542758D01*
X129520178Y-83607333D01*
X129501937Y-83624561D01*
X129436244Y-83675243D01*
X129203513Y-83904347D01*
X129201149Y-83907314D01*
X129201146Y-83907317D01*
X129067397Y-84075162D01*
X128999991Y-84159751D01*
X128828626Y-84437757D01*
X128691902Y-84734336D01*
X128591797Y-85045192D01*
X128591079Y-85048903D01*
X128591078Y-85048907D01*
X128530482Y-85362105D01*
X128530481Y-85362114D01*
X128529763Y-85365824D01*
X128506698Y-85691585D01*
X128522936Y-86017759D01*
X128578241Y-86339619D01*
X128579329Y-86343258D01*
X128579330Y-86343261D01*
X128654681Y-86595214D01*
X128671814Y-86652504D01*
X128673327Y-86655975D01*
X128673329Y-86655981D01*
X128730151Y-86786351D01*
X128802297Y-86951881D01*
X128804220Y-86955152D01*
X128804222Y-86955156D01*
X128823830Y-86988510D01*
X128967802Y-87233414D01*
X128970103Y-87236429D01*
X129163631Y-87490012D01*
X129163636Y-87490017D01*
X129165931Y-87493025D01*
X129168575Y-87495739D01*
X129303584Y-87634329D01*
X129393814Y-87726953D01*
X129466635Y-87785607D01*
X129645196Y-87929431D01*
X129645201Y-87929435D01*
X129648149Y-87931809D01*
X129925253Y-88104627D01*
X130221112Y-88242903D01*
X130531440Y-88344634D01*
X130851742Y-88408346D01*
X130855514Y-88408633D01*
X130855522Y-88408634D01*
X131173602Y-88432829D01*
X131173607Y-88432829D01*
X131177379Y-88433116D01*
X131503633Y-88418586D01*
X131563425Y-88408634D01*
X131822037Y-88365590D01*
X131822042Y-88365589D01*
X131825778Y-88364967D01*
X132139149Y-88273034D01*
X132142616Y-88271544D01*
X132142620Y-88271543D01*
X132435721Y-88145616D01*
X132435723Y-88145615D01*
X132439205Y-88144119D01*
X132721601Y-87980091D01*
X132982245Y-87783324D01*
X133141155Y-87630135D01*
X133214632Y-87559303D01*
X133214635Y-87559300D01*
X133217363Y-87556670D01*
X133353967Y-87388879D01*
X133412485Y-87348680D01*
X133483449Y-87346501D01*
X133544325Y-87383033D01*
X133575786Y-87446679D01*
X133577677Y-87467810D01*
X133600597Y-92165844D01*
X133615483Y-95217162D01*
X133595813Y-95285380D01*
X133542385Y-95332134D01*
X133472161Y-95342580D01*
X133407437Y-95313403D01*
X133390127Y-95295264D01*
X133197726Y-95048558D01*
X133197724Y-95048556D01*
X133195390Y-95045563D01*
X132965070Y-94814034D01*
X132708603Y-94611852D01*
X132429705Y-94441945D01*
X132426261Y-94440379D01*
X132426257Y-94440377D01*
X132281583Y-94374598D01*
X132132414Y-94306775D01*
X131821037Y-94208300D01*
X131550094Y-94157349D01*
X131503809Y-94148645D01*
X131503807Y-94148645D01*
X131500086Y-94147945D01*
X131174208Y-94126586D01*
X131170428Y-94126794D01*
X131170427Y-94126794D01*
X131083447Y-94131581D01*
X130848124Y-94144532D01*
X130844397Y-94145193D01*
X130844393Y-94145193D01*
X130729721Y-94165516D01*
X130526557Y-94201522D01*
X130522941Y-94202624D01*
X130522933Y-94202626D01*
X130225211Y-94293365D01*
X130214167Y-94296731D01*
X129915477Y-94428781D01*
X129890041Y-94443914D01*
X129638074Y-94593817D01*
X129638068Y-94593821D01*
X129634814Y-94595757D01*
X129631812Y-94598073D01*
X129384510Y-94788866D01*
X129376244Y-94795243D01*
X129373534Y-94797911D01*
X129149453Y-95018500D01*
X129143513Y-95024347D01*
X129141149Y-95027314D01*
X129141146Y-95027317D01*
X129124220Y-95048558D01*
X128939991Y-95279751D01*
X128768626Y-95557757D01*
X128631902Y-95854336D01*
X128531797Y-96165192D01*
X128531079Y-96168903D01*
X128531078Y-96168907D01*
X128470482Y-96482105D01*
X128470481Y-96482114D01*
X128469763Y-96485824D01*
X128469496Y-96489600D01*
X128469495Y-96489605D01*
X128447048Y-96806638D01*
X128446698Y-96811585D01*
X128450603Y-96890027D01*
X128458560Y-97049848D01*
X128462936Y-97137759D01*
X128463577Y-97141490D01*
X128463578Y-97141498D01*
X128510832Y-97416500D01*
X128518241Y-97459619D01*
X128611814Y-97772504D01*
X128742297Y-98071881D01*
X128907802Y-98353414D01*
X128910103Y-98356429D01*
X129103631Y-98610012D01*
X129103636Y-98610017D01*
X129105931Y-98613025D01*
X129333814Y-98846953D01*
X129441251Y-98933489D01*
X129585196Y-99049431D01*
X129585201Y-99049435D01*
X129588149Y-99051809D01*
X129842317Y-99210323D01*
X129845606Y-99212374D01*
X129892822Y-99265394D01*
X129903878Y-99335524D01*
X129875264Y-99400499D01*
X129816064Y-99439689D01*
X129778929Y-99445286D01*
X120071988Y-99445319D01*
X120003868Y-99425317D01*
X119957375Y-99371662D01*
X119947270Y-99301388D01*
X119976763Y-99236807D01*
X119998818Y-99216742D01*
X120174860Y-99091173D01*
X120333096Y-98933489D01*
X120392594Y-98850689D01*
X120460435Y-98756277D01*
X120463453Y-98752077D01*
X120465746Y-98747437D01*
X120467446Y-98744608D01*
X120519674Y-98696518D01*
X120575451Y-98683500D01*
X123911233Y-98683500D01*
X123922416Y-98684027D01*
X123929909Y-98685702D01*
X123937835Y-98685453D01*
X123937836Y-98685453D01*
X123997986Y-98683562D01*
X124001945Y-98683500D01*
X124029856Y-98683500D01*
X124033791Y-98683003D01*
X124033856Y-98682995D01*
X124045693Y-98682062D01*
X124077951Y-98681048D01*
X124081970Y-98680922D01*
X124089889Y-98680673D01*
X124109343Y-98675021D01*
X124128700Y-98671013D01*
X124140930Y-98669468D01*
X124140931Y-98669468D01*
X124148797Y-98668474D01*
X124156168Y-98665555D01*
X124156170Y-98665555D01*
X124189912Y-98652196D01*
X124201142Y-98648351D01*
X124235983Y-98638229D01*
X124235984Y-98638229D01*
X124243593Y-98636018D01*
X124250412Y-98631985D01*
X124250417Y-98631983D01*
X124261028Y-98625707D01*
X124278776Y-98617012D01*
X124297617Y-98609552D01*
X124333387Y-98583564D01*
X124343307Y-98577048D01*
X124374535Y-98558580D01*
X124374538Y-98558578D01*
X124381362Y-98554542D01*
X124395683Y-98540221D01*
X124410717Y-98527380D01*
X124420694Y-98520131D01*
X124427107Y-98515472D01*
X124455298Y-98481395D01*
X124463288Y-98472616D01*
X128717253Y-94218652D01*
X128725539Y-94211112D01*
X128732018Y-94207000D01*
X128778644Y-94157348D01*
X128781398Y-94154507D01*
X128801135Y-94134770D01*
X128803615Y-94131573D01*
X128811320Y-94122551D01*
X128836159Y-94096100D01*
X128841586Y-94090321D01*
X128845405Y-94083375D01*
X128845407Y-94083372D01*
X128851348Y-94072566D01*
X128862199Y-94056047D01*
X128869758Y-94046301D01*
X128874614Y-94040041D01*
X128877759Y-94032772D01*
X128877762Y-94032768D01*
X128892174Y-93999463D01*
X128897391Y-93988813D01*
X128918695Y-93950060D01*
X128923733Y-93930437D01*
X128930137Y-93911734D01*
X128935033Y-93900420D01*
X128935033Y-93900419D01*
X128938181Y-93893145D01*
X128939420Y-93885322D01*
X128939423Y-93885312D01*
X128945099Y-93849476D01*
X128947505Y-93837856D01*
X128956528Y-93802711D01*
X128956528Y-93802710D01*
X128958500Y-93795030D01*
X128958500Y-93774776D01*
X128960051Y-93755065D01*
X128961980Y-93742886D01*
X128963220Y-93735057D01*
X128959059Y-93691038D01*
X128958500Y-93679181D01*
X128958500Y-93219500D01*
X128978502Y-93151379D01*
X129032158Y-93104886D01*
X129084500Y-93093500D01*
X129571233Y-93093500D01*
X129582416Y-93094027D01*
X129589909Y-93095702D01*
X129597835Y-93095453D01*
X129597836Y-93095453D01*
X129657986Y-93093562D01*
X129661945Y-93093500D01*
X129689856Y-93093500D01*
X129693791Y-93093003D01*
X129693856Y-93092995D01*
X129705693Y-93092062D01*
X129737951Y-93091048D01*
X129741970Y-93090922D01*
X129749889Y-93090673D01*
X129769343Y-93085021D01*
X129788700Y-93081013D01*
X129800930Y-93079468D01*
X129800931Y-93079468D01*
X129808797Y-93078474D01*
X129816168Y-93075555D01*
X129816170Y-93075555D01*
X129849912Y-93062196D01*
X129861142Y-93058351D01*
X129895983Y-93048229D01*
X129895984Y-93048229D01*
X129903593Y-93046018D01*
X129910412Y-93041985D01*
X129910417Y-93041983D01*
X129921028Y-93035707D01*
X129938776Y-93027012D01*
X129957617Y-93019552D01*
X129993387Y-92993564D01*
X130003307Y-92987048D01*
X130034535Y-92968580D01*
X130034538Y-92968578D01*
X130041362Y-92964542D01*
X130055683Y-92950221D01*
X130070717Y-92937380D01*
X130071660Y-92936695D01*
X130087107Y-92925472D01*
X130115298Y-92891395D01*
X130123288Y-92882616D01*
X130250499Y-92755405D01*
X130312811Y-92721379D01*
X130339594Y-92718500D01*
X130415484Y-92718500D01*
X130417932Y-92718307D01*
X130417940Y-92718307D01*
X130445844Y-92716111D01*
X130445849Y-92716110D01*
X130452254Y-92715606D01*
X130551005Y-92686916D01*
X130601984Y-92672106D01*
X130601986Y-92672105D01*
X130609597Y-92669894D01*
X130681473Y-92627387D01*
X130743808Y-92590522D01*
X130750629Y-92586488D01*
X130866488Y-92470629D01*
X130949894Y-92329597D01*
X130995606Y-92172254D01*
X130998500Y-92135484D01*
X130998500Y-91724516D01*
X130996712Y-91701797D01*
X130996111Y-91694156D01*
X130996110Y-91694151D01*
X130995606Y-91687746D01*
X130949894Y-91530403D01*
X130939985Y-91513647D01*
X130922526Y-91444830D01*
X130939984Y-91385372D01*
X130945395Y-91376222D01*
X130951643Y-91361784D01*
X130986619Y-91241395D01*
X130986579Y-91227295D01*
X130979309Y-91224000D01*
X130701379Y-91224000D01*
X130637240Y-91206454D01*
X130616420Y-91194141D01*
X130616419Y-91194141D01*
X130609597Y-91190106D01*
X130601986Y-91187895D01*
X130601984Y-91187894D01*
X130551005Y-91173084D01*
X130452254Y-91144394D01*
X130445849Y-91143890D01*
X130445844Y-91143889D01*
X130417940Y-91141693D01*
X130417932Y-91141693D01*
X130415484Y-91141500D01*
X130158123Y-91141500D01*
X130090002Y-91121498D01*
X130044561Y-91068548D01*
X130044527Y-91068444D01*
X129949040Y-90903056D01*
X129949124Y-90903007D01*
X129926206Y-90838773D01*
X129926000Y-90831579D01*
X129926000Y-90697885D01*
X130434000Y-90697885D01*
X130438475Y-90713124D01*
X130439865Y-90714329D01*
X130447548Y-90716000D01*
X130973558Y-90716000D01*
X130987089Y-90712027D01*
X130988224Y-90704129D01*
X130951643Y-90578216D01*
X130945396Y-90563780D01*
X130870124Y-90436501D01*
X130860484Y-90424074D01*
X130755926Y-90319516D01*
X130743499Y-90309876D01*
X130616220Y-90234604D01*
X130601784Y-90228357D01*
X130458359Y-90186688D01*
X130450391Y-90185232D01*
X130436969Y-90188052D01*
X130434000Y-90199513D01*
X130434000Y-90697885D01*
X129926000Y-90697885D01*
X129926000Y-90201576D01*
X129921656Y-90186781D01*
X129911225Y-90184937D01*
X129901641Y-90186688D01*
X129758216Y-90228357D01*
X129743780Y-90234604D01*
X129616501Y-90309876D01*
X129604074Y-90319516D01*
X129499516Y-90424074D01*
X129489874Y-90436503D01*
X129465467Y-90477775D01*
X129413575Y-90526228D01*
X129343725Y-90538934D01*
X129330815Y-90536883D01*
X129311951Y-90532873D01*
X129311942Y-90532872D01*
X129305487Y-90531500D01*
X129234000Y-90531500D01*
X129165879Y-90511498D01*
X129119386Y-90457842D01*
X129108000Y-90405501D01*
X129107999Y-90270332D01*
X129107629Y-90263510D01*
X129102105Y-90212648D01*
X129098479Y-90197396D01*
X129053324Y-90076946D01*
X129044786Y-90061351D01*
X128968285Y-89959276D01*
X128955724Y-89946715D01*
X128853649Y-89870214D01*
X128838054Y-89861676D01*
X128717606Y-89816522D01*
X128702351Y-89812895D01*
X128651486Y-89807369D01*
X128644672Y-89807000D01*
X128005331Y-89807001D01*
X127998510Y-89807371D01*
X127947648Y-89812895D01*
X127932396Y-89816521D01*
X127863596Y-89842313D01*
X127795248Y-89847316D01*
X127794734Y-89847081D01*
X127786503Y-89845898D01*
X127786501Y-89845897D01*
X127725796Y-89837169D01*
X127650000Y-89826271D01*
X126950000Y-89826271D01*
X126946653Y-89826631D01*
X126946650Y-89826631D01*
X126906436Y-89830954D01*
X126840799Y-89838011D01*
X126703796Y-89889111D01*
X126696584Y-89894510D01*
X126696582Y-89894511D01*
X126692249Y-89897755D01*
X126625729Y-89922566D01*
X126556355Y-89907475D01*
X126541176Y-89897714D01*
X126503891Y-89869770D01*
X126503888Y-89869768D01*
X126496705Y-89864385D01*
X126360316Y-89813255D01*
X126298134Y-89806500D01*
X126099893Y-89806500D01*
X126068558Y-89802541D01*
X126067290Y-89802215D01*
X126045030Y-89796500D01*
X126024776Y-89796500D01*
X126005065Y-89794949D01*
X125992886Y-89793020D01*
X125985057Y-89791780D01*
X125977165Y-89792526D01*
X125941039Y-89795941D01*
X125929181Y-89796500D01*
X120571805Y-89796500D01*
X120503684Y-89776498D01*
X120466013Y-89738940D01*
X120377822Y-89602617D01*
X120377820Y-89602614D01*
X120375014Y-89598277D01*
X120371540Y-89594459D01*
X120371533Y-89594450D01*
X120227435Y-89436088D01*
X120196383Y-89372242D01*
X120204779Y-89301744D01*
X120249956Y-89246976D01*
X120276400Y-89233307D01*
X120383052Y-89193325D01*
X120398649Y-89184786D01*
X120500724Y-89108285D01*
X120513285Y-89095724D01*
X120589786Y-88993649D01*
X120598324Y-88978054D01*
X120643478Y-88857606D01*
X120647105Y-88842351D01*
X120652631Y-88791486D01*
X120653000Y-88784672D01*
X120653000Y-88162115D01*
X120648525Y-88146876D01*
X120647135Y-88145671D01*
X120639452Y-88144000D01*
X119167000Y-88144000D01*
X119098879Y-88123998D01*
X119052386Y-88070342D01*
X119041000Y-88018000D01*
X119041000Y-87617885D01*
X119549000Y-87617885D01*
X119553475Y-87633124D01*
X119554865Y-87634329D01*
X119562548Y-87636000D01*
X120634884Y-87636000D01*
X120650123Y-87631525D01*
X120651328Y-87630135D01*
X120652999Y-87622452D01*
X120652999Y-86995331D01*
X120652629Y-86988510D01*
X120647105Y-86937648D01*
X120643479Y-86922396D01*
X120598324Y-86801946D01*
X120589786Y-86786351D01*
X120513285Y-86684276D01*
X120500724Y-86671715D01*
X120398649Y-86595214D01*
X120383054Y-86586676D01*
X120262606Y-86541522D01*
X120247351Y-86537895D01*
X120196486Y-86532369D01*
X120189672Y-86532000D01*
X119567115Y-86532000D01*
X119551876Y-86536475D01*
X119550671Y-86537865D01*
X119549000Y-86545548D01*
X119549000Y-87617885D01*
X119041000Y-87617885D01*
X119041000Y-86550116D01*
X119036525Y-86534877D01*
X119035135Y-86533672D01*
X119027452Y-86532001D01*
X118400331Y-86532001D01*
X118393510Y-86532371D01*
X118342648Y-86537895D01*
X118327396Y-86541521D01*
X118206946Y-86586676D01*
X118191351Y-86595214D01*
X118089276Y-86671715D01*
X118076715Y-86684276D01*
X118000214Y-86786351D01*
X117991676Y-86801946D01*
X117953907Y-86902694D01*
X117911265Y-86959458D01*
X117844704Y-86984158D01*
X117775355Y-86968950D01*
X117725237Y-86918664D01*
X117709926Y-86858107D01*
X117710419Y-86684276D01*
X117715932Y-84737941D01*
X117719151Y-83601831D01*
X117720376Y-83584654D01*
X117723250Y-83564199D01*
X117724500Y-83555305D01*
X117723204Y-83546421D01*
X117723186Y-83539588D01*
X117725297Y-83516291D01*
X117725401Y-83515730D01*
X117743809Y-83469779D01*
X117748542Y-83462535D01*
X117783253Y-83427205D01*
X117786732Y-83424843D01*
X117790413Y-83422344D01*
X117836100Y-83403115D01*
X117837572Y-83402816D01*
X117858271Y-83400834D01*
X117863051Y-83401564D01*
X117883746Y-83398800D01*
X117893616Y-83397482D01*
X117910323Y-83396373D01*
X129424998Y-83398800D01*
G37*
%TD.AperFunction*%
%TD*%
M02*
