%FSLAX45Y45*%
G04 Gerber Fmt 4.5, Leading zero omitted, Abs format (unit mm)*
G04 Created by KiCad (PCBNEW (6.0.1)) date 2023-03-07 00:33:59*
%MOMM*%
%LPD*%
G01*
G04 APERTURE LIST*
%TA.AperFunction,Profile*%
%ADD10C,0.100000*%
%TD*%
%ADD11C,0.200000*%
G04 APERTURE END LIST*
D10*
X11786790Y-8288836D02*
G75*
G03*
X11721128Y-8355665I182J-65852D01*
G01*
X11716673Y-9928333D02*
G75*
G03*
X11783665Y-9995333I66014J-985D01*
G01*
X13347333Y-9995327D02*
G75*
G03*
X13414333Y-9928335I985J66014D01*
G01*
X13406662Y-8356164D02*
G75*
G03*
X13339670Y-8289164I-66014J986D01*
G01*
X11786790Y-8288836D02*
X13339670Y-8289164D01*
X11716673Y-9928333D02*
X11721128Y-8355665D01*
X13347333Y-9995327D02*
X11783665Y-9995333D01*
X13406663Y-8356164D02*
X13414333Y-9928335D01*
D11*
X11969284Y-10310816D02*
X11969284Y-10110816D01*
X12016903Y-10110816D01*
X12045475Y-10120340D01*
X12064522Y-10139388D01*
X12074046Y-10158435D01*
X12083570Y-10196530D01*
X12083570Y-10225102D01*
X12074046Y-10263197D01*
X12064522Y-10282245D01*
X12045475Y-10301292D01*
X12016903Y-10310816D01*
X11969284Y-10310816D01*
X12169284Y-10310816D02*
X12169284Y-10177483D01*
X12169284Y-10215578D02*
X12178808Y-10196530D01*
X12188332Y-10187007D01*
X12207379Y-10177483D01*
X12226427Y-10177483D01*
X12293094Y-10310816D02*
X12293094Y-10177483D01*
X12293094Y-10110816D02*
X12283570Y-10120340D01*
X12293094Y-10129864D01*
X12302618Y-10120340D01*
X12293094Y-10110816D01*
X12293094Y-10129864D01*
X12416903Y-10310816D02*
X12397856Y-10301292D01*
X12388332Y-10282245D01*
X12388332Y-10110816D01*
X12521665Y-10310816D02*
X12502618Y-10301292D01*
X12493094Y-10282245D01*
X12493094Y-10110816D01*
X12750237Y-10310816D02*
X12750237Y-10110816D01*
X12816903Y-10253673D01*
X12883570Y-10110816D01*
X12883570Y-10310816D01*
X13064522Y-10310816D02*
X13064522Y-10206054D01*
X13054999Y-10187007D01*
X13035951Y-10177483D01*
X12997856Y-10177483D01*
X12978808Y-10187007D01*
X13064522Y-10301292D02*
X13045475Y-10310816D01*
X12997856Y-10310816D01*
X12978808Y-10301292D01*
X12969284Y-10282245D01*
X12969284Y-10263197D01*
X12978808Y-10244149D01*
X12997856Y-10234626D01*
X13045475Y-10234626D01*
X13064522Y-10225102D01*
X13159760Y-10177483D02*
X13159760Y-10377483D01*
X13159760Y-10187007D02*
X13178808Y-10177483D01*
X13216903Y-10177483D01*
X13235951Y-10187007D01*
X13245475Y-10196530D01*
X13254999Y-10215578D01*
X13254999Y-10272721D01*
X13245475Y-10291768D01*
X13235951Y-10301292D01*
X13216903Y-10310816D01*
X13178808Y-10310816D01*
X13159760Y-10301292D01*
X13340713Y-10291768D02*
X13350237Y-10301292D01*
X13340713Y-10310816D01*
X13331189Y-10301292D01*
X13340713Y-10291768D01*
X13340713Y-10310816D01*
X13340713Y-10187007D02*
X13350237Y-10196530D01*
X13340713Y-10206054D01*
X13331189Y-10196530D01*
X13340713Y-10187007D01*
X13340713Y-10206054D01*
M02*
